<svg id="Layer_1" data-name="Layer 1" xmlns="http://www.w3.org/2000/svg" viewBox="0 0 313.95 123.61"><defs><style>.cls-1{fill:#a68d34;}.cls-2{fill:#9a863e;}.cls-3{fill:#8d8044;}.cls-4{fill:#80734c;}.cls-5{fill:#736c42;}.cls-6{fill:#3d2e16;}.cls-7{fill:#786127;}.cls-8{fill:#453619;}</style></defs><title>bird</title><path class="cls-1" d="M77.08,156.57c68.11,11.52,136.07,3,204.07-1.36a197.15,197.15,0,0,1,31.12.39C326.78,157,329.16,161,325.38,175c5.52,1.43,10.13-1.52,14.67-3.43,8.23-3.46,15.58-5.42,20.23,4.91,2.38,1.54,4.54,3.56,2.61,6.4-2.05,3-5.3,1.92-8.21,1H338.77c1.11,5,5.63,3.87,8.3,5.56,5.28,3.32,10.39,7.27,10.29,13.78-.12,7.07-5.35,11.11-11.71,13.73-24.36,10-50.3,11.95-76,14.45-45.35,4.4-90.66,8.82-135,19.69-2.23,1.21-4.51,1.26-5.69-1.17-1.47-3,.68-4.8,3-6.29C164.8,229.32,199.36,222.07,235,219c13.89-1.18,28-.79,41.65-4.52,7-1.92,10.87-5.58,11.36-13.41-6.11-1.09-5.7,8.65-12.54,5.55,5.58-5.24,4.56-8.4-3.31-8.37-2.11.49-3.17,3.8-6,2.26l.19.09c-8.47-6-18.2-3.45-27.46-3.88-7.54-.35-10.17-2.35-3.68-8.53a1.55,1.55,0,0,1,1.72-.21c8.65-1,17.09-3.29,25.73-4.19,12.2,5.35,23.86-2.16,35.31-1.51,2.16-.15-.19-2,.56-.55-8.24.71-16.23,2.89-24.4,4-7,.84-5.09-8.24-10.36-9.33-18.86-5.16-38-1.11-56.93-1.1-36.74,0-73.18-3.64-109.66-6.84-6.92-.61-13.57-4.41-20.34-6.73-1.83-.93-3.45-2.14-2.66-4.46C74.59,156,75.93,156.17,77.08,156.57Z" transform="translate(-64.79 -151.79)"/><path class="cls-2" d="M235.18,188.23c-2.47,4.76-1.73,7.52,4.35,7.32,5.53-.18,11-.27,16.53-1.34,4.3-.83,8.41,1.76,10.26,6.43-45-4.29-88.46,1-130.35,19.27.91-7.89,9-10,15.19-14.41-3.67-5-11.38-4.44-13.87-11.57C171.26,205.51,203.1,195.15,235.18,188.23Z" transform="translate(-64.79 -151.79)"/><path class="cls-3" d="M131.87,243.61c-1.82,3.47-3.1,6.75,2.71,7.46-19.38,5.37-37,14.77-54.6,24.33A155.55,155.55,0,0,1,131.87,243.61Z" transform="translate(-64.79 -151.79)"/><path class="cls-2" d="M264.6,186.13c-9.37-1.47-18.27,4.08-27.7,1.89,7.42-3.6,15.66-4,23.48-6,2.94-.76,7-.81,3.36-5.56,5.87-1.18,5.64,4.18,7.64,7.15C270.8,188.91,267.49,187,264.6,186.13Z" transform="translate(-64.79 -151.79)"/><path class="cls-4" d="M354.68,183.86c4.48-.51,9.41-.67,5.6-7.43l18.46,8.93A48.76,48.76,0,0,1,354.68,183.86Z" transform="translate(-64.79 -151.79)"/><path class="cls-2" d="M266.13,200.55l6-2.26c-.81,1.77-1.5,3.61-2.45,5.3-1.52,2.7-3,5.8-6.86,5.14-1.27-.21-3.28-1.73-3.28-2.64C259.57,202,265,203.69,266.13,200.55Z" transform="translate(-64.79 -151.79)"/><path class="cls-5" d="M77.08,156.57c-2.91,1.58-1.15,3.41-.27,5.2-6.06-.47-9-4.51-12-10A20.47,20.47,0,0,1,77.08,156.57Z" transform="translate(-64.79 -151.79)"/><path class="cls-6" d="M335.53,216c4-8.24,15.86-11.42,7.15-23.36,7.7,2.43,11.4,5.35,9.94,10.77C350.57,211,344.32,214,335.53,216Z" transform="translate(-64.79 -151.79)"/><path class="cls-7" d="M264.6,186.13c2.51-.2,5.09-.19,6.78-2.54,10.49.52,20.68-4.82,31.38-1.12C289.8,181.55,278.1,192.14,264.6,186.13Z" transform="translate(-64.79 -151.79)"/><path class="cls-8" d="M313,175.6c4.13-4.83,4.93-9.61,2.53-14.87,5.51.11,8.25,2.38,7.75,6.46C322.68,171.73,319.83,175,313,175.6Z" transform="translate(-64.79 -151.79)"/></svg>