<svg id="Layer_1" data-name="Layer 1" xmlns="http://www.w3.org/2000/svg" viewBox="0 0 369.85 60.57"><defs><style>.cls-1{fill:#a68d33;}.cls-2{fill:#302817;}.cls-3{fill:#41371d;}.cls-4{fill:#4e4936;}.cls-5{fill:#7d7547;}.cls-6{fill:#82773f;}.cls-7{fill:#7e723a;}.cls-8{fill:#625e47;}.cls-9{fill:#8d7e4b;}.cls-10{fill:#4f3e1a;}.cls-11{fill:#614c25;}.cls-12{fill:#9b8646;}.cls-13{fill:#010101;}.cls-14{fill:#604922;}.cls-15{fill:#52401c;}.cls-16{fill:#4f3d1b;}.cls-17{fill:#53401c;}.cls-18{fill:#5a461c;}.cls-19{fill:#58461e;}.cls-20{fill:#695422;}.cls-21{fill:#958642;}.cls-22{fill:#a18b43;}.cls-23{fill:#99873d;}.cls-24{fill:#9a8e43;}.cls-25{fill:#9b8d44;}.cls-26{fill:#9b8c41;}.cls-27{fill:#9a8744;}</style></defs><title>land</title><path class="cls-1" d="M137.15,272.82c7.38,6.36,16,9.83,25.43,12.24,16.37,4.18,33,5.43,49.72,6.59,10.87.75,21.76.26,32.62-.3a8.13,8.13,0,0,0,4.65-1.56,29.39,29.39,0,0,1,15.06-7.22c5.16-.74,6.41-3.81,7.49-7.83.41-1.56.29-3.37,1.68-4.59,4.51,5.26,4.51,5.26,2.43,11.06,2.61-.17,3.24-2.27,4.36-3.66s2.15-2.91,3.48-4.73l5.43,9.82c.51,1.48.56,2.69-1.54,2.62l-4.77-1.07c-6.24-1.35-13.47,3.74-15.06,10.59-1.72,2-4.22,2.25-6.51,2.68-3.44.64-7,.16-10.49.32s-6.65,2.49-9,1.82c1.52.25,4.39-.89,7.22-.11,1.43.39,3.11,1,3.13,2.67s-1.74,2.27-3.19,2.4c-6.79.61-13.6,0-20.36-.46a109.55,109.55,0,0,1-16.81-2.53c7.45,1.64,15.07,2.27,22.55,3.79a2.9,2.9,0,0,1,1.59,2.85,4,4,0,0,1-3,1.69A20.9,20.9,0,0,1,245,310c3.19.57,6.95-1.14,9.38,2.39.33,4.66-3.11,6.33-6.54,6.75q-14.3,1.75-28.75,2.28c-.73.11.4.78.07.12-.15-.29,0-.37.36-.4,11.92-.88,23.85-.25,35.77,0,2.55.06,6.75-1,6.93,2.27.12,2.37-4.22,1.59-6.61,2.13-4.37,1-8.73-.35-13.08.09-.73.16,0,1.31-.13.59,0-.21,0-.36.19-.35,8.91.55,17.83-1.58,26.73,0,9.38,4.43,19.26.24,30.23,1.77-22,2.52-42.5,4-63.27,2.29-16-1.29-32.1-1.05-48.15-1.8s-31.92-1.79-47.87-2.91c-5.14-.37-9.76,2.2-15.17,1.22-20.72-3.75-41.9-3.57-62.73-6.65-6.51-1-12.94.28-19.35,1.6-4.94,1-9.89-.23-14.81-.9V279.44c3.87,1.27,6.76.82,7.78-3.88.69-3.2,3.3-3.12,5.73-2.5a11,11,0,0,0,7.53-.24,2.61,2.61,0,0,1,2.4.08,18.72,18.72,0,0,0,12.85-1.38c2.78-1.31,5.78-1.93,8.51-.51,5.22,2.71,11,4,16.07,7.1,2.41,1.38,3.22,3.21,2.09,6a3.26,3.26,0,0,0,1.35,4.34,2.63,2.63,0,0,0,3.45-.77c1.24-1.35,1.76-3,.56-4.5-1.77-2.13-2.26-4.09-.38-6.33,4.08-5.26,7.74-6.62,13.92-4.33,4.25,1.57,7.76,2.08,11.82-.92,4.37-3.24,8.35.29,12.21,2.2C135.83,275.85,135.6,271.38,137.15,272.82Z" transform="translate(-28.22 -270.15)"/><path class="cls-2" d="M234.91,306.24c-9.19-.22-18-2.42-26.66-5.34,14.45,1,28.82,2.68,43.4,1.5-4.89-2.7-10.65-1-15.75-3.28,7,.2,13.17-3.9,20.29-3,4,.51,8.12.49,11.94-1.35a3.15,3.15,0,0,1-2,2.33c-.56.23-1.74,0-1.4,1.12.3,1,1.32,1.1,2.24,1.17.66,2.7-1.78,1.71-2.83,2.38,2.4.46,2.43,1.77,1.25,3.51,2.23,2.35.25,2.67-1.49,3.12-1.65-.64-3.52-.31-5.15-1.12-5.47.14-10.92.52-16.39.43C239.74,307.68,237.2,307.67,234.91,306.24Z" transform="translate(-28.22 -270.15)"/><path class="cls-3" d="M269.34,325.94c-9.54.37-19.1,2.27-29.12-.64l21.48-1.64c0-.59,0-1.18,0-1.77H215.33l.08-1.43c9.4-1.07,18.83-1,28.28-3,4.36-.9,7.83-.81,10.32-4.72,1.61-1.2,3.11-1.42,4.37.49.23.88.8,1.83.64,2.63-.64,3-.56,3.5,2.28,2.95s3.78-.59,2.81,2.75C262.71,326.39,268,324,269.34,325.94Z" transform="translate(-28.22 -270.15)"/><path class="cls-4" d="M302.65,292.81c13.09,4,26.5,3.58,39.94,2.82,9.87-.55,34.57-7.77,44.05-10.89-6.58,4.24-29.05,11.75-36.38,12.07-16,.7-32.1,1.82-48-1.8a9.31,9.31,0,0,1-2-.95C300.74,293,302.1,293.62,302.65,292.81Z" transform="translate(-28.22 -270.15)"/><path class="cls-5" d="M302.65,292.81c-.4,1.1-1.4,1.09-2.31,1.25-4.82-2-8.72-5.21-12.38-8.8a3.17,3.17,0,0,0,1.54-2.62C292.54,287.77,297.7,290.15,302.65,292.81Z" transform="translate(-28.22 -270.15)"/><path class="cls-6" d="M265.35,305.29c.42-4.52-3.63-1.37-5-2.89,1.42-2.66,4.93-.78,6.55-3,1.6-1.18,3.3-1.36,5.54-.39Z" transform="translate(-28.22 -270.15)"/><path class="cls-7" d="M258,282.52c.93-2.69,1.59-4.72,2.33-6.72.41-1.11.66-3,2.32-2.12s2.93,2.63,1.58,4.53A9.18,9.18,0,0,1,258,282.52Z" transform="translate(-28.22 -270.15)"/><path class="cls-8" d="M258.38,313.22l-4.37-.49c-3.18-2.21-6.84-.52-10.21-1.25.74-2.93,3.22-2.26,5.2-2.43s3.92-.05,5.88-.07c2.33.08,4.91-.85,6.71,1.55A4,4,0,0,1,258.38,313.22Z" transform="translate(-28.22 -270.15)"/><path class="cls-9" d="M398.07,284.71c-3.75.07-7.51-1.73-11.43,0a22.54,22.54,0,0,1,11.4-4.53" transform="translate(-28.22 -270.15)"/><path class="cls-3" d="M261.59,310.53l-5.7-.09a2.73,2.73,0,0,1-.44-2.61c1.36-2,3-1.74,4.81-.66,1.53-.55,3.26-1.68,3.6,1.24Z" transform="translate(-28.22 -270.15)"/><path class="cls-10" d="M110.47,289.43c-3.38.79-6.55-.07-8.12-3-.7-1.3.51-3.88,2.25-5.3,1-.84,2.21-1.95,3.41-1.1,4.84,3.44,11.18,3,16.91,6.47-5.31,1.41-11.61-5.4-14.49,2.95Z" transform="translate(-28.22 -270.15)"/><path class="cls-11" d="M89.2,279.63a17.1,17.1,0,0,1,7.73-1.45c-1,1.19-1.4,2,.26,3.32,2.56,2.06,2.32,4.76.18,7.19-1.63,1.87-3.63,2.54-5.82,1.08-2.48-1.67-3.17-4.19-1.64-6.66C91,281.36,90.48,280.57,89.2,279.63Z" transform="translate(-28.22 -270.15)"/><path class="cls-12" d="M260.26,307.17c-1.51,0-3.07-.16-4.29,1a30,30,0,0,1-19.92.23l-1.14-2.2c7.47-.68,15,.59,22.45-1A2.47,2.47,0,0,1,260.26,307.17Z" transform="translate(-28.22 -270.15)"/><path class="cls-13" d="M212.41,314.24c10.81-3,19.77-2.75,28.9.5C231.7,313.47,222.06,314.26,212.41,314.24Z" transform="translate(-28.22 -270.15)"/><path class="cls-14" d="M70.21,281.05c4.42-.25,7.73-5.95,11.42-.26a3.81,3.81,0,0,1-1.35,5.74C75,289.51,73.57,284.34,70.21,281.05Z" transform="translate(-28.22 -270.15)"/><path class="cls-13" d="M236.05,308.44c6.65,1.24,13.28.13,19.92-.23,0,.74-.05,1.49-.08,2.23-4,.64-8.2-1-12.09,1-4.32-1.57-9-.21-14.87-1.46Z" transform="translate(-28.22 -270.15)"/><path class="cls-15" d="M98.24,301.66c-1.8-.16-3.73.21-5.23-1.22-2-1.92-2.1-4.18-1-6.54a3.78,3.78,0,0,1,5.06-2.1,4.87,4.87,0,0,1,3.45,5.58c-.17,1.81-1.69,2.8-2.33,4.3Z" transform="translate(-28.22 -270.15)"/><path class="cls-16" d="M98.21,301.68c3.51-.69,6.49.15,7.34,3.88a4.6,4.6,0,0,1-2.77,5c-1.59.77-3.1,1-4.61-.31s-2.75-3.13-2-5.34a16.53,16.53,0,0,1,2-3.25Z" transform="translate(-28.22 -270.15)"/><path class="cls-17" d="M110.43,289.46c1.46,0,2.94-.25,4.32.54,2.56,1.46,3,3.8,2.09,6.2-.81,2.19-2.62,3.78-5.2,3s-3.67-2.79-3.56-5.54c.07-1.9,1.59-2.83,2.39-4.24Z" transform="translate(-28.22 -270.15)"/><path class="cls-18" d="M78,299.9c-2.33-.28-4.09-1.37-4.26-4-.19-3,1.19-5.1,4.3-5.27,2.86-.16,4.44,1.7,4.51,4.45S80.65,299.26,78,299.9Z" transform="translate(-28.22 -270.15)"/><path class="cls-19" d="M219.72,309.15c-5.77.9-9.63,0-13.27-2C210.56,306.38,214.4,307.24,219.72,309.15Z" transform="translate(-28.22 -270.15)"/><path class="cls-20" d="M131.53,281.92l11.38,3.68C137.77,286.9,134.72,285.56,131.53,281.92Z" transform="translate(-28.22 -270.15)"/><path class="cls-21" d="M110.37,284.65c0,2.25-1.38,3.11-3.18,3.16-1.53.05-2.28-1.2-2.34-2.57-.08-1.86.79-3.32,2.83-3.33A2.61,2.61,0,0,1,110.37,284.65Z" transform="translate(-28.22 -270.15)"/><path class="cls-22" d="M94.11,288.23a2.86,2.86,0,0,1-2.55-3.17,2.17,2.17,0,0,1,2.52-2.27c1.73,0,2.85,1,2.82,2.71S95.67,288,94.11,288.23Z" transform="translate(-28.22 -270.15)"/><path class="cls-23" d="M78,285.47a2.43,2.43,0,0,1-2.64-2.17c-.34-1.57.72-2.37,2.12-2.55a2.31,2.31,0,0,1,2.73,2.06C80.48,284.44,79.26,285,78,285.47Z" transform="translate(-28.22 -270.15)"/><path class="cls-24" d="M98.69,296.45c-.38,1.51-1.11,2.73-2.85,2.82S93.16,298,93,296.53c-.15-1.69,1-2.6,2.76-2.67S98.43,294.77,98.69,296.45Z" transform="translate(-28.22 -270.15)"/><path class="cls-25" d="M103.44,305.69c.22,2.33-1.08,3.16-2.57,3.37-1.83.27-2.64-1.07-2.73-2.7a2.22,2.22,0,0,1,2.19-2.62A2.72,2.72,0,0,1,103.44,305.69Z" transform="translate(-28.22 -270.15)"/><path class="cls-26" d="M109.74,294.09a2.65,2.65,0,0,1,3-2.47,2.75,2.75,0,1,1-.31,5.5C110.62,297,110.15,295.58,109.74,294.09Z" transform="translate(-28.22 -270.15)"/><path class="cls-27" d="M77.91,297.94c-1.35-.59-2.68-1.33-2.54-3A2.35,2.35,0,0,1,78,292.74a2.23,2.23,0,0,1,2.41,2.81A2.54,2.54,0,0,1,77.91,297.94Z" transform="translate(-28.22 -270.15)"/></svg>