<svg id="Layer_1" data-name="Layer 1" xmlns="http://www.w3.org/2000/svg" viewBox="0 0 97.72 146.26"><defs><style>.cls-1{fill:#666044;}</style></defs><title>moon</title><path class="cls-1" d="M191.58,147.94c-17.25,29.37-30.35,59.28-9.94,91.63,12.72,20.15,33.1,28.1,56.53,24.93-23.89.29-41.19-12.45-46-33.28-5-21.79-12.2-44.88-2-68.32,4-9.18,15.43-15.49,11.58-28.68-.7-2.39,7.52-8,13.53-8.78,4.21-.57,8.38.35,10.09,4.72,1.54,4-1.39,6.75-4.46,8.23C203,147,192.7,160.84,192.36,180.86c-.3,17.46.63,34.91,8.6,51.09,12.67,25.73,23.75,30.1,51.32,20,4.13-1.51,9-5.34,11.86.59,2.63,5.4-2.53,7.92-6.3,10.52-26.17,18-69,5.93-83.71-23.69C160.24,211.43,167.55,170.14,191.58,147.94Z" transform="translate(-167.14 -125.29)"/></svg>