<svg id="Layer_1" data-name="Layer 1" xmlns="http://www.w3.org/2000/svg" viewBox="0 0 123.98 112.04"><defs><style>.cls-1{fill:#645d45;}.cls-2{fill:#241e13;}.cls-3{fill:#80744c;}</style></defs><title>star</title><path class="cls-1" d="M180.78,239c7.8-15.44,4.18-27.65-14.76-34.42-4.71-1.69-9.33-6.87-6.52-13.18,2.49-5.61,8.27-7.48,13.85-6.42,22.15,4.2,30.72-8.22,34.72-27.12,1.45-6.86,3.29-15,12-15,9.57.07,11.78,7.9,13.18,16.22,2.86,16.93,11.12,26.51,30.34,21.64,6.47-1.64,15.42-2.65,18.35,5.61,3.18,8.93-5.48,12.76-11.56,14.54-17,5-16.18,14.17-9.95,27.69,3.24,7,9.93,16.77,1.9,23.7-8.29,7.16-16-2.15-22.82-6-15.48-8.67-29.52-14.06-42.28,4-2.68,3.79-7.55,5.87-12.43,3S181.1,245.38,180.78,239Z" transform="translate(-158.64 -142.92)"/><path class="cls-2" d="M167,193.28c26.92,2.19,44.8-5.6,48.38-33.44.3-2.28,3.79-5.38,6.21-5.84,3.28-.61,5.48,2.61,5.51,6,.25,26.09,15.87,32.8,39.38,29.59-2.64,12.66-21.87,8.18-20.39,22.72,1,10.1,9.91,17.7,8.61,32.17-11.64-5.48-22.16-10.58-32.8-15.41C207.17,222.36,203.59,241,188,243,204,216.72,185.74,205.62,167,193.28Z" transform="translate(-158.64 -142.92)"/><path class="cls-3" d="M216.25,212.83c-3.61-.59-7.08-1.37-5.88-5.51,1.75-6,6.68-8.17,12.6-8.11,4.13,0,8.89,1.44,6.61,6.29S221.44,212.25,216.25,212.83Z" transform="translate(-158.64 -142.92)"/></svg>