<svg id="Layer_1" data-name="Layer 1" xmlns="http://www.w3.org/2000/svg" viewBox="0 0 131.32 282.17"><defs><style>.cls-1{fill:#625d3f;}.cls-2{fill:#635f3d;}.cls-3{fill:#80795b;}.cls-4{fill:#020201;}.cls-5{fill:#97883d;}.cls-6{fill:#605d49;}.cls-7{fill:#9a8842;}.cls-8{fill:#666349;}.cls-9{fill:#17140f;}.cls-10{fill:#221d13;}</style></defs><title>tower1</title><path class="cls-1" d="M148.91,358l-2-1.81c17.89-22.64,25.29-49.61,31.26-77,6.7-30.84,10-62.22,13-93.58.57-5.92,4.31-13.82-4.88-17.76-1.78-.76-1.49-3.5-1.05-5.34,2.07-8.7,1.34-17.56,1.22-26.31-.1-6.84,2.37-10.8,9-11,6.12-.18,7.72-3.86,9-8.65,3-10.82,6.12-21.58,9.2-32.39,3.88.23,3.66,3.3,4.29,5.37,2.18,7.07,4.49,14.14,6,21.37,1.57,7.62,3.71,14.15,12.64,15.86,1.89.36,4.58,1.47,4.48,4.2-.48,12.17,1.94,24.47-1.7,36.49-1.26-1.07-2.54-2.13-3-3.81-1-3.7-1.56-7.75-.29-11.17,2.13-5.75-.91-8-5.13-10,1.25-3.5,6.69-6.08,2.34-10.8-15-5.48-13.18-20.72-18.64-33-2.38,7.21-4,13.53-5.81,19.77-1.65,5.68-4.66,10.13-10.6,11.55-4.19,1-5.87,3.31-6.32,7.4-1.17,10.55-4.06,21.18,3.8,30.7,2,2.37,1.7,5.8,1.41,8.82-4.33,45.21-8.87,90.41-22.13,134.12-4.32,14.22-9.81,28.09-18.29,40.5C154.82,354.35,153.29,358,148.91,358Z" transform="translate(-146.94 -84.12)"/><path class="cls-2" d="M277.65,356.17c-3.85,2.2,1.84,3.85.35,5.95-1.94.21-2.92-1-3.7-2.46a146.91,146.91,0,0,1-28.18-53.54,377.84,377.84,0,0,1-14-87.67c-.27-7.38-2.72-14.66-.9-22.13,1-2.52,1-5.52,3.59-7.28,2.27,3.52,1.3,7.47,1.38,11.23A457.34,457.34,0,0,0,250.47,303.2C255.47,322.93,266.39,339.64,277.65,356.17Z" transform="translate(-146.94 -84.12)"/><path class="cls-3" d="M234.83,189c-.69,2.2.4,4.81-1.57,6.71-5.37-9.21-3.26-18.92-1.56-28.46.47-2.63,3-4.7,6.35-2.81l1.41,2.93c-3.71,0-5.06,1.76-4.82,5.54C235,178.29,234.79,183.68,234.83,189Z" transform="translate(-146.94 -84.12)"/><path class="cls-4" d="M206.34,366.29c-8-4.86-17.47-6.06-25.49-10.92-3.1-1.88-6.58-1.1-10.11.81-6.85,3.7-14.27,4.72-21.83,1.8,12-13.42,18.18-29.94,23.64-46.61,9.67-29.54,13.77-60.25,17.62-91,1.66-13.31,3.32-26.63,4.32-40,.41-5.44,3.3-12.42-5.12-15.42-.75-.26-.88-3-.86-4.57.14-8.22-.14-16.4,1.22-24.63.76-4.6,2.12-7.12,6.67-7.62,6.46-.72,9.15-4.61,10.52-10.72,1.89-8.42,4.73-16.64,7.64-26.57,7.41,14.82,4.47,33.45,21.83,40.81-4.19,1.91-7,4.57-5.15,9.68,7.67.72,9.36,4.58,7.07,11.74-1.11,3.46-.24,7.55-.26,11.36-3.9.56-5.46,2.57-5.24,6.7.42,8.18.33,16.38.45,24.57,2.12,47.12,5.45,94,26.3,137.54,4.36,9.1,12,16.38,14.74,26.36-2.93.11-5.12-1.43-7.41-3-3.65-2.53-8.22-3.52-11.23-.08-5.46,6.25-10.88,4.57-17,1.73-8-3.72-17.49-2.95-20.86,5.87" transform="translate(-146.94 -84.12)"/><path class="cls-5" d="M231.24,141.38c-4.68-1.11-3.9-5-3-7.71,1.35-4,5.13-2.39,8.15-2C238.61,137,239,141.37,231.24,141.38Z" transform="translate(-146.94 -84.12)"/><path class="cls-6" d="M209.1,339.72c-6.35-.32-10.6-3-10.62-9.26,0-6.06,4.39-9.24,9.88-10.21,5-.88,10.12,4.18,10,9.44C218.17,335.84,214.66,339,209.1,339.72Z" transform="translate(-146.94 -84.12)"/><path class="cls-7" d="M201.8,137.36c.62,4.42-1.57,5.84-5.66,5.93s-4.25-2-4.36-5.2c-.16-4.49,2.4-5.36,6.07-5.88C202.65,131.54,201.5,134.92,201.8,137.36Z" transform="translate(-146.94 -84.12)"/><path class="cls-8" d="M206.5,349.49c3.25-3.3,6.64-2.59,9,.64a5.67,5.67,0,0,1-1.05,8.16c-2.81,2.09-6.4,2.5-9-.25-2.78-2.93-3.5-6.27,1.1-8.59,1,.92,1.65,2.09,2.92,3.45C208.67,351.13,207.37,350.5,206.5,349.49Z" transform="translate(-146.94 -84.12)"/><path class="cls-9" d="M216.29,330c-.89,4.44-3.94,7.11-8,7.13-4.19,0-7.32-2.64-6.72-7.48.55-4.46,3.34-6.82,7.9-6.52C213.72,323.42,215.8,326,216.29,330Z" transform="translate(-146.94 -84.12)"/><path class="cls-10" d="M206.5,349.49a28.41,28.41,0,0,1,4,.22c2.35.44,2.86,2.21,2.58,4.28-.24,1.76-1.2,3.08-3.07,3.15-2.4.09-3.24-1.64-3.48-3.65a36.28,36.28,0,0,1,0-4Z" transform="translate(-146.94 -84.12)"/></svg>