<svg id="Layer_1" data-name="Layer 1" xmlns="http://www.w3.org/2000/svg" viewBox="0 0 138.09 324.81"><defs><style>.cls-1{fill:#a68d33;}.cls-2{fill:#8d7f59;}.cls-3{fill:#8d7e4b;}.cls-4{fill:#2f2814;}.cls-5{fill:#5c4f26;}.cls-6{fill:#53441d;}.cls-7{fill:#6b5523;}.cls-8{fill:#796329;}.cls-9{fill:#796932;}.cls-10{fill:#7e672a;}.cls-11{fill:#3c3013;}.cls-12{fill:#48391b;}.cls-13{fill:#4a3d1b;}.cls-14{fill:#7c6628;}.cls-15{fill:#5c4c22;}.cls-16{fill:#7a6428;}.cls-17{fill:#887c4f;}.cls-18{fill:#4c3c18;}.cls-19{fill:#776026;}.cls-20{fill:#5c461c;}</style></defs><title>tower2</title><path class="cls-1" d="M201.32,358.17c-3.8,5-7.18,6.14-12,.5-4.65-5.44-11.69-5-18.28-4.53-6.23.43-12.47,1.4-18.64-.49-8.68-2.37-2.43-4.83-.05-7.27,18.37-23.94,22.61-52.49,27.22-81.17,8-49.82,10.59-100.24,17.17-150.22A324,324,0,0,0,198,45.34c7.43,8.07,7.68,17.46,10.75,26.8,7.3-10.55,4.82-22.83,9.34-34.53,4.1,12,2.92,23.84,10.08,35.59,2.36-9.59,4.29-17.42,6.2-25.14,2,.14,2.43,1.12,2.46,2.43.63,26.29.8,52.6,2,78.86,1.72,36.61,4.58,73.16,6.29,109.77,1.13,23.91,4.29,47.54,7.75,71.17,2.33,15.94,6.29,31,19.09,42-.32.53-.39.8-.56.9-8.76,5.07-17.11,4-25.69-.93-2.65-1.53-4.61,1.91-6.37,3.88-3.09,3.71-6.76,4.71-11.15,2.42-1.93-1.17-2.8-3.07-3.49-5.09a18.4,18.4,0,0,1-.61-2.32,21,21,0,0,0-1.34-4.37c-.83-2.51-3.53-3.72-4.38-6.22,0-2.44-3-3-3.39-5.18,3.63-3.66,6-7.9,6-13.22,1.14-4.62,1.23-9.35,1.63-14.06.37-4.35-1.19-7.46-4.47-9,9.49,6.75,1.88,15.35,1.36,23.35-3.7,3.72-10.87,5-8.68,12.74-1.71,2.19,2,2.23,1.58,3.91-1.11,4.95-6,3.68-9.19,5.44-1,.07.08,1.6-.14.42-.07-.39.17-.49.63-.62,2.12-.59,4-.71,5,1.81-.23,1.92-2.54,2.54-2.75,4.47a12.79,12.79,0,0,1-.17,2c-.43,1.84-1.79,2.91-3.25,3.89A4.3,4.3,0,0,0,201.32,358.17Z" transform="translate(-133.93 -37.61)"/><path class="cls-2" d="M201.32,358.17l0-2.42c9-2.37,18.15-5.7,26.49,1.86,4,.75,8,1,11.56-1.48-1.71,5.22-6,5.79-10.05,4.35C220.13,357.24,210.72,358.15,201.32,358.17Z" transform="translate(-133.93 -37.61)"/><path class="cls-3" d="M133.93,353.71a36.42,36.42,0,0,1,18.42-7.33c-1.4,2.44-4.38,4.88.05,7.27-6.06.12-12.14-2.79-18.47.06" transform="translate(-133.93 -37.61)"/><path class="cls-4" d="M217.08,237.48c2.29.3,5.93.24,4.34,3.53-2.31,4.82,1.33,14.27-6.94,13.9-5.3-.24-2.86-8.38-3.9-12.89C209.34,236.65,214.48,238.46,217.08,237.48Z" transform="translate(-133.93 -37.61)"/><path class="cls-5" d="M210.12,336.19c-3.52-7.74-1.52-11,8.63-14.2,1.33-1.35,2.7-1.2,4.09-.1-1,5.39,3,13.3-7.19,14C213.92,337.82,212,337.42,210.12,336.19Z" transform="translate(-133.93 -37.61)"/><path class="cls-6" d="M222.84,321.89l-4.09.1c-.77-.74-4.74.11-2.31-1.54,3.34-2.27,2.9-5,3.31-7.63,1.81-11.68,1.46-12-9.93-13.24,6.42-4.71,12.73-2.84,14.12,4.94C225,310.19,225.79,316.28,222.84,321.89Z" transform="translate(-133.93 -37.61)"/><path class="cls-7" d="M194.29,311c1.7,16.87-3.07,34.27-11.78,42C189.37,338.42,191,324.45,194.29,311Z" transform="translate(-133.93 -37.61)"/><path class="cls-8" d="M232.13,286.34c-5.76-13.48-2.35-27.77-3.76-41.64C233.34,258.25,230.41,272.5,232.13,286.34Z" transform="translate(-133.93 -37.61)"/><path class="cls-9" d="M208.12,346.74c-1.11-2.3-3.85-1-5.44-2.41,1.95-3.6,7.47-1.89,9-6.06a6.36,6.36,0,0,1,7.52,1.63c2.59,1.72,6.11,2.74,5.28,7C219,350.68,213.54,348.93,208.12,346.74Z" transform="translate(-133.93 -37.61)"/><path class="cls-10" d="M201.44,248.19c-.66-12-.81-21.84,3.39-31.29C203,226.59,207,236.69,201.44,248.19Z" transform="translate(-133.93 -37.61)"/><path class="cls-11" d="M227.84,357.61c-8.61-3.82-17.69-.9-26.49-1.86l3.67-3.07c7-4.51,14-4.2,21.1-.16C227.16,354.06,228.28,355.57,227.84,357.61Z" transform="translate(-133.93 -37.61)"/><path class="cls-12" d="M208.12,346.74c5.47-1.78,10.88.64,16.33.18.46,1.06.91,2.11,1.36,3.17-7.05.4-14.07,2.19-21.17.5-1.26-.42-3.49-.54-2.64-2.34C203.18,345.77,206.09,347.45,208.12,346.74Z" transform="translate(-133.93 -37.61)"/><path class="cls-13" d="M206.82,302.33c5.62,6.16-1.82,13.73,5.07,19C203.73,320,202.76,315.9,206.82,302.33Z" transform="translate(-133.93 -37.61)"/><path class="cls-14" d="M228.88,217.66c-2.68-7.25-3.9-14.27,0-21.63Z" transform="translate(-133.93 -37.61)"/><path class="cls-15" d="M217,197c-2.07-1.41-1.94-3.31-2-5-.1-3.13-2.82-6.23-.22-9.34a2.4,2.4,0,0,1,2.29-.45c3.36,2.71,1.57,6.56,1.93,9.93C219.19,193.71,219.76,195.76,217,197Z" transform="translate(-133.93 -37.61)"/><path class="cls-16" d="M241,342.18c-4.87-5.1-3.51-11.6-4.53-17.6C242.21,329.35,239.59,336.28,241,342.18Z" transform="translate(-133.93 -37.61)"/><path class="cls-17" d="M204.64,350.59c7.06,0,14.05-3,21.17-.5.1.81.21,1.62.31,2.43l-21.1.16C204.89,352,204.76,351.29,204.64,350.59Z" transform="translate(-133.93 -37.61)"/><path class="cls-18" d="M219.17,339.9l-7.52-1.63c-.74-.53-3.26.26-1.53-2.08l5.53-.32c2.07.61,5.15-1.25,6,2.09C222,339.2,220.33,339.63,219.17,339.9Z" transform="translate(-133.93 -37.61)"/><path class="cls-19" d="M198.67,285.91c.74,5.35,1.85,9.28-3.68,12.93C196.07,294.25,194.64,290.52,198.67,285.91Z" transform="translate(-133.93 -37.61)"/><path class="cls-20" d="M220.35,128.21c.09,2-.78,3.13-2.46,3s-2.41-1.45-2.38-3c0-1.36-.26-3.23,1.78-3.26S220,126.7,220.35,128.21Z" transform="translate(-133.93 -37.61)"/></svg>