<?xml version="1.0" encoding="utf-8"?>
<!-- Generator: Adobe Illustrator 23.1.1, SVG Export Plug-In . SVG Version: 6.00 Build 0)  -->
<svg version="1.1" id="Layer_1" xmlns="http://www.w3.org/2000/svg" xmlns:xlink="http://www.w3.org/1999/xlink" x="0px" y="0px"
	 viewBox="0 0 792 612" style="enable-background:new 0 0 792 612;" xml:space="preserve">
<style type="text/css">
	.st0{fill:#FFFFFF;stroke:#000000;stroke-miterlimit:10;}
	.st1{fill:#FBFBFB;stroke:#000000;stroke-miterlimit:10;}
	.st2{fill:#171717;stroke:#000000;stroke-width:2;stroke-miterlimit:10;}
	.st3{fill:#FEFEFE;stroke:#000000;stroke-miterlimit:10;}
	.st4{fill:#FDFDFD;stroke:#000000;stroke-miterlimit:10;}
	.st5{fill:#FDFDFC;stroke:#000000;stroke-miterlimit:10;}
	.st6{fill:#FCFCFC;stroke:#000000;stroke-miterlimit:10;}
	.st7{fill:#1E1E1E;stroke:#000000;stroke-width:2;stroke-miterlimit:10;}
	.st8{fill:#171717;stroke:#000000;stroke-miterlimit:10;}
	.st9{fill:#FDFCFC;stroke:#000000;stroke-miterlimit:10;}
	.st10{fill:#FBFAFA;stroke:#000000;stroke-miterlimit:10;}
	.st11{fill:#191919;stroke:#000000;stroke-width:2;stroke-miterlimit:10;}
	.st12{fill:#FCFCFB;stroke:#000000;stroke-miterlimit:10;}
	.st13{fill:#1B1B1B;stroke:#000000;stroke-width:2;stroke-miterlimit:10;}
	.st14{fill:#282929;stroke:#000000;stroke-miterlimit:10;}
	.st15{fill:#1C1C1C;stroke:#000000;stroke-miterlimit:10;}
	.st16{fill:#070707;stroke:#000000;stroke-miterlimit:10;}
	.st17{fill:#202121;stroke:#000000;stroke-miterlimit:10;}
	.st18{fill:#2F3030;stroke:#000000;stroke-miterlimit:10;}
	.st19{fill:#2B2B2B;stroke:#000000;stroke-miterlimit:10;}
	.st20{fill:#222222;stroke:#000000;stroke-width:2;stroke-miterlimit:10;}
	.st21{fill:#232323;stroke:#000000;stroke-miterlimit:10;}
	.st22{fill:#222222;stroke:#000000;stroke-miterlimit:10;}
	.st23{fill:#2A2B2A;stroke:#000000;stroke-miterlimit:10;}
	.st24{fill:#2E2E2E;stroke:#000000;stroke-miterlimit:10;}
	.st25{fill:#242424;stroke:#000000;stroke-miterlimit:10;}
	.st26{fill:#292929;stroke:#000000;stroke-miterlimit:10;}
	.st27{fill:#2A2A2A;stroke:#000000;stroke-miterlimit:10;}
	.st28{fill:#282828;stroke:#000000;stroke-miterlimit:10;}
	.st29{fill:#2D2E2E;stroke:#000000;stroke-miterlimit:10;}
	.st30{fill:#2F2F2F;stroke:#000000;stroke-miterlimit:10;}
	.st31{fill:#303030;stroke:#000000;stroke-miterlimit:10;}
	.st32{fill:#272727;stroke:#000000;stroke-width:2;stroke-miterlimit:10;}
	.st33{fill:#7C7B7B;stroke:#000000;stroke-miterlimit:10;}
	.st34{fill:#262626;stroke:#000000;stroke-miterlimit:10;}
	.st35{fill:#353535;stroke:#000000;stroke-miterlimit:10;}
	.st36{fill:#262727;stroke:#000000;stroke-miterlimit:10;}
	.st37{fill:#2C2C2C;stroke:#000000;stroke-miterlimit:10;}
	.st38{fill:#767575;stroke:#000000;stroke-miterlimit:10;}
	.st39{fill:#4D4D4C;stroke:#000000;stroke-miterlimit:10;}
	.st40{fill:#717070;stroke:#000000;stroke-miterlimit:10;}
	.st41{fill:#313232;stroke:#000000;stroke-miterlimit:10;}
	.st42{fill:#383838;stroke:#000000;stroke-miterlimit:10;}
	.st43{fill:#252525;stroke:#000000;stroke-miterlimit:10;}
	.st44{fill:#343434;stroke:#000000;stroke-miterlimit:10;}
	.st45{fill:#6A6969;stroke:#000000;stroke-miterlimit:10;}
	.st46{fill:#313131;stroke:#000000;stroke-miterlimit:10;}
	.st47{fill:#2D2D2D;stroke:#000000;stroke-miterlimit:10;}
	.st48{fill:#E0E0DF;stroke:#000000;stroke-miterlimit:10;}
	.st49{fill:#6E6E6E;stroke:#000000;stroke-miterlimit:10;}
	.st50{fill:#363737;stroke:#000000;stroke-miterlimit:10;}
	.st51{fill:#2E2F2F;stroke:#000000;stroke-miterlimit:10;}
	.st52{fill:#484948;stroke:#000000;stroke-miterlimit:10;}
	.st53{fill:#464646;stroke:#000000;stroke-miterlimit:10;}
	.st54{fill:#686867;stroke:#000000;stroke-miterlimit:10;}
	.st55{fill:#434343;stroke:#000000;stroke-miterlimit:10;}
	.st56{fill:#272828;stroke:#000000;stroke-miterlimit:10;}
	.st57{fill:#2B2C2C;stroke:#000000;stroke-miterlimit:10;}
	.st58{fill:#505050;stroke:#000000;stroke-miterlimit:10;}
	.st59{fill:#858585;stroke:#000000;stroke-miterlimit:10;}
	.st60{fill:#2A2B2B;stroke:#000000;stroke-miterlimit:10;}
	.st61{fill:#636363;stroke:#000000;stroke-miterlimit:10;}
	.st62{fill:#6E6D6D;stroke:#000000;stroke-miterlimit:10;}
	.st63{fill:#7F7E7E;stroke:#000000;stroke-miterlimit:10;}
	.st64{fill:#6B6A6A;stroke:#000000;stroke-miterlimit:10;}
	.st65{fill:#676766;stroke:#000000;stroke-miterlimit:10;}
	.st66{fill:#5F5F5E;stroke:#000000;stroke-miterlimit:10;}
	.st67{fill:#434343;stroke:#000000;stroke-width:2;stroke-miterlimit:10;}
	.st68{fill:#313231;stroke:#000000;stroke-miterlimit:10;}
	.st69{fill:#626262;stroke:#000000;stroke-miterlimit:10;}
	.st70{fill:#666565;stroke:#000000;stroke-miterlimit:10;}
	.st71{fill:#646463;stroke:#000000;stroke-miterlimit:10;}
	.st72{fill:#6A6A6A;stroke:#000000;stroke-miterlimit:10;}
	.st73{fill:#2B2C2B;stroke:#000000;stroke-miterlimit:10;}
	.st74{fill:#696968;stroke:#000000;stroke-miterlimit:10;}
	.st75{fill:#7D7D7D;stroke:#000000;stroke-miterlimit:10;}
	.st76{fill:#626161;stroke:#000000;stroke-miterlimit:10;}
	.st77{fill:#5A5A59;stroke:#000000;stroke-miterlimit:10;}
	.st78{fill:#4B4B4B;stroke:#000000;stroke-miterlimit:10;}
	.st79{fill:#656464;stroke:#000000;stroke-miterlimit:10;}
	.st80{fill:#515151;stroke:#000000;stroke-miterlimit:10;}
	.st81{fill:#414141;stroke:#000000;stroke-miterlimit:10;}
	.st82{fill:#545353;stroke:#000000;stroke-miterlimit:10;}
	.st83{fill:#484848;stroke:#000000;stroke-miterlimit:10;}
	.st84{fill:#565555;stroke:#000000;stroke-miterlimit:10;}
	.st85{fill:#7F7F7F;stroke:#000000;stroke-miterlimit:10;}
	.st86{fill:#5C5B5B;stroke:#000000;stroke-miterlimit:10;}
	.st87{fill:#3F3F3F;stroke:#000000;stroke-miterlimit:10;}
	.st88{fill:#393939;stroke:#000000;stroke-width:2;stroke-miterlimit:10;}
	.st89{fill:#636362;stroke:#000000;stroke-width:2;stroke-miterlimit:10;}
	.st90{fill:#868585;stroke:#000000;stroke-miterlimit:10;}
	.st91{fill:#6B6B6A;stroke:#000000;stroke-miterlimit:10;}
	.st92{fill:#767676;stroke:#000000;stroke-width:2;stroke-miterlimit:10;}
	.st93{fill:#868686;stroke:#000000;stroke-miterlimit:10;}
	.st94{fill:#606060;stroke:#000000;stroke-miterlimit:10;}
	.st95{fill:#575757;stroke:#000000;stroke-width:2;stroke-miterlimit:10;}
	.st96{fill:#444444;stroke:#000000;stroke-miterlimit:10;}
	.st97{fill:#737373;stroke:#000000;stroke-miterlimit:10;}
	.st98{fill:#717171;stroke:#000000;stroke-miterlimit:10;}
	.st99{fill:#6F6F6E;stroke:#000000;stroke-miterlimit:10;}
	.st100{fill:#797878;stroke:#000000;stroke-miterlimit:10;}
	.st101{fill:#807F7E;stroke:#000000;stroke-miterlimit:10;}
	.st102{fill:#696868;stroke:#000000;stroke-miterlimit:10;}
	.st103{fill:#706F6F;stroke:#000000;stroke-miterlimit:10;}
	.st104{fill:#686767;stroke:#000000;stroke-width:2;stroke-miterlimit:10;}
	.st105{fill:#494949;stroke:#000000;stroke-width:2;stroke-miterlimit:10;}
	.st106{fill:#605F5F;stroke:#000000;stroke-miterlimit:10;}
	.st107{fill:#676666;stroke:#000000;stroke-miterlimit:10;}
	.st108{fill:#757474;stroke:#000000;stroke-miterlimit:10;}
	.st109{fill:#727171;stroke:#000000;stroke-miterlimit:10;}
	.st110{fill:#777676;stroke:#000000;stroke-miterlimit:10;}
	.st111{fill:#4F4F4F;stroke:#000000;stroke-miterlimit:10;}
	.st112{fill:#8A8A8A;stroke:#000000;stroke-miterlimit:10;}
	.st113{fill:#929191;stroke:#000000;stroke-miterlimit:10;}
	.st114{fill:#CAC9C9;stroke:#000000;stroke-miterlimit:10;}
	.st115{fill:#3D3E3E;stroke:#000000;stroke-miterlimit:10;}
	.st116{fill:#575756;stroke:#000000;stroke-width:2;stroke-miterlimit:10;}
	.st117{fill:#545454;stroke:#000000;stroke-miterlimit:10;}
	.st118{fill:#EAE9E8;stroke:#000000;stroke-miterlimit:10;}
	.st119{fill:#474747;stroke:#000000;stroke-width:2;stroke-miterlimit:10;}
	.st120{fill:#838282;stroke:#000000;stroke-miterlimit:10;}
	.st121{fill:#878686;stroke:#000000;stroke-miterlimit:10;}
	.st122{fill:#8D8C8C;stroke:#000000;stroke-miterlimit:10;}
	.st123{fill:#787878;stroke:#000000;stroke-miterlimit:10;}
	.st124{fill:#707070;stroke:#000000;stroke-miterlimit:10;}
	.st125{fill:#8E8E8E;stroke:#000000;stroke-miterlimit:10;}
	.st126{fill:#959495;stroke:#000000;stroke-miterlimit:10;}
	.st127{fill:#5B5B5A;stroke:#000000;stroke-miterlimit:10;}
	.st128{fill:#9A9999;stroke:#000000;stroke-miterlimit:10;}
	.st129{fill:#828282;stroke:#000000;stroke-miterlimit:10;}
	.st130{fill:#838383;stroke:#000000;stroke-miterlimit:10;}
	.st131{fill:#929292;stroke:#000000;stroke-miterlimit:10;}
	.st132{fill:#949494;stroke:#000000;stroke-miterlimit:10;}
	.st133{fill:#7A7A7A;stroke:#000000;stroke-miterlimit:10;}
	.st134{fill:#898888;stroke:#000000;stroke-miterlimit:10;}
	.st135{fill:#8E8D8D;stroke:#000000;stroke-miterlimit:10;}
	.st136{fill:#9B9B9B;stroke:#000000;stroke-miterlimit:10;}
	.st137{fill:#3B3B3B;stroke:#000000;stroke-miterlimit:10;}
	.st138{fill:#807F7F;stroke:#000000;stroke-miterlimit:10;}
	.st139{fill:#A0A0A0;stroke:#000000;stroke-miterlimit:10;}
	.st140{fill:#5E5E5E;stroke:#000000;stroke-miterlimit:10;}
	.st141{fill:#959595;stroke:#000000;stroke-miterlimit:10;}
	.st142{fill:#666665;stroke:#000000;stroke-miterlimit:10;}
	.st143{fill:#8D8D8D;stroke:#000000;stroke-miterlimit:10;}
	.st144{fill:#898988;stroke:#000000;stroke-miterlimit:10;}
	.st145{fill:#818080;stroke:#000000;stroke-miterlimit:10;}
	.st146{fill:#6D6D6D;stroke:#000000;stroke-miterlimit:10;}
	.st147{fill:#A1A1A1;stroke:#000000;stroke-miterlimit:10;}
	.st148{fill:#424242;stroke:#000000;stroke-miterlimit:10;}
	.st149{fill:#9C9C9C;stroke:#000000;stroke-miterlimit:10;}
	.st150{fill:#727272;stroke:#000000;stroke-miterlimit:10;}
	.st151{fill:#313130;stroke:#000000;stroke-miterlimit:10;}
	.st152{fill:#323232;stroke:#000000;stroke-miterlimit:10;}
	.st153{fill:#767676;stroke:#000000;stroke-miterlimit:10;}
	.st154{fill:#585858;stroke:#000000;stroke-miterlimit:10;}
	.st155{fill:#B0AFAF;stroke:#000000;stroke-miterlimit:10;}
	.st156{fill:#F8F8F8;stroke:#000000;stroke-miterlimit:10;}
	.st157{fill:#F0EFEF;stroke:#000000;stroke-miterlimit:10;}
	.st158{fill:#EFEEEE;stroke:#000000;stroke-miterlimit:10;}
	.st159{fill:#DEDEDD;stroke:#000000;stroke-miterlimit:10;}
	.st160{fill:#3D3D3D;stroke:#000000;stroke-miterlimit:10;}
	.st161{fill:#FBFAFA;stroke:#000000;stroke-width:2;stroke-miterlimit:10;}
	.st162{fill:#595959;stroke:#000000;stroke-miterlimit:10;}
	.st163{fill:#F7F7F6;stroke:#000000;stroke-miterlimit:10;}
	.st164{fill:#FBFBFB;stroke:#000000;stroke-width:2;stroke-miterlimit:10;}
	.st165{fill:#A9A8A8;stroke:#000000;stroke-miterlimit:10;}
	.st166{fill:#212121;stroke:#000000;stroke-miterlimit:10;}
	.st167{fill:#454645;stroke:#000000;stroke-miterlimit:10;}
	.st168{fill:#504F4F;stroke:#000000;stroke-miterlimit:10;}
	.st169{fill:#5A5959;stroke:#000000;stroke-miterlimit:10;}
	.st170{fill:#989798;stroke:#000000;stroke-miterlimit:10;}
	.st171{fill:#979797;stroke:#000000;stroke-miterlimit:10;}
</style>
<g>
	<path class="st0" d="M83,270.1c1.8-0.9,3.5-1.9,5.3-2.8c6.7-1.7,13.5-3.3,20.4-4c4.3-0.4,6.6-3.9,9.8-6.1c1.3-0.2,2.4,0.2,3.7,0.3
		c13,2.1,26.3,3,39,6.9c1.3,0.5,2.6,0.9,3.8,1.5c5.7,2.5,5.8,2.8,4.4,8.9c-3,13.2-1.4,25.7,5.1,37.6c0.3,2.5-0.3,4.5-3,5.2
		c-0.9,0.1-1.9-0.5-2.8-0.3c-9.5,2.9-18.8-0.5-28.1-1c-3-0.2-5.9,0.5-8.8,0.5c-13.3,0-26.5-2.4-39.8-2.5c-10.6-0.1-20.8-3-31.4-3.1
		c-1.3,0-2.5-0.2-3.6-0.8c-4.7-2.4-9.9-3.7-15-5.1c-5.3-1.5-6.5-4.2-4.3-9.4c4-5.1,10.2-6.8,15.6-9.6c1.9-1,4.2-1.3,5.1-3.6
		c0.1-0.3,0.3-0.6,0.6-0.7C67.5,278.8,73.5,271,83,270.1z"/>
	<path class="st1" d="M257.9,229.8c0.3-0.3,0.7-0.6,0.9-1c0.4-1.1-0.6-0.8-0.9-0.6c-1.8,0.8-3.5,1.2-4.6-0.9c3-2.5,6.2,0.3,10-0.7
		c-2.9,0.1-5.2,0-7.4-0.5c-1-0.3-2.3-0.5-1.5-2.1c7.3-4.2,15.7-5.7,23.2-9.2c1.6-0.7,3.6-0.4,3.4-3.6c-0.1-1.8,3.8-3,6.4-3.7
		c6.4-1.8,12.8-0.3,19.2-1.4c-2.3,0.5-4.5,0.6-6.8,0.5c-1.5-0.1-3.1,0.3-4.6-1.4c2-1.3,4.1-1.9,6.4-1.8c2.8,0.1,5.6-0.4,8.3-1
		c2.4-0.5,5.4-0.4,6.1-3.9c0.2-0.9,1.3-1.2,2.3-1.4c6.7-1.5,13.2-3.3,20.1-3.4c2.3,0.1,4.5,0,6.4-1.8c1.8-1.8,4.5-2,6.9-1.9
		c4.6,0.3,8.8-0.7,13-2.4c3.9-1.5,7.7,0.6,11.5,0.6c0.7,0,1.6,0.3,1.5,1.3c-0.1,0.9-1,1-1.7,1.3c-3.9,1.2-7.8,1.8-11.8,2.6
		c-13.2,2.8-25.5,7.9-37.6,13.4c-2.6,1.2-5,1.8-8,1.3c-5.1-0.8-10.1,0.8-15.1,2.1c-6.5,1.7-12.7,4-19,6.3c-1.1,0.4-2.3,1.2-2.9,1
		c12.1-3.8,24.3-9.8,37.9-9.5c0.6,1.9-0.6,2.5-1.5,2.9c-11.8,5.3-23.1,11.6-35.4,15.6c-6.4,2-12.9,3.4-19.3,5.1
		C261.3,232,259,232.3,257.9,229.8z"/>
	<path class="st2" d="M257.9,229.8c1.5,1.7,3.4,1,5.2,0.7c16.4-3.3,31.8-9.5,46.7-17c3-1.5,6.1-3,9-4.8
		c-13.9,0.6-26.4,6.5-40.1,10.3c9.2-6.5,30.1-12.3,40.7-11.6c1.4,0.1,2.8,0.2,4.1-0.5c17.1-8.4,35-14.2,53.7-17.7
		c-4.2-0.5-8.2-1.7-12.4-1.3c-0.9,0.3-2,0.8-2-0.9c2-0.5,3.9-1.4,5.9-0.8c7.5,1.9,15.4,1.2,21-3.3c5.5-4.5,10.6-2,15.9-2.4
		c5-0.4,9.3-2.3,13.6-4.6c2.6-1.4,1.6-2.5-0.4-3.4c-2.3-1-4.5-0.8-6.8,0c-2,0.8-4.1,1.7-6.3,1.3c-2.4-0.4-3.6-3.2-2.3-3.8
		c3.3-1.5,4.4-5.6,8.9-5.8c10.5-0.5,19.9,2.5,29.1,7c0.1,0.9-0.5,1.3-1.2,1.5c-2.6,0.5-4.8-1-7.1-1.8c-5.9-2.2-11.9-3.7-18.2-3.3
		c-2.1,0.1-4,0.3-6.1,2.8c5.7-3,10.2-1.4,14.9,0.7c5.1,2.2,10.8,2.8,16.1,4.5c5.6,1.8,11.4,3.1,15.8,7.5c-1,3.4-3.3,1.4-4.8,0.8
		c-7.2-2.9-14.8-4.6-22.2-7.2c-1.6-0.6-3.2-1.3-4.9-0.3c-0.7,0.5-1.2,1.2-1.8,1.8c-1.3,1.1-1,2,0.2,3c2.6,2.1,5.2,4.1,9,3.8
		c3.5-0.3,7-0.1,10.6-0.2c1,0.3,1.9,0.7,1.9,2c-0.3,0.5-0.7,0.7-1.3,0.7c-5.6-0.2-11.1,0.4-16.7-0.3c-3.7,0-7.4-0.1-11.1-0.1
		c-1.4,0.4-2.8,0.9-4-0.4c2.2-3.2,5.7-1,8.6-2c-2-2.1-4.3-2.6-7.1-1.8c-3.5,1.1-7.1,0.5-10.7,0.7c-1.6,0.1-3.6-0.7-4.2,1.8
		c-0.1,0.4-0.4,0.8-0.7,1.1c-4,0-8,0.1-11.6,1.4c2.6-0.5,5.3-1.4,8.2-1c1.1,0.3,2.5,0.2,2.6,1.9c-28.5,2.8-55.3,11.5-80.5,24.8
		c-21.2,11.2-43.5,18.9-67.4,21.8c-14.5,1.8-29.1,2.3-43.7,1.1c-0.1-1.7,0.9-1.3,1.8-0.9c2.2-0.2,4.6,1.1,6.5-0.8l-0.1,0.1
		c3.3,1.7,6.7,0.8,10.1,0.8c10-0.1,19.8-1.4,29.7-2.9C254.1,232.2,256.2,231.5,257.9,229.8z"/>
	<path class="st3" d="M392.9,232.7c0.5,0.3,1,0.6,1.4,0.9c1.5,2.2-0.1,4.5,0.2,6.7c0.5,4.8,2.1,9.2,4.6,13.4c1,1.7,2.4,3.4,1.1,5.5
		c-4.3,6.3-6.8,13-4.7,20.8c0,1.8-1,3.2-1.8,4.7c-1.6,1.9-1.9,6.5-6.3,3.3c-6.6-9-8.8-18.4-2.8-28.6c0.4-0.7,0.6-1.4,0-2.1
		c-2-3-5.2-4.9-6.8-8.2c-3.8-7.6-1.5-14.4,2.5-21.1c0.7-1.2,1.8-2.1,2.3-3.4c-0.6,0.4-0.6,2-2.1,1.2c-0.5-4.3,1.4-6.7,5.6-7.4
		c2,1.9,1.3,4.7,2.3,6.9C389.6,228.1,389.9,231.2,392.9,232.7z"/>
	<path class="st4" d="M517.8,368.3c-0.2-0.8-0.6-1.7-0.7-2.5c0-2.4,0.4-4.8-3.1-5.4c-0.9-0.2-0.6-1.5-0.7-2.4c0.1-0.3,0.2-0.7,0-0.9
		c-8-9.3-8.1-19.6-3.8-30.4c0.9-1.4,1.9-2.8,2.8-4.2c3.5,0.7,2.9,4.3,4.7,6.1c-3.5-5.9-5.4-12.4-5.2-19.5c0.1-4.6,2.4-8.6,3.3-13
		c0.7-1.5,1.3-3.1,2-4.6c2.5,0.5,2.3,3,3.4,4.6c1.4,2.2,2.7,4.5,4.7,6.3c0.5,0.5,1,1,1.4,1.6c0.6,0.9,1,1.9,0.8,3
		c-0.8,5.3,0.7,10.4,0.7,15.6c-0.5,0-1,0-1.6,0c-6.2,7.1-7.5,15.3-5.1,24.2c0.3,1.3,2.1,2.7-0.2,3.9c-0.2,0.2-0.3,0.4-0.4,0.7
		C518.5,356.7,519.1,362.6,517.8,368.3z"/>
	<path class="st5" d="M203.9,321.4c-4.8-1.7-9.2,2.1-14,1.1c-2.1-0.4-4.4,0-5.9-2c0.4-2.2,2.2-2.1,3.6-1.7c3.1,0.8,6.2,0.1,9.2,0.5
		c0.6-0.2,0-0.8,0.2-0.2c0,0.1-0.1,0.2-0.4,0.2c-2.7-0.4-5.5,1-8-0.8c0.4-1.6,1.8-1.5,3-1.8c2.4-0.6,5-0.7,7.2-2
		c2.5-0.4,4.7-2.3,7.4-1.2c10,2,20,4,29.3,8.3c7.9,3.6,15.5,7.7,20.1,15.6c-0.4,2.8-2.2,1.4-3.5,1.1c-6-1.7-10.6-5.7-15.5-9.2
		c-1-0.7-1.8-1.6-2.9-2.1c7.2,4.6,13.1,11.5,22.5,11.9c3.1,2.8,6,5.7,7,10c-0.3,1-1.1,1.4-2,1.6c-5.7-0.5-10.6-3.5-15.5-6
		c-9.8-5-19.3-10.7-28.2-17.2c-3-2.2-7-2.3-10.2-4.3c-1.8-1.2-3.4-2.1-3-5C203.9,319.3,204.4,320.4,203.9,321.4z"/>
	<path class="st3" d="M457.7,229.8c0.1-0.1,0.2-0.3,0.4-0.4c0.9-1.4,1.8-1.2,2.2,0.2c1,3,2.8,5.5,4.9,7.8c1.2,1.3,1.2,2.7,0.9,4.3
		c-1.2,6.9,0.4,12.9,5.9,17.7c1.5,1.3,2.9,2.8,2.9,5.1c-0.5,5.1,0.6,9.9,2.6,14.5c0.4,1,1.1,1.9,0.5,3.1c-1.4,0-2.8,0-4.1,0.1
		c-3.3,1.9-2.7,5.6-3.9,8.4c-0.5,1.1,0.6,3-1.7,3.1c-1.9-0.9-2.6-2.5-2.6-4.5c0.3-1.8-0.7-3.3-1.6-4.7c-5-8-5.9-16.3-1.9-24
		c0,0.1-0.5,1.1-1.7,1.4c-0.5,0-0.9-0.1-1.4-0.4C451.1,253.6,448.1,238.3,457.7,229.8z"/>
	<path class="st6" d="M525.5,303.7c-0.3-0.2-0.5-0.4-0.8-0.6c-5.2-6.8-8.4-14.1-6.6-22.9c0.2-0.9,0-1.9,0.6-2.7
		c0.3-0.4,0.5-0.8,0.9-1.1c-0.6-0.1-1,0.8-1.7,0.4c-8.9-9.9-11.7-21.3-3-32c1.5-1.6,2.8-1.6,3.8,0.6c0.7,1.5,1.2,3.2,2.8,4.1
		c0.6,0.8,0.1,2.2,1.3,2.7c1.4,1.2,1.3,2.9,0.8,4.3c-2.4,8.1,1.1,13.9,7,18.7c1.9,1.6,3,3.2,2.5,5.4c-0.9,4.3,1.9,8.4,0.2,12.7
		c-0.3,0.2-0.7,0.4-1,0.5c-2.1,3.1-2.8,6.9-4.7,10.1C526.7,304.3,526,304.3,525.5,303.7z"/>
	<path class="st3" d="M315.8,349.6c-3.9-0.7-3.7-3.6-3.7-6.5c-1.3-4.4-4.1-8.1-5.3-12.5c-2.5-8.8-1.6-17.3,2.8-25.5
		c0.3-0.7,0.7-1.4,1.1-2c2.7-4.4,3.1-4.4,6.2,0c0.7,1,1.6,1.9,2.5,2.7c1,1.1,1.6,2.4,2.3,3.6c0.7,4.6,0.2,9.3,1.1,14
		c0,2.1-0.2,4.1-1.1,6.1c-2.7,5.3-5,10.6-4.6,16.8C317.2,347.5,317,348.7,315.8,349.6z"/>
	<path class="st4" d="M377.6,358c-0.4-3.4-3.3-5.5-4.6-8.4c0.4-1.2-0.3-2.1-0.8-3c-7.2-12.6-6.8-25,0.9-37.3l-0.1,0.1
		c1.5-2.4,2.9-2.9,4.5-0.1c0.8,1.4,1.7,2.8,3,3.9c1.3,1.1,2.5,2.2,3,3.9c0.2,5.1-0.1,10.2,1.4,15.1c0.4,1.4-0.2,2.7-1,3.9
		c-3.8,4.6-5.2,9.9-5.4,15.7C378.5,353.9,379.4,356.2,377.6,358z"/>
	<path class="st7" d="M585.4,412.2c17.7-6.6,35.5-13.3,52.9-20.7c4.8-2,9.7-3.9,14.5-5.9c5.7-2.4,11.5-3.6,17.7-3.4
		c13.7,0.5,25.9-4.6,37.5-11.2c9.3-5.3,17.8-12.1,28.6-14.2c1.9-0.4,3.6-1.7,3-4c-0.6-2.3-2.8-1.7-4.4-1.4
		c-8.8,1.6-16.1,6.4-23.4,11.2c-2.4,1.6-4.7,3.3-7.4,4.6c2.8-3.6,6.3-6.4,10.1-8.8c7.2-4.6,14.5-8.9,23.8-7.9c4.6,0.5,7-3.3,5.4-7.7
		c-0.8-2.2-2-4.2-3-6.3c-0.5-1,0-1,0.8-0.9c5.3,7.5,4.3,8.6,1.1,16.5c-2.4,5.9-6.4,6.7-11,8.2c-6.7,2.2-12.4,6.4-18.3,10.1
		c-14.2,9-29.2,15-46.5,13.8c-6.7-0.4-12.7,2.6-18.7,5.2c-19.6,8.2-38.9,17.2-59.3,23.4c-0.7,0.2-1.5,0.3-2.3,0.5
		C585.5,413.7,585.3,413.2,585.4,412.2z"/>
	<path class="st8" d="M121.3,250.6c4.3,0.3,7-0.9,7.1-6c0.1-2.1,0.1-3.2-2-4.4c-7.6-4.3-15.6-6.9-24.4-6.7
		c-8.6,0.2-15-3.9-19.8-10.7c-1.2-1.7-2.8-3-4.9-3.2c-4.1-0.4-6.8-2.8-9-6c-2.5-3.5-5.2-7-7.7-10.6c-3.3-4.8-2.6-6.3,3-7.4
		c1.1-0.2,2.3-0.1,3.2-0.7c12.3-8.4,24.1-1.1,35.8,1.4c7.5,1.6,14.8,4.4,22,7.4c5,2.1,10.7,0.1,16.2,1.2c6.7,1.4,13.2,3.4,19.8,5.3
		c0.1,1.4-1.1,1.5-2,1.8c-2.7,0.1-5.2-0.7-7.8-1.5c-7.1-2.2-14.2-3.3-21.6-2.9c-2.8,0.2-5.6-0.3-8.2-1.6c-4.5-2.3-9.4-3.3-14-5
		c-7.8-3-16.1-3.6-24-5.9c-6.9-2-12.2,2.6-18.2,4.3c-1.8,0.5-0.9,2.1-0.2,3.1c4.6,5.7,7.4,13.3,16,14.8c1.9,0.3,3.2,1.9,4.3,3.5
		c4.8,6.7,11.2,10,19.5,9.8c9.2-0.2,17.3,3.3,25,7.9c2.2,1.3,2.6,3.3,2.2,5.7c-0.8,3.7-0.1,8.6-6.2,8.5
		C123.7,252.3,121.8,252.9,121.3,250.6z"/>
	<path class="st9" d="M352.3,272.9c-1.1-0.8-2.2-1-3.3,0c-2.4,1.2-3,3.7-4.1,5.9c-0.7,1.5-1.1,3.3-3.4,3.1c-0.5-0.1-0.9-0.3-1.3-0.6
		c-9.6-7.3-9.8-19.9-0.3-30.9c-0.6-3.7,3.4-5.2,3.9-8.4c1.4,0.7,1.1,2,1,3.2c-0.3,4.1,1.5,7.7,3.3,11.2c0.6,1.1,0.3-0.7,0.8-0.4
		c1.3-0.1,2.4,0.4,3.5,0.9C351.6,262.3,351.8,267.6,352.3,272.9z"/>
	<path class="st6" d="M484.3,253.2c-1,0-2.1-0.1-3.1-0.1c0-0.2-0.1-0.3-0.1-0.5c-0.1-0.1-0.1-0.3-0.2-0.4c-1.7,1.8-2.8,4-3.9,6.3
		c-0.6,1.4-0.8,3.1-2.7,3.4c-8.3-6.2-12.9-14.1-4.9-28.8c2.1-2.6,4.2-5.3,6.3-7.9c1.7,0.9,1.3,2.6,1.7,4.1c1,3.4,1.8,7,5.1,9
		c0.6-0.3,1.1-0.6,1.7-0.9C484.5,242.6,484.4,247.9,484.3,253.2z"/>
	<path class="st10" d="M390.7,345.8c-0.6-0.9-1.2-1.7-1.8-2.6c-0.8-4.2-3.1-7.7-4.2-11.8c-1.9-7.2-1.1-14,1.5-20.7
		c0.6-1.3,1.2-2.6,2.4-3.4c2.7-1,3.2,1.5,4.4,2.8c1.5,1.6,1.6,4.9,5,4.4c0.7,0,1.3,0.2,1.7,0.9c-0.6,4.5-0.7,9-0.4,13.5
		c0.3,2.3-0.1,4.5-1.5,6.5c-1.6,2.2-2.7,4.8-3.7,7.3C393.3,344.2,392.9,345.9,390.7,345.8z"/>
	<path class="st3" d="M320.4,309.3c-0.4-0.9-0.8-1.8-1.2-2.7c-7.7-6.6-8.9-24.1-0.2-32.8c0.3-0.2,0.4-0.4,0.5-0.7
		c2-0.9,2.2,0.9,2.9,1.9c1.3,1.9,2.2,4.1,4.2,5.4c0.2,0.2,0.3,0.5,0.4,0.8c0.4,0.3,1,0.6,1,0.9c-0.2,6.7,2.3,13.6-1.5,20.1
		c-1,1.7-1.8,3.5-2.8,5.1C323.1,308.4,322.4,310.1,320.4,309.3z"/>
	<path class="st9" d="M453,289.7c-0.7-1.5-1.6-2.9-3.1-3.7c-0.9-3.2-3-6-3.8-9.3c-2.2-8.4,0.1-15.8,4.7-22.7
		c0.2-0.5,0.5-1.1,0.7-1.6c2.3-0.9,2.4,1.2,3.1,2.3c1.6,2.6,2.9,5.3,5.5,7.1l-0.1-0.1c0.9,0.8,1.2,2,0.8,3c-1.6,4.7-0.6,9.5,0,14.2
		c-1.3,3.4-3.8,6.1-5.1,9.6C455.3,289.3,454.6,290.7,453,289.7z"/>
	<path class="st3" d="M466.6,288.7c-0.5,2.1,1.1,3.4,1.9,5c0.6,4,2.4,7.9,0.6,12c-0.2,0.5-0.4,0.9-0.7,1.4c-1.4,2.9-3.2,5.7-4.1,8.8
		c-0.4,1.2-0.8,2.5-2.5,2l0.1,0.1c-1.4-2.6-3.5-4.9-4.2-7.8c-1.7-3.2-2.7-6.7-3.2-10.3c0.3-1.7,0.7-3.4,0.4-5
		c-1-5.9,1.6-10.3,5.2-14.5C464.1,281.7,464.8,285.6,466.6,288.7z"/>
	<path class="st1" d="M320.6,328.8c1.3-1.6,0.9-3.6,1-5.4c3.7,2.2,3.2,6.7,5.6,9.6c0.8,2.2,2.6,3.7,3.6,5.8c0,5.5-0.2,11,1.6,16.3
		c-1.8,3.2-3.3,6.4-3.3,10.2c0,1.1-0.4,2.1-1.7,2.3c-1-1.3-2-2.7-3-4c-4.2-5.8-8.1-11.7-7.5-19.4c0.3-3.9,1.4-7.5,2.7-11.2
		C319.9,331.7,321.3,330.5,320.6,328.8z"/>
	<path class="st11" d="M255,337.5c-8.2-11.2-20.3-15.9-32.8-19.6c-5.4-1.6-11.1-2.6-16.6-3.9c0-1.9,1.2-1.2,2.2-1.1
		c12.9,1.6,25.2,5.3,36.5,11.9c4.9,2.8,9.4,6.3,12.4,11.1c10.3,16.4,24.3,29,39.8,40.3c0.6,0.5,1.2,1,1.8,1.5c0.1,0.9-0.1,1.3-1.1,1
		c-3.7-2.6-7.6-4.9-11-7.9c-5.2-4.6-11.2-7.3-18-7.9c-12.5-1-23-6.2-31.5-15.4c-0.2-0.9,0.4-1.1,1.1-1.2c1,0.1,1.8,0.6,2.5,1.2
		c8.6,7.6,18.9,11.2,30,12.6c0.8,0.1,1.5,0.3,2.8,0.9c-2.3-2.2-4.1-4-6-5.9c-1.9-1.9-3.7-3.8-4.4-6.4c-2.2-3.2-4.3-6.4-6.5-9.6
		C255.3,338.8,255.6,337.9,255,337.5z"/>
	<path class="st12" d="M353.7,325.1c-1.2,0-2.3,0-3.5,0c-2.5,1.5-2.4,4.5-3.7,6.7c-0.6,1-0.6,2.7-2.1,2.8c-1.6,0.1-2.4-1.4-3-2.6
		c-3.7-6.9-5.4-14.2-3.4-22c0.2-0.8,0.3-1.5,0.5-2.3c1.3-3.2,1.7-6.7,4.1-9.4c1.8-1,2.4,0.5,3.2,1.6c1,1.3,1.2,3.2,3.1,3.8
		c0.5,0.3,1,0.6,1.5,0.9c0.6,0.6,0.7,1.4,0.6,2.2c-1.2,5.9,0.1,11.3,2.7,16.5C353.9,323.9,353.9,324.5,353.7,325.1z"/>
	<path class="st13" d="M583.5,398.1c-7.5,1.1-14.2,4.2-20.8,7.7c-12.8,6.7-24.7,14.9-38.1,20.7c8.1-1.4,16.2-2.7,24.2-4.1
		c0.9-0.2,2-0.8,2,1c-11.3,2.9-22.9,4.5-34.5,5.8c-7.8,0.9-15.5,3.1-23.4,4.1c-7.2,0.9-14.6,1.9-21.5-1.5c0-0.8,0.1-1.4,1.1-0.9
		c11.7,2.9,23.2,0.4,34.5-2.1c14.7-3.3,28.1-9.6,41.1-17.1c9.2-5.3,18.5-10.8,29-13.5c1.5-0.4,3-0.6,4.5-0.9
		C582.5,396.9,583.6,396.3,583.5,398.1z"/>
	<path class="st14" d="M38.9,295.3c-3,5.4-1.9,7.3,4,9.5c17.7,6.6,36.3,7.9,54.9,9.1c14.4,0.9,28.8,2.9,43.4,1.8
		c3.5-0.3,7.2,0.3,10.6,1.3c6.7,1.9,13.3-0.6,19.9,0c2,0.4,4,0.9,5.1,2.9c-0.1,0.8-0.4,1.3-1.3,0.9c-4.3-2.5-8.6-2.2-13.6-1.5
		c-5.8,0.8-12-0.8-18-1.6c-3-0.4-5.8-0.4-8.8,0c-8.6,1.1-17.1-0.3-25.6-0.8c-16.3-1-32.6-2-48.6-4.7c-7.5-1.3-14.8-4.4-21.9-7.4
		c-4.1-1.7-4-5.8-0.8-10.2C38.8,294.3,39.3,294.4,38.9,295.3z"/>
	<path class="st4" d="M426.5,359.9c1.4,0,2.9,0,4.3,0c2.1,1.6,0.2,3.8,0.8,5.7c0.4,1.3-0.1,3,0.5,4.1c3.5,6-1.9,10.1-3.2,15
		c-0.2,0.6-1,0.7-1.6,0.6c-1.1-2.2-2.2-4.4-3.3-6.6c-4.3-7.1-5.7-14.6-3.3-22.7c0.6-1.2,1.2-2.7,2.8-0.8
		C424.7,356.6,424.9,358.7,426.5,359.9z"/>
	<path class="st15" d="M603,377.7c-32.6-18-40.1-65.7-14.7-93.6c0.9-0.2,1.3,0.1,1,1c-7.9,10.3-13.8,21.5-14.1,34.8
		c-0.5,24,9,43.1,29,56.8C604.2,377.7,604,378.2,603,377.7z"/>
	<path class="st16" d="M691.5,312.6c0,4.9-3.1,8.3-7.5,8.3c-4.2-0.1-7.7-3.9-7.6-8.4c0-4.3,3.8-8.4,7.8-8.5
		C688.3,304.1,691.5,307.8,691.5,312.6z"/>
	<path class="st17" d="M564.9,346.7c-10-34.8-1.4-61.8,33.4-84.3c1-0.4,1.2,0.1,1.1,1c-10.4,7-19.4,15.4-26.5,25.8
		c-11.2,16.2-11.3,33.9-7.5,52.3c0.2,1.1,0.4,2.1,0.6,3.2C566.1,345.6,566.7,346.7,564.9,346.7z"/>
	<path class="st18" d="M647.1,275.6c-1.9,1.2-3.9,2.8-4,4.9c-0.4,10.4-6.9,19.3-6.6,29.9c0.4,16.9-0.2,33.9,3.2,50.6
		c0.7,3.5,2.3,6.7,3.9,9.9c0.4,0.9-0.1,1.1-0.9,1c-3.6-4.9-5.3-10.5-6-16.4c-2.2-18-3.7-36.1-1.1-54.3c0.6-4.3,1.6-8.6,4.4-12.1
		c1.2-1.4,0.7-2.9,0.8-4.4c0.2-4.2,1.4-7.9,5.5-10.1C647.2,274.3,647.3,274.7,647.1,275.6z"/>
	<path class="st19" d="M416.9,234.9c2.6-0.9,4.1-3.7,8.5-4.2c-9.9,6.7-11.4,14.7-6.1,24.2c2.1-2.3,3.4-5.4,6-7.3
		c0.9-0.2,1.3,0.1,1,1c-6.8,7.8-7.9,16.1-0.9,25.9c-5.1-3.8-6.3-6.3-7.2-13.7c-3.2,4.6-4.2,9.1-3.7,13.9c0.5,4.6,2.7,8.7,4.9,13.9
		c-3.3-2.2-3.9-5.1-5.5-7.2c-1.3-0.9-2-2.3-2.8-3.6c-0.2-0.4-0.2-0.9-0.3-1.3c0.3-2.7,0.1-5.5,0.5-8.3c0.2-0.6-0.2,0.1,0.1-0.4
		c3.9-6.7,6.6-13.2,2-20.9c-1.9-3.2-0.1-7.3,1.7-10.6C415.6,235.5,416.2,235.1,416.9,234.9z"/>
	<path class="st20" d="M528.5,194.2c29.8,4.8,57.7,14.4,83.1,31.1c0.1,0.8,0,1.4-1.1,0.9c-26.2-16.2-54.9-25.4-84.9-31.1
		C526,193,527.4,194.1,528.5,194.2z"/>
	<path class="st21" d="M203.9,321.4c-0.7-2.6-1.2-5.2,2.2-6.5c-1.7,5.9,1,9,8,8.9c1.4,0,2.1,1.1,3,1.8c13,9.2,26.6,17.3,41.3,23.4
		c0.7,0.3,1.5,0.4,2.2,0.5c0.7,1.1,3-0.4,2.7,1.5c-0.2,1.5-1.9,1.2-3.1,1c-2.2-0.3-4.2-1.2-6.2-2c-10-4-19.5-8.8-28.3-15
		c-1-0.7-2.7-3.2-3.6,0.3c-0.7,1.3-0.2,3.4-2.4,3.6c1.5-7.9-3.7-11.1-9.7-13.8C207.8,324.3,205.7,323.1,203.9,321.4z"/>
	<path class="st22" d="M300.1,205.6c2.5,0,4.9,0,8.2,0c-9.2,4.2-19.7-1-27.9,6.3c1.7,0.2,3.1,0.4,4.5,0.6
		c-9.9,4.8-20.6,7.3-30.5,11.7c-1.6,2.2-3.4,3.5-5.8,0.9c8.1-3.6,16-7.4,24.6-9.7c1-0.3,3.1-0.3,1.1-2.4c-1.4-1.5,0.5-1.4,1.4-1.8
		c5.8-2.6,11.6-5.1,17.7-6.8C295.5,205.3,297.5,207,300.1,205.6z"/>
	<path class="st23" d="M559.2,397.2c-6.6,4-14.2,5.7-21.3,8.5c-15.6,6-31.3,11.7-46.1,19.7c-1,0.4-1.1,0-0.9-0.9
		c11.1-7.2,23.3-11.9,35.4-17c1.5-2,3.9-2.4,6-3.2c7.1-2.7,14.3-4.9,21.4-7.3C555.7,396.4,557.5,396,559.2,397.2z"/>
	<path class="st24" d="M515.3,244.9c-8.2,11.4-4.8,21.7,2.7,31.7c0.3,0.8,0,1.1-0.8,0.9c-3.1-2.7-5.7-6.2-6.7-9.8
		c-1.5-5.5-5.1-9.2-8.2-13.5c-5.6-7.7-3.5-16.2,5.6-21.4c-9.1,8.7-7.9,17.1,0.2,26c0.9-6.1,2.4-11.4,7.2-15.1
		C515.7,244,515.7,244.5,515.3,244.9z"/>
	<path class="st25" d="M524.5,406.6c-15.4,4.7-30.1,11.4-44.9,17.5c20.5-12,42.6-20.1,65.4-26.1c1-0.3,1.3,0.3,1.3,1.2
		C539.4,402.5,532.1,404.9,524.5,406.6z"/>
	<path class="st26" d="M394.5,280.4c-2.4-8.1-0.5-15.2,4.9-21.5c0.9-0.1,1.1,0.5,1.3,1.2c-0.8,3.8-2.9,7.2-3.6,11
		c-0.8,5.1,0.6,9.5,3.9,13.4c1.6,1.9,2.7,2,4.1-0.4c1.5-2.6,2.3-6.2,6.3-6.6l-0.1-0.1c1.1,1.3,0.4,2.1-0.7,2.9c-7,9.7-6,19.7-1,29.9
		c-0.3,0.4-0.7,0.4-1,0c-1.2-1.6-2.5-3.2-3.7-4.8c-0.2-0.2-0.3-0.3-0.5-0.5c-1.6-3.1-2.1-6.6-1.9-9.9c0.2-3.2-0.9-5.3-3.2-7.1
		C396.8,286,395,283.6,394.5,280.4z"/>
	<path class="st27" d="M533.1,293.4c-0.3-4.9-2.3-9.7-1.2-14.8c0.2-1-0.4-1.6-1.2-2.2c-7.8-5.4-10.7-12.6-8-21.8
		c0.2-0.7,0-1.5-0.1-2.3c3.3-2,3.7-6.5,8.6-9c-8,11.9-11.2,22.8,1,33c1.7-2.7,2.2-6.2,5-8.1c0.2,0.4,0.5,0.8,0.5,0.9
		c-5.7,9.7-4.5,19.3,0.2,28.9c0.1,0.4-0.1,0.6-0.5,0.5C535.3,297.3,535.6,294.1,533.1,293.4z"/>
	<path class="st28" d="M339.4,307.6c-2.1,9.6-1,18.7,4.9,27.3c1.6-3.8,2.6-7.4,4.9-10.4c1.3-1.6,1.1-0.4,1,0.6
		c-4.8,9.9-6.3,19.8-0.5,29.9c0.3,1-0.2,1.2-1,1.1c-3-3.6-5.3-7.9-4.7-12.3c1-6.9-3.8-11.1-6-16.5c-0.1-0.2-1-0.2-1.6-0.2
		c-0.1-0.2-0.3-0.4-0.4-0.6c-0.9-5.6-1.1-11.1-0.4-16.7c0.6-1.7,0.9-3.5,2.8-4.4C340,305.6,339.9,306.5,339.4,307.6z"/>
	<path class="st29" d="M450.7,254c0.4,1.4-0.7,2.3-1.2,3.4c-4,7.8-4.4,15.7-0.7,23.8c0.7,1.6,1.5,3.1,1.1,4.9c-2.8-0.5-1-6.2-5.4-5
		c-0.4-1.4,1.2-2.4,0.6-4.1c-1.6-4.5-1.4-9.2,0-13.7c0.3-1.1,0.4-1.9-0.7-2.8c-10.1-8.1-9.1-18-4.8-28.5c0.8-0.2,1.3-0.1,0.8,0.9
		c-0.8,5-2.3,10-1.3,15.2c0.9,4.8,2.9,8.7,6.6,12C447.9,258.3,448,255,450.7,254z"/>
	<path class="st30" d="M372.1,277.4c-1.4-2.2-2.9-4.3-4.5-6.8c-5.2,10.1-8.2,19.9-0.6,30.4c-4-2.4-5.6-5.2-6.5-9.8
		c-0.8-4.4-0.2-8.7,1.5-12.8c2.3-5.4,5.9-10.2,5.7-16.8c-0.1-3.5,3-6.6,7.2-8.3c-8.5,8.9-7,17.3,0.7,25.3c0.7,0.3,1.5,0.8,1,1.6
		c-0.4,0.8-1.3,0.7-2,0.3C373.5,279.8,372.8,278.6,372.1,277.4z"/>
	<path class="st31" d="M564.3,272.6c-3.5-1.6-4.7-4.6-6.6-7.5c-5.5,9.8-7.9,19.5-1.9,30c-7.4-8.1-7.5-18-0.7-28.3
		c1.4-2.1,2.1-4,2-6.8c-0.2-7,4.3-11.2,10.6-14.2C557.8,253.7,556,262.4,564.3,272.6z"/>
	<path class="st28" d="M578.8,376.6c-1.2,0.3-2.7,0.8-2.9,2c-0.8,4.7-4.7,5.2-8,6.5c-16.1,6.3-32.3,12.5-48.7,17.9
		c-1,0.4-1.1-0.1-1-0.9c16.4-6.3,32.7-12.6,49.1-18.8c3-1.2,6.1-1.9,7.1-5.7c0.2-0.9,1.2-1.8,2.5-1.9
		C577.8,375.3,578.8,374.8,578.8,376.6z"/>
	<path class="st32" d="M705.1,301c-16.5-13.2-33-26.3-49.5-39.5c-0.1-0.8,0-1.4,1-0.9c17.4,12,33.8,25.2,49.4,39.5
		C706.2,300.9,706.1,301.4,705.1,301z"/>
	<path class="st33" d="M427.3,385.2c2.6-4.9,6.8-9.2,4-15.8c-1.2-2.8-0.4-6.4-0.5-9.6c1.3-3.7,1.9-7.8,4.7-10.9
		c-1.4,5.3-3.3,10.6-3.1,16.2c0.2,5.4,2.6,10.3,5.6,15.4c-2.5-0.8-2.8-2.7-4.1-3.6c-6.5,9.7-6.5,20.2,0.4,30.7
		c-4.8-3.6-7.3-9.7-7-16.9C427.4,388.9,428.1,387.1,427.3,385.2z"/>
	<path class="st34" d="M373.2,411.2c19.3,2.7,37.9,8.1,56.9,12.3c0.2,1-0.5,1.4-1.2,1.7c-2.3,0.8-4.6-0.2-6.8-0.5
		c-15.7-3.2-31.2-7.4-46.9-10.5c-1.5-0.3-3-0.7-4.2-1.9C371,410.6,372,410.8,373.2,411.2z"/>
	<path class="st25" d="M173.7,312.2c-2.9-3.2-4.1-7.1-4.8-11.3c-1.4-8.7-3.4-17.4,0.2-26.1c0.3-0.3,0.6-0.3,0.9,0
		c-2.6,9.7-0.3,19.1,1.7,28.5c0.5,2.3,1.1,4.5,3,6.1c1.9,1,4.1,1.1,6,2.1c2.9,0.7,5.9,0,8.7,0.4c1.5,0.2,4-0.7,3.8,2.4
		c-5.3,1.8-10.6,1-15.9,0.6C175.6,314.8,174.5,313.6,173.7,312.2z"/>
	<path class="st35" d="M687.3,326c-8.6,1.9-16.1-1.9-18.5-9.3c-2.5-7.8,1.2-15.8,8.8-18.7c3.8-1.5,7.7-1.5,11.4,0.8
		c-4.5-0.9-8.9-0.9-12.8,1.9c-4.9,3.5-7,9.7-5.2,15.2c2,6.3,7.2,9.4,15.4,9.2C687.4,324.8,687.5,325.2,687.3,326z"/>
	<path class="st36" d="M508.5,423.4c14.9-9.5,31.2-15.9,49-19.2C541.2,410.5,524.4,415.7,508.5,423.4z"/>
	<path class="st37" d="M667.8,373.5c-12.5-1-24.4-24.5-22.3-44C649.3,346.4,650.7,363.8,667.8,373.5z"/>
	<path class="st38" d="M469.4,233.1c0.1,3.5-2.4,6.2-2.9,9.6c-1.2,7.9,1.4,14.4,8.4,18.9c0.9,1.2,1.3,2.4-0.6,3
		c0-2.2-1.7-3.2-3.1-4.3c-6-5-7.9-11.4-6.1-18.8c0.5-1.9,0.6-3.4-1.1-4.5c-2.9-1.8-2.2-6.3-5.9-7.5c1.5-4.7-0.2-10.2,3.6-14.3
		c1.1-1.2,2-2.7,3.7-3.9c-6,9-7.5,17.7,0.6,26.2C467.2,235.9,468.3,234.5,469.4,233.1z"/>
	<path class="st39" d="M578.8,376.6c-0.7-0.3-1.3-0.6-2-0.9c1.1-0.4,2.3-0.8,3.6-1.2c-7.3-8-12.9-17.1-15.6-27.7
		c0.9-0.4,0.7-1.4,1-2.1c2.8,8.1,5.7,16,10.8,23.1c3,4.2,6.3,7.9,11.5,9.8c3,1.1,5.6,3.3,8.4,5c0.2,0.8,0.1,1.3-0.9,0.8
		C590.3,380.4,585,377.4,578.8,376.6z"/>
	<path class="st33" d="M515.3,244.9c0-0.4,0-0.8-0.1-1.2c1.4-4.2,2.5-8.2-0.2-12.5c-5-7.9-3.4-16.3,3.5-21.1
		c0.6-0.4,1.2-1.1,2.1-0.5c-7.9,9.1-8.7,14.4-3.1,23.1c1.9-2.5,3.3-5.4,5.6-7.4c1-0.9,2.2-1.8,3.6-2.5c-7.6,7.9-12,16.3-5.4,26.8
		c-2.5,0.1-2.7-2.2-3.4-3.7C517.3,244.5,516.7,243.7,515.3,244.9z"/>
	<path class="st31" d="M426.5,359.9c-3.1-0.3-2.5-3.8-4.3-5.1c-0.1-0.1-0.3-0.1-0.4,0c-0.1,0.1-0.2,0.2-0.3,0.3
		c-0.1,0.4-0.4,0.5-0.6,0.1c-0.4-6.9-1.7-13.6-3.1-20.4c0.1-0.1,0.3-0.3,0.4-0.4c1.8,0.4,1.5-0.9,1.8-1.9c1.3-4.3,2.9-8.4,5.8-12
		c0.8,0.9,0.5,1.5,0.2,2.3c-6.4,11.4-5.7,22.9-0.3,34.5C426,358.1,426.2,359,426.5,359.9z"/>
	<path class="st19" d="M427.8,427.4c-13.3-0.9-26.7-1.5-39.7-5c0-1.6,1.2-1.6,2.3-1.9c9.8,0.6,19.4,2.1,29.1,3.3
		c4.2,1.2,8.5,1.2,12.8,2c0.9,0.9,0.9,1.6-0.4,1.8C430.5,427.8,429.1,427.7,427.8,427.4z"/>
	<path class="st40" d="M300.1,205.6c-2.6,1.5-4.8,0.9-6.7-1.2c4.9-2.7,10.5-1.7,15.8-2.8c2.5-0.5,2.2-0.5,3.9-3.3
		c0.8-1.2,2.9-1.7,4.5-2.2c8-2.3,16.2-3.7,24.6-3.6c-0.4,2.4-2.8,0.4-3.7,1.7c-5.4-0.1-10.7,1.1-16,2.3c-2.3,0.5-5.7-0.3-6.2,4
		c-0.1,1-3.7,1.7-5.8,2.2c-4.6,1.3-9.6,0.5-14.5,2.3C297.5,205.4,298.8,205.5,300.1,205.6z"/>
	<path class="st37" d="M373.1,309.3c-1.8,6-4.9,11.6-4.9,18.1c0,6.9,1.7,13.1,4.8,19.1c0.7,1.3,0.7,1.3,0.1,3
		c-5.3-8.1-8.5-16.8-6.6-26.7C367.4,317.8,368.8,312.8,373.1,309.3z"/>
	<path class="st41" d="M380.5,226c1.2-1.5,2.3-3.1,3.5-4.6c0.4,0.3,0.7,0.6,1.1,1c-1.5,2.4-3.1,4.7-4.5,7.2c-5.6,10-4.8,17.1,3,25.6
		c0.6,0.7,1,1.5,1.5,2.3c0,0.5-0.3,0.6-0.7,0.5c-2.4-2.8-5.7-4.7-7.4-8.2C372.4,240.9,375.7,233.4,380.5,226z"/>
	<path class="st42" d="M548.2,276.4c-10.8-10.7-10.2-23.1,0.3-32.8c-2.5,5.1-5.8,9.9-5.7,16C543,265.8,545.7,271,548.2,276.4z"/>
	<path class="st43" d="M442.2,320.4c-2.2-1.7-1.9-4.6-2.9-6.8c-4.4-9.7-3.5-19.3,1.6-28.5c0.4-0.8,0.8-1.7,2.8-2
		c-6.6,12-6.4,23.8-0.4,35.5C443.8,319.7,443,320,442.2,320.4z"/>
	<path class="st44" d="M390.7,345.8c2.6-5.6,7.8-10,7.7-16.8c2.3,1.4,1.9,3.7,1.7,5.8c-1.1-0.7-1.5-0.2-2,0.8
		c-4.6,8.9-6.8,17.9-2.2,27.5c0.3,0.5,0.4,1.1,0.5,1.7c0.1,0.4-0.1,0.8-0.2,1.3c-1.3-0.4-1.3-1.7-2-2.4c-1.1-0.7-1-2.1-1.6-3
		C390.7,356,391.1,350.8,390.7,345.8z"/>
	<path class="st19" d="M310.5,304.8c-5.7,12.1-5,23.9,1.5,35.5c0.4,0.6,2.4,1.7,0.2,2.8c-8.7-12.6-10.9-25.6-2.7-39.3
		C310.3,303.6,310.8,303.8,310.5,304.8z"/>
	<path class="st45" d="M38.9,295.3c-0.3-0.3-0.5-0.6-0.8-0.9c4.4-4.5,10.1-6.6,15.7-9c0.7-0.3,1.8-0.3,2.1-0.8
		c3.6-5.8,10.8-6.4,15.4-10.8c3-2.8,7.1-4.7,11.7-3.8c-8.2,1.2-14.3,6.8-20.5,11.2C54.9,286.6,46.1,289.6,38.9,295.3z"/>
	<path class="st46" d="M408.5,310.3c0.3,0,0.7,0,1,0c1.1,0.4,0.8,2.1,2.3,2.3c1.7-4.1,3.7-8.3,7.5-11.5c0.2,1.9-1.2,2.9-1.9,4.1
		c-5.3,9-5.8,18.1-0.2,27.2c0.4,0.6,0.6,1.4,0.9,2.1c-0.1,0.1-0.3,0.3-0.4,0.4c-4.5-4.1-6.7-9.3-6.5-15.2
		C411.4,316,410.8,313,408.5,310.3z"/>
	<path class="st47" d="M280.4,332.7c-8.2-11.9-6.7-28.8,1-36.3c-5.8,11.8-5.9,23.6,0,35.2C281.8,332.7,281.3,332.9,280.4,332.7z"/>
	<path class="st19" d="M416.9,234.9c-0.3,0.3-0.6,0.6-0.9,1c-0.6,1.8-1.9,3.2-3,4.6c-5,6.5-5.5,13.5-2.3,20.9
		c0.7,1.6,2.2,3.2,0.4,5.1c-3.7-0.5-4-3.9-5.4-6.3c-0.9-1.6-1.2-3.5-1.8-5.3c0-0.2,0-0.5-0.1-0.7c1.2-1,1.2-2.3,1.3-3.7
		c0.5-6.1,4.2-10.3,8-14.6C414.3,234.6,415.6,234.8,416.9,234.9z"/>
	<path class="st46" d="M379.6,314c-2.1-1.7-2.8-4.3-4.2-6.3c-1.3-0.1-1.1,1.9-2.5,1.7c1.4-2.4,1.6-4.8,0.9-7.6
		c-1.5-6.1,0.4-11.9,3-17.4c0.7-2.2,1.1-4.8,4.4-4.3c0.3,0.4,0.5,0.8,0.4,1.3c-1.5,3.7-3.6,7.2-4.2,11.2c-0.8,5.1-0.7,10.1,1.7,14.9
		C380.1,309.6,381.4,311.7,379.6,314z"/>
	<path class="st47" d="M299.7,330.4c-8.3-9.2-12.3-26.2-2.5-36c-2.6,5.7-4.3,11.6-3.5,18C294.6,318.8,297.3,324.5,299.7,330.4z"/>
	<path class="st44" d="M387.9,309.7c-5,9.9-4,19.6,0.6,29.3c1.2,2.5,1.1,2.6,0.3,4.2c-0.4-0.7-0.8-1.4-1.2-2.1
		c-1.8-1.4-3.1-3.1-4.1-5.1c-0.1-0.2-0.1-0.4-0.2-0.6c0.6-1.5,0.7-2.9,0.1-4.4c-1.7-4.6-0.7-9.4-1-14.1
		C383.5,313.9,383.1,309.9,387.9,309.7z"/>
	<path class="st19" d="M320.6,328.8c1.8,0,1,1.1,0.7,1.8c-4.8,11.1-5.1,21.8,3.1,31.6c0.2,0.2-0.1,0.9-0.1,1.3
		c-4.7-3.5-6.9-8.6-8.5-14C315.2,342.1,317,335.3,320.6,328.8z"/>
	<path class="st44" d="M400.2,259.9c-0.3-0.3-0.5-0.7-0.8-1c1.4-1.7,0.3-2.9-0.7-4.4c-4.4-6.3-6.5-13.2-4.4-20.9
		c1.5-2.1,1.9-4.9,4.5-6.6c1.1,1.8-0.5,2.9-1,4c-3.8,8.3-1.5,16,2.5,23.4c1.5,2.7,2.4-0.3,3.6-0.3c0,0,0-0.1,0-0.1
		C404.8,257.4,403.2,259.1,400.2,259.9z"/>
	<path class="st48" d="M524.5,406.6c6.9-3.2,14.3-5,21.5-7.6c2.3-2.5,6.1-1.6,8.5-3.7c2.6-1.9,4.1-1.2,4.7,1.9
		c-9.7,1.8-18.7,5.7-28,8.8c-1.6,0.5-3.2,1-4.8,1.5C525.8,407.2,525.2,406.9,524.5,406.6z"/>
	<path class="st31" d="M331.6,355.1c-2.3-5.4-2.4-11-1.8-16.6c-0.2-0.4-0.3-0.9-0.3-1.3c1.5-3.9,2-8.6,7-10c0,0-0.1,0-0.1,0
		c-1.3,3.8-2.9,7.5-3.9,11.3c-2.2,8.2-0.2,15.6,4.9,22.4c-1.5,0.3-1.9-0.8-2.5-1.5c-0.8-0.8-1.4-1.6-2.1-2.5
		C332.1,356.5,331.8,355.8,331.6,355.1z"/>
	<path class="st49" d="M518.2,402.1c0.3,0.3,0.6,0.6,1,0.9c-7.7,3.7-15.9,5.9-23.8,9.1c-6.2,2.5-12.4,5-18.5,7.5
		c-0.4-0.1-0.8-0.4-1-0.9c7.1-4.2,15-6.5,22.7-9.4C505,406.9,511.6,404.5,518.2,402.1z"/>
	<path class="st50" d="M359,349.5c-3.3-10.3-0.9-19.4,6.3-27.5c-5.8,11.4-8.9,22.9-1.2,35.1c-0.7-0.8-1.4-1.6-2.1-2.4
		c-0.7-0.8-1.4-1.7-2.1-2.5C359,351.5,359.8,350.2,359,349.5z"/>
	<path class="st43" d="M538,297.8c1.2,1.4,2.2,3.2,3.3-0.1c0.8-2.7,2.4-4.9,4.9-6.9c-6,10.6-6.6,21,0.4,31.4
		c-5-5.1-7.8-10.8-6.9-17.6c0.3-2.7-1-4.3-2.2-6.3C537.6,298.2,537.8,298,538,297.8z"/>
	<path class="st51" d="M384.3,257.9c0.3,0,0.6-0.2,0.7-0.5c0.7-0.1,1.8-1.5,1.9,0.2c0.1,0.9-1.1,1.8-1.6,2.7
		c-4.5,7.6-3.8,15.1,0.2,22.6c0.9,1.6,1.8,3.2,2.7,4.8c-0.3,0.3-0.8,0.4-1.2,0.4c-3.1-1.7-4.7-4.6-5.6-7.9l0.1,0.1
		c-2.6-2.1-0.7-5.3-1.8-7.8C379.8,267.3,381.9,262.5,384.3,257.9z"/>
	<path class="st27" d="M443.3,356c-9-12.1-10.2-24.6-3.3-34.4c0.2,0.5,0.5,0.9,0.4,1.2c-5.1,11-2.2,21.2,2.8,31.2
		c0.3,0.7,0.5,1.4,0.8,2.1C443.7,356.4,443.5,356.4,443.3,356z"/>
	<path class="st52" d="M427.8,427.4c1.3-0.4,2.7-0.8,4-1.2c-0.7-1-2.8,0.4-2.8-1.7c0.4-0.3,0.7-0.7,1.1-1
		c10.8,1.8,21.6,3.6,32.4,5.4c0,0.2,0,0.4-0.1,0.6c-2.4-0.1-4.9,0-7.3-0.4C446,427.5,436.9,427.5,427.8,427.4z"/>
	<path class="st53" d="M158.5,211.3c0.7-0.3,1.3-0.6,2-0.9c5.9,1.6,11.9,3.1,17.8,5c4,1.2,7.5,3.1,10.1,6.8c1.9,2.7,6.2,2.6,8.2,5.7
		c-0.3,0.4-0.8,0.6-1.3,0.7c-3.9-1.1-7.4-2.8-10.1-6.1c-2.6-3.1-6.4-4.2-10.1-5.3c-4.3-1.2-8.8-2-13-3.5
		C160.7,213.2,158.9,213.3,158.5,211.3z"/>
	<path class="st54" d="M310.5,304.8c-0.3-0.4-0.7-0.7-1-1.1c5-4.2,2.6-9.7,2.6-14.8c0-1.7,0.2-3.3,0.2-5c0,0-0.1,0.1-0.1,0.1
		c2.4-3.4,2.5-8.3,6.9-10.3c-7,11-7,21.9,0.1,32.8c-3.6-0.4-3.2-4.4-5.4-6.2C312,301.3,312,303.7,310.5,304.8z"/>
	<path class="st55" d="M331.6,355.1c0.8,0.3,1.1,1,1.2,1.8c-4.4,4.8-4,18.2,0.6,24.7c1,1.4,2.1,2.6,2.9,4.2
		c-4.9-2.5-7.7-6.7-8.5-12.2c-0.3-2-0.3-4-0.5-6C328.2,363.3,328.9,358.8,331.6,355.1z"/>
	<path class="st56" d="M474.2,264.5c0.9-0.8,0.7-1.9,0.6-3c1.5-4.3,3.6-8.2,7-11.4c0.7,1.3-0.7,2-0.7,3c-7,9.9-6.1,19.9-0.6,30.1
		c0.4,1,0,1.1-0.8,0.9c-0.6-0.6-1.1-1.3-1.7-1.9C475.2,276.6,473.2,270.9,474.2,264.5z"/>
	<path class="st46" d="M460.1,261.7c-3.1-0.6-4-3.5-5.6-5.5c-1-1.3-1.4-3.1-3-3.8c-0.3-3.2-1-6.4-0.7-9.6c0.5-5.2,1.5-10.3,7-13
		C449.6,241.1,452.5,251.6,460.1,261.7z"/>
	<path class="st19" d="M353.7,325.1c-4-6.4-5.2-13.2-3.3-20.5c1.8-2.8,2.4-6.3,5.9-8.3c-6.4,10.8-6.3,21.3,1.7,31.8
		C355.3,327.7,354.9,325.9,353.7,325.1z"/>
	<path class="st57" d="M392.9,232.7c-0.5,1.9-1.2,0.7-1.7,0.1c-3.2-4.2-4.9-8.9-5.1-14.1c1.2-5.5,3.3-10.6,8.6-13.9
		C387.7,213.7,386.3,223,392.9,232.7z"/>
	<path class="st58" d="M121.3,250.6c1.1,1.2,2.6,0.3,3.9,0.9c0,0.7-0.3,1.2-0.9,1.4c-4.4,1.8-4.5,1.8-5.6,5.1
		c-2.9,2.3-5.2,5.6-9.4,5.7c-0.9,0.1-2.1,0.8-2-1c2.1-0.1,4-0.7,5.7-1.9c1.7-1.1,3.3-2.3,4.2-4.3c-2.3-0.2-2.5-3.4-5.1-3.4
		c-1,0-2.4-0.5-3.7-2.5C113,250.6,117.2,250.6,121.3,250.6z"/>
	<path class="st29" d="M484.3,253.2c-1.8-5.3-1.8-10.6-0.1-15.9c1.8-2.9,3.4-5.9,7-9c-2.6,5.9-6,10.2-6,16
		c-0.1,5.6,2.4,10.4,4.5,16.2C486.4,258.3,486,255.4,484.3,253.2z"/>
	<path class="st24" d="M188.6,230.8c-8.8,5.7-14.5,13.2-14.2,24.2c-2.9-0.9-1.6-3.4-2-5.3c-0.5-10.8,6.9-16.3,14.8-21.2
		c1.8-1.1,4.1-1.2,6.2,0.2C192.8,231.9,189.9,229.3,188.6,230.8z"/>
	<path class="st59" d="M431.1,202.5c-5.8,21.9-5.6,23.9,4.3,36.6C424.1,232.9,421.8,215.7,431.1,202.5z"/>
	<path class="st29" d="M428,278.3c0.7-1.4,0.9-2.9,0.8-4.5c-0.1-6.9,2.1-10.5,8.8-14.1c-3.1,4-6.9,7.6-6.8,13.2
		c0.1,5.6,3.8,9.5,6.3,14.1c-2.7-1.9-5-4.1-6.5-7c-0.5-0.9-0.7-2.2-2.3-1.4C428.3,278.5,428.1,278.4,428,278.3z"/>
	<path class="st60" d="M377.6,358c-0.6-8.1,0.1-15.9,5.7-22.5c0,0-0.1,0-0.1,0c1.3,1.5,0.7,2.7-0.7,3.8c-4.1,9.1-4.3,18.1,0.9,26.9
		c0.3,1-0.2,1.2-1,1.1C379.9,364.7,379,361.2,377.6,358z"/>
	<path class="st31" d="M428.4,278.7c-1,2.8-2.1,5.5-3,8.3c-2.4,6.9-1.8,13.7,2.7,20.9c-8.5-6.2-8.1-20.1,0-29.5
		C428.2,278.4,428.3,278.5,428.4,278.7z"/>
	<path class="st61" d="M348.9,303.7c-1.8,1-1.9-0.8-2.6-1.6c-1.2-1.3-1-3.6-3.2-4.1c-0.1-0.2-0.2-0.4-0.4-0.6
		c-0.7-2.5-1.7-5-1.8-7.7c0.2-2.8-0.6-5.7,0.2-8.5c2.5,0.9,2.1-1.5,2.8-2.6c1.3-2.3,2-5.1,4.6-6.5c0,0,0.2,0.1,0.3,0.3
		c0.1,0.1,0.1,0.3,0.1,0.4C341.9,283.1,342.2,293.4,348.9,303.7z"/>
	<path class="st3" d="M341.1,281.3c2.2,3,0.4,6.2,0.8,9.3c-1,0-1.4-0.6-1.6-1.4c-0.5-3.1-2.1-5.4-4.8-7.1c-1.6-0.9-1.6-2.9-2.6-4.5
		c0-0.4-0.2,0.3-0.2,0.3c1.3,2,0.3,3-1.7,3.5c-1.3-0.7-0.5-2.1-1.1-3c2.2-3.2,1.4-7,2-10.5c1.7,0,1.3,1.5,1.5,2.3
		c1.2,4.6,3.8,8.3,7.8,11L341.1,281.3z"/>
	<path class="st55" d="M193.3,314c-2.6-1.8-5.6-0.4-8.4-0.8c-1.9-0.3-4,0.6-5.7-0.9c2.6-2.7,5.8,0.5,8.5-0.8
		c0.6-0.1-0.1-0.8,0.2-0.3c0.1,0.2,0,0.3-0.3,0.3c-1.2-0.1-2.9,1.1-3.4-1.1c7.9,0.1,15.8,0.6,23.5,2.5c-0.7,0.4-1.4,0.7-2.2,1.1
		c-2.2,0.3-4.3,0.5-6.5,0.8C197,315.2,195,315.7,193.3,314z"/>
	<path class="st51" d="M400,334.8c-1.1-1.8-0.2-4.2-1.7-5.8c-1.1-4.7-0.5-9.4,0.7-14c-0.4-2.1,0.1-3.8,2.1-4.9
		c0.8,0.1,1.4,0.4,1,1.4c-3.9,10.8-2.5,21.1,2.9,31.1C401.8,339.6,401.5,339.1,400,334.8z"/>
	<path class="st62" d="M479.8,284c0.3-0.3,0.6-0.6,0.8-0.9c1,0.8,1.9,3.5,3.1-0.1c0.7-2.3,1.8-4.6,4.8-7.1
		c-2.3,5.7-4.8,10.3-4.8,15.5c0,5.4,2.2,10.1,4.4,14.8c-4.5-4.1-6.4-9.5-6-15.2C482.2,288.1,481.3,286.2,479.8,284z"/>
	<path class="st63" d="M443.3,356c0.2-0.1,0.5,0,0.7,0.1c1.5,0.6,1.7-0.2,2.1-1.4c1.2-3.7,3.1-7.1,6-10c-5.5,10.5-9.2,21.2-1.3,33.5
		c-4.8-4.1-7.2-10.4-6.3-16.1C444.9,359.7,444.5,357.9,443.3,356z"/>
	<path class="st64" d="M461.9,317.7c3.1-3,3.1-8,6.6-10.7c0.1,2.8-1.8,4.9-2.7,7.3c-3.3,8.9-2.7,17.3,3.4,25.8
		c-5.3-3.9-7.8-10.6-7.2-17.4C462.1,321.1,462.8,319.4,461.9,317.7z"/>
	<path class="st65" d="M348.9,256c0.5,1.1,0.9,2.1,1.5,3.4c-5-4.4-6.9-9.6-6.7-17.5c1.5-5.8,4.4-10.5,9.9-13.7
		C345.5,236.5,342.7,245.6,348.9,256z"/>
	<path class="st54" d="M312.3,284c-5.6-3.5-7-9.2-7.7-15c-0.7-6.9,1.7-12,7.4-17.2C303.6,262.7,305,273.4,312.3,284
		C312.2,284.1,312.3,284,312.3,284z"/>
	<path class="st33" d="M409.5,349c-7.2,12.3-7.5,24.8-0.9,37.5C400,377.3,400.4,358.6,409.5,349z"/>
	<path class="st66" d="M515.2,296c1.1,0.2,1.3,0.9,0.8,1.7c-5.9,10.6-3.2,20.7,1.7,30.7c0.4,0.9,1.4,1.7,0.8,3
		c-2.9-2.4-3-6.7-6.1-8.9c-0.2-1.8-0.4-3.7-0.8-5.5C510.3,309.5,511.3,302.5,515.2,296z"/>
	<path class="st67" d="M610.5,226.2c0.4-0.3,0.7-0.6,1.1-0.9c10.5,6.2,19.8,13.9,28.6,22.3c-0.5,0.4-1,0.4-1.5,0.1
		C629.9,239.8,620.2,233,610.5,226.2z"/>
	<path class="st68" d="M325.5,237.3c-6.4-10.6-3.4-20.1,7.7-23.7c-8.8,5.7-10.9,13.4-6.9,22.8C326.8,237.3,326.2,237.4,325.5,237.3z
		"/>
	<path class="st54" d="M326.7,280.4c-2.6-0.2-2.9-2.8-4.3-4.2c-1-1-0.7-3.1-2.8-3.1c0.3-2.1-0.5-4-0.7-6c-0.9-6.7,1-12.6,6.3-17.4
		C317.4,260.4,319.8,270.6,326.7,280.4z"/>
	<path class="st69" d="M477,326.3c-3.8,11.4-3,21.9,6.3,30.7c-10.3-6.9-12.6-17.8-7.2-31.6C476.9,325.2,477.4,325.3,477,326.3z"/>
	<path class="st70" d="M330,278.5c2,0.6,0.4,1.8,0.5,2.7c0.5,1,0.5,2.1,0.1,3.2c-2,6.7-0.5,12.9,2.9,18.8c0.5,0.8,0.8,1.7,0.7,2.7
		c-1.9,2-2.8-0.1-3.8-1.1c-1-1.1-1.8-2.6-3.7-1.7c-0.8,0-1.1-0.5-1.3-1.1c1.7-2.3,2.6-4.5,1.7-7.6c-0.9-2.8-0.5-5.9,0.2-8.8
		c0.4-1.6,0.8-3-0.3-4.4C329.7,282,329.2,279.6,330,278.5z"/>
	<path class="st31" d="M365.4,417c-5.8-0.3-11.3-2.5-17.3-1.4c-2.2,0.4-4.9-0.8-6-3.5c-0.8-2,0.9-2.6,1.9-3.7
		c1.3-0.3,1.5,0.8,1.8,1.6c0.8,2.8,3,2.5,5.2,2.3c5.9-0.5,11.5,0.6,16.6,3.8C367.3,417.6,366.4,417.4,365.4,417z"/>
	<path class="st64" d="M469.1,305.7c0.7-4-1.3-7.9-0.6-12c0.7-4.3,2-8.5,4.3-12.2c0.2-0.3,0.7-0.9,0.8-0.8c0.8,0.3,0.2,1,0.3,1.6
		c-5.7,10.7-4.3,21.3,2,32.7C471.7,312,471.8,307.9,469.1,305.7z"/>
	<path class="st71" d="M509.6,326.6c0.5,1.1,0,2.1-0.3,3.2c-3.1,9.7-2.3,18.7,4.7,26.6c0.3,0.3,2.8,2.3-0.6,1.5
		C503.9,347.2,504.2,335.7,509.6,326.6z"/>
	<path class="st72" d="M463.5,337c-2.3,10-3.6,19.8,5.3,28.5C459.6,361.1,457.3,347.9,463.5,337z"/>
	<path class="st69" d="M498.5,331.7c-2.7-3.6-2-8.6-4.9-12.1l0.1,0.1c1.6-5.8,0.7-12.2,3.9-17.7c0.9-0.2,1.4,0,1,1.1
		c-3.2,9.4-3,18.6,1,27.7C499.8,331.7,499.4,331.9,498.5,331.7z"/>
	<path class="st73" d="M497.8,280c-6.9-8.6-6.9-18-0.1-26.7C494.7,262.1,492.2,271,497.8,280z"/>
	<path class="st61" d="M341.2,281.3c-6-2.4-7.8-7.8-9.3-13.3c0.1-5.9,1.9-11.3,5.5-16c0.6-0.8,1-2,2.4-1.6c-1.2,2.2-2.5,4.3-3.6,6.5
		C331.4,266.4,334.1,274.3,341.2,281.3z"/>
	<path class="st74" d="M173.5,249.3c0.7,1.8-0.5,4,1,5.7c-0.6,6.8-2.8,13.2-4.5,19.8c0,0-0.5,0-0.5,0l-0.5,0.1
		c2.7-7.5-4.5-6.7-7.8-9.2c0.1-0.7,0.6-1.2,1.2-1.5c0.8-0.1,1.5,0.2,2.3,0.3c1.6,0.4,3,2.5,4.6,1.1c1.5-1.3,0-3.2,0-4.9
		c0-0.4,0.2-0.9,0.4-1.2c1.8-1.4,1.7-3.5,1.8-5.5C171.7,252.3,171.1,250.1,173.5,249.3z"/>
	<path class="st75" d="M482.6,238.3c-2.1-0.7-2.1-0.7-3-2.2c-2.2-3.3-3-7.1-3.8-10.9c0.8-6.9,3.4-12.8,9.9-16.6
		C476.5,217.7,475,227.6,482.6,238.3z"/>
	<path class="st76" d="M521.3,350.5c1-2-0.5-3.6-0.9-5.3c-2.1-8.6,0.2-16.2,5.3-23.1c0.1-0.1,0.3-0.2,0.4-0.2
		c0.2,0.1,0.4,0.3,0.7,0.5c-6.2,10.2-7.8,20.6-0.6,31.7C523.5,353.1,523.5,350.5,521.3,350.5z"/>
	<path class="st77" d="M325.5,237.3c0.3-0.3,0.5-0.6,0.8-0.9c0.8,0.1,1,3,2.4,0.4c1.3-2.6,3.1-4.9,6-6.6c-6.6,8-9.1,16.5-2.8,25.9
		c-4-3.7-6.1-7.9-5-13.2C327.3,240.7,326.7,239,325.5,237.3z"/>
	<path class="st78" d="M589.2,285.1c-0.3-0.3-0.7-0.7-1-1c6.3-8.8,15.7-13.1,25.3-17.2c0.4,0.4,0.4,0.8-0.1,1.2
		C604.3,272.3,595.8,277.4,589.2,285.1z"/>
	<path class="st79" d="M303.5,261.2c-8.9-9.2-8.3-21.9,1.5-28.3C297,242,297.4,251.4,303.5,261.2z"/>
	<path class="st63" d="M449.8,404.2c-9-6.5-8.8-20.9-3.9-27.8C443.3,386.2,442.7,395.7,449.8,404.2z"/>
	<path class="st80" d="M599.4,263.4c-0.4-0.3-0.8-0.7-1.1-1c7.7-5.8,17.2-7.1,26-10C616.3,256.7,607.2,258.7,599.4,263.4z"/>
	<path class="st81" d="M528.5,194.2c-1,0.3-2.1-0.1-2.9,0.9c-8.4-1.2-16.8-2.5-25.3-3.7c-0.1-1.8,1.1-1.2,2-1
		C511.2,191,519.9,192.1,528.5,194.2z"/>
	<path class="st82" d="M517.2,277.5c0.3-0.3,0.5-0.6,0.8-0.9c0.8-1.1,1.5-2.2,2.5-3.6c0.5,1.5-0.3,2.4-0.7,3.4
		c-2.7,7.8-1.9,15.2,2.5,22.2c0.9,1.4,2.4,2.5,2.2,4.4c-3.3-3.4-6-7.1-7.5-11.7C516.6,286.8,517.1,282.1,517.2,277.5z"/>
	<path class="st83" d="M338.4,194.3c0.9-1.4,2.9-0.1,3.7-1.7c2.6-2.8,5.8-3.9,9.5-3.6c3.9,0.4,7.5-0.8,11.1-2.1
		c0.7,0.3,1.3,0.6,2,0.9c-2.6,1.3-5.3,2.7-8.3,2.8c-4.9,0.2-9.9-0.7-14,3.3C341.7,194.7,339.8,194.2,338.4,194.3z"/>
	<path class="st76" d="M517.8,368.3c-0.3-5.9-0.2-11.8,3.1-17.1c0.5,2.6-0.7,4.9-1.1,7.3c-1.5,8.2,0.1,15.4,6.4,21.4
		C521.6,378.1,519.9,375.6,517.8,368.3z"/>
	<path class="st84" d="M352.3,272.9c-1.6-5.3-1.8-10.6,0.1-15.9c1-1.5,2-3,3-4.5c-4.7,9.4-3.8,18.5,2.6,28.2c-2.7-1.4-3.2-2.8-3.8-4
		C353.5,275.4,352.9,274.1,352.3,272.9z"/>
	<path class="st85" d="M538.7,229c-4.5,6.9-3.7,14-0.1,22.4c-6.4-7.2-6.3-15.7-0.8-23.4C538.6,227.8,539.1,228,538.7,229z"/>
	<path class="st86" d="M373.2,411.2c-0.7,0.3-1.3,0.6-2,0.9c-0.3,0.3-0.7,0.8-1.2,0.7c-7.5-1.4-14.9-2.8-21.5-7
		c-0.1-0.9,0.2-1.5,1.3-1.3C357.6,406.7,365.4,408.9,373.2,411.2z"/>
	<path class="st80" d="M451.8,314.2c-2.8,8.6-2.8,16.9,1.7,25.1c-6.6-8.1-6.1-16.9-2.6-26C451.7,313,452.1,313.2,451.8,314.2z"/>
	<path class="st87" d="M440.1,172c0.4-0.3,0.8-0.6,1.1-0.9c7.8,3,15.1,7.1,22.4,11.2c0.2,0.9-0.4,1.2-1.2,1.3
		c-7.2-2.5-13.8-6.4-20.8-9.4C440.9,173.8,440.2,173.1,440.1,172z"/>
	<path class="st88" d="M297,378.7c0.4-0.3,0.7-0.7,1.1-1c6.5,4.1,13.1,8.1,19.6,12.2c0.2,0.8,0,1.3-1,0.9
		C309.9,387.3,303.1,383.4,297,378.7z"/>
	<path class="st89" d="M316.8,390.8c0.3-0.3,0.6-0.6,1-0.9c7.2,3.5,14.4,7.1,21.6,10.6C331.4,398.3,323.7,395.3,316.8,390.8z"/>
	<path class="st90" d="M420.9,355.2c0.2-0.2,0.4-0.3,0.6-0.1c-2.4,8.2-0.4,15.9,2.6,23.5c-2.8,0.3-1.6-4-4.3-3.8l0.1,0.1
		c0.7-2.3-0.3-4.5-0.6-6.7C418.6,363.7,417.8,359.2,420.9,355.2z"/>
	<path class="st91" d="M488.8,346.3c-4-9.9-1.6-18.7,4.9-26.7c0,0-0.1-0.1-0.1-0.1c-1.3,3.5-2.8,7-4,10.6c-1.5,4.6-1.5,9.4-0.3,14.1
		C489.5,345.1,489.4,345.8,488.8,346.3z"/>
	<path class="st92" d="M502.4,190.4c-0.7,0.3-1.3,0.7-2,1c-7.5-0.9-15-1.8-22.5-2.6c-0.3-0.2-0.5-0.4-0.4-0.6
		c0.1-0.2,0.2-0.3,0.3-0.3C486,188.5,494.3,188.6,502.4,190.4z"/>
	<path class="st93" d="M188.6,230.8c1.1-1.8,3.4-0.3,4.6-1.7c0.3-0.9,1.3-0.6,1.9-1c0.5,0,1-0.1,1.5-0.1c2.7,1.7,5.5,2.9,8.9,2.8
		c2.9-0.1,5.2,1.1,6.5,3.9c0,0,0.1-0.1,0.1-0.1C204.7,230.9,196.7,230.8,188.6,230.8z"/>
	<path class="st94" d="M525.5,303.7c0.6,0,1.3,0,1.9,0c1-0.2,1.4,0.1,1.1,1.1c-0.8,6.3-0.5,12.4,1.9,18.4c0.4,1-0.1,1.2-1,1
		c-0.4-0.6-0.8-1.2-1.2-1.8c-1.5-4.6-2.3-9.3-1.7-14.2C526.7,306.6,527.2,304.9,525.5,303.7z"/>
	<path class="st39" d="M248.6,225.3c2.4,2.3,3.9-0.5,5.8-0.9c3.6,3,7.8,0.7,12.1,1c-4,5.9-9.1,0-13.2,1.9c-1.7,0-3.3-0.1-5-0.1
		c-0.6,0-1.8,0.4-1.5-0.9C246.8,225.4,247.8,225.2,248.6,225.3z"/>
	<path class="st4" d="M379.6,272.6c0.6,2.6,1.2,5.2,1.8,7.8c-2.6,0-2.9,2.8-4.6,4c-1.4-2.5-5-3.4-4.7-7c0.9,0.7,1.8,1.6,2.9,2.2
		c1.8,0.9,0.2-0.8,0.6-1C380.2,278.8,379.5,275.4,379.6,272.6z"/>
	<path class="st83" d="M395.4,188.6c-0.8-1-2-0.5-3-0.9c0.5-2.5,2.9-0.5,4-1.7c0-0.3,0-0.6,0-1c3.2,0.1,6.3,0.3,9.5-0.2
		c1.6-0.2,3.4-0.3,4.6,1.3c1.1,1,2.6,0.3,3.8,0.8C408.1,188.3,401.7,187.8,395.4,188.6z"/>
	<path class="st95" d="M705.1,301c0.3-0.3,0.6-0.6,0.9-0.9c6.4,5,12.2,10.5,18,16.2c-0.3,0.3-0.5,0.6-0.8,0.9
		C717.3,311.7,711.2,306.4,705.1,301z"/>
	<path class="st96" d="M603,377.7c0.4-0.3,0.7-0.6,1.1-1c6.8,3.4,13.8,6.4,21.4,7.6c-0.3,2.1-1.7,1-2.7,0.9
		C615.7,383.9,609,381.8,603,377.7z"/>
	<path class="st97" d="M416.1,385.2c-1.9,8.1-0.7,15.6,4.2,22.4c-0.5,0.4-1,0.3-1.5,0c-5.9-7.4-5.9-15.6-3.7-24.2
		C417,383.2,416.5,384.2,416.1,385.2z"/>
	<path class="st98" d="M219.8,339.1c1.1-1,0.1-2.8,1.5-3.7c1.8,4.3,5.5,5.8,9.6,6.9c2.5,0.7,5.6,0.9,6.5,4.2
		c-0.3,0.3-0.6,0.6-0.9,0.9c-3.2-1.6-6.6-2.6-9.9-3.6C223.9,343,220.9,342.4,219.8,339.1z"/>
	<path class="st99" d="M583.5,398.1c-0.6-0.3-1.3-0.6-1.9-1c7.9-2.4,14.7,0.3,21.3,4.4C596.7,398.5,590.2,398,583.5,398.1z"/>
	<path class="st100" d="M460.9,280.4c-4.4,3.8-5.4,9.1-5.7,14.5c-0.1,1.7,0,3.4,0,5.1c-0.6,0.5-0.1,1.6-0.9,2c-1-4,1-8.4-1.3-12.3
		c3.3-2.8,3.2-7.9,7.1-10.3C460.9,279.3,461.2,279.6,460.9,280.4z"/>
	<path class="st101" d="M107.3,262.7c0.4,0.9,1.4,0.7,2,1c-7,1.2-13.9,3-21,3.5C94.2,263.8,100.9,263.7,107.3,262.7z"/>
	<path class="st102" d="M365.4,417c0.7-0.3,1.3-0.6,2-1c1-1,2.3-0.8,3.5-0.6c5.5,1,10.9,2.5,16.4,3.7c1.2,0.3,2.5,0.7,2.8,2.1
		c-0.7,0.3-1.3,0.7-2,1C380.6,420.1,373,418.4,365.4,417z"/>
	<path class="st103" d="M440.9,228.2c-3.8-9.1-1.5-17.3,3.9-25.1c-3.7,7.9-5.9,15.9-3.2,24.5C441.7,228.3,441.5,228.4,440.9,228.2z"
		/>
	<path class="st104" d="M550.7,423.3c-0.7-0.3-1.3-0.6-2-1c7.2-1.8,14.5-3.6,21.7-5.4c0.3,0.2,0.4,0.4,0.3,0.6
		c-0.1,0.2-0.2,0.3-0.3,0.3C564,420.1,557.4,422,550.7,423.3z"/>
	<path class="st105" d="M656.7,260.7c-0.3,0.3-0.7,0.6-1,0.9c-4.7-3.4-9.4-6.7-14.1-10.1c-0.6-1-0.7-1.8,0.9-1.8
		C646.5,254.1,652.1,256.7,656.7,260.7z"/>
	<path class="st106" d="M175.4,320.7c0.3-0.3,0.7-0.6,1-0.9c3.2-2.2,7-1.9,10.6-2.4c0.5,0,1,0.2,1.4,0.5c3.2,1.2,6.6,0.6,11,1.1
		c-5.8,1.6-10.9-0.4-15.5,1.6C181.1,320.2,178.3,322.7,175.4,320.7z"/>
	<path class="st107" d="M503,290.9c-2.5-7.2-0.5-13.6,3.5-19.7c-1.6,5.8-3.8,11.5-2.6,17.7C503.3,289.4,503.8,290.4,503,290.9z"/>
	<path class="st108" d="M488.8,346.3c0.2-0.7,0.3-1.3,0.5-2c1.4,2.8,2.8,5.6,4.4,8.7c-2.4-0.6-2.4-3.2-4.4-3.9c-2,3-1.5,6.8-2.9,10
		c-1-0.4-0.4-1.5-1-2.1C485.5,353.2,488.2,350.1,488.8,346.3z"/>
	<path class="st109" d="M284.3,287.7c1.8,4.7,3.4,9.4,6,13.8c-3-3.9-7.4-7-7-12.7C283.6,288.4,283.7,287.8,284.3,287.7z"/>
	<path class="st110" d="M457.3,214.6c-3.9-6.2-3.4-11.8,1.4-16C455.8,203.7,455.3,209,457.3,214.6z"/>
	<path class="st111" d="M485.4,357.1c0.3,0.7,0.7,1.4,1,2.1c-0.5,6.1,1,11.8,4.2,17C484.6,371,484.5,364.2,485.4,357.1z"/>
	<path class="st112" d="M205.6,235.4c-0.6,0.3-1.2,0.6-1.8,0.9c-5.5,0.5-10.7-1.4-16-1.7c0-0.4,0.1-0.8,0.1-1.2
		C193.8,234,199.7,234.7,205.6,235.4z"/>
	<path class="st113" d="M622.8,385.2c0.9-0.3,2,0.1,2.7-0.9c5.5,0.8,11,1.4,16.3,3.3C635.4,387,628.9,387.3,622.8,385.2z"/>
	<path class="st114" d="M184.2,310.4c1.1,1.3,2.9,0.4,4.4,1.5c-3.3,0.8-6.3,0.3-9.4,0.4c-1.5-1-3.1-2-4.6-3
		C177.9,309.4,181.1,309,184.2,310.4z"/>
	<path class="st115" d="M475.8,418.7c0.3,0.3,0.6,0.6,1,0.9c-1.3,0.8-2.6,1.6-3.9,2.5c-4.2,3.2-4.3,5-0.5,8.7
		c-0.4,0.3-0.7,0.6-1.1,0.9c-3.7-2.5-4.3-5.9-1.5-9C471.5,420.9,473.6,419.6,475.8,418.7z"/>
	<path class="st116" d="M741.5,335.6c-0.3,0.3-0.5,0.6-0.8,0.9c-3.8-4.5-7.6-9.1-11.4-13.6C734.3,326.3,738.4,330.5,741.5,335.6z"/>
	<path class="st117" d="M443.1,186.7c0-0.2,0-0.4,0-0.7c2.5-2.3,5.5-1.7,8.3-1.2c3.8,0.6,7.6,0.7,11.4,0.8c0.8,0,1.7,0.2,2.4,0.7
		c0.5,0.4,0.7,0.8,0.4,1.4c-4.9,0-9.8,0-14.7,0C448.4,186.5,445.6,188.2,443.1,186.7z"/>
	<path class="st118" d="M443.1,186.7c2.5,1,5.3-0.7,7.8,1c-8.5-0.2-17,1-25.5-0.7C431.3,186.9,437.2,186.8,443.1,186.7z"/>
	<path class="st119" d="M570.4,417.8c0-0.3,0-0.6,0-0.9c5-1.6,9.8-3.8,15-4.8c0.4,0.4,0.7,0.7,1.1,1.1
		C581.4,415.4,575.9,416.7,570.4,417.8z"/>
	<path class="st120" d="M390.9,381.3c1.8,4.2,3.5,8.5,6.9,11.7c-4.7-2.5-7.2-6.5-7.9-11.8C390.3,380.9,390.6,380.9,390.9,381.3z"/>
	<path class="st33" d="M356.9,370.4c1.9,4.1,3.9,8.2,7.1,11.5C359.6,379.4,357.1,375.6,356.9,370.4z"/>
	<path class="st121" d="M465.6,187.7c-0.1-0.2-0.1-0.4,0-0.7c-0.2-0.5,1.3-0.6,0.4-1c-1.4-0.7-3.1-0.8-3.2-2.8
		c0.3-0.3,0.6-0.6,0.9-0.9c2.2,1.3,4.5,2.7,6.7,4c0.5,0.7,0.6,1.4,0.1,2.1C468.7,188.8,467.1,188.7,465.6,187.7z"/>
	<path class="st122" d="M349.8,404.5c-0.3,0.3-0.7,0.7-1,1c-2.1,0.8-0.9,4.6-4,4.6c0-0.7,0.6-1.7-0.8-1.7c0-0.1-0.1-0.3-0.1-0.4
		C344.1,401.7,344.1,401.7,349.8,404.5z"/>
	<path class="st96" d="M290.8,254.3c-0.4,4.1,0.5,8,1.9,11.9c0.4,1-0.1,1.2-0.9,1c-2.7-4.7-2.6-9.7-1.9-14.7
		C291.7,252.3,291,253.4,290.8,254.3z"/>
	<path class="st123" d="M290.8,254.3c-0.3-0.6-0.6-1.3-0.9-1.9c0.6-4.2,2.9-7.3,6.2-10C294,246.3,292.1,250.2,290.8,254.3z"/>
	<path class="st61" d="M642.7,371.9c0.3-0.3,0.6-0.7,0.9-1c2.7,3,5.4,6,9.1,7.8c0.2,0.8,0.1,1.3-0.9,0.9
		C648,377.9,644.8,375.6,642.7,371.9z"/>
	<path class="st124" d="M283.4,277.7c0.8-4.2,2.7-7.8,5.9-10.8c-1.8,3.9-3.6,7.8-5,11.9C283.7,278.7,283.6,278.1,283.4,277.7z"/>
	<path class="st125" d="M359,349.5c0.9,0.7,1.1,1.6,0.9,2.7c-0.9,3.5-1.8,6.9-2.7,10.4C355.4,357.7,359.6,354.1,359,349.5z"/>
	<path class="st126" d="M392.7,360.8c0.5,1,1.1,2,1.6,3c-2.8,2.5-1.6,6.4-3.5,9.2c-0.4-0.2-0.7-0.5-0.8-0.8
		C389.7,368.1,393,364.8,392.7,360.8z"/>
	<path class="st63" d="M291.8,267.2c0.3-0.3,0.6-0.7,0.9-1c2,3.1,4.1,6.3,6.1,9.4C295.5,273.6,293.2,270.7,291.8,267.2z"/>
	<path class="st127" d="M503,290.9c0.3-0.7,0.6-1.4,0.9-2c1.3,3.7,2.6,7.4,3.9,11.1C505.4,297.2,502.8,294.7,503,290.9z"/>
	<path class="st128" d="M416.1,385.2c-0.2-0.7,0-1.5-0.9-1.9c1-3.1,1.8-6.3,4.6-8.5c0,0-0.1-0.1-0.1-0.1
		C419.3,378.5,417.3,381.7,416.1,385.2z"/>
	<path class="st78" d="M454.3,302c0.3-0.7,0.6-1.3,0.9-2c0.4,3.6,1.8,6.8,3,10.2c0.5,1,0,1-0.8,0.9c-1.2-1.1-0.4-3.7-3-3.7l0.1,0.1
		C455.8,305.6,454,303.8,454.3,302z"/>
	<path class="st129" d="M528.5,304.8c-0.4-0.4-0.8-0.8-1.1-1.1c0.9-3.6,1.9-7.1,4.8-9.7C530.9,297.6,529.7,301.2,528.5,304.8z"/>
	<path class="st130" d="M647.1,275.6c-0.3-0.3-0.6-0.6-0.9-0.8c3.2-2.8,6.8-2.1,10.5-1.5C653.5,273.9,650.1,274.2,647.1,275.6z"/>
	<path class="st128" d="M613.5,268.2c0-0.4,0-0.8,0.1-1.2c2.6-1.9,5.5-3.5,10-4.7C619.7,265.4,616.7,266.9,613.5,268.2z"/>
	<path class="st131" d="M498.5,331.7c0.3-0.3,0.7-0.7,1-1c1.5,2.6,3.1,5.2,4.6,7.8C501.2,336.9,499.6,334.5,498.5,331.7z"/>
	<path class="st109" d="M554.5,395.3c-2.1,3-5.6,2.7-8.5,3.7c-0.3-0.3-0.7-0.7-1-1C548,396.3,551.3,396.1,554.5,395.3z"/>
	<path class="st4" d="M382.6,339.3c0-1.3,1.3-2.4,0.7-3.8c3.6,0.2,2.8,3.9,4.4,5.7C386,340.5,384.3,339.9,382.6,339.3z"/>
	<path class="st120" d="M687.3,326c-0.3-0.3-0.6-0.6-0.9-0.9c2.7-1.6,5.9-2.4,8.1-5C693.2,323.4,690.7,325.3,687.3,326z"/>
	<path class="st132" d="M477,326.3c-0.3-0.3-0.6-0.6-0.9-0.9c0.5-2.5,2.2-4.3,3.6-6.3C480,322,478.3,324,477,326.3z"/>
	<path class="st133" d="M595.7,383.3c0.3-0.3,0.6-0.5,0.9-0.8c2.9,1.4,5.1,3.6,7,6.4C600.9,387,598.3,385.1,595.7,383.3z"/>
	<path class="st134" d="M529.4,324.3c0.3-0.3,0.7-0.7,1-1c1.6,2.6,3.1,5.3,4.7,7.9C532.2,329.6,530.4,327.3,529.4,324.3z"/>
	<path class="st90" d="M498.6,303c-0.3-0.4-0.7-0.7-1-1.1c0.9-2.5,2-4.8,4.6-7.1C501.6,298.3,500,300.6,498.6,303z"/>
	<path class="st69" d="M348.7,356.1c0.3-0.4,0.7-0.7,1-1.1c1.6,2,3.3,3.9,4.9,5.9C351.8,360.1,350,358.4,348.7,356.1z"/>
	<path class="st135" d="M491,424.5c0.3,0.3,0.6,0.6,0.9,0.9c-2.1,1.5-4.2,3-6.3,4.5C486.6,427.2,488.5,425.5,491,424.5z"/>
	<path class="st136" d="M625.9,250.9c2.4-1.1,4.9-2.1,7.3-3.2c-1.8,2.4-4.2,3.5-6.7,4.4C626.3,251.7,626.1,251.3,625.9,250.9z"/>
	<path class="st137" d="M283.4,277.7c0.3,0.4,0.6,0.7,1,1.1c0,3-0.1,6-0.1,9c-0.3,0.3-0.7,0.7-1,1
		C282.6,285,282.7,281.3,283.4,277.7z"/>
	<path class="st138" d="M457.4,311.1c0.3-0.3,0.5-0.6,0.8-0.9c1.5,2.4,3,4.8,3.7,7.6C459.4,316.3,458.5,313.6,457.4,311.1z"/>
	<path class="st139" d="M418.9,407.5c0.5,0,1,0,1.5,0c1.8,1.3,3.7,2.6,5.5,3.9c-0.5,0.5-1,1-1.5,1.5
		C422.2,411.5,420.3,409.8,418.9,407.5z"/>
	<path class="st121" d="M642.4,249.6c-0.8,0.4-1,1-0.9,1.8c-1.2-1.1-4.2-0.8-2.8-3.8c0.5,0,1,0,1.5-0.1
		C641.4,247.8,642,248.6,642.4,249.6z"/>
	<path class="st140" d="M382.4,367.3c0.3-0.4,0.7-0.7,1-1.1c1.5,1.8,3,3.5,4.5,5.3C385.2,371,383.7,369.3,382.4,367.3z"/>
	<path class="st141" d="M466.3,192.8c-2.1,2.3-3.8,3.3-6.5,4.5C461.4,194.3,463.2,193.5,466.3,192.8z"/>
	<path class="st81" d="M470.5,188.5c0-0.7-0.1-1.4-0.1-2.1c2.3,1.5,4.9,1.3,7.4,1.5c0,0.3,0.1,0.6,0.1,0.9
		C475.3,190.5,472.9,188.1,470.5,188.5z"/>
	<path class="st142" d="M442.2,320.4c0.4-0.6,0.7-1.2,1.1-1.8c1.1,1.8,2.2,3.7,3.7,6.1C444.3,323.7,443.8,321.5,442.2,320.4z"/>
	<path class="st143" d="M451.8,314.2c-0.3-0.3-0.6-0.6-1-0.9c0.9-2.1,1.3-4.6,3.7-5.8c0,0-0.1-0.1-0.1-0.1
		C454.2,309.9,453.1,312.1,451.8,314.2z"/>
	<path class="st144" d="M538.7,229c-0.3-0.3-0.6-0.7-0.9-1c1.2-1.9,2.7-3.6,5.3-4.2C541.6,225.5,540.1,227.2,538.7,229z"/>
	<path class="st145" d="M426.4,248.6c-0.1-0.6-0.4-1-1-1c0.9-1.7,2.4-2.7,4.7-3.3C429,246.3,427.9,247.6,426.4,248.6z"/>
	<path class="st146" d="M280.4,332.7c0.3-0.3,0.7-0.7,1-1c1.2,1.9,2.4,3.9,3.6,5.8C282.7,336.5,281.3,334.8,280.4,332.7z"/>
	<path class="st6" d="M410.6,280.4c0-1,1.2-1.7,0.7-2.9c3-0.2,1.9,2.5,2.7,3.8C412.7,281.4,411.6,281,410.6,280.4z"/>
	<path class="st103" d="M440.4,232.7c-0.3-0.3-0.5-0.6-0.8-0.9c0.4-1.2,0.9-2.4,1.3-3.6c0.2-0.2,0.5-0.3,0.7-0.5
		C444.5,230.2,442.1,231.3,440.4,232.7z"/>
	<path class="st147" d="M565.9,395c-1.4,1.3-2.8,2-5.6,2.1C562.4,394.8,564.2,394.9,565.9,395z"/>
	<path class="st148" d="M390,372.1c0.3,0.3,0.6,0.6,0.8,0.8c0,2.8,0,5.6,0.1,8.4c-0.3,0-0.6,0-1,0C390,378.3,390,375.2,390,372.1z"
		/>
	<path class="st149" d="M651.8,379.6c0.3-0.3,0.6-0.6,0.9-0.9c1.7,0.7,3.4,1.3,5,2C655.5,381.5,653.5,381,651.8,379.6z"/>
	<path class="st150" d="M402.2,311.4c-0.3-0.4-0.7-0.7-1-1.1c-0.5-2.9,0.5-4.7,3.7-4.7c0,0-0.1-0.1-0.1-0.1
		C404.3,307.6,403.5,309.6,402.2,311.4z"/>
	<path class="st10" d="M169.9,260.6c1.2,1.5,1.7,2.9,1.1,5c-0.7,2.7-1.5,3-3.7,1.3c-1.4-1.1-3.1-2-5-2.3c-7.7-1.4-15.2-3.8-23.1-4.3
		c-6-0.4-11.8-2.4-17.8-1.4c-0.9-0.3-1.9-0.5-2.8-0.8c1.8-2.8-2.2-2.9-2.2-5.1c2.7-1.5,6.1,0.3,8.7-1.4c2.9,0,5.2-0.4,4.4-4.3
		c-0.2-1,0-2.5,1-3.4c1.6,1.2,1.3,3.4,2.6,4.8c2.1,1.9,4.8,2,7.4,2.5c8.3,1.6,16.3,3.8,24.3,6.5C166.7,258.2,168.6,259,169.9,260.6z
		"/>
	<path class="st151" d="M64.4,302.6c27.9,1.8,55.9,2.3,83.8,0c0.9-0.2,2.1-0.8,2.1,1c-30.2,4.5-60.4,3.2-90.6-0.1
		C60.8,301.2,62.7,302.7,64.4,302.6z"/>
	<path class="st152" d="M153,293.3c-28.4,4.4-56.7,3.2-84.9-0.9c0.4-2.2,1.8-1,2.8-0.9c12.3,0.8,24.5,1.8,36.8,2.2
		c14.2,0.6,28.3-0.1,42.4-1.4C151.1,292.4,152.6,291.1,153,293.3z"/>
	<path class="st57" d="M87.8,283c24,1.7,48,3.8,72.1,1.5c-25,4.9-50,2.7-75-0.4C85.1,281.8,86.7,283,87.8,283z"/>
	<path class="st56" d="M111.5,267.5c18,1,36.1,2,53,9.2C147.1,272.2,129.1,271.2,111.5,267.5z"/>
	<path class="st3" d="M187.9,317.9c-3.8,0.6-7.7,1.3-11.5,1.9c-1.9-0.5-3.5-1.5-4.8-2.9c2.3-0.9,2-2.8,2-4.7
		c6.3,3.6,13.1,1.7,19.7,1.8c1.9,0.6,3.9-0.3,5.7,0.8c-1.2,3.2-4.7,1.4-6.6,2.9c-2.6-3.1-6.6-0.6-8.9-2.3c-1.3-0.2-0.6,0.8-0.7,0.2
		c0-0.2,0.1-0.2,0.4-0.2C185.1,315.5,186.7,316.3,187.9,317.9z"/>
	<path class="st18" d="M121.5,258.8c0.1-0.7,0.6-1.1,1.3-1.1c13.4,1,26.9,1.6,39.6,6.8c-0.4,0.4-0.7,0.7-1.1,1.1
		C148.3,262.1,134.8,260.7,121.5,258.8z"/>
	<path class="st153" d="M87.8,283c-0.9,0.6-2.3-0.1-2.9,1c-4.1,0.1-7.9-1.2-11.7-2.4C78,282,83,281.6,87.8,283z"/>
	<path class="st38" d="M153,293.3c-0.7-1-2-0.5-2.9-1c4.4-1.3,9-1.5,13.5-1.6C160.2,292.1,156.7,293.1,153,293.3z"/>
	<path class="st154" d="M150.2,303.6c-0.7-0.3-1.4-0.7-2.1-1c4.2-1.3,8.6-1.2,13-1.5C157.7,302.8,154,303.3,150.2,303.6z"/>
	<path class="st100" d="M64.4,302.6c-1.5,0.7-3.3-0.4-4.7,0.9c-3.1-0.3-6.2-0.6-9.4-0.9c-0.3-0.9-0.1-1.2,0.9-0.9
		C55.6,301.8,60,301.4,64.4,302.6z"/>
	<path class="st49" d="M70.9,291.5c-0.9,0.3-1.9,0.6-2.8,0.9c-2.4-0.3-4.7-0.7-7.1-1C64.4,290.5,67.7,290.2,70.9,291.5z"/>
	<path class="st155" d="M51.2,301.7c-0.3,0.3-0.6,0.6-0.9,0.9c-1.9,0.2-3.5-0.3-5.6-1.6C47.3,300.9,49.3,300.5,51.2,301.7z"/>
	<path class="st156" d="M462.7,183.2c1.3,0.8,2.7,1.5,3.7,2.6c1.6,1.6-0.8,0.7-0.9,1.3c-0.6-0.1-1.2-0.2-1.8-0.4
		c-2.9-0.8-6.7,0.3-8.3-3.6c-9-4.7-18.6-7.7-28.5-9.7c-2.1-0.4-4.1-1-5.9-2.3c-2.8-1.9-6-2.2-9.3-0.9c-1.8,0.7-3.7,1.6-5.8,1.5
		c4.3-7.5,11.1-5.7,17.5-4.9c5.9,0.8,11.2,3.5,16.8,5.3C447.7,175.8,455.2,179.5,462.7,183.2z"/>
	<path class="st118" d="M455.5,183.1c2.6,1.6,5.3,2.9,8.3,3.6c-6.9-0.2-13.7-0.4-20.6-0.7c-0.6-0.4-1.2-0.8-1.8-1.1
		c-0.2,0-0.5-0.1-0.7-0.1c-4.5-2.7-9.2-4.9-14.4-6c-1.7-0.4-3.9-0.5-3.8-3.2c0.9-2.3,2.3-1.6,4.1-1c8.8,3,17.5,5.9,26.3,8.8
		C453.7,183.7,454.9,185.5,455.5,183.1z"/>
	<path class="st157" d="M410.5,186.1c-2.6,0.1-5.2-0.1-7.7,0.3c-2.5,0.4-4.4-0.1-6.3-1.5c-0.4-1-2.3-1.1-1.8-2.4
		c0.5-1.3,1.9-0.5,2.9-0.5c5.6,0.3,11.1,0.7,16.6-1.3c3.4-1.2,4.8,3.1,7.7,4.1c0,0.4-0.1,0.8-0.1,1.2
		C418,186.1,414.2,186.1,410.5,186.1z"/>
	<path class="st158" d="M441.3,184.9c-6.5,1.2-13,2.9-18.9-2c-1.4-1.2-3-2.1-4.5-3.2c0.6-1.8,2.4-1.6,3.7-2.2
		c7,1.5,13.7,3.5,19.7,7.5L441.3,184.9z"/>
	<path class="st31" d="M441.4,185c-6.6-2.5-13.2-5-19.7-7.5c0-0.8,0.1-1.5,0.8-1.9c0.5,2.2,2.5,1.4,3.8,1.9
		C431.6,179.4,437.5,180.2,441.4,185z"/>
	<path class="st159" d="M396.4,185.9c-0.7,1.9-3,0.4-4,1.7c-3,0.2-6.1,0.5-8.9,0.7C389.1,184.6,389.8,184.5,396.4,185.9z"/>
	<path class="st9" d="M404.9,305.6c-2.3,0.8-2.9,2.8-3.7,4.7c-0.7,1.5-1.4,3.1-2.1,4.6c-0.6,0-1.3,0.1-1.9,0.1
		c-4.6-2.8-6.5-7.4-7.3-12.2c-0.8-5.1-1-10.5,1.9-15.3c0.6-1,1.3-2.1,0.9-3.5c0.5-1.3,2-2.1,1.9-3.7c2,3.3,4.2,6.5,7.6,8.6
		c0.9,0.6,2,1.1,1.7,2.5C402.6,296.3,404.3,300.9,404.9,305.6z"/>
	<path class="st160" d="M392.7,284.1c2.2,1.6,0,3-0.5,4.2c-3.5,9.9-1.9,18.8,4.9,26.8c0,0.3,0.2,0.6,0.1,0.9
		c-0.2,0.6-0.5,0.5-0.9,0.1c-2-1.7-3.7-3.8-5-6c-0.6-1-0.7-2.6-2.5-2.2c-1.8-2.7-1.9-5.9-2-9c0-3.7,0.3-7.3,0.5-11
		c0.3-0.1,0.6-0.1,0.9,0C392.4,289.8,390.9,284.9,392.7,284.1z"/>
	<path class="st161" d="M237.4,346.6c-3.1-3.2-7.6-3-11.3-4.5c-3.2-1.3-5.5-2.9-4.8-6.7c0.1-1.3,0.3-2.7,0.4-4.4
		c12.9,8.9,25.9,16.8,41.3,20.6c-0.3-1.7-2-1-2.3-2.1c0.8,0,1.5-0.2,1.9-0.9c4.6,4.1,9.2,8.2,13.8,12.2c-0.4,0.4-0.8,0.8-1.2,1.2
		C261.1,360.5,247.9,356.9,237.4,346.6z"/>
	<path class="st26" d="M255,337.5c0.8,0.3,1.1,0.9,1.1,1.7c-10.9,0.4-17.3-7.5-25.5-13.6c3.2,0.2,4.9,1.8,6.8,3
		c4.3,2.8,8.2,6.2,13,8.2C251.8,337.3,253.2,338.6,255,337.5z"/>
	<path class="st0" d="M187.9,317.9c-2.8-1-5.7-1.9-8.8-1.4c0-0.5,0-1,0-1.4c4.2,0,8.5-0.2,12.7,0.1c1.7,0.1,0.3,1.7,0.6,2.6
		c-1.3,0.1-2.6,0.1-4,0.2c0,0-0.2,0.1-0.2,0.1L187.9,317.9z"/>
	<path class="st46" d="M460.9,280.4c0-0.6-0.2-0.9-0.8-1c-1.8-5.9-1.1-11.9-0.1-17.8c2.2-1.1,2-4.1,4.2-5.2c0.8,1-0.2,1.6-0.5,2.4
		c-4.3,9.3-3.6,18.2,2.2,26.7c0.5,0.8,2.8,1.7,0.7,3.2C464.6,286,462.2,283.6,460.9,280.4z"/>
	<path class="st51" d="M325.4,301.9c0.3,0.3,0.6,0.6,0.9,1c0.8,1,0.5,2.1,0.1,3.1c-2.9,7.7-2.1,15.2,0.7,22.7
		c0.4,1.2,0.9,2.3,0.7,3.6c-0.2,0.8-0.6,1.4-1.6,1.3c-2-3.2-3.6-6.6-4.7-10.3c-1.2-4.6,0.2-9.4-1.1-14.1
		C323.4,307.8,323.2,304,325.4,301.9z"/>
	<path class="st4" d="M387.3,287.8c0.4,1.2,2.4,1.7,1.9,3c-2.2,5.7-0.2,11.3-0.4,17c-0.3,0.6-0.6,1.3-0.9,1.9
		c-3.8,0.9-2.9,5.4-5.5,7.3c-0.6-1.3-1.5-2.3-2.8-2.9c0.2-1.2,0-2.4-0.6-3.6c-5.5-10.5-4-20.6,2.4-30.2
		C383.7,282.6,384.7,285.8,387.3,287.8z"/>
	<path class="st3" d="M131.6,249.5c-0.3-1.9-0.7-3.9-1-5.8c0.3-2.6-0.9-3.7-3.3-5.1c-8.3-4.8-17.1-7.1-26.7-7.1
		c-7.2,0-12.5-4.1-16.4-9.7c-1.5-2.2-3.3-3.8-5.9-4.1c-3.5-0.4-6-2.3-8-5.1c-2.5-3.6-5.2-7-7.7-10.6c-1.4-2-2.6-3.8,1.5-4
		c1.9-0.1,4-0.8,5.7-1.9c5-3.3,10.1-3.1,15.7-1.7c12.7,3,25.4,5.8,37.3,11.3c1,0.4,2.1,0.9,3.1,0.8c11.3-1.1,21.9,2.2,32.6,4.9
		c6.1,1.8,12.1,3.5,18.2,5.3c4.2,1.2,8.1,2.7,10.7,6.7c1.7,2.7,5.7,2.2,7.8,4.7c-0.2,1.2-1.2,0.7-1.9,1c-9.4-0.8-19.2,9.3-19.7,20.2
		c-1.3,2.9-0.5,6-1,8.9c-0.2,1.6-0.5,3.1-2.7,1.8C157.7,254.3,144.6,252.1,131.6,249.5z"/>
	<path class="st40" d="M326.3,333.6c0.3-0.4,0.7-0.7,1-1.1c2.5,0.7,2.8,2.7,2.6,4.9c0,0.3-0.1,0.7-0.1,1
		C328.1,337.2,326.9,335.6,326.3,333.6z"/>
	<path class="st162" d="M339.4,307.6c-0.3-0.7,0-1.6-0.9-2c0-3.5,0.5-6.6,4.6-7.5c0,0,0-0.1,0-0.1
		C341.8,301.2,340.6,304.4,339.4,307.6z"/>
	<path class="st6" d="M400.2,259.9c1.6-1.7,3.1-3.5,3.6-5.8c2.7,0.4,1.7,3,2.4,4.5c1.1,2.7,2.8,5.2,4.2,7.7c0.8,0.4,1.5,0.9,1.7,1.9
		c0,3.2,1,6.4-0.7,9.4c-3,2.3-4.9,5.6-6.2,9c-1.1,3-1.9,2.3-3.6,0.5c-6.5-6.8-7.6-13.8-3.6-22.6
		C398.7,262.9,399.5,261.4,400.2,259.9z"/>
	<path class="st163" d="M412.1,268.2c-0.6-0.6-1.1-1.2-1.7-1.9c2.2-1.1,0.2-2.3-0.2-3.1c-5.2-11.2-3.5-19.1,5.8-27.3
		c-2.7,6.8-2.6,13.3,2,19.2c0.9,1.2,0.9,2.1-0.1,3.2C415.3,261.2,413.8,264.8,412.1,268.2z"/>
	<path class="st3" d="M330,337.5c-0.9-1.6-1.8-3.3-2.6-4.9c-4.3-9.7-6.2-19.6-1-29.7c0.6-0.8,1.3-1.7,2-2.7c2.2,2.2,2.6,6,6.1,6.8
		c1.2,0.3,1.8,1.1,2,2.3c0,5.9,0.1,11.9,0.1,17.8C332.6,329.4,332.5,334.2,330,337.5z"/>
	<path class="st3" d="M336.4,309.3c-1.1-0.4-1.6-1.3-2-2.3c-5.5-8-8.1-16.4-4-25.8c2.3-0.3,2-2.4,2.6-3.9c2.9,4.5,8.9,6.9,8.8,13.3
		c0.2,2.5,2.1,4.9,1.2,7.6c-2.5,1.9-3.8,4.5-4.6,7.5C337.6,306.8,338,308.6,336.4,309.3z"/>
	<path class="st164" d="M344.8,410.1c1.5-0.4,1.1-1.5,0.9-2.5c-0.5-2.9,1-3,3.1-2.1c7.4,2.4,14.7,5.2,22.4,6.6
		c17.1,3.8,34.2,7.7,51.3,11.5c-0.3,2.2-1.8,0.9-2.9,0.9c-9.9-0.8-19.8-1.6-29.5-3.2c-7.5-2.2-15.1-3.9-22.7-5.3
		c-6.3-1.3-12.3-3.8-19-2.4C347.2,413.9,342.6,414.6,344.8,410.1z"/>
	<path class="st165" d="M419.6,424.5c0.9-0.5,2.2,0.1,2.9-0.9c2.2,0.3,4.3,0.6,6.5,0.9c0.9,0.6,1.9,1.1,2.8,1.7
		C427.7,426.2,423.6,425.6,419.6,424.5z"/>
	<path class="st57" d="M131.6,249.5c13.4,1.3,26.6,3,38.3,10.5c-0.2,0.2-0.2,0.4,0.1,0.6c-11.6-4.4-23.6-7.2-35.7-9.8
		C133.4,250.7,132,250.9,131.6,249.5z"/>
	<path class="st166" d="M152.8,228.2c-22.9-9.1-46.2-16.6-69.8-23.7c-0.1-0.9,0.2-1.3,1.1-1c24,6,47.4,13.4,69.9,23.7
		C154.1,228.1,153.8,228.5,152.8,228.2z"/>
	<path class="st21" d="M158.4,237.5c-20.2-7.2-40.9-13-61.4-19c0-1.7,1-1.2,1.9-0.9c20.7,4.8,41.1,10.5,60.6,19
		C159.7,237.5,159.3,237.9,158.4,237.5z"/>
	<path class="st34" d="M127.9,210c17.3,3.9,34.2,8.6,48.6,19.7c-15.9-8.7-33.1-13.9-50.3-18.8C126,209.2,127.1,209.9,127.9,210z"/>
	<path class="st35" d="M165.1,247.8c-10.9-2.2-21.7-4.4-32.6-6.7c11.9-0.2,23.4,1.7,34.5,5.7C167.2,248.5,166.1,248,165.1,247.8z"/>
	<path class="st167" d="M152.8,228.2c0.4-0.3,0.8-0.7,1.2-1c5.3,2,10.2,4.6,14.5,8.6C163.2,233.2,158,230.7,152.8,228.2z"/>
	<path class="st80" d="M158.4,237.5c0.4-0.3,0.8-0.6,1.1-0.9c4.4,1.5,8.4,3.8,12.1,6.9C167.3,241.5,162.9,239.5,158.4,237.5z"/>
	<path class="st168" d="M98.9,217.6c-0.6,0.3-1.3,0.6-1.9,0.9c-3.4-0.9-6.8-1.9-10.2-2.8c-0.3-0.9,0-1.2,0.9-1
		C91.5,215.5,95.4,216,98.9,217.6z"/>
	<path class="st169" d="M84.1,203.5c-0.4,0.3-0.7,0.6-1.1,1c-3.1-0.9-6.3-1.8-9.4-2.7c-0.2-0.2-0.3-0.5-0.2-0.7
		c0.1-0.2,0.1-0.4,0.2-0.4C77.2,201.2,80.8,201.9,84.1,203.5z"/>
	<path class="st149" d="M87.7,214.7c-0.3,0.3-0.6,0.7-0.9,1c-2.8-0.5-5.7-0.9-8.8-3.7C82,212.9,85,213.2,87.7,214.7z"/>
	<path class="st170" d="M127.9,210c-0.6,0.3-1.1,0.6-1.7,0.9c-1.8-0.3-3.6-0.6-5.1-2.3C123.7,208.2,125.9,208.9,127.9,210z"/>
	<path class="st171" d="M73.6,200.7c0,0.4,0,0.7,0,1.1c-2.3-0.7-4.7-1.3-7-2C69.2,198.9,71.4,199.5,73.6,200.7z"/>
	<path class="st138" d="M165.1,247.8c0.6-0.4,1.7,0.1,1.9-1c1.6,0.3,3.2,0.8,4.5,2.5C169.1,249.4,167.1,248.8,165.1,247.8z"/>
</g>
</svg>
