<svg xmlns="http://www.w3.org/2000/svg" viewBox="0 0 234.68 178.65"><defs><style>.cls-1{fill:#1f201d;}.cls-2{fill:#222220;}.cls-3{fill:#4f4f4d;}.cls-4{fill:#565755;}.cls-5{fill:#f8f8f7;}.cls-6{fill:#242422;}.cls-7{fill:#252524;}.cls-8{fill:#282827;}.cls-9{fill:#484948;}.cls-10{fill:#2b2c2a;}.cls-11{fill:#2b2b2a;}.cls-12{fill:#646462;}.cls-13{fill:#616160;}.cls-14{fill:#6a6a69;}.cls-15{fill:#818181;}.cls-16{fill:#fbfbf9;}.cls-17{fill:#fdfdfd;}.cls-18{fill:#fbfbfa;}.cls-19{fill:#fcfcfb;}.cls-20{fill:#f9f9f9;}.cls-21{fill:#fafafa;}.cls-22{fill:#f8f9f7;}.cls-23{fill:#fdfdfc;}.cls-24{fill:#f9f9f7;}.cls-25{fill:#fafaf9;}.cls-26{fill:#f7f8f6;}.cls-27{fill:#fbfcfb;}.cls-28{fill:#f7f7f6;}.cls-29{fill:#fbfbfb;}.cls-30{fill:#f6f6f4;}.cls-31{fill:#f8f8f8;}.cls-32{fill:#f7f7f5;}.cls-33{fill:#f6f7f5;}.cls-34{fill:#f4f4f3;}.cls-35{fill:#f4f4f2;}.cls-36{fill:#f8f8f6;}.cls-37{fill:#f9f9f8;}.cls-38{fill:#f5f5f4;}.cls-39{fill:#f8f8f5;}.cls-40{fill:#f2f2ef;}.cls-41{fill:#f5f5f3;}.cls-42{fill:#f3f3f2;}.cls-43{fill:#f1f2f0;}.cls-44{fill:#f3f3f0;}.cls-45{fill:#f2f2f1;}.cls-46{fill:#e7e7e4;}.cls-47{fill:#f2f3f1;}.cls-48{fill:#edeeeb;}.cls-49{fill:#f3f4f0;}.cls-50{fill:#e6e6e3;}.cls-51{fill:#efefed;}.cls-52{fill:#f3f4f1;}.cls-53{fill:#f2f2f0;}.cls-54{fill:#f1f1ee;}.cls-55{fill:#f1f2ef;}.cls-56{fill:#ebebe8;}.cls-57{fill:#e5e6e2;}.cls-58{fill:#d2d2cf;}.cls-59{fill:#e5e5e2;}.cls-60{fill:#eeefeb;}.cls-61{fill:#ededea;}.cls-62{fill:#e1e1de;}.cls-63{fill:#d1d2ce;}.cls-64{fill:#eaebe8;}.cls-65{fill:#a0a09e;}.cls-66{fill:#282828;}.cls-67{fill:#393939;}.cls-68{fill:#272726;}.cls-69{fill:#303030;}.cls-70{fill:#31312f;}.cls-71{fill:#2a2a29;}.cls-72{fill:#323232;}.cls-73{fill:#292927;}.cls-74{fill:#343433;}.cls-75{fill:#333432;}.cls-76{fill:#525351;}.cls-77{fill:#565657;}.cls-78{fill:#272725;}.cls-79{fill:#010101;}.cls-80{fill:#fefefe;}.cls-81{fill:#f3f3f3;}.cls-82{fill:#f5f5f5;}.cls-83{fill:#f1f1f1;}.cls-84{fill:#f6f6f6;}.cls-85{fill:#151515;}.cls-86{fill:#e5e5e5;}.cls-87{fill:#ececec;}.cls-88{fill:#ededed;}.cls-89{fill:#e6e6e6;}.cls-90{fill:#e4e4e4;}.cls-91{fill:#1b1b1b;}.cls-92{fill:#e3e3e3;}.cls-93{fill:#d7d7d7;}.cls-94{fill:#a1a1a1;}.cls-95{fill:#353535;}.cls-96{fill:#333;}.cls-97{fill:#626262;}.cls-98{fill:#e0e0e0;}.cls-99{fill:#797979;}.cls-100{fill:#555;}.cls-101{fill:#ddd;}.cls-102{fill:silver;}.cls-103{fill:#999;}.cls-104{fill:#bfbfbf;}.cls-105{fill:#4d4d4d;}.cls-106{fill:#ccc;}.cls-107{fill:#363636;}.cls-108{fill:#313131;}.cls-109{fill:#f2f2f2;}.cls-110{fill:#d6d6d6;}.cls-111{fill:#d2d2d2;}.cls-112{fill:#f0f0f0;}.cls-113{fill:#515151;}.cls-114{fill:#c1c1c1;}.cls-115{fill:#6c6c6c;}.cls-116{fill:#2d2d2d;}.cls-117{fill:#e1e1e1;}.cls-118{fill:#737373;}.cls-119{fill:#d4d4d4;}.cls-120{fill:#6a6a6a;}.cls-121{fill:#cdcdcd;}.cls-122{fill:#101010;}.cls-123{fill:#636363;}.cls-124{fill:#3f3f3f;}.cls-125{fill:#212121;}.cls-126{fill:#595959;}.cls-127{fill:#202020;}.cls-128{fill:#656565;}.cls-129{fill:#2e2e2e;}.cls-130{fill:#4c4c4c;}.cls-131{fill:#5e5e5e;}.cls-132{fill:#585858;}.cls-133{fill:#1e1e1e;}.cls-134{fill:#1a1a1a;}.cls-135{fill:#272727;}.cls-136{fill:#494949;}.cls-137{fill:#191919;}.cls-138{fill:#474747;}.cls-139{fill:#5b5b5b;}.cls-140{fill:#868686;}.cls-141{fill:#6b6b6b;}.cls-142{fill:#4a4a4a;}.cls-143{fill:#5d5d5d;}.cls-144{fill:#373737;}.cls-145{fill:#878787;}.cls-146{fill:#979797;}.cls-147{fill:#2f2f2f;}.cls-148{fill:#545454;}.cls-149{fill:#5a5a5a;}.cls-150{fill:#383838;}.cls-151{fill:#252525;}.cls-152{fill:#3d3d3d;}.cls-153{fill:#040404;}.cls-154{fill:#161616;}.cls-155{fill:#141414;}</style></defs><title>Asset 1</title><g id="Layer_2" data-name="Layer 2"><g id="Layer_2-2" data-name="Layer 2"><path class="cls-1" d="M29.29,26.65a24.86,24.86,0,0,0,7,6c2.07,1.18,2.81,3.72,4.44,5.43a12.4,12.4,0,0,0,2.43,2.15c-.18-6.35-5.23-10.86-5.78-17.08,2.45.78,2.74,3.21,4.42,4.82-.14-5.67-2.56-10.24-4.58-15-.8,1.91-.63,3.28,1,8.88C35.49,20.39,34.41,13,36.4,8.58c3.34,2.4,2.24,6.67,4.25,9.85,1-4.4-.6-9.13,2.75-13.23a20.75,20.75,0,0,1,.47,9.87C43,13,43.28,11.13,42.64,9.16a15.26,15.26,0,0,0,0,7.51c-.11.42,0,.93-.48,1.21-1.53,5.33.58,10,3,14.69-2.6-.22-2.9-2.84-4.69-3.95,1.3,5,4.41,9.2,4.79,14.6a11.78,11.78,0,0,1-5.48-4.7,19,19,0,0,0-5.33-5.34c2.11,3.55,4.69,6.09,6.7,9s6.63,3.18,8.39,6.85c1.71-1.2,2.37-3,3.62-4.28.28-.29.27-.51-.11-.86-1.63-1.51-1.88-3.63-2.18-5.65-.63-4.14-1.6-8.28-.18-12.45A3.44,3.44,0,0,1,51.82,24,35,35,0,0,0,53,42.43c.94-4-.3-7.87,1.38-12,.69,3,.2,5.47.15,7.93a12.9,12.9,0,0,0,.25,4.38c.18.54.47.93,1.07.95s.91-.4,1-.95c.37-1.65.76-3.29,1.07-5a11.78,11.78,0,0,1,2.23-5.06c-.41,2.85-1.6,5-1.47,7.47a13.07,13.07,0,0,0,.41,3,5.36,5.36,0,0,0,3.75,4c2.17.56,2.68-1.84,3.07-2.81,3.29-8.16,9-14.78,14.09-22.49-8.93,5.58-12.56,14.46-17.5,22.72-.29-2.72,1.89-4.54,1.59-6.92a1.42,1.42,0,0,1,.2-.53c.63-.71.88-1.68,1.52-2.39l.25-.14c2.4-2.66,4.24-5.78,6.92-8.23a67.18,67.18,0,0,1,9.81-8c-1.58,4.67-4.32,7.94-7,11.22A43.33,43.33,0,0,0,69,40.23c1.13,0,1.55-.93,2.21-1.46a27.71,27.71,0,0,0,2.2-1.83,20,20,0,0,1,5.94-4.17c.46-.19,1.11-.77,1.56-.05.35.56,0,1.16-.4,1.61a8.3,8.3,0,0,1-1.45,1.33c-4,2.59-6.71,6.3-9.23,10.27C73.72,43.29,77,39.69,82.34,39c-2,4.45-7.11,6.08-8.92,10.76,2.48-1.14,4.55-2.51,7.29-2.28a10.19,10.19,0,0,1-3.85,4.46,40.31,40.31,0,0,0-6.94,5.76,8.94,8.94,0,0,0-2.23,5.9c4.76-3.08,7.66-8.17,13.55-9.84-2.65,4.52-7.45,6.87-9.4,11.87,2.53-1.82,4.32-4,6.82-5.31a.68.68,0,0,1,.25.55c-1.09,1.89-3,3-4.49,4.45C72.78,67,70.93,68.42,70,70.73c2-.81,3.5-2.35,5.17-3.6a46.81,46.81,0,0,0,4-3.5c.64-.6,1.22-1.33,2.26-1.11a.41.41,0,0,1,.17.54c1.55.59,2.37-.78,3.52-1.28.92-.4,2.14-1.36,2.82-.46s-.78,1.59-1.4,2.07c-3.48,2.7-7.07,5.28-10.64,7.86a14.78,14.78,0,0,0-3.25,3.49c6-1.78,10.16-7.12,17-5.92-3,2.49-5.77,4.53-9.17,5.67l5-4c-6,2.49-12.68,3.76-17,9.94,3.77-.54,6.93-.86,9.94-2.36s6-2.82,9.88-2.43c-2.77,4.4-7.7,4.1-11.58,6.28,2.68.7,5.2-1.78,7.65.07,2,1.51,4.92.39,6.92,2.56A60,60,0,0,1,95.85,91c1-1.13.66-2.55,1.32-3.62.24-.38.45-.85.94-.82s.59.61.62,1c.16,2.91,2,5.21,2.85,7.87.34,1.07.85,1.39,1.52.23s1.69-2.13,2.56-1.52c1,.72.77,2.52,0,3.38-1.15,1.21-.52,2,.19,2.76a9.54,9.54,0,0,1,2.3,4.5c1.17-.23,1.34-1.31,1.92-2s1.53-1.48,2.44-.84.23,1.52-.26,2.11a3.7,3.7,0,0,0-.08,5.16,6.13,6.13,0,0,1,.9,2.26c.4,1.75.66,3.5,3.22,2.67.69-.23,1.32.25.76,1-1,1.28-.08,2,.57,2.84,1.25,1.52,2.06,3.09,1.06,5-.39.77,0,1.12.52,1.67,1.87,2.11,3.38,4.42,3.1,7.62,1-.16,1.38-1.4,2.44-1.09,0,.25.07.61-.06.82-1.77,2.79-.9,6-1.3,8.95a11.58,11.58,0,0,0,.71,5.22,8.42,8.42,0,0,1-1,7.81,2.55,2.55,0,0,0-.52,1.84,9.73,9.73,0,0,1-1.72,6.49,13.56,13.56,0,0,0-1.91,4.43c-.37,1.72-1.83,2.67-3.27,3.37a64.46,64.46,0,0,0-8.4,4.88,9.75,9.75,0,0,1-8,1.61,9.73,9.73,0,0,0-6.45.74c-1.66.77-3.45,1.53-5.28.36-.57-.37-1,0-1.43.2a6.58,6.58,0,0,1-7.63-1c-2.23-2-4.89-2.93-7.63-3.76a3.54,3.54,0,0,1-2.06-1.21A11.72,11.72,0,0,0,64.12,168c-4.09-2-6.47-5.7-8.63-9.49a7.63,7.63,0,0,0-4.47-4,3.33,3.33,0,0,1-2-2.25c-.23-.57-.14-1.57.43-1.47,2.08.35,1.48-1.24,1.44-2-.13-2.56.28-5.16-.66-7.66-.43-1.18-1-1.78-2.25-1s-1.9.45-2.48-1c-.69-1.66.68-1.77,1.41-2,2-.68,2.38-1.94,1.8-3.78a6,6,0,0,1-.25-1.52c-.1-1.65-.68-2.88-2.56-3a1.4,1.4,0,0,1-1.33-1,.62.62,0,0,1,.52-.82c1.44-.14,1-1.19,1-2a10.1,10.1,0,0,1-.2-2.41c.36-1.47-.49-1.81-1.56-2.12-.49-.14-1-.33-1.46-.51a1.8,1.8,0,0,1-1.27-2.08c.18-1,1.13-.74,1.84-.78s1.47,0,2.39-.06c-1.38-2.12-.74-4.25,0-6.35a7.86,7.86,0,0,0,.27-5c-.63-2.07.24-3.89,1.36-5.6a9,9,0,0,0,1.78-3.42c-1.14-.24-1.31,1.82-2.13,1.06s.13-1.87.43-2.81c.58-1.8,2.29-2.85,3.22-4.87-3.89,1.7-6,5.51-10,6.86.92-4.86,5.13-6.91,7.89-10.12-1.27-.91-2.6-.42-3.89-.35-.34,0-.79.19-1-.14s.17-.56.47-.74c.67-.41,1.7-.19,2-1.16l-1-.35c-.37-.49,0-.76.33-1a2.73,2.73,0,0,1,2-.17,3.85,3.85,0,0,1-2-1c-.4-.82-1.33-1.49-.72-2.59,1.9-.4,3.16.76,4.42,1.86a6.26,6.26,0,0,0,1.84,1.52c.58.2,1.16.36,1.57-.28.27-.43.71-.87.56-1.38s-.87-.34-1.33-.45c-1.61-.39-3.38-.37-4.56-1.84a4.13,4.13,0,0,1,0-1.85c1.25-2.48-.52-3.83-2-5.3.25-1.06,1.06-.86,1.81-.81,3,1.32,3,1.32,3.64-2.08a32.23,32.23,0,0,0,.66-3.91,3.73,3.73,0,0,0-.07-1.43c-.81-.3-1.49,1-2.35.34a1.58,1.58,0,0,1-.48-1.48,47.09,47.09,0,0,0,6.57-4.75c2.17-1.72,4.3-1.64,6.56-.3a5,5,0,0,0,2.23.93,5.13,5.13,0,0,1-3-2.26A2.07,2.07,0,0,0,57.54,55a3.55,3.55,0,0,1-3,.72c-1-.2-1.8.91-2.8,1.18-.75.2-1.51.62-2.22-.07.09-1.16,1.12-1.45,1.88-2a18.25,18.25,0,0,0,4-3.22c-3.14-.13-5.16,1.23-7.14,2.67-.53.38-.84,1-1.54,1.22a2.85,2.85,0,0,1-2-2,1.72,1.72,0,0,0-.49-2.17,13.61,13.61,0,0,1-2.33-2.66C37.83,41.69,30.4,39,24,35.05c-2.52-1.56-5.64-2-8.57-2.46,5.13,3,10.56,5.68,15.64,8.95a47.45,47.45,0,0,1,9.81,8.21c1.21,1.35,3.1,2,3.79,3.87-.75,1.64-1.23,3.44-2.78,4.59a41.7,41.7,0,0,0-10.1-.68c-2.79.27-5.58.57-8,2.32,1.35.33,2.86-.65,4.08.49-.11.81-.72.78-1.3.8l-8.36,1.39c1.06-2.33,4-4.43,7.58-5.35a52.34,52.34,0,0,1,9.1-1.48c-8.95-2.77-18.21,0-27.3-1.54,2.34-2,4.58-2.59,10-3.34,3.53-.49,7,.14,11.18-.1A33.2,33.2,0,0,0,16.2,45.91a42.65,42.65,0,0,0-8.14-.4A14.88,14.88,0,0,1,0,43.34c5.71-2.07,11.2-2.11,16.77-2.77-3-2.8-7.48-2.6-10.44-5.6a8.73,8.73,0,0,1,6.31-1c-.63-1.83-3-1.33-3.44-3.39a30,30,0,0,1,8.14.88A72.94,72.94,0,0,1,32,37.36a.38.38,0,0,1,.61-.13c1.8,1.57,3.43,3.4,6.14,4-1-2.39-2.65-4.06-4-5.92-1.2-1.66-2.82-3.06-3.69-4.92s-3-1.93-4.3-3.34a7.86,7.86,0,0,0,1.88.59c.89,0,.1-.61.26-.89S29.1,26.5,29.29,26.65Z"/><path class="cls-2" d="M64.15,37.71h0l-1.71,2.61c-.09-2.65,1.84-7,6.27-13.95,2.78-4.33,5.67-8.59,8.76-13.27-6.31,4-9.24,10.27-13.48,15.49.69-5.25,3.2-9.77,5.61-14.35-5.86,5.61-9,13.05-13.49,20.1-1.22-5.24-2.51-10-2.94-15a109.45,109.45,0,0,1-.67-14.71l-.81-.29c-.25.9-.49,1.8-.73,2.69-.13.12-.28.24-.45.09s-.05-.18,0-.31a20.92,20.92,0,0,1,3-6.79c0,7-.35,13.3.62,19.88,2-2.12,1.73-5.27,4.51-7-.13,5.22-2.31,10.1-.75,15.44,3.18-4,5.68-8.17,8.5-12.13A38.91,38.91,0,0,1,76.51,5.92c-2.83,5.19-7.36,9.4-9.09,16,4.42-4.37,7.07-9.8,12.83-12.16-.42,3.17-2.16,5.51-3.84,7.76A91.19,91.19,0,0,0,66.23,33.68c-.15.33-.41.61-.1,1l0-.06C65.32,35.52,65.2,36.92,64.15,37.71Z"/><path class="cls-3" d="M41.92,58c1.07-1.43,1.31-3.36,2.77-4.55l-.07.16.05-.17c.42.84,1.88.84,1.69,2.15.34.61-.25,1.3.12,1.9,1.12,0,1.83-1.41,3.08-.83.86.54,1.5-.36,2.28-.35.16,1.14-.91,1.36-1.49,1.91a6.19,6.19,0,0,0-2.11,3.22c-.1.47.06.66.47.73l.56,1.61c.45.69-.12,1.13-.47,1.53a6.13,6.13,0,0,0-1.68,5.87c-.51.33-1.46-.38-1.64.71-3.64-.28-7.28,0-10.92-.22-.1-1,1.14-.89,1.39-1.6l6.33-.2c-2.05-.93-4.09-.87-6-1.43.15-.58.67-.69,1.12-.89,2,.57,4.08.21,6,.94.63.23,1.45.17,1.69-.6.38-1.25.71-2.58-.22-3.78a7.48,7.48,0,0,0-3.85-2.42L38,60.75c.68-1,1.7-.56,2.61-.58.72,0,1.6.18,2-.48S41.88,58.68,41.92,58Z"/><path class="cls-4" d="M45,79.39c-.13,1,.66,1.68.85,2.57a.81.81,0,0,1-.56.32,30.33,30.33,0,0,0-10.59,1.15,32.78,32.78,0,0,1,8.84-.8c.83,0,1.82-.33,2.39.67-.29.24-.77.31-.75.83-3.33-.88-6.53.28-9.78.7-2.09.27-4.15.75-6.47.09,4.21-3.2,8.93-4,13.77-4.31-2-1.86-6.13-2.85-9.31-2.14a12.15,12.15,0,0,1-3.28.33c-.49,0-1.12,0-1.2-.69s.52-.63.9-.8A11.06,11.06,0,0,1,35,76.48,13.79,13.79,0,0,0,41,76c-1.44-1.52-3.41-1.12-5-1.81a1.36,1.36,0,0,1,.74-1A23.09,23.09,0,0,1,47.83,77l-.35,1.68c-1,.63-2,0-2.89-.32a9.62,9.62,0,0,0-2.89-.41C42.78,78.62,44.28,78.19,45,79.39Z"/><path class="cls-5" d="M41.92,58c.69.6,2.19,1,1.88,1.83s-1.73.88-2.88.83c-1,0-2-.55-3,.09l-.58,0c-2.11-.88-4.3-.13-6.44-.31-1.08-.1-2.18.39-3.24-.14l-5.25.22C28.48,56.11,35.09,56.2,41.92,58Z"/><path class="cls-6" d="M42.18,17.88a1.66,1.66,0,0,1,.48-1.21A38.64,38.64,0,0,0,46,25.42c.88-.14.22-1.11.81-1.36.83.39.5,1.29.67,1.62-.2-.29.29-1.26-.68-1.55-.25-1.88-1-3.71,1.13-5.28.76-.57.65-2.3,1.17-3.5C49,19.56,49,23.76,48.93,28s-1,8.16-.3,12.3c.22,1.3.79,2.5.95,4-2.06-.61-2.13-2.38-2.36-3.85a31.51,31.51,0,0,1,.12-7.7,4.23,4.23,0,0,0-.47-3c-2.32-3.19-3-7-4.15-10.64A11.62,11.62,0,0,0,42.18,17.88Z"/><path class="cls-2" d="M29.29,26.65l-.18.06-.18.07A63.87,63.87,0,0,0,15.4,12.91c4.8-.56,16,8.82,21.76,15.49A21.73,21.73,0,0,1,30,23.54c-2.08-1.91-3.88-4.17-6.47-5.57C25.33,21,27.73,23.52,29.29,26.65Z"/><path class="cls-7" d="M37.43,67.55c-.07.67-.69.65-1.12.89a42.3,42.3,0,0,1-10.37-2.77C28.8,62.41,35.15,61.8,40,64.24c.36.66.18,1.06-.56,1.19-2.15-.37-4-1.77-6.31-1.67a15.67,15.67,0,0,0-4.64,1.06A39,39,0,0,0,37.43,67.55Z"/><path class="cls-8" d="M36.72,73.45c0,.49-.42.56-.71.77l-11.6.34C28.05,71.41,32,70.66,36,70.07c.21,1.17-.94,1-1.44,1.42-.65,1.16-1.83,1-2.42,1.08-.74.12-.28.55-.39.28t.09-.06C33.49,72.55,35.27,71.79,36.72,73.45Z"/><path class="cls-9" d="M46.23,84.48c-.11,1.21-1.33.84-1.91,1.35s.39.38.39.69c-5,1.23-8.49,4.79-12.46,7.63-.23.17-.44.37-.67.53,0,0-.14,0-.49-.06a12.79,12.79,0,0,1,5.62-6.08C39.67,86.7,43.15,86.06,46.23,84.48Z"/><path class="cls-10" d="M81.54,63.06a1.14,1.14,0,0,1-.14-.39c-.56-.91.23-1.39.69-1.83,1.42-1.36,2.51-3.07,3.94-3.74a7.08,7.08,0,0,1-2.1.95c-.54.05-1.16.35-1.46-.42,2.83-2.05,6-3.33,9.72-4.85C89.29,57.31,85.16,59.93,81.54,63.06Z"/><path class="cls-11" d="M32.65,37.23l-.61.13C29.36,33,25.48,29.75,21.52,26.6c-.45-.37-.93-.7-1.52-1.14,2.27-.64,4,.54,5.92,1.13,0,.89-1,.19-1.08,1.08C28,30.23,30.29,33.74,32.65,37.23Z"/><path class="cls-12" d="M27.69,60.32c2.89-.61,5.8,0,8.7-.18.42,0,.9,0,1,.63-3.6-.25-7.19.23-10.78.37Z"/><path class="cls-13" d="M39.47,65.43A1.48,1.48,0,0,0,40,64.24c1.88.32,3.1,1.66,4.75,3.05A10.56,10.56,0,0,1,39.47,65.43Z"/><path class="cls-14" d="M82.47,57.63c.48.33.92-.1,1.39-.08a5.5,5.5,0,0,1-5.08,3.15.89.89,0,0,0-.12-.39A13.89,13.89,0,0,1,82.47,57.63Z"/><path class="cls-15" d="M50.5,6.79,51,7l-1.23,4.72A8.89,8.89,0,0,1,50.5,6.79Z"/><path class="cls-16" d="M66.41,159a2.89,2.89,0,0,0,2.79.32c1.56-.36,2.77-.23,2.78,1.88a15.71,15.71,0,0,0,.59,2.8c.45,2.19-.35,3.31-2.6,3.64a6.79,6.79,0,0,1-7.88-5.58c-.21-1-.2-1.75,1-1.95a2.09,2.09,0,0,0,.61-.24c3-1.38,3-1.38.84-3.8a5.93,5.93,0,0,1-.56-7.39c.93-1.39,3.75-1.38,5.11,0,.29.3.47.76.8,1A5.39,5.39,0,0,1,72,157a1.77,1.77,0,0,1-2,1.22C68.73,158.07,67.44,158,66.41,159Z"/><path class="cls-17" d="M80.6,155.94c-1-2.65-.38-4.56,1.59-6l1.08-.77c1.64-1.23,3.87-2.59,5.42-1.7a11,11,0,0,1,4.36,4.45,4.37,4.37,0,0,1,0,4c-.67,1.31-1.36,2.61-2.07,3.89a4.13,4.13,0,0,1-6.62,1.21A16.37,16.37,0,0,1,80.6,155.94Z"/><path class="cls-18" d="M59.53,111.45c-2.51,1-2.62.91-3.46-2-.17-.58.21-1.83-.93-1.57-.86.21-.84,1.24-.65,2.1a12.13,12.13,0,0,0,1.88,3.73c.59.94.79,1.51-.57,2.07a12.8,12.8,0,0,0-4.68,2.88,1.34,1.34,0,0,1-1.78.35c-2.2-1.19-3.86-5.81-2.76-8,.3-.59.5-1.74,1.66-.69.63.57,1.44.19,2.09-.16,2.58-1.37,4.89-3.13,6.06-5.87.67-1.58,1.73-1.79,3.12-1.81,2,0,3.65.6,4.5,2.55a3.27,3.27,0,0,1-.44,3.91A10.73,10.73,0,0,1,59.53,111.45Z"/><path class="cls-18" d="M67.06,105.83c1.71-.33,2.89-1.51,4.3-2.19s2.93-1.68,4.47-.29a4.38,4.38,0,0,1,1.07,5.22,8.35,8.35,0,0,1-.43.77c-2.06,3.77-2.19,3.79-5.55,1.25-1.4-1-2.68-2.36-4.56-2.55-1.09-.11-.93-1-.69-1.46.77-1.58-.11-2.49-1.15-3.39-.39-.34-.79-.66-1.2-1-2.31-1.83-2.29-3,.08-4.82,2.93-2.31,6-2.25,8.79.17,1.57,1.36,1.57,2.22-.09,3.49-1.16.9-2.41,1.67-3.57,2.57A3.12,3.12,0,0,0,67.06,105.83Z"/><path class="cls-19" d="M95.47,138.51c3.49-1.29,6.49.68,6.92,4.31.46,3.89-.62,7.08-3.78,9.53-1.65,1.27-3.08,1.15-4.45-.37-.1-.11-.17-.24-.26-.35l-3.29-4.13c2.06-2.2,1.62-5.41,3.15-7.83A3.55,3.55,0,0,1,95.47,138.51Z"/><path class="cls-20" d="M59.12,92.85c-.2,1.56-1.1,2.8-.81,4.25.07.33.25.78.5.89s.63-.19.82-.54c.81-1.47,1.62-3,2.45-4.41.47-.82,1-1.45,2.06-.7s.68,1.47.06,2.25c-1.55,1.94-3.34,3.69-4.37,6-.47,1.07-1.82.78-2.9,1.83l-.25-5.7c-1.33,2.74-1,5.24-1.88,7.47-.95,2.41-3.48,4.81-5.13,4.53-1.37-.25-2.44-3.37-2-6.09.42-2.48,1.61-4.47,4.23-5.09a8.5,8.5,0,0,0,4.73-3A4.55,4.55,0,0,1,59.12,92.85Z"/><path class="cls-16" d="M86.21,146.28c-3.23,1.13-5.68-.8-5.56-4.46,0-.92.69-1.91-.84-2.17-.1,0-.23-.42-.17-.58.86-2.33,1.53-4.8,3.65-6.38,1.11-.84,2-.05,2.6.81a19.42,19.42,0,0,0,4.77,4.8,2.64,2.64,0,0,1,.85,3.65A8.74,8.74,0,0,1,86.21,146.28Z"/><path class="cls-21" d="M64.36,136.3c-2.25.64-3.68-.69-5.06-2.38-1.26-1.53-1.74-2.89-.47-4.72a19.42,19.42,0,0,1,4.34-4.92,1.83,1.83,0,0,1,2.37-.16c.92.61,1.88,1.15,2.81,1.73,3.81,2.36,3.9,2.44,1.17,5.86C68.12,133.45,66.74,135.35,64.36,136.3Z"/><path class="cls-22" d="M44.69,53.45c-3.4-1.55-5.23-4.87-8-7.14a100.89,100.89,0,0,0-14-9.09c-3.06-1.74-6.18-3.37-9.21-5.2a31.15,31.15,0,0,1,17.34,6.35c2.25,1.74,4.37,3.76,7.37,4.16.66.09.83.48,1.05.94a31.08,31.08,0,0,0,6.09,8.31c1,.94.71,1.53-.63,1.66l0,.14Z"/><path class="cls-18" d="M112.52,145.19c1.22,3.36-1.56,9-5,10.19-1.71.57-5.37-2.61-5.3-4.92a9,9,0,0,1,4.08-7.68C109.35,140.82,111.22,141.63,112.52,145.19Z"/><path class="cls-23" d="M86.85,111c1.48,4.42-.17,6.65-6.32,8.55a35.09,35.09,0,0,1-5.06-5.28c-.28-1,2.94-6.07,4.08-6.44C82.37,106.91,86,108.49,86.85,111Z"/><path class="cls-19" d="M69.71,135.4a2.8,2.8,0,0,1,.76-3.25,11.58,11.58,0,0,1,9.58-3.07c2.24.25,2.52,1.16,1.45,3.08-.93,1.67-1.64,3.45-2.45,5.19a6.1,6.1,0,0,1-1.29,2c-2.71,2.49-3.25,2.48-5.28-.58C71.66,137.56,70.22,136.85,69.71,135.4Z"/><path class="cls-18" d="M117.24,134.13c.34,1.63,1.39,3.56.86,4.88-.84,2.12-2.68,3.85-4.19,5.67-.18.21-.61-.5-.88-.82-1.15-1.34-1.55-3.44-3.8-3.66-.14,0-.29-.45-.35-.71a50.35,50.35,0,0,1-1.15-5c-.53-3.66.82-5,4.5-4.27A6.09,6.09,0,0,1,117.24,134.13Z"/><path class="cls-19" d="M83.51,119.47c3.54-1.27,5.94.4,6,4.14a12.5,12.5,0,0,1-1.33,5.71c-.69,1.42-1.66,1.77-3,1.11A37,37,0,0,0,79,127.6c-1.35-.37-1.35-1.55-.94-2.72A9.89,9.89,0,0,1,83.51,119.47Z"/><path class="cls-24" d="M41.88,56.65C30.73,48,18.27,44.83,5,43.59c2.44-1.34,5-1.55,9.39-2.06s8.17,1,11.78,3.21c4.44,2.72,9.08,5.14,13.18,8.41A5.2,5.2,0,0,1,41.88,56.65Z"/><path class="cls-23" d="M57.88,115.53c1.41-1.49,2.64-3,4-4.25,2.57-2.37,4.94-2.38,7.6-.16.45.38.88.78,1.32,1.17,2.11,1.87,2.08,2.6-.35,4.16-1.92,1.22-4,2.23-5.56,3.91-.49.52-.82.39-1.23-.09A18.41,18.41,0,0,0,57.88,115.53Z"/><path class="cls-21" d="M78.16,119.34c.94,2.6-.85,6.74-3.35,7.84a3,3,0,0,1-3-.3c-1.79-1.13-3.5-2.39-5.24-3.6-1.09-.75-.25-1.46.15-2a17.72,17.72,0,0,1,5.33-4.87C74.55,114.91,77,116.12,78.16,119.34Z"/><path class="cls-18" d="M97.26,154.09c1.85-.41,4.8-.86,7.34,1.54a1.84,1.84,0,0,1,.3,2.84c-1.46,1.83-2.87,3.7-4.28,5.58a1.59,1.59,0,0,1-2.42.54c-1-.61-2.11-1-3.12-1.59a3.51,3.51,0,0,1-1.6-4C93.83,157.19,93.69,155,97.26,154.09Z"/><path class="cls-23" d="M75.24,154.24c-1.3-2.21-2-4.7-4.81-5.79-1.25-.49-.59-2.09.07-3.07,1.35-2,6.18-3.77,8.53-3.23.07,0,.2,0,.21,0,.52,1.82,1.87,3.2,2.55,4.92.45,1.1-.38,1.77-1,2.49A42.4,42.4,0,0,1,75.24,154.24Z"/><path class="cls-16" d="M102.33,166.37c0-2.81,1.53-5.09,3.56-7.11.41-.42.87-.79,1.31-1.18,1.35-1.18,2.51-1.34,3.52.48a6.18,6.18,0,0,0,2.28,2.65c.65.36.51.81.39,1.27a12.82,12.82,0,0,1-4.7,6.78C107.29,170.38,102.83,168.35,102.33,166.37Z"/><path class="cls-25" d="M97.14,127.62c.11,2.58,1.69,5.59-.3,8.57-1.55,2.32-4.11,2.73-6.2.86a14.8,14.8,0,0,1-1.79-1.92c-1.65-2.13-1.67-2.23.8-3.32,1.83-.81,1.49-2.11,1.13-3.5-.22-.85-.65-1.78.24-2.44s1.58-.12,2.12.52,1,.06,1.49-.08C95.63,126,96.68,125.7,97.14,127.62Z"/><path class="cls-26" d="M9.69,35.28c13.87.5,23,9.39,32.06,18.23-5.43-2.88-10.09-7-15.56-9.81S14.89,38.71,9.69,35.28Z"/><path class="cls-18" d="M106.09,118.17c.59,3.2,0,6.37-.47,9.53a1.3,1.3,0,0,1-1.28,1c-2.27.16-5.14-2.07-5.35-4.24a28.69,28.69,0,0,1,.43-7,3,3,0,0,1,3.17-2.55C104.48,115,105.58,116.34,106.09,118.17Z"/><path class="cls-27" d="M105.39,141.82c-1.14.69-1.56.09-1.84-.5a7.88,7.88,0,0,0-2.27-2.66c-2.25-1.83-3.38-6.43-2.23-9,.37-.83,1.11-.73,1.69-.58,1.77.44,3.51,1,5.26,1.53.51.15.46.55.42.88-.23,2.46.45,4.82.83,7.19C107.57,140.63,106.73,141.48,105.39,141.82Z"/><path class="cls-19" d="M52.47,123.2c-.5-1.63-1.08-3.25.53-4.66a5.79,5.79,0,0,1,6.18-.72,11.09,11.09,0,0,1,1.94,1.42c2.56,2.24,2.54,3,0,5.08-.39.32-.74.7-1.13,1C56.46,128.31,54.12,127.64,52.47,123.2Z"/><path class="cls-20" d="M114.32,121.68c1,2.3.68,4.77.93,7.16.11,1.07-.5,1.2-1.39,1-1.77-.35-3.25-1.77-5.26-1.35-.45.1-.54-.62-.59-1-.23-1.9-.55-3.79-.61-5.69-.08-2.14,1.39-4.24,3-4.29,1.9,0,2.7,1.5,3.44,3A10.84,10.84,0,0,1,114.32,121.68Z"/><path class="cls-16" d="M60.76,140.84c-.91-2.65.09-3.93,2.27-3.72a26.51,26.51,0,0,0,5.87.43c1.48-.16,2.41,1.83,3.36,3,.68.86-.48,1.44-1,1.91a52.87,52.87,0,0,1-4,3.42c-.41.32-1,.62-1.41.18C64,144.23,61.9,142.6,60.76,140.84Z"/><path class="cls-28" d="M61.53,91.87c-.22-.64.57-1.24-.06-1.62a1.81,1.81,0,0,0-1.7.11c-1.47.71-2.34,2.17-3.9,3.25,0-1.52,1.07-2.17,1.65-3.06.27-.44,1.17-.64.64-1.38a1.62,1.62,0,0,0-1.76-.6C55,88.84,54,90,52.69,90.43c2.63-2.81,4.23-7.53,9.82-4.86.22.75-.83,1.42-.73,2.57,6-5.11,13-8,20.5-10-2.39,1.09-4.79,2.17-7.18,3.27a8.16,8.16,0,0,0-3.74,3,3.76,3.76,0,0,1-2.12,1.5A14.22,14.22,0,0,0,61.53,91.87Z"/><path class="cls-18" d="M73.37,154.86c1.18,1.28,2.38.85,3.51.3,1.35-.67,2.2-.29,2.82,1a14.67,14.67,0,0,1,1.12,2.15c.38,1.38,1.84,2.88.28,4.24-2.6,2.26-5.29,2.6-7.31,1.23-.39-.26-.35-.6-.39-.95A24,24,0,0,1,73.37,154.86Z"/><path class="cls-18" d="M63.47,156.12c.76,2.53.41,2.52-2.68,4.38-1.65,1-2.71.19-3.45-1.41-.64-1.4-1.6-2.66-2.15-4.08s-.45-3,1.14-3.83,4.33-.16,5.05,1.06,1.23,2.18,1.83,3.27A5.32,5.32,0,0,1,63.47,156.12Z"/><path class="cls-20" d="M97.28,114.84a11,11,0,0,1,1.86-10.32c1.15-1.52,2.44-.22,3.53.31,2.34,1.14,2.46,1.78,1.17,3.93A42.41,42.41,0,0,1,99.68,115C98.48,116.34,97.79,115.88,97.28,114.84Z"/><path class="cls-29" d="M58.25,135.61c.39,1.93,1.84,3.88,0,5.14-1.53,1-3.34,0-4.89-.92s-2.89-2.11-2.63-4.18c.29-2.34,2-3.68,3.73-4.93.87-.62,1.24.19,1.53.66C56.84,132.83,57.58,134.35,58.25,135.61Z"/><path class="cls-18" d="M111.58,110.78c1.22,3.39.46,5.29-2.33,5.81a4.48,4.48,0,0,1-5.07-5.58c.54-1.89,1.56-3.85,3.62-4C110,106.86,110.85,109,111.58,110.78Z"/><path class="cls-24" d="M103.71,175.3a9.36,9.36,0,0,1-7-.55c-1.69-.94-1.77-2-.35-3.21,3.72-3.22,7-3.33,11.06-.47.75.53.72.88.25,1.5A8,8,0,0,1,103.71,175.3Z"/><path class="cls-18" d="M87.32,166.43c1.33,2,3.11,3.06,4.77,4.26.93.67,2.68,1,2.08,2.64a4.86,4.86,0,0,1-3.93,3.44c-2.47.34-3.74-1.75-5.2-3.05s-.37-2.85.49-4.21C86.12,168.59,86.63,167.63,87.32,166.43Z"/><path class="cls-20" d="M93,101.44a4.82,4.82,0,0,1,4.34,1c1,.88.43,2.08,0,3-.73,1.51-1.69,2.91-2.55,4.35a1.44,1.44,0,0,1-1.61.79c-1.44-.2-3.12,0-4-1.44s-.12-3,.73-4.32A11.73,11.73,0,0,1,93,101.44Z"/><path class="cls-25" d="M97.24,169.63a7.39,7.39,0,0,1-8.76-3.89c-.36-.92-.69-2,.43-2.52s2.42-1.84,3.81-.59a19.17,19.17,0,0,0,6.47,3.66c1.15.4.94.93.37,1.56A4.79,4.79,0,0,1,97.24,169.63Z"/><path class="cls-25" d="M63.05,145.55c.7,2.06-.06,4.14-1.7,4.65-2.22.68-5.59-1.3-6.41-3.89-.47-1.49-.67-3.15,1.21-3.86A5.46,5.46,0,0,1,63.05,145.55Z"/><path class="cls-17" d="M78.78,60.7a28.31,28.31,0,0,0,5.08-3.15L87.42,56c-2.18,2.65-4.43,4.36-6,6.65-3.05,1.92-5.27,4.86-8.33,6.78a27.17,27.17,0,0,0-2.42,1.89c-.43.34-.79,1.12-1.4.48-.42-.43-.26-1.08,0-1.66a20,20,0,0,1,3.9-4.46C75,64,76.92,62.36,78.78,60.7Z"/><path class="cls-21" d="M114.12,146c4.54,4.1,3.8,8.69,1.22,11.68-.89,1-2,1.91-3.44,1a2.93,2.93,0,0,1-1.31-4,9.14,9.14,0,0,1,2.51-3.57C114.59,149.9,115.45,148.47,114.12,146Z"/><path class="cls-30" d="M48.71,62.17c-.53.17-.32,1-1.09,1.11-.45-3.48,2-5.18,4.22-7,.63-.37,1.28-.72,1.89-1.13,1-.64,1.85-1.16,1.76.94.71-.68,1.17-1.16,1.66-1.6A2.13,2.13,0,0,1,60,54.18c1.67,1.14,2.29,3.59,4.74,3.82a1.52,1.52,0,0,1,.06,1c-.19.37-.64.26-1,.07-.83-.46-1.69-.89-2.48-1.41a4.69,4.69,0,0,0-6.09.39c-1.37,1.11-2.81,2.13-4.15,3.28A3.54,3.54,0,0,1,48.71,62.17Z"/><path class="cls-31" d="M86.57,107.13a10.74,10.74,0,0,1-6.5-1.18c-.76-.39.38-3.18,1.65-3.4,1.79-.31,3-1.4,4.47-2.26a2.42,2.42,0,0,1,2.87.3,1.83,1.83,0,0,1,.51,2.39A8.6,8.6,0,0,1,86.57,107.13Z"/><path class="cls-32" d="M36.72,73.45c-1.81-.55-3.72-.34-5.83-.66l3.62-1.3a34.55,34.55,0,0,1,8.25-.3,14.9,14.9,0,0,1,2.72.7c2.7.88,2.7.88,2.35,5.07C44.16,75.7,40.64,74,36.72,73.45Z"/><path class="cls-25" d="M76,166.36c1,0,1.84,0,2.62,0,2.58-.07,3.52-.76,3.78-3.3.13-1.3.73-1.34,1.57-1,1.62.61,2.6,1.81,2.13,3.6A8,8,0,0,1,81.45,171c-.71.34-2.13,1.08-2-.92a.67.67,0,0,0-.22-.51C76.83,168,76.83,168,76,166.36Z"/><path class="cls-26" d="M93.51,117.28c-5.58,2.52-5.11.82-5.26-2.84,0-1-.63-2.73.65-3.1a4.46,4.46,0,0,1,5.49,1.8C96.64,115.9,96.64,115.9,93.51,117.28Z"/><path class="cls-33" d="M97.61,119.35c0,1.5.07,3,.06,4.57,0,.27-.14.71-.32.78-2,.74-4,.31-6-.13-1.27-.28-1.1-1.35-1.29-2.27a2,2,0,0,1,2.08-2.68,4.12,4.12,0,0,0,2.72-1.11C96.17,117.27,96.87,118.16,97.61,119.35Z"/><path class="cls-30" d="M74.9,37.2c-4.13,5.62-8,10.83-11.81,16-.69.94-1.42,1-2.08,0s-1.59-1.93-1.17-2.94,1.81-1.24,2.93-1.18a2,2,0,0,0,1.94-1.07,80.39,80.39,0,0,1,7.82-9.27A4.83,4.83,0,0,1,74.9,37.2Z"/><path class="cls-32" d="M78.05,41.8c-4,4.54-6.88,10.05-12,13.59C66.76,48,72.69,45.13,78.05,41.8Z"/><path class="cls-34" d="M47.12,71.18c-1.8-1.78-.44-3.36.38-4.91a21.26,21.26,0,0,1,1.77-2.49c1-.19,1.34-1.35,2.43-1.69.79,2.4-.06,4.63-.51,6.94C50.39,73.17,50.48,73.19,47.12,71.18Z"/><path class="cls-24" d="M95.19,98.46a3.9,3.9,0,0,1,2.34-5.13,2.37,2.37,0,0,1,3.08,1.7c.8,2.19-.13,5.27-1.86,6C97.2,101.65,96.07,100.84,95.19,98.46Z"/><path class="cls-30" d="M116.78,147.94c-.65-1.55-.73-2.7.65-3.54,2.29-1.42,2.69-3.48,2.08-6-.15-.62-1-1.73.37-1.92,1.22-.17,2.7.51,2.52,1.77a32.78,32.78,0,0,1-3.11,10.28,1.39,1.39,0,0,1-1.46.81C116.94,149.21,117,148.29,116.78,147.94Z"/><path class="cls-35" d="M11.52,53c5.12-2.09,10-.77,14.83-1.15.58,0,1.18,0,1.76,0,3.78-.34,4.27-.21,8,2.28C27.81,53.24,19.83,54,11.52,53Z"/><path class="cls-28" d="M55.43,128.4A6.2,6.2,0,0,1,48.32,127c-1-1.06-1.57-4.63-1-6.07.24-.58.57-.48,1-.39a2.94,2.94,0,0,1,2.64,2C51.69,125.06,52.53,127.36,55.43,128.4Z"/><path class="cls-32" d="M49.56,56.66c-1.34.39-2.32,1.56-3.86,1.7a5.66,5.66,0,0,1,.66-2.77,12.08,12.08,0,0,1,8.36-4.71c.44-.07,1-.56,1.35.11s-.15,1-.49,1.36A27.89,27.89,0,0,1,49.56,56.66Z"/><path class="cls-28" d="M52.43,71.16c-.5-2.44.54-4,1.91-5.37a17.63,17.63,0,0,1,5.93-3.73c1.08-.46,1.22-.12,1.1.95-.21,1.91-1.51,3-2.86,4C56.57,68.38,54.29,69.24,52.43,71.16Z"/><path class="cls-32" d="M120.57,128.36c.47,2.3.66,4.4-.93,6.19-.56.62-1.17,1.12-1.7-.21a24,24,0,0,1-1.69-8.14c0-1.17.41-1.44,1.45-.9A8.88,8.88,0,0,1,120.57,128.36Z"/><path class="cls-36" d="M111,170.71c1.3-3.38,3-6.21,3.77-9.44.2-.88.83-.34,1.2-.13,2,1.18,2.46,4.92.7,6.51A12.28,12.28,0,0,1,111,170.71Z"/><path class="cls-37" d="M68.08,169.33c4.58-.76,4.62-.78,6.11-2.78a18.36,18.36,0,0,1,3.09,4.92c.33,1,.33,2-1,1.8C73.25,172.85,70.19,172.31,68.08,169.33Z"/><path class="cls-36" d="M93.76,97.39c-.14.7,1.49,2-.28,2.67-2.19.82-3.59.09-4.16-1.86-.46-1.54-.51-3.21-1.59-4.53-.7-.85,0-1,.59-1.08,2-.35,3.28.77,4.31,2.36A6.37,6.37,0,0,1,93.76,97.39Z"/><path class="cls-26" d="M120.82,154a8,8,0,0,1-.45,6.58c-.4.78-1,2.18-1.93,1.62s-2.24-1.45-2-2.91c.46-2.38,1.69-4.5,2.61-6.72.11-.27.36-.56.67-.41C120.54,152.5,120.45,153.38,120.82,154Z"/><path class="cls-32" d="M67.76,87.8c1.94-.67,2.7-.22,2.79,1.83.07,1.39-.09,2.79,0,4.17s-.76,1.06-1.39.7a14.16,14.16,0,0,1-2.46-1.83C64,90.21,64.29,89,67.76,87.8Z"/><path class="cls-28" d="M56,69.75c-.19,1.43-.36,2.66,1.2,3,.15,0,.29.33.36.53.86,2.22-2.2,6.06-4.53,5.74-.53-.07-.83-.14-.75-.74C52.74,75.23,53.17,72.19,56,69.75Z"/><path class="cls-28" d="M51.59,49.81a7.66,7.66,0,0,1,3-4,4,4,0,0,1,6,1.12c.48.69,0,.88-.43,1.16a11.44,11.44,0,0,1-5,1.36Z"/><path class="cls-38" d="M87.09,95.87c.86,2.42.7,2.67-3.29,4.16-1.27.47-1.37-1-1.69-1.59-.61-1.25,1.15-5.55,2.27-5.53C86.23,93,86.41,94.87,87.09,95.87Z"/><path class="cls-39" d="M66.85,74.61a22,22,0,0,1-7.3,3.84c-1.87.48-2.33,0-1.73-1.83a4.23,4.23,0,0,1,4.32-3.05A8.57,8.57,0,0,1,66.85,74.61Z"/><path class="cls-40" d="M45,79.39c-1.53-.55-3.23-.56-4.8-1.47,2.71-1.54,4.89.41,7.24.72A11,11,0,0,0,54,80.16c0,1.37-.54,2.85-1.59,3.28-1.2.5-2.45-.48-3.33-1.57A8.79,8.79,0,0,0,45,79.39Z"/><path class="cls-32" d="M86,176.29c-2.44,1.44-4.61,1.32-6.62-.19a2.47,2.47,0,0,1-.88-3.33c.65-1.12,1.84-.67,2.78-.34C83.18,173.11,84.42,174.69,86,176.29Z"/><path class="cls-41" d="M90.34,90.11c-.89-1.69-2.59-2-4.19-2.45-.92-.28-2.18-.39-1.71-2A2,2,0,0,1,87,84.2,8.13,8.13,0,0,1,91,86c1.65,1.52,1.41,2.86-.66,4.06Z"/><path class="cls-22" d="M53,64.41c.19-3.84,3.49-6.7,6.82-6.22.58.08,1.24.13,1.42.82s-.38.9-.76,1.23a6.83,6.83,0,0,1-1.21.93C57.24,62.24,55.21,63.26,53,64.41Z"/><path class="cls-36" d="M79,96.27a18.3,18.3,0,0,0-2.08,1.6c-1.81,1.88-1.8,1.91-3.39-.34-.89-1.26-2.17-2.85-.92-4.15s2.84.16,4.09,1A24.61,24.61,0,0,1,79,96.27Z"/><path class="cls-41" d="M90.29,90.07c-1.66,1.1-3.2,2.52-5.48,1.35-1-.5-2.45,1.11-3.19-.72-.33-.79-1.08-1.61-.47-2.41s1.5-.49,2.28-.26c2.31.67,4.38,2.14,6.91,2.08Z"/><path class="cls-42" d="M106.58,105.77c-2.33-1.48-4.13-3.2-6.75-3.32.48-1.4,1.82-1.91,2.63-2.9.54-.66,1-.26,1.49.13A7.26,7.26,0,0,1,106.58,105.77Z"/><path class="cls-43" d="M77.16,49.66,67.6,58.89C68,54.77,72,51,77.16,49.66Z"/><path class="cls-44" d="M53,87c1-3.45,2.17-6.22,5.58-7.21.51-.15,1.35-.19,1.62.1s-.34.88-.59,1.29C58.11,83.62,55.63,85,53,87Z"/><path class="cls-34" d="M80.61,99.89c.39,1.16-.82,4-2,4.64-.5.3-.76.13-1.09-.25a4.75,4.75,0,0,1,.25-5.51C78.75,97.86,80.11,98.41,80.61,99.89Z"/><path class="cls-45" d="M46,83.3c-2,0-4.09-.07-6.13,0s-4.07.32-6.23.5C37.31,81.68,40,81.29,45.89,82a7.17,7.17,0,0,1,2.67,1.28C47.66,83.75,46.81,83.12,46,83.3Z"/><path class="cls-46" d="M43.37,45.33a8.49,8.49,0,0,1,5,4.22c.27.45.87,1,.29,1.55a1.66,1.66,0,0,1-1.67.27c-2.21-.58-3-2.52-4.23-4.18.8-.43,1,.69,1.78.34C44.66,46.64,43.46,46.33,43.37,45.33Z"/><path class="cls-17" d="M83.52,63.83c-4.24,3.31-8.16,7-12.58,10.17C73.82,69.05,79,66.81,83.52,63.83Z"/><path class="cls-47" d="M81.7,93.31a2.36,2.36,0,0,1,0,2.12c-.51.74-1.08,1.63-2,.24a36.13,36.13,0,0,0-2.38-2.89c-.44-.53-.79-1.18-.36-1.8s1.06-.27,1.6-.11C79.91,91.27,81.25,91.72,81.7,93.31Z"/><path class="cls-44" d="M75.21,84.34c2.3-1.51,4.42-1.38,6.4-1.76,1.46-.27,1,1,1,1.6.08,1,.13,2.13-1.43,2.13a6.78,6.78,0,0,1-3.09-1A5.61,5.61,0,0,0,75.21,84.34Z"/><path class="cls-42" d="M57.4,71.84c.33-3.11,2.11-4.65,5-4.51.52,0,1.22-.06,1.38.46s-.38,1.11-.88,1.4c-.89.5-1.86.89-2.79,1.34Z"/><path class="cls-34" d="M122.13,145.49c1.41,1.68,1.6,6,.4,7.4a.78.78,0,0,1-1,.3,1.28,1.28,0,0,1-.89-1.32A18.4,18.4,0,0,1,122.13,145.49Z"/><path class="cls-48" d="M43.66,94c1.73-3.65,5.17-6.42,8.61-6.94C49.73,89.94,46.51,91.68,43.66,94Z"/><path class="cls-49" d="M72.61,87.8c1.52-.14,3.3-.06,4,1.08.58.88-1.67,1.31-1.81,2.56-.89-.6-2.44.27-2.82-.77C71.76,90,71.29,88.53,72.61,87.8Z"/><path class="cls-50" d="M53,145.27c.6,1.68,1.08,3,1.59,4.42a1.64,1.64,0,0,1-1,2.31c-1,.3-1.11-.86-1.33-1.52C51.67,148.79,51.37,147.09,53,145.27Z"/><path class="cls-51" d="M75.65,58.41c-1.64,2.22-3.27,4.45-4.94,6.65-.28.37-.56,1.33-1.24.46-.38-.49-1.09-1.12-.24-1.88C71.27,61.81,73.06,59.7,75.65,58.41Z"/><path class="cls-52" d="M116.27,124.33c-.69-1.58-1.36-2.84-1.3-4.25,0-.54-.65-1.46.33-1.65a1.83,1.83,0,0,1,2.12,1.17C118.15,121.32,117.35,122.68,116.27,124.33Z"/><path class="cls-53" d="M51.53,78.35c-1.32-.07-2.66,0-2.82-1.57-.2-2.06,1.26-2.9,3.1-3.5C51.92,75,51,76.6,51.53,78.35Z"/><path class="cls-54" d="M65.17,66.54A7.3,7.3,0,0,1,61.65,66c-.56-.15-.24-.8-.1-1.14.21-.52.51-1.1,1.26-1s1.45.22,2.18.3,1.54-.09,1.62.73S66.06,66.21,65.17,66.54Z"/><path class="cls-55" d="M95.37,92.47a1.31,1.31,0,0,1-.42,1.6c-.68.54-1,0-1.37-.48a19.76,19.76,0,0,0-1.81-1.85c-.5-.45-.41-.82-.07-1.31a.67.67,0,0,1,.92-.28A6.83,6.83,0,0,1,95.37,92.47Z"/><path class="cls-56" d="M66.29,80.07c-1.71,1-3,1.74-4.24,2.41-.34.17-1,.24-1.22,0-.42-.4-.11-1,.21-1.37C62.29,79.52,63.93,79.44,66.29,80.07Z"/><path class="cls-57" d="M64.11,78.24a4.83,4.83,0,0,1,3.62-2c.55-.06,1.3-.29,1.46.45a1.5,1.5,0,0,1-.82,1.45C67.06,79,65.74,78.63,64.11,78.24Z"/><path class="cls-58" d="M79.85,89c-2.49-2.11-5.1-2.23-7.81-3C75.5,85.2,78.09,86.09,79.85,89Z"/><path class="cls-59" d="M50.66,139.44c1.55.89,3.09,1.3,3,3.18,0,.32-.3.87-.65.67A4.63,4.63,0,0,1,50.66,139.44Z"/><path class="cls-60" d="M68.37,68.64a1.52,1.52,0,0,1-2-.92c-.35-.91.81-1.15,1.34-1.63s1,0,1.16.49C69.18,67.38,69.19,68.15,68.37,68.64Z"/><path class="cls-61" d="M63.51,63A7.72,7.72,0,0,1,65,59.74c.33-.4.75-.8,1.31-.47.72.41.19.92-.06,1.3A5,5,0,0,1,63.51,63Z"/><path class="cls-62" d="M49.45,129.49c.8,1.07,2.4-.14,2.45,1.42,0,.59-.77,1.78-1.46,1.6C49.19,132.19,49.67,130.86,49.45,129.49Z"/><path class="cls-63" d="M62.75,165.68a3.33,3.33,0,0,1-2.26-2.74C61.85,163.36,61.88,164.58,62.75,165.68Z"/><path class="cls-17" d="M64.15,37.71c.75-1,.85-2.39,2-3.11C65.85,35.86,65.54,37.14,64.15,37.71Z"/><path class="cls-64" d="M56.33,18.7c0,3.82,0,7.64,0,11.46C54.44,26.29,54.86,22.42,56.33,18.7Z"/><path class="cls-65" d="M46.8,24.13c.35,0,.58-1.47.9-.25a4.67,4.67,0,0,1-.11,3.62c-.3-1.31-.54-2.37-.78-3.44Z"/><path class="cls-66" d="M74.75,108.13a1.7,1.7,0,0,1-1,2c-.58.29-.9-.29-1-.81a1.6,1.6,0,0,1,1.17-2C74.46,107,74.59,107.48,74.75,108.13Z"/><path class="cls-67" d="M98.25,146.53a1.68,1.68,0,0,1-1.08,1.7c-.37.14-1,.18-1.09-.32A1.56,1.56,0,0,1,97.19,146,.78.78,0,0,1,98.25,146.53Z"/><path class="cls-68" d="M86.51,142.85c-.92.4-1.16-.36-1.33-.81s-.64-1.47.16-1.75a1.67,1.67,0,0,1,2.06.82C87.74,141.91,86.78,142.3,86.51,142.85Z"/><path class="cls-69" d="M63.94,131.08c0-.45-.66-1.1.08-1.3.91-.26,1.46.49,1.83,1.24.24.49.23,1.15-.37,1.29C64.58,132.53,64.21,131.82,63.94,131.08Z"/><path class="cls-70" d="M109.48,148.81a1.29,1.29,0,0,1-.9,1.73c-.48.18-1,.38-1.21-.41-.25-1,.45-1.45,1.17-1.86S109.3,148.4,109.48,148.81Z"/><path class="cls-71" d="M113.75,137.9c-.8.24-.81-.43-.94-.86a1.53,1.53,0,0,1,1-2.08c.43-.15.9-.09.92.51C114.74,136.4,114.79,137.38,113.75,137.9Z"/><path class="cls-72" d="M72.31,121.58c.69-.22,1.12,0,1.22.6.13.84.08,1.66-.82,2.06-.52.24-.79-.17-1-.61A1.56,1.56,0,0,1,72.31,121.58Z"/><path class="cls-71" d="M100.16,159.66a2.73,2.73,0,0,1-1.27,2.28c-.54.29-1.3,0-1.2-.41a4.37,4.37,0,0,1,1.8-2.2C99.72,159.14,100,159.19,100.16,159.66Z"/><path class="cls-73" d="M109.35,164.18a1.13,1.13,0,0,1-.74,1.57c-.67.32-1.1.06-1.29-.65-.15-.53-.56-1.2.42-1.3C108.27,163.76,109,163.13,109.35,164.18Z"/><path class="cls-74" d="M94.29,133.77c-.85.06-1-.7-1.16-1.26s-.33-1.24.48-1.44a1.24,1.24,0,0,1,1.57.85C95.45,132.74,95,133.31,94.29,133.77Z"/><path class="cls-75" d="M104.45,123c.23.48.21,1-.32,1s-1.39.13-1.79-.52.11-.94.56-1.22C103.76,121.82,104,122.64,104.45,123Z"/><path class="cls-76" d="M102.78,172.12c.24.64-.14.84-.59.95s-.71.3-1-.13.11-.8.48-1A.69.69,0,0,1,102.78,172.12Z"/><path class="cls-77" d="M93.81,106.08a.56.56,0,0,1-.81-.41c-.19-.52.17-.79.53-1s.56,0,.66.31A1,1,0,0,1,93.81,106.08Z"/><path class="cls-78" d="M94.51,123.5s-.48.32-.6-.38a1,1,0,0,1,.73-1.18c.38-.15.83-.44,1.06.17C96,122.87,95.41,123.11,94.51,123.5Z"/><path class="cls-79" d="M170.51,69.51c9.13.27,16.1,4.27,21.1,11.81.75,1.13,1.54,2.23,2.33,3.32A3.24,3.24,0,0,0,197.81,86a47.27,47.27,0,0,1,21.2-.34c9.94,2.17,17.69,13.54,15.19,22.6a18.16,18.16,0,0,1-7.2,9.84c-1.24.91-2.44,1.88-3.64,2.85-.7.58-1.69,1-1,2.31a.81.81,0,0,1-.75,1.21c-4.79.45-6.62,2.19-7.11,6.82-.65,6.26-7.81,11.79-13.46,9.78-3.72-1.32-8.48-1.66-10.09-6.53-.23-.69-.91-.82-1.63-.94-4-.64-8-1.27-11.93-2.1-1.48-.31-2.26-.15-2.94,1.29a15.27,15.27,0,0,1-9.33,8.11,12.73,12.73,0,0,0-4.32,2.28,8.09,8.09,0,0,1-6.46,1.91c-1.46-.16-2.11.22-2.2,1.77a12.5,12.5,0,0,1-.84,3.65c-1.88,5-6.36,7.78-11.26,7.1A11.34,11.34,0,0,1,130,147.31c-.55-4.65-.64-4.85-5-3.13-6.09,2.43-11.83-1.55-15-5.78-5.15-6.82-4.77-15.88.77-23.38a42.66,42.66,0,0,1,13.34-11.37c1.19-.69,1.93-1.22,1.52-2.84s.36-3.39,1.09-5a32.15,32.15,0,0,1,6.68-9.72C143.74,76,155.47,69,170.51,69.51Z"/><path class="cls-80" d="M219.65,116.63c2.12.61,1.36,2.32,1.06,3.51-.23.94-1.2.26-1.82-.06-11.56-6-22.42-2.72-33.1,2.56-1.54.76-2.95,1.8-4.68,2.87.32-2.21,2.11-2.86,3.33-4-1.06-.93-1.82-2.25-3.42-1.32a1.42,1.42,0,0,1-1.32-.7c0-.69,0-.69-1.54.22a1.06,1.06,0,0,1-1.08-.36c-2.08-5.38-3.83-11-9-14.43-1.11-.75-.15-1.35.16-1.91a20.87,20.87,0,0,1,11.61-9.9c7.74-2.84,15.54-5.66,23.84-6.48A42,42,0,0,1,217,87c4.53,1,9.38,1.83,9.3,8.17l.22-3.23c1.5.56,1.79,1.91,2.24,3.13,1.41,2-.53,3.9-.16,5.76a14.93,14.93,0,0,1,.27-2.17,1,1,0,0,1,.81-.29c2.47,1.56-.18,3.43.52,4.8.39-.63-.35-2.4,1.54-2.56l-.21,2.73c-.33,1.54-.32,3.16-.9,3.9a6.18,6.18,0,0,1,1.38-2.71c.24-.15.32-1,.58-.51.94,2-1.8,10.1-3.78,10.27-2.69.24-5.06,2.18-7.88,1.32a4.11,4.11,0,0,1-.86.08c-.44,0-.82-.44-1.27-.11C219.23,115.75,219.07,116.49,219.65,116.63Z"/><path class="cls-80" d="M124.53,105.46a30.08,30.08,0,0,1,19.77-4.28c3.07.37,6.41-.71,9.64.21,1.66.48,3.63.33,3.89,2.91.08.78,1.44,1.09,2.44,1.25.35-1-.74-1-.93-1.62a3.68,3.68,0,0,1,3.63.31,23.82,23.82,0,0,1,12.1,16.05c1.13,4.76-.24,8.88-3.17,12.62-.61-.75-2.12-.95-1.52-2.46l1.35-2.68c-2.83-.15-3.41,2.73-5.6,3.54-.88-.57,0-2.77-2-2.67-.63,0-1.43-1.13-1.75.68-.26,1.42-1.14,0-1.48-.36-7.14-6.58-15.84-7.37-24.88-6.6-5.07.43-9.32,2.94-13.12,6.18-6.19,5.3-6.13,9.42.12,14.45-4.86,1.28-10.14-1.84-12.55-7.11-3.72-8.13-2.43-15.68,4.81-23,.52-.24,1.12-.17,1.61-.47s1.19-.83,2-.77c.74-.72.26,1.64,1.17.46a23.31,23.31,0,0,0,4.17-5.92A1.34,1.34,0,0,1,124.53,105.46Z"/><path class="cls-80" d="M171.45,71.58c9.57.27,16.11,5.15,20.61,13.28.92,1.66.82,2.46-1.21,3-3.07.78-6.09,1.79-9.09,2.83-6.1,2.1-11.24,5.53-14.67,11.13-.69,1.14-1.28,1.36-2.52.78-11.52-5.42-23.29-5-35.17-1.31-.53.16-1.25.48-1.6.27-.74-.43-.22-1.24,0-1.83,1.73-6.07,5.67-10.73,10.2-14.8a56.92,56.92,0,0,1,21.8-12.18C163.63,71.54,167.53,71.55,171.45,71.58Z"/><path class="cls-17" d="M146.27,151.51a18.39,18.39,0,0,0-2.87-.06c-1.5.19-1.65-.71-1.72-1.94-.64,1.27-1.19,2.68-2.75,2.62-1.93-.07-1.38-2.28-2.46-3.23-.48,1.25.39,2.33.57,3.88-1.87-1.08-1.39-4-3.88-3.81a4.57,4.57,0,0,0-1.58-1.35c-.94-6.43-.94-6.43,5.59-9.19-.3-1.17-1.27-.93-2.09-1l-.28-.27a11.19,11.19,0,0,1-1.06-4.47c1.94-1.23,1.33,1.42,2.55,1.48-.09-1-.18-2-.27-3,.1-.42.16-.85.23-1.27.37-1,.88-1.59,1.65-.33a5.81,5.81,0,0,1,.62,3c.24,1.62-.11,3.46,1.73,4.46l1.16.43a91,91,0,0,1,10.32,2.31c-.86,3.89-1.07,7.94-2.84,11.64-.37.76-.65,1.09-1.44.83a2.18,2.18,0,0,1,.31-2.71C147.1,150.16,147.11,151.16,146.27,151.51Z"/><path class="cls-29" d="M200.14,136c-.69,1,.54,1.58-.2,2.56-2-2.18-5.68-1.32-7.35-4.34-1-1.78-1.13-2.75,1.3-3.12,1.37-.21,3-.22,3.86-1.75.1-.17.18-.34.27-.51,2.25,3.19,3.26-1,4.79-.8,3.19.44,6.33-.13,9.49,0,.87,0,.59.48.64.83A6.68,6.68,0,0,1,209.4,135c-1.68.72-3.39,1.37-5.06,2.11S201,138.52,200.14,136Z"/><path class="cls-81" d="M140.77,137.83l-1.1-.11c-1.17-2.4.23-4.47.85-6.63a3.8,3.8,0,0,1,1.06-1.86c-1.4,0-1.16,1.18-1.46,2a4.73,4.73,0,0,1-.91,2c-.71.74-1.1.45-1.15-.49.22-2.2-.32-4.37-.22-6.57,0-1,0-1.92,1.13-2.37,3.67.27,7.44-.36,11,1.24a.77.77,0,0,1,.09.82,30.91,30.91,0,0,0-2.62,5c-.44,1-.62,2.27-2.16,2.19-1.27-1.91.49-3.65.24-5.51-.06,2.33-2.4,4.35-.85,6.9C144.25,137.8,144.15,137.88,140.77,137.83Z"/><path class="cls-82" d="M151.24,130.38c1-1.17,1.64-2.72,3.4-3.62.05,1.92-1.39,2.91-1.67,4.34a16.31,16.31,0,0,1-2.42,4.75c1.19-1.43,1.53-3.17,2.95-4.13.6-.86,1.17-1.74,1.81-2.57.39-.49.46-1.63,1.58-.87.81.55.63,1.08.25,1.88a43.81,43.81,0,0,1-3.2,5.08c-.22.33-1.15.7-.21,1.28-.09,1.51-1.32,1.94-2.41,2.5-1.69.48-3.28-.31-4.91-.44s-2.2-2.36-1-4.06c.65-.94,1.44-1.78,2-2.79.72-.58,1.37-1.69,2.38-.37,0,1.81-1.46,3.07-1.78,4.46C149.16,134.27,149.26,131.78,151.24,130.38Z"/><path class="cls-83" d="M188.62,127.22c-1-1-1.78-2.22-3.36-2.57,1.87-2.16,2.37.21,3.36.8.59-1.13-1.57-2.54.41-3.23,2.2-.77,1.22,2,2.6,2.39a1.94,1.94,0,0,0,.1-2c-.7-1.08-.35-1.43.76-1.77,1.69-.53,1.1.7,1.22,1.39a2.66,2.66,0,0,0,.49,1.37c.11-1,.23-2,.42-3.75a17.47,17.47,0,0,1,1.95,8.08c0,1.26-3,2-5.11,1.14a1.07,1.07,0,0,1-.71.28A3.16,3.16,0,0,1,188.62,127.22Z"/><path class="cls-31" d="M202.46,119.9c.24-.52.41-1.79,1.15-.76,1.33,1.85-.52,7.17-2.67,8.38s-3.67.45-4-1.81c-.24-1.62-.4-3.25-.6-4.87-.07-.51-.05-1,.53-1.15.24-.07.74,0,.76.11.37,1.63.72,1.41,1.2,0,.17-.48.74-.9,1.09-.52s.25,1.08.35,1.63a8.48,8.48,0,0,1,.34,4.74c.53-1.15-.08-2.49.17-3.75A4.87,4.87,0,0,1,202.46,119.9Z"/><path class="cls-84" d="M132.86,137.91c-1.18.52-2.49.82-3.13,2.13-2-1.33-4-2.52-6.2-2.52.64.47,1.81.22,2.81.58,1.26.45,2.84.8,2,2.81l-1,0c-1.92-.62-4-.87-5.69-2a11.93,11.93,0,0,1-1-1.06,3.44,3.44,0,0,1,.09-4.51c1.55-1.76,2.62.18,3.88,1l-3.52,0c2.65,1.6,5.36.76,7.29,2.15,1.45-.83-2.27-1-.11-1.9a1,1,0,0,1,.77-.1c1.29.51,2.13,1.61,3.21,2.4A1.71,1.71,0,0,1,132.86,137.91Z"/><path class="cls-81" d="M132.86,137.91l-.64-.66c-1.13-.89-2-2-3-3-.61-2.17-2.48-3.26-4-4.68a.76.76,0,0,1,0-.76c1.7-1,3.09-2.58,5.26-3.32.23,1.2,0,2.43,1.16,3.33.58.45,1.64,1.53.33,2.55l-.4-.11c-.86-.49-1.29-1.4-1.93-1.93a8.8,8.8,0,0,1,1.62,2.62,5.78,5.78,0,0,0,1,1.57,16.25,16.25,0,0,1,2.84,3.95l0,0C134.57,138.64,133.62,137.85,132.86,137.91Z"/><path class="cls-85" d="M147.67,131.91c.22,1.53-.95,2.37-1.91,3-1.25.82.44,1.93-.53,2.6a1.8,1.8,0,0,0,1.84.58c1.53-.57,2.7,1.16,4.16.48.64.6,2.33-.61,2.2,1.29l-1.7-.1c-3.8.18-7.39-.82-11-1.93l.17-.53c2.29.71,2.68-1.26,3.57-2.53-.34-.82.08-1.31.73-1.7,1.69-1.5,1.69-3.87,2.87-5.63.46-.68.32-2,1.75-1.79C150.66,128.27,148.34,129.8,147.67,131.91Z"/><path class="cls-86" d="M153.43,139.86c-.3-1.16-2,0-2.2-1.29l2.5-2,.61-.12c.62.45-.16,1.37.6,1.78,2.48-.57,5.36.15,7.18-2.91.6,2.24.43,3.7-.72,4.89-.66.69-1.71,1.39-2.48.68-1-.93.89-1.11.87-1.92C157.53,138.41,155.56,139.66,153.43,139.86Z"/><path class="cls-87" d="M136.69,130.45l-.67.69c-.93-1.47-.47-3.5-1.83-5.1-.55,1.36.28,2.3.12,3.37-2-.71-1.83-2.82-3-4.36l6.4-1.35a7.66,7.66,0,0,1-.73,4.6C136.66,129,136.28,129.66,136.69,130.45Z"/><path class="cls-88" d="M190.87,129.06l.59,0c-.44.57.84,2.86-1.52,1.51-.64-.37-.74.11-.91.59-.51,1.53-1.23.5-1.89.13,0-.74-.6-1-1-1.45,0-1.24,0-2.42-1.89-1.4-.68.37-1.37-.44-1.94-.91a.6.6,0,0,1,0-.95,2,2,0,0,1,1.92-.94c1.21.21,1.9,1.18,2.74,1.92C188.33,127.87,189.51,128.71,190.87,129.06Z"/><path class="cls-89" d="M179.91,119.59c.49,0,1,0,1.11.64-1.66,2.57-3.35,5.11-3.06,8.41.06.58,0,1.64-.88,1.5s-.83-1.17-.67-1.93a24.3,24.3,0,0,0,.67-8.82l1,.06C178.6,120.89,179.36,118.78,179.91,119.59Z"/><path class="cls-90" d="M154.94,138.18c-.82-.38-.6-1.12-.6-1.78,1.38-2.11,4.6-1,6-3.23-1-.79-1.82.16-2.86-.2l2.29-2.28a15,15,0,0,1,1.64,2c.64,1.12,1.41,2.42-1,2.36C159.7,135.06,155.29,137.69,154.94,138.18Z"/><path class="cls-81" d="M147.67,131.91c-1.33-1.2.46-1.61.65-2.43.32-1.33,1.49-2.36,1.54-3.83l.07-.64c2.08.11,2.84.91,1.57,2.88a11.67,11.67,0,0,0-.81,1.84c-.55.38.39,2-1.25,1.49C148.61,130.84,148.36,131.93,147.67,131.91Z"/><path class="cls-91" d="M136.69,130.45c-.86-2.44.53-4.52,1-6.75l1.25.07-.66,9.23c-.18.28-.33.25-.46,0-.16-1.1-.3-2.2-.48-3.3-.08-.49-.36-.27-.49,0A3.55,3.55,0,0,0,136.69,130.45Z"/><path class="cls-92" d="M203.85,127.38c.92-3.24.57-6.29,2.31-9.1C207,122.79,206.47,125,203.85,127.38Z"/><path class="cls-81" d="M125.24,128.81l0,.24c.63,1.93,3.51,2.44,3.17,5a21,21,0,0,1-3-.95C122.56,131.74,122.55,130.61,125.24,128.81Z"/><path class="cls-93" d="M213.71,121.15c1.52,2.2-1.72,3.52-.76,5.57a3.19,3.19,0,0,1-1,.28c-.4,0-1.06,0-.78-.77C211.78,124.47,211.71,122.36,213.71,121.15Z"/><path class="cls-94" d="M164.26,137.13c-.13-1-.07-1.53,1.25-1.87.9-.23,1.49-1.7,2.22-2.62.75-.08,1.06-1.25,1.89-.9s.19.95.09,1.46c-.53,1.79-2.26,2.08-3.59,2.89C165.42,136.29,165.22,137.41,164.26,137.13Z"/><path class="cls-95" d="M128.36,134c-.63-1.93-3-2.75-3.17-5,1.91,1.28,4.34,2.12,4.38,5,.07.62-.11.94-.8.68a.51.51,0,0,1-.46-.2A1.32,1.32,0,0,1,128.36,134Z"/><path class="cls-96" d="M121.64,138.84a8.7,8.7,0,0,1,5.69,2C124.55,141.91,122.51,141.17,121.64,138.84Z"/><path class="cls-97" d="M128.34,140.91c-.11-1.64-1.14-2.23-2.62-2.43-1.2-.17-2.38-.49-4.09-.85,4-.74,5.77-.15,8.1,2.41C129.43,140.59,129.07,141.05,128.34,140.91Z"/><path class="cls-88" d="M208,119.82c.14,1.88,3,4-.66,5.78A14.07,14.07,0,0,1,208,119.82Z"/><path class="cls-98" d="M124.53,105.46a.29.29,0,0,1-.06.33c-.59,2.9-3.06,4.58-4.54,6.9-.82.39-.52-.79-1.08-.77-.29-1.43.86-1.74,1.74-2.27C121.93,108.28,122.58,106.25,124.53,105.46Z"/><path class="cls-99" d="M231.69,100.56c-1.33.76-1.07,2.26-1.57,3.64-.77-2,.81-3.94-.53-5.62-.12-1.07.66-1.07,1.37-1.17C231.41,98.41,232.08,99.36,231.69,100.56Z"/><path class="cls-100" d="M135.13,137.47c-1.58-.85-2.24-2.53-3.4-3.76,0-1,1.16-.47,1.45-1.1a1,1,0,0,1,.56.08C135,134.05,134.84,135.82,135.13,137.47Z"/><path class="cls-101" d="M117,113.21c-.77.83-1.13-.25-1.69-.37a15.36,15.36,0,0,1,3.61-3.93c.4-.33.9-.83,1.24.1C119.7,110.87,117.72,111.57,117,113.21Z"/><path class="cls-102" d="M169.71,133.2c.07-2.8-1.54.43-2-.56.58-1.09.81-2.62,2.65-2.19l.13.57c2.46-.84.92,1.27,1.39,1.89-.25.34-.69,1-.93.34C170.47,131.77,170.11,133.3,169.71,133.2Z"/><path class="cls-103" d="M144.9,155.54c-2.2,1-4.39,1.35-6.57,0,2.16-.52,4.43.51,6.5-.66C145.17,155,145.19,155.27,144.9,155.54Z"/><path class="cls-104" d="M131.58,147.62c.52-.08.68-1.07,1.29-.66s.11,1.34.29,2c-.23.85.63,1.62.1,2.64A6,6,0,0,1,131.58,147.62Z"/><path class="cls-105" d="M149.44,131.22c.41-.5.83-1,1.25-1.49l.55.65-3.35,6.29-.5-.24C148.07,134.69,148.75,133,149.44,131.22Z"/><path class="cls-106" d="M157.6,141.7c-1.25.48-2.4.9-3.54,1.35-.59.23-.92-.1-1.12-.55s.16-1.12.58-1.06C154.83,141.65,156.23,140.22,157.6,141.7Z"/><path class="cls-107" d="M153.5,131.72l-3.36,5.59A14.81,14.81,0,0,1,153,131.1Z"/><path class="cls-108" d="M219.65,116.63c0,.37,0,.74-.41.9.2-1.91-1.24-1.54-2.61-1.43,1.48-2.2,2.87-1.24,4.25-.54Z"/><path class="cls-104" d="M180.88,131.44c-2.61-1-2.59-2.2-1.31-4.12C180,128.67,180.36,129.79,180.88,131.44Z"/><path class="cls-109" d="M210.41,120.67a3.49,3.49,0,0,1-.56,4.85C210.06,123.72,210.23,122.19,210.41,120.67Z"/><path class="cls-110" d="M164.73,134.34c-1.23-1.66-1.9-3-.45-4.49C164.5,131.21,165.35,132.48,164.73,134.34Z"/><path class="cls-111" d="M186.14,129.88c1,0,1.29.53,1,1.45-.33-.22-.28-1.11-1-.7-1.74,1.07-2.53-.14-3.68-1.47Z"/><path class="cls-112" d="M171.42,134.57a8.88,8.88,0,0,1-4.43,3.58Z"/><path class="cls-113" d="M229.07,98.59l-.45,3.79-.41-.06.5-7.3.63.19A3.1,3.1,0,0,1,229.07,98.59Z"/><path class="cls-114" d="M229.07,98.59a8.23,8.23,0,0,1,.27-3.38,2.93,2.93,0,0,1,1.62,2.2c-.26.62-1.29.33-1.37,1.17A4.56,4.56,0,0,0,229.07,98.59Z"/><path class="cls-115" d="M232,104.48a10.91,10.91,0,0,1-2.73,5c.92-2.53,1.59-4.35,2.25-6.18Z"/><path class="cls-89" d="M144.9,155.54l-.07-.7c.11-.8-1.61-.13-1-1.09a1.89,1.89,0,0,1,2.35-.37c.73.29.62.9.14,1.33A8.09,8.09,0,0,1,144.9,155.54Z"/><path class="cls-116" d="M117,113.21c.38-1.9,2-2.89,3.16-4.2l.44.64-1.74,2.27Z"/><path class="cls-107" d="M201.26,121.63l-.33,4.83h-.43l-.24-5.52h.38A.72.72,0,0,1,201.26,121.63Z"/><path class="cls-105" d="M146.27,151.51a6.8,6.8,0,0,1,2.36-3.69c.28,1.73-1.6,2.79-1.18,4.41Z"/><path class="cls-117" d="M133.18,132.61l.34,1.47c-.85.72-.83-1.77-1.79-.37a1.71,1.71,0,0,1-.88-1.33c.31-.44.21-1.41,1.22-1l-.08,0C131.89,132.26,133.08,131.91,133.18,132.61Z"/><path class="cls-118" d="M201.26,121.63l-.62-.67c.34-.66-.28-1.68.59-2,.67-.27.66.83,1.23,1A1.36,1.36,0,0,1,201.26,121.63Z"/><path class="cls-119" d="M208.72,137.05a4,4,0,0,1-4.44,1.81Z"/><path class="cls-120" d="M190.87,129.06c-1.72.62-2.63-1-3.94-1.46.58-.07,1.26.32,1.69-.38Z"/><path class="cls-90" d="M164.26,137.13c.46-.63.93-1.25,1.86-1a7.37,7.37,0,0,1-1.79,3.13C163.83,138.49,164.2,137.8,164.26,137.13Z"/><path class="cls-121" d="M216.43,124.41c-.58-1.37.31-2,1-3.27C218.22,122.91,217.68,123.72,216.43,124.41Z"/><path class="cls-122" d="M224,91.86c-3.08-1-6.3-.56-9.6-1.18C218,88.92,222.41,89.56,224,91.86Z"/><path class="cls-123" d="M203.14,92.84c1-.83,2.27-.59,3.35-1,.35-.13,1.32-.47,1.09.46-.09.37.64,1.38-.82,1.5S204.06,94.93,203.14,92.84Z"/><path class="cls-124" d="M181.86,106.52c-.92,1.21-2.31,1.43-3.37,2.17-.3.21-.84.54-1,.17a4.25,4.25,0,0,1-.23-2c0-.24.55-.44.84-.67C179.17,107.74,180.57,106,181.86,106.52Z"/><path class="cls-125" d="M220.07,102.55a2,2,0,0,1-1.9-1.69,10.28,10.28,0,0,1,4.83.3c-1,.85-2.43.29-3,1.43Z"/><path class="cls-126" d="M174.76,101.79a1.86,1.86,0,0,1-1.72-.42c1.63-1.3,3.67-1.41,5.67-1.76l-4,2.22Z"/><path class="cls-127" d="M179.91,119.59c-1.3,0,.38,1.93-1.12,1.68-1.14-.19-.65-1.13-.68-1.82.68-.9,1.26-1.93,2.64-2.16C181.1,118.29,179.64,118.66,179.91,119.59Z"/><path class="cls-128" d="M191.56,116.6a3.51,3.51,0,0,1-4.14,2C188.62,117.51,190.29,117.49,191.56,116.6Z"/><path class="cls-129" d="M204.79,108.61a6.25,6.25,0,0,1,5.33-.83C208.08,108.51,206.55,109.26,204.79,108.61Z"/><path class="cls-126" d="M174.7,101.83c1.54.13,3-.56,5-.94-1.76,1.51-3.52,1.48-5,2.09-.27.11-.88.12-.69-.49.09-.29.5-.47.76-.71Z"/><path class="cls-130" d="M210.59,113.79l4.47-1.88a8.51,8.51,0,0,1-4.3,2.67Z"/><path class="cls-131" d="M210.88,108.7c-.57,2.27-2.13,1.76-3.23,2.12C208.29,109.74,209.35,109.35,210.88,108.7Z"/><path class="cls-132" d="M210.19,96.12a6.1,6.1,0,0,1-4.42,1A5.43,5.43,0,0,1,210.19,96.12Z"/><path class="cls-129" d="M204.21,115a4.62,4.62,0,0,1,3.42-1.17C206.68,115.3,205.32,114.88,204.21,115Z"/><path class="cls-116" d="M194.94,116.41c1.08-1,2.42-1.22,4.2-1.39A4.37,4.37,0,0,1,194.94,116.41Z"/><path class="cls-85" d="M112.14,133.43c1.79.63.92-1.15,1.61-1.77.52,1.83.26,3.77,1.25,5.38.7-.24.25-1,.79-1.51,1.29,2.06,2.85,3.95,3.67,7.13-3.19-2.92-6.45-4.69-7.49-8.48A.6.6,0,0,1,112.14,133.43Z"/><path class="cls-133" d="M172,120.15l1.59-1.18c-.21,2.59-.51,4.86-2.1,7.15-.3-3.29-1.32-6.29.75-9.13C172.86,118.07,171.43,118.89,172,120.15Z"/><path class="cls-134" d="M163.19,118.58a19.13,19.13,0,0,1,4.37,6C164.66,123.94,163,122.25,163.19,118.58Z"/><path class="cls-135" d="M119.64,124.44a34,34,0,0,1-4.88,7.71C114.46,128.1,117.57,126.6,119.64,124.44Z"/><path class="cls-134" d="M129.71,106.31a30.91,30.91,0,0,1-6.45,4.58c1.88-2,3.22-4.54,5.9-5.69C129.62,105.43,130.08,105.66,129.71,106.31Z"/><path class="cls-136" d="M119.93,112.69c.94-2.68,3.5-4.29,4.54-6.9.18.2.54.52.5.59C123.6,108.72,122.45,111.26,119.93,112.69Z"/><path class="cls-137" d="M143.25,113.86c-1.6.54-2.95,1.63-5.33,1C139.81,113.49,141.06,112,143.25,113.86Z"/><path class="cls-138" d="M119.73,122.81l-4.48,3.31A4.82,4.82,0,0,1,119.73,122.81Z"/><path class="cls-139" d="M169.83,119.54c-1-1.81,1-3.14.08-4.69-.32-.57.21-.55.57-.45s.89.37.68,1C170.73,116.71,170.32,118,169.83,119.54Z"/><path class="cls-140" d="M112.14,133.43l-.17.75c-.37-1.83-1.31-3.65.5-5.49Z"/><path class="cls-141" d="M159.13,109.91l-4.46,1A4.48,4.48,0,0,1,159.13,109.91Z"/><path class="cls-142" d="M129.71,106.31l-.55-1.11c1.55.08,2.12-1.74,3.84-2C132.29,104.91,130.9,105.51,129.71,106.31Z"/><path class="cls-143" d="M162.58,123.48l4.08,3.27c-2.54-.14-3.13-2.06-4.61-2.7Z"/><path class="cls-95" d="M157,117.53a12.29,12.29,0,0,1-4.55,1.27C153.67,117.31,154.94,117.11,157,117.53Z"/><path class="cls-144" d="M177.56,78.57c-2.63.42-5.31-1-7.77.64-.66.44-1.39-.33-1.47-.94-.11-.88.79-.64,1.25-.61C172.2,77.89,175,76.26,177.56,78.57Z"/><path class="cls-145" d="M168.61,80.91c.64-.77,1.61-.56,2.43-.8.2.21.57.28.58.66l-2,.75,4.06.62c-3.35,2-4.78,1.76-5.09-.58C168.26,81.32,168.28,81.11,168.61,80.91Z"/><path class="cls-146" d="M171.32,73.52c2.78-.39,3-.31,4.52,1.7-2.41.65-2.54.62-4-.84C172.35,73.65,171.1,74.07,171.32,73.52Z"/><path class="cls-147" d="M159.42,98.28c1.86-1.12,3.7-2.31,6.44-2.45C164,98.37,161.58,97.94,159.42,98.28Z"/><path class="cls-148" d="M179.05,81.83c1.22-.55,2.39-1.74,3.82-.78.67.44-.12.89-.57,1.19C181.12,83,180,83.91,179.05,81.83Z"/><path class="cls-149" d="M171.32,73.52l1.24.59-.68.27c-2.18-.34-4.29.46-7,.55A10.29,10.29,0,0,1,171.32,73.52Z"/><path class="cls-67" d="M171.62,80.77l-.58-.66c1.64-.17,3.11-1.59,5.08-.67C174.77,80.71,173.15,80.6,171.62,80.77Z"/><path class="cls-150" d="M168.61,80.91l0,.65L164,83.2C165.15,81.54,166.84,81.13,168.61,80.91Z"/><path class="cls-141" d="M183.13,77.76l-3.44,2A2.89,2.89,0,0,1,183.13,77.76Z"/><path class="cls-85" d="M164.6,100.43c.62-1.12,1.12-2.09,2.43-2.17.12,0,.42.5.36.64C166.9,100,166.21,100.82,164.6,100.43Z"/><path class="cls-97" d="M159.69,75.76c.16,1.8-1.14,1.82-1.66,3.13C157.61,76.78,158.69,76.58,159.69,75.76Z"/><path class="cls-151" d="M137.85,133a3.55,3.55,0,0,1,.46,0c1-.38.78-1.56,1.35-2.23a1.11,1.11,0,0,1,1.61.11c-.67,2.24-1.71,4.41-1.6,6.84C137.51,136.73,138.17,134.66,137.85,133Z"/><path class="cls-152" d="M142.81,141.6c-1.62,1.2-2.53,1.9-3.84,1.67.15-.64.53-1.29-.18-1.84C139.9,141,140.93,141.48,142.81,141.6Z"/><path class="cls-153" d="M139.71,146l-.23,3.33C138.13,148.09,138.65,147.06,139.71,146Z"/><path class="cls-124" d="M146.27,146.48a4.44,4.44,0,0,1-1.34,3.35C144.32,148.17,145.52,147.39,146.27,146.48Z"/><path class="cls-127" d="M209.23,130.38c-1.14,3-5.47,2.63-5.84,6.46l-.69-.59c.55-1.05,1.09-2.11,1.68-3.24-2.26-.78-4.66,1.06-6.74-.63,1.58-.91,1.58-.83,5.8-.79C205.35,131.6,207.54,132.42,209.23,130.38Z"/><path class="cls-154" d="M145.24,133.07c-.24.57-.49,1.13-.73,1.7-.51-.44-1.74-.24-1.44-1.37.68-2.6,1.46-5.17,2.24-7.74.15-.5.62-.36,1-.25.73.23.32.72.24,1.15C146.08,128.73,145.66,130.9,145.24,133.07Z"/><path class="cls-155" d="M141.27,130.88l-1.61-.11c.09-.75.16-1.5.27-2.25.22-1.42,1.59.61,1.89-.61.74.25.29.79.2,1.13A13.92,13.92,0,0,1,141.27,130.88Z"/><path class="cls-139" d="M128.77,134.76l.8-.68a10.12,10.12,0,0,1,2.65,3.17C130.72,136.91,129.89,135.63,128.77,134.76Z"/><path class="cls-133" d="M132.07,131.41c-.51.19-.38,1.19-1.22,1a11.53,11.53,0,0,0-3.09-4.1C130.2,127.75,130.82,130.08,132.07,131.41Z"/></g></g></svg>