<svg xmlns="http://www.w3.org/2000/svg" viewBox="0 0 256.43 180.83"><defs><style>.cls-1{fill:#1f201d;}.cls-2{fill:#595a58;}.cls-3{fill:#fdfdfc;}.cls-4{fill:#fefefd;}.cls-5{fill:#fbfbfa;}.cls-6{fill:#fcfcfc;}.cls-7{fill:#5a5b58;}.cls-8{fill:#565753;}.cls-9{fill:#fefefe;}.cls-10{fill:#20211e;}.cls-11{fill:#222220;}.cls-12{fill:#222320;}.cls-13{fill:#21211e;}.cls-14{fill:#232321;}.cls-15{fill:#21221e;}.cls-16{fill:#626261;}.cls-17{fill:#bdbebb;}.cls-18{fill:#cacac7;}.cls-19{fill:#6a6a6a;}.cls-20{fill:#565655;}.cls-21{fill:#fdfdfd;}.cls-22{fill:#f3f3f1;}.cls-23{fill:#fdfefd;}.cls-24{fill:#fff;}</style></defs><title>Asset 3</title><g id="Layer_2" data-name="Layer 2"><g id="Layer_2-2" data-name="Layer 2"><path class="cls-1" d="M91.13,138.19c-3.53-11.86-2.94-23.45,1.15-35.18,5.43-15.57,17.12-24.34,31.28-30.84a56.39,56.39,0,0,1,26.47-5c1.93.09,2.44-.41,2.19-2.4-.59-4.79-.63-9.56.92-14.26.58-1.74,1.46-2.06,3-1.65,6,1.61,12.22,2.22,18.42,3A23.54,23.54,0,0,1,194.67,74a62.63,62.63,0,0,1-.56,12.77c-.41,2.53,1,4.16,2.13,5.92.76,1.14,1.56-.11,2.21-.43a36.53,36.53,0,0,1,26.69-2.57c3.08.87,3.09,1.09,1.09,3.62-.26.33-.79.49-.64,1.24,9.54-.1,17.36,4,24.38,10.16a40,40,0,0,0,4.9,3.41c1.9,1.2,2.1,2.23.4,3.66-7.46,6.24-15.66,11-25.36,13-3,.59-6,1.45-9.12,1.47-1.81,0-1.66.65-1,1.93,4.35,8.38,2.11,16-3,23.11-1,1.42-2.12,2.06-4.13,1.23-3.19-1.31-6.16-3-9.33-4.37-2-.83-3.16-.68-4.09,1.7-5.35,13.79-15.77,22.11-29.16,27.69-13,5.4-25.77,3.13-38.73.71-7.56-1.41-13.41-5.8-19.54-10.14-8.53-6-14.1-14.12-18.74-23.14a8.17,8.17,0,0,1-.38-1.27c.82-1.36,1.34-.15,2,.22a80.7,80.7,0,0,0,11.79,16.55c2.2,2.42,4.46,4.77,7.74,5.56.27-.14.34-.33.19-.47-5.45-4.86-8.3-11.61-12.6-17.31a3.23,3.23,0,0,1-.73-2.55,3,3,0,0,1,2.74-2.29c1.35.52,1.69,1.84,2.25,3A73.36,73.36,0,0,0,116.84,163c5.58,6.21,11.41,12.13,20.22,13.36,7.88,1.11,15.75,2.69,23.78,1.48,6.21-.93,11.8-3.52,17.13-6.68,13.61-8.08,18.46-21.57,22-35.84,1.49-6,.92-12.06.53-18.13A56.56,56.56,0,0,0,195,95.67c-6.51-13.4-16.27-23.26-31.39-25.53-10.77-1.63-21.8-1.7-31.48,5.14-2.13,1.51-4.69,2.37-7,3.67-4.64,2.62-7.9,7-12.28,9.88-4.2,2.81-6.42,7-8.42,11.42a10.49,10.49,0,0,1-2.45,3.88,1.83,1.83,0,0,1-2.37-.48c-.53-1.28.24-2.25.78-3.29,4.28-8.28,10.91-14.42,18.14-20,2.14-1.66,4.6-3,6.11-5.35.94-1.48,2.73.26,3.46-.89-13.47,2.23-20.67,9-27.52,17.47-5.42,6.66-8,14.8-9.31,23.27-1.09,6.85-.3,13.57,1.06,20.28.21,1,.69,2.12,0,3.17A.9.9,0,0,1,91.13,138.19Z"/><path class="cls-2" d="M91.13,138.19h1.1a5.66,5.66,0,0,1,2.08,6c-.6,0-.76-1.28-1.61-.54A12.43,12.43,0,0,1,91.13,138.19Z"/><path class="cls-3" d="M102,103.82c1.54-3.27,3-6.56,4.64-9.81,1.24-2.54,3.79-3.83,5.74-5.69a92.2,92.2,0,0,1,26.15-17.15,29.42,29.42,0,0,1,11.31-2.45c10-.29,19.7.37,28.44,6.19a49.07,49.07,0,0,1,20.17,27.71c4.58,15.35,4.68,30.64-1.66,45.77-3.43,8.16-7.46,15.68-14.79,21-11,8-23.12,11.2-36.71,8.81-5.52-1-11.22-1.09-16.29-3.83-7-3.8-11.92-9.87-16.7-16-3.52-4.51-5.72-9.81-8.45-14.79-1.16-.52-1.5-1.66-2-2.66-2-5.7-4.17-11.38-4.33-17.55a36,36,0,0,1,2.6-16.66A5.34,5.34,0,0,1,102,103.82Z"/><path class="cls-4" d="M203.32,113a75.89,75.89,0,0,1,17-.25c1.09.07,2.17.29,3.25.28.59,0,1.71.56,1.68-.61,0-.87-1.09-.84-1.76-.81-6.34.31-12.64-1.67-19-.27-1.34.29-1.13-.79-1.34-1.49-.33-1.1.3-1.21,1.15-1.15,8.1.61,13.56-3.62,17.76-9.91,2.64-4,6.23-2.44,9.56-1.82,6.15,1.14,10,5.77,14.37,9.71a43.73,43.73,0,0,0,4.94,4.22c1.57,1.06,1,1.55,0,2.56-2.72,2.74-6.38,3.71-9.65,5.39-7.61,3.89-15.51,5.83-24.15,4.2-2.42-.45-3.66-2.15-5.43-3.3A55.58,55.58,0,0,1,203.32,113Z"/><path class="cls-3" d="M190.88,84c-2.1-1.18-2.87-3.26-4.36-4.7a56.63,56.63,0,0,1-8.81-10.07c-2.31-3.62-6.34-5.54-10.24-7.29-.68-.3-1.87-.92-2.31.35s.38,1.68,1.5,2c4.76,1.43,9.08,3.52,11.73,8.17a3.13,3.13,0,0,1-2.39-.61,40.28,40.28,0,0,0-18.39-5.06A2.32,2.32,0,0,1,155.09,65c-1.12-3.95-1.72-7.92-.78-12,.21-1,.36-1.42,1.52-1.23,6.15,1.05,12.42,1.11,18.59,2.09,11.24,1.78,14.92,7.86,17,17.05A23.65,23.65,0,0,1,190.88,84Z"/><path class="cls-5" d="M94.31,144.22a30.63,30.63,0,0,0-2.08-6c-2.13-8.81-3.06-17.7-1.17-26.66,3.25-15.4,11.67-27.08,25.58-34.53A27.87,27.87,0,0,1,130,73.56c-4.67,1.13-7.59,4.78-11.14,7.5a70.19,70.19,0,0,0-10.94,9.72,48,48,0,0,0-8.17,12.41c-.21.7.08,1.42-.17,2.14-2,5.63-2.38,11.49-2.46,17.4.17,6.7.7,13.34,3.18,19.66a9,9,0,0,1,1.07,3.57c4.73,7.09,8.29,15,15,20.75-4.42.12-7.32-2.38-9.9-5.23A71,71,0,0,1,94.31,144.22Z"/><path class="cls-3" d="M203.58,127.83c4.27,3,3.59,7.53,5.09,11.33,1.48-.56,1.24-1.77,1-2.85-.74-3.3-1.74-6.57-4.21-9a4.94,4.94,0,0,1-1.54-5.28,22.77,22.77,0,0,0,.27-3.84c1.47-.28,2.6.64,3.61,1.41,3.6,2.78,8.21,4.3,10.6,8.6,3.29,5.93,2.85,11.11-1.48,16.31a22.33,22.33,0,0,0-3.07,3.8c-1.08,2.11-2.3,1.62-3.87.8-2.7-1.4-4.68-3.68-7.07-5.45-1-.79-.68-1.81-.56-2.74A112.67,112.67,0,0,0,203.58,127.83Z"/><path class="cls-6" d="M209.46,98.22c-3.12-1.12-5.24.2-7.42,1.2-.75.35-1.72,1.46-2.23.19-.44-1.1-1.95-2-.82-3.65,2-3,5.17-4.27,8.4-5a37.3,37.3,0,0,1,16,0c1.58.31,1.88.95.76,2.28-2.16,2.55-4.19,5.22-6.31,7.81-3.69,4.51-11.66,4.75-16.17,3.06-1.41-.53-1-1.61-.17-2.35a7.75,7.75,0,0,1,3.41-1.61A10.3,10.3,0,0,0,209.46,98.22Z"/><path class="cls-7" d="M96.45,122.86c-.16-6.77.35-13.42,3.28-19.67.51,1,1.42.62,2.22.63a42.54,42.54,0,0,0-3.87,19.69C97.24,124,96.84,123.46,96.45,122.86Z"/><path class="cls-8" d="M101.35,146a8.2,8.2,0,0,1-1.53-2.85c.57-1.13,1.09-2.31,2.67-2.19a6,6,0,0,1,1.31,2.62A6.93,6.93,0,0,0,101.35,146Z"/><path class="cls-9" d="M136.67,146.91l.21-.22c.65-1.8,2.09-2.89,3.52-4,2.21-1.74,3.51-4.39,5.89-6,1.38-.91,2.84-1.88,4.49-.74s1.61,2.81,1,4.41c-1.45,3.89-1.49,7.92-1.73,12-.23,3.67-1.63,7.2-2.48,10.8a20.69,20.69,0,0,1-2.47,2.9,7.07,7.07,0,0,1-8.52,1.4,25.27,25.27,0,0,1-5-3.32c-2.41-1.9-3-3.11-1.71-5.89C131.74,154.27,133.59,150.2,136.67,146.91Z"/><path class="cls-10" d="M147.19,163.2c0-3.21,1.3-6.17,2-9.25a13.09,13.09,0,0,0,.42-4.3,13.06,13.06,0,0,1,.92-7.17,15.82,15.82,0,0,0,.85-3.14,2.94,2.94,0,0,0-.94-3.19c-1.1-.81-2.08,0-2.94.65-3.93,2.86-6.66,7-10.58,9.89a4.19,4.19,0,0,1,.65-2.31,1.68,1.68,0,0,1,.32-.69c2.94-2.44,4.73-5.88,7.41-8.55l.34-.18c.57-.39,1.14-.79,1.73-1.17,4.16-2.63,5.42-2,5.94,2.77a24.38,24.38,0,0,1-.84,5c-.32,1.62-1,3.17-.94,4.86,0,.38.39-.18.06,0-.12.06-.19,0-.14-.2a86.51,86.51,0,0,1,2.41-9.64c.86-1.15,1.85-2.09,3.42-1.49a4,4,0,0,1,2.57,3.54c.44,4.6,3.36,7.75,6.62,11.62-1.16-5-3.77-8.38-5.76-12.07a25.79,25.79,0,0,1-2.21-6.32c-.49-2,.56-2.39,2.15-2.44,2.07-.06,3.56,1.12,5,2.33,5.28,4.33,11.7,6.6,17.63,9.77l-.07-.08c1.65,1.37,3.13,3.14,5,4,1.71.75,1.58,1.67,1.35,2.9-.91,4.82-8.14,11.64-12.94,12.37-2.31.35-3.69-1.1-5.19-2.42.75,6.72-1.46,9.7-8.2,11.87-3.84,1.23-7.52,1.71-11.35.16a4.82,4.82,0,0,1-3.1-3.15c-.63-2.74.17-5.32.86-7.93a40.22,40.22,0,0,0,1.22-6.41c-.74,3.48-.81,7.39-2.94,10.73A.87.87,0,0,1,147.19,163.2Z"/><path class="cls-11" d="M161.47,123c-1.73-.2-3.08-.74-3.65-2.27s.43-2.69,1.46-3.51c6.24-4.9,12-10.46,19.25-14A46.57,46.57,0,0,0,185.81,99c2.62-1.94,4-1.71,5.36,1.23A41.51,41.51,0,0,1,195,113.17c.29,2.92-1.59,5.15-4.82,6-3.38.89-6.87.73-10.3.75-5.66,0-11.21.44-16.52,2.57A14.5,14.5,0,0,1,161.47,123Z"/><path class="cls-12" d="M120,94a30.55,30.55,0,0,1,9.61-9.39c3.38-2,5.42-1.4,7.3,2,1.5,2.71,1.4,5.79,2.1,8.68a44.76,44.76,0,0,0,8.6,17.62,16.27,16.27,0,0,1,1.69,2.46c1.34,2.52.1,4.4-2.68,4.46-4.25.1-7.6-2.2-11.07-4-5.12-2.74-10.76-4.17-15.94-6.74-6-3-4.92-6.85-2.65-10.94a13.54,13.54,0,0,1,1-1.32c1-.64,1.21.08,1.41.82a4.08,4.08,0,0,1-.59,1.79c-1.69,3.72-.78,6.29,3,8,6,2.71,12.2,5.22,18.08,8.3a10,10,0,0,0,1.52.61c1.33.43,2.8.81,3.85-.32s0-2.44-.64-3.44c-4-6.26-7.34-12.76-8.11-20.31A6.63,6.63,0,0,0,134.89,89c-2.15-2.91-4.19-3.15-6.81-.71a39.59,39.59,0,0,0-4.49,4.75c-.76,1-1.49,2.1-2.94,2.22C120.09,95,119.75,94.66,120,94Z"/><path class="cls-11" d="M152.36,75.92a24.51,24.51,0,0,1,11.08,2.3c2.76,1.25,3.4,2.65,2.29,5.34-2.9,7.11-5.85,14.19-8.75,21.3a45,45,0,0,0-3.22,9.45c-.16,1-.58,1.83-1.62,1.93s-1.48-.86-1.57-1.8a7,7,0,0,0-1.63-3.36c-1.35-1.92-2.75-3.83-2.36-6.44a2.92,2.92,0,0,0-.56-2c-3.81-4.52-3.78-10.82-7.26-15.48a3.07,3.07,0,0,1-.32-.74c-2-5.15-1-7.23,4.31-8.92a35.84,35.84,0,0,1,5-1.25C149.26,76,150.82,76,152.36,75.92Z"/><path class="cls-13" d="M183.29,141.51c-1-1.9-2.91-2.8-4.68-3.78q-8-4.44-16.09-8.8a3.47,3.47,0,0,1-2-2.74c-.1-1.32,1.35-1.56,2.27-2a8.35,8.35,0,0,1,2.87-.71c5.43-.35,10.79-1.22,16.16-2a13.8,13.8,0,0,1,4.88.07,9.52,9.52,0,0,0,5.58-.41c2.6-1,3.92-.39,3.93,2.24a71,71,0,0,1-.91,13.76c-1,4.89-5,6.64-9.85,5.09-.76-.24-1.51-.53-2.26-.8Z"/><path class="cls-10" d="M137.69,144.23a1,1,0,0,1-.16.16c-3.6,2.76-6.58,6.17-9.76,9.38-2.77,2.79-4.22,3.2-7.67,1.48-4.92-2.45-7.74-6.38-7.87-12-.07-3.22,1-4.78,4.21-5.32A81.84,81.84,0,0,0,137,131.3a41.86,41.86,0,0,1,6.74-2c1.06-.28,2.14-.76,3,.33s.6,2.38-.05,3.56c-.34.62-1.15.95-1.07,1.81l.07-.07C142.92,137.92,140.33,141.1,137.69,144.23Z"/><path class="cls-14" d="M171.9,81.16a7.35,7.35,0,0,1,2,.53A48.06,48.06,0,0,1,186.2,91.6c2,2.25,1.75,3.45-.89,4.93a39,39,0,0,0-6,4.57,23.61,23.61,0,0,1-8.39,4.8c-4.41,1.39-7.62,4.72-11.1,7.57-1.13.92-2.44,2.87-3.66,2-1-.7-.27-3,.55-4.28,5.2-8.09,6.45-17.76,10.56-26.29C168.2,82.91,169.4,81.41,171.9,81.16Z"/><path class="cls-14" d="M111.21,110.32c1.47-2.43,2.46-2.69,5.83-1.17,3.13,1.41,6.24,2.89,9.27,4.51a60.05,60.05,0,0,0,15.87,6.12,2.67,2.67,0,0,1,.26.09c2.16.76,4.86,1.57,5.06,4s-2.61,3.09-4.52,3.62c-7.88,2.14-15.16,5.91-23,8.2-2.65.79-5.54,1.92-8.26-.11-.24-1.33.68-1.78,1.66-2.18,6,1.16,11.11-1.81,16.44-3.68,3.58-1.26,7.12-2.66,10.76-3.76.94-.29,2.12-.57,2.21-1.74.1-1.33-1.17-1.67-2.12-2.17a4.14,4.14,0,0,0-1-.39c-6.5-1.36-12-4.84-17.82-7.85-3-1.55-6-3.16-9.52-2C111.59,111.61,111,111.27,111.21,110.32Z"/><path class="cls-10" d="M136.67,146.91c-2,3.28-3.56,6.83-5.63,10.12-2.22,3.52-.8,6.18,4,8.89s7,2.38,10.79-1.88a1.79,1.79,0,0,1,1.33-.84l0,.07c.33.31.91.48.62,1.13-3.93,5.64-7.16,6.37-13.35,3.26-2.56-1.28-4.87-2.69-6.17-5.37-1-2.09-1.32-4.35-.09-6.24C130.52,152.56,133.06,149.21,136.67,146.91Z"/><path class="cls-15" d="M102.49,140.92l-2.67,2.19c-2.21-4.48-2.66-9.36-3.17-14.22-.21-2-.14-4-.2-6l1.63.65C98.34,129.62,100.79,135.17,102.49,140.92Z"/><path class="cls-16" d="M113.58,133.72a4.21,4.21,0,0,0-1.82,1.82c-2.15-.73-2.55-2.76-3-4.52a26.5,26.5,0,0,1,2.47-20.7c.24.57.51,1.11,1.22,1.2.33,1.19-.41,2.1-.82,3.08a20.17,20.17,0,0,0-1.82,6.8c-.24,4.14.22,8,3.4,11A1.54,1.54,0,0,1,113.58,133.72Z"/><path class="cls-17" d="M147.85,164.4c-.2-.38-.41-.76-.62-1.13,1.23.46,1.07-.57,1.21-1.18.79-3.4,1.56-6.81,2.47-10.2.65,5.25-2.49,10-2.11,15.24C147.84,166.45,148.83,165.08,147.85,164.4Z"/><path class="cls-18" d="M153.82,136.57a57.18,57.18,0,0,1-2.7,11.13c-.08-3.86,1.23-7.46,2.15-11.14Z"/><path class="cls-19" d="M120,94c.2.42.39.84.59,1.27,0,1.22,0,2.4-1.66,2.57,0-.64-.31-1-1-1Z"/><path class="cls-20" d="M105.88,155.88c-.06.45-.13,1-.51.84a20.45,20.45,0,0,1-2.47-1.45c.24-.23.56-.7.72-.65C104.47,154.88,105.49,154.93,105.88,155.88Z"/><path class="cls-9" d="M169,159.73c.26,8.82-6.7,10.73-14.24,9.39-3.88-.69-4.8-2-3.88-5.88,1.42-6,1.11-12.26,2.41-18.28.37-1.76.87-3.5,1.41-5.21.29-.94.7-2,1.92-2s1.69,1,2,2a28.59,28.59,0,0,0,4.8,9.62c.71.95,1.5,1.78,2.28,2.65C167.73,154.31,169.44,156.75,169,159.73Z"/><path class="cls-9" d="M177.13,158.32c-1.7,0-2.83-.13-3.59-1-2.56-2.89-5.1-5.88-6.06-9.7-.82-3.22-3.25-5.38-4.71-8.16-.71-1.35-1.59-2.63-2.22-4a2.28,2.28,0,0,1,3.42-2.9c5.9,4.56,13.13,6.77,19.18,11.07,4,2.81,4.87,5.6,2.2,9.52A11.68,11.68,0,0,1,177.13,158.32Z"/><path class="cls-3" d="M137.69,144.23a23.58,23.58,0,0,1,8-9.34C143.35,138.3,141.42,142,137.69,144.23Z"/><path class="cls-21" d="M164.41,114.74A60.37,60.37,0,0,1,177,105.67a58.35,58.35,0,0,0,5.12-3c2.29-1.65,4.73-1.51,7.26-1,.4.09,1,.35,1.1.67,1.38,3.88,3.47,7.73,1.93,12-.91,2.51-3.49,3.45-5.83,3.79-4.38.64-8.83.74-13.24,1.15a3.09,3.09,0,0,1-2.79-1.31A8.16,8.16,0,0,0,164.41,114.74Z"/><path class="cls-22" d="M165.07,120.42c-1-.21-2.44.08-2.43-1.22a2.58,2.58,0,0,1,2.89-2.53c1.55,0,3.65.6,3.45,2.21C168.76,120.71,166.31,119.69,165.07,120.42Z"/><path class="cls-21" d="M118.9,97.84a6.08,6.08,0,0,0,1.66-2.57c2.1-2.22,4.22-4.43,6.31-6.66,3.82-4.09,7.74-3.33,9.81,2a8.74,8.74,0,0,1,.71,2.61c.36,7,3.85,12.69,7.35,18.4.9,1.47,2.69,3.08,1.26,4.8s-3.88,1.13-5.78.23c-6.34-3-12.7-6-19.16-8.76C116.51,105.89,115.93,102.64,118.9,97.84Z"/><path class="cls-9" d="M152.33,77.31a45.85,45.85,0,0,1,8.58,1.31c1.93.41,2.67,1.51,2.79,3.41a15.14,15.14,0,0,1-1.7,8.39,80.5,80.5,0,0,0-7.48,17.66,3.65,3.65,0,0,1-2.77,2.62c-1.26.28-2.15-1.14-2.72-2.29a6.34,6.34,0,0,1-.61-2.35,9.4,9.4,0,0,0-2.22-5.69,9.46,9.46,0,0,1-2.34-4.82c-.37-3-2.07-5.5-2.72-8.43-1.32-5.91.29-8.68,6.31-9.48C149.06,77.42,150.7,77.41,152.33,77.31Z"/><path class="cls-23" d="M184.64,123.35c2.54,0,5.35,0,8.17,0,2,0,2.86,1.28,2.33,3.08a27.37,27.37,0,0,0-.84,8.63,3.74,3.74,0,0,1-3.32,4.21c-3.48.77-6.67,1.46-9.77-1.6-2.56-2.52-6.31-3.45-9.52-5.11a12.61,12.61,0,0,1-4.88-4.18c-.81-1.24-.65-1.88.87-2.32C173.15,124.52,178.52,122.48,184.64,123.35Z"/><path class="cls-21" d="M122.89,153.33c-4.65-.2-8.35-3.52-8.91-7.42a5.07,5.07,0,0,1,3-5.54,19.47,19.47,0,0,1,4-1.58,53.78,53.78,0,0,0,11.63-4.41c3.36-1.85,7.13-1.87,10.76-2.54,1.07-.2,1,.37,1,1a3,3,0,0,1-.93,1.92c-5.36,5.23-9.36,11.76-15.61,16.14C126.12,152.14,124.39,153.21,122.89,153.33Z"/><path class="cls-9" d="M184.33,93.76c.12,1.79-1,2.81-2.32,3.71-5.31,3.57-10.27,7.72-16.41,9.91-2,.72-3.24,2.6-5.08,3.57-.44.23-.93.73-1.46.18a1.06,1.06,0,0,1,.05-1.48c4.72-6.55,4.47-15,8.43-21.89,2.44-4.26,4.44-5.16,8.75-3a21,21,0,0,1,6.57,5.53A5.3,5.3,0,0,1,184.33,93.76Z"/><path class="cls-21" d="M113.58,133.72c-6.79-5.24-5.22-15.36-1.69-21.27l.54-.93c1.81-1.41,3.71-.92,5.66-.31,3.83,1.19,7.08,3.57,10.62,5.35a59.51,59.51,0,0,0,10.49,4.2,8.5,8.5,0,0,1,1.55.49c1.35.68,3.29,1.14,3.31,2.84s-1.94,2.18-3.38,2.61c-6.16,1.81-12.09,4.25-18.08,6.53C119.74,134.32,116.66,135,113.58,133.72Z"/><path class="cls-24" d="M40.63,58.71l-.67-.1a3.37,3.37,0,0,0-1,.66c-.59.75-1.08,1.57-1.79,2.64L37,59.59l-1.74,1.54L36,57.48C34.71,61.26,33,65,34.35,69.2L37.43,64l1.12,1.25,6.93-5.67,1-.36-5.33,5.13c1.94-1.14,4.18-2.17,5.67-3.86C51,55.62,51,48.42,47.06,43.07c-.45-.61-.85-1.26-1.28-1.89,0-1.24.75-1.21,1.57-.92,3.81,1.33,7.63,2.65,11.4,4.09,1.65.62,3.2,1.51,4.81,2.29-1.92,2.47-5.47,3.24-6.31,6.8l4.36-4.14.13,1.51c.68-1.07,1.13-1.83,1.64-2.56.84-1.22,1.76-1.69,3.29-.84,2.82,1.55,5.85,2.72,8.61,4.36a6.92,6.92,0,0,1,2.88,3.34c3,8.9,5.71,17.86,8.51,26.8.77,2.44,1.49,4.89,2.16,7.09-3.8-3.61-7.62-7.38-11.59-11s-9.15-5.42-14.61-7.41a34.85,34.85,0,0,1,1.69-5.44c2.76-5.62,1.46-10.94-.92-16.72-.42,2.54-.75,4.61-1.09,6.69l.24,0,.24-.63A19.51,19.51,0,0,1,62.55,60a4,4,0,0,1-1.36,2.18c-1.48,1.17-3.13,2.14-4.54,3.08l.73-1.3a2.21,2.21,0,0,1-.69-1.75,25.59,25.59,0,0,1,1-3l.58-3.62L57,56l-.28-1c-2.56,4.84-2.71,9.84-2.06,14.82-3.18.29-6.3.38-9.35.89-3.58.6-7.1,1.56-10.65,2.36l2.58-7.14c-1.71,2.09-2.9,4.36-2.54,7.19-.18,0-.41-.08-.53,0-3.66,2.43-7.33,4.87-11,7.35-.49.33-.77,1.08-1.28,1.25-1.91.66-3.93,1-5.8,1.74A14.65,14.65,0,0,0,6.94,94.57c-1,5-1.28,10.06-2.92,14.91a10.32,10.32,0,0,0-.2,2.62l.45.05,1.84-5.3c.27,1.54-.6,3.14.43,4.34a14.7,14.7,0,0,1,1.92-1.37c1.08-.53,2.3-.79,3.31-1.42a36.22,36.22,0,0,0,3.42-2.83c.23,3.63.43,6.91.61,9.86,1.31-2.92,2.8-6.15,4.22-9.41a10.66,10.66,0,0,0,.49-2.27c.56-3,1-6.12,1.69-9.16s1.37-6,.42-9c-.8-2.57-.55-3.28,1.67-4.86s4.59-3.36,6.91-5A9.73,9.73,0,0,1,32.75,75a2.06,2.06,0,0,1-1.22,2.22,9.45,9.45,0,0,0-3.92,3.74,22,22,0,0,0-1.93,12.26c.43,2.92,1.84,5.7,2.76,8.4a9.76,9.76,0,0,1,2-7.55c.65-.86,1.09-1.89,1.81-2.67C34.49,89,35.29,86,36.16,83c.57-1.93-.39-5-1.81-5.62-1.69-.73-.87-1.62-.4-3l.42,2.14.4,0v-2.8l11.12-2.86.12.48c-1.56.34-3.13.63-4.67,1s-2.88.86-4.31,1.29c7.08-1.7,14.11-3.11,21.45-2.24,1.78.22,3.52,1.16,5.51.18.64-.32,2,.77,3,1.21l.26.81,5.17,3.24a56.55,56.55,0,0,1-10-.09,18.54,18.54,0,0,0-14.25,4.64c-7.41,6.17-12,14.31-16.42,22.67A18.51,18.51,0,0,1,29,108.4c-5.93,6.2-9.8,13.27-9.54,22.07.11,4,.6,7.95.93,11.92a2,2,0,0,0,.16.47,12.83,12.83,0,0,1,4-8.2l-1.3,5.89.48.1a7.09,7.09,0,0,1,.88-2.24,41.39,41.39,0,0,1,5.18-5.16c4.49-3.42,7.12-7.58,5.37-13.32-1.08-3.5-1-7.33-3.15-10.55a3.82,3.82,0,0,1,.09-4.1c2.7-4.79,5.35-9.62,8.25-14.29a52.06,52.06,0,0,1,4.79-5.72c.11.45.19.6.15.66-3.38,4.9-3.82,10.45-3.64,16.16a16.61,16.61,0,0,1-.5,2.72c-.08.52-.06,1.06-.09,1.6h.51l.31-1.16c3.33,2.79,6.14,5.73,6.56,10.2L47.73,114c1.42,4.3.69,8.55-.06,12.8l-.61-3.82-.29,0,.46,4.81-.21,0-1.33-5.56c-.11,2.77,1.58,5.38.32,8.07-6.15-7-8.71-14.62-3.61-23.6l-.93-.1a25.8,25.8,0,0,0-1.8,3.8c-1.83,6.24-.69,12,2.74,17.5,1.79,2.85,3.48,5.75,5.48,9,1-1.61,1.82-3.08,2.52-4.26l5,5.13.48-.43a21.4,21.4,0,0,1-2.06-3.28c-.79-1.9-1.77-3.9-1.87-5.89a89.22,89.22,0,0,1,.46-9.71c.73,2.7,1.61,6,2.49,9.25l.53-.1c-.48-2.94-1.37-5.87-.2-8.8a15.8,15.8,0,0,0,2.5,8.75l.59-.11c-.13-2.09-.25-4.18-.4-6.65l2.77,3.7,4.26-7.2,1.17,7.56.45,0c.2-2.42.41-4.84.65-7.74l1.41,4.34a1.61,1.61,0,0,0,.79-1,33.7,33.7,0,0,1,1.26-5.79c1.92-4.73,3.23-9.55,2.72-14.67-.32-3.16-1.24-6.07-4.92-7.16a2.94,2.94,0,0,1-1.35-2.54,33,33,0,0,1,2.24-6.59c1.2-2.62,3.87-3.2,6.35-3.89.29-.08.77.24,1,.5C80.36,83.67,84,87,87.49,90.43a8.9,8.9,0,0,1,2.67,6.09,60.26,60.26,0,0,0,1,8.36c2.64,13.19,6.2,26.2,7.08,39.7.11,1.7,1.6,1.74,2.81,1.73s2-.84,1.89-1.74l-3.16.39c-.89-6-1.49-11.48-2.57-16.91-1.59-8-3.61-16-5.28-24-.91-4.33-1.48-8.73-2.28-13.6A8.72,8.72,0,0,1,91,92.55c.85,3.78,1.59,7.58,2.37,11.36,1.1,5.33,2.11,10.68,3.32,16,1.76,7.68,3.66,15.33,5.51,23a2.15,2.15,0,0,0,.43.6l.53-.17c-.49-2.35-.94-4.71-1.48-7.05-2.08-8.9-4.28-17.78-6.28-26.69-1.71-7.58-2.5-15.33-5-22.76-3-9.06-5.73-18.23-8.33-27.42C79.72,51,76.78,42.9,72,35.52c-1.42-2.21-2.7-4.52-3.94-6.83a49.88,49.88,0,0,0-30.63-25C32.34,2.21,27,1.23,21.79.14A20.51,20.51,0,0,0,17.64.09l.28.59-.84,1.21L15,2.64a14.22,14.22,0,0,0-2.75,1.81c-1.54,1.63-2.5,3.82-4.84,4.68-.58.21-.94,1-1.53,1.65a13.12,13.12,0,0,0,6.89-6.25c.1-.17.38-.25.57-.38-.2,1.07-.12,2.86-.66,3.07-2.6,1-.44,1.82-.06,2.69L11.68,12l-.29-1.25-.85,3.7.63.11q-1.32,2.89-2.63,5.79l-.33-.13L9.35,17c-1.47,2.77-2.55,5.63-2.21,8.84.31,2.82-.83,5.19-2.67,7.65l.38-5.57-.41,0-.8,4.29-.36,0,1-7.75-.24,0-.92,5.57-.32,0L3.08,24l-1.63.22c.77-3.39,1.52-6.66,2.26-9.93a42,42,0,0,0-2.58,8.84,12.36,12.36,0,0,0,.18,5.65,18.24,18.24,0,0,1,.6,10C1.27,41.6.64,44.42,0,47.24l.5.16,2.71-7.35c2.12,2.7.37,6.32,1.58,9.48a7.13,7.13,0,0,0,.26-1.86c.28-2.05.18-4.29,1-6.1,1.86-4.13,4.17-8,6.33-12a18.07,18.07,0,0,1,1.28-1.9c1,7.46-.83,14.76-2.6,22.13,1.4-2.58,2.43-5.28,3.61-7.92a6.73,6.73,0,0,1,2-2.79c2.94-2,6-3.86,9.09-5.78l1.34,6.82.47,0c.3-1.31.63-2.61.89-3.93.38-2,.69-4,1.05-6,.48-2.68,1.4-5.37,1.36-8-.06-3.06-1.12-6.09-1.45-9.16s.25-5.16,3.39-6.36c3.57-1.36,7-.57,10.08.79A46.07,46.07,0,0,1,61.81,22c5.3,7.12,9,15.1,12.78,23a40.65,40.65,0,0,1,1.52,4.31L54.87,41l-.19.43L65.21,46l-.2.49L52.49,41.15c-.05,0-.06-.15-.12-.33l1.89.39L52,39.66l-1.2-1.3c-1.82-2.11-2.83-2.44-4.24-1a3.39,3.39,0,0,1-2.86.95c-4-.15-8.05.24-11.1,3.1-1.91,1.79-4.23,2.41-6.42,3.43-3.1,1.45-6,3.08-7.46,6.36a26.09,26.09,0,0,0-2.57,12.7,27.89,27.89,0,0,1-2.59,14.66A33.45,33.45,0,0,0,12,83.34l.38.11,4.86-10.4L17,72.92l-1,1.37-.32-.21,1.65-2.62,1-.36,4.36-2.7c.73,3.52-2.13,6-2.53,9.17a9.54,9.54,0,0,0,1.37-1.82c2.44-4,4.88-8.07,7.28-12.13,1.06-1.8,2.15-3.6,3-5.48,1.7-3.62,1.32-7.47.37-11.1-.47-1.79-.19-3.49.69-4.26,3.3-2.92,7.37-3.42,11.7-2.53-1.33,1.35-3,2.29-4.14,3.67a18.16,18.16,0,0,0-2.66,4.95,40.46,40.46,0,0,0-1.29,5.07,75.33,75.33,0,0,0,3.12-7.29,5.57,5.57,0,0,1,4.71-3.76c-.51-1-.37-1.21,1-1.27l0,1.63a17.54,17.54,0,0,1,.4,2.26c.23,4.17-1.37,7.92-2.82,11.7l-2.2,2Z"/><path d="M17.35,71.46,15.7,74.08l.32.21,1-1.37.25.13-4.86,10.4L12,83.34a33.45,33.45,0,0,1,1.5-4.83,27.89,27.89,0,0,0,2.59-14.66,26.09,26.09,0,0,1,2.57-12.7c1.44-3.28,4.36-4.91,7.46-6.36,2.19-1,4.51-1.64,6.42-3.43,3-2.86,7.08-3.25,11.1-3.1a3.39,3.39,0,0,0,2.86-.95c1.41-1.39,2.42-1.06,4.24,1-1.29-.38-2.64-2.17-3.93.4l5.13.9,2.29,1.55-1.89-.39c.06.18.07.31.12.33L65,46.47l.2-.49L54.68,41.44l.19-.43,21.24,8.36a40.65,40.65,0,0,0-1.52-4.31c-3.82-7.92-7.48-15.9-12.78-23a46.07,46.07,0,0,0-19-14.63c-3.12-1.36-6.51-2.15-10.08-.79C29.62,7.82,29.05,10,29.37,13s1.39,6.1,1.45,9.16c0,2.67-.88,5.36-1.36,8-.36,2-.67,4-1.05,6-.26,1.32-.59,2.62-.89,3.93l-.47,0-1.34-6.82c-3.06,1.92-6.15,3.74-9.09,5.78a6.73,6.73,0,0,0-2,2.79c-1.18,2.64-2.21,5.34-3.61,7.92,1.77-7.37,3.61-14.67,2.6-22.13a18.07,18.07,0,0,0-1.28,1.9c-2.16,4-4.47,7.91-6.33,12-.81,1.81-.71,4-1,6.1a7.13,7.13,0,0,1-.26,1.86c-1.21-3.16.54-6.78-1.58-9.48L.5,47.4,0,47.24c.64-2.82,1.27-5.64,1.91-8.46a18.24,18.24,0,0,0-.6-10,12.36,12.36,0,0,1-.18-5.65,42,42,0,0,1,2.58-8.84C3,17.56,2.22,20.83,1.45,24.22L3.08,24l-.32,5.9.32,0L4,24.36l.24,0-1,7.75.36,0,.8-4.29.41,0-.38,5.57c1.84-2.46,3-4.83,2.67-7.65-.34-3.21.74-6.07,2.21-8.84L8.21,20.25l.33.13,2.63-5.79-.63-.11.85-3.7L11.68,12l.91-2.12c-.38-.87-2.54-1.67.06-2.69.54-.21.46-2,.66-3.07l1-.73c-2.31,4.67-.64,9.09,1.89,14.25a7.56,7.56,0,0,1,4.81-4.53,39.5,39.5,0,0,0,8.4-4.75c1.69-1.15,2.06-3.85,4.8-3.83-1.67-.68-3.21-1.11-4.7-1.66a21.31,21.31,0,0,0-12.48-1L17.92.68,17.64.09a20.51,20.51,0,0,1,4.15.05C27,1.23,32.34,2.21,37.47,3.74a49.88,49.88,0,0,1,30.63,25C69.34,31,70.62,33.31,72,35.52c4.74,7.38,7.68,15.48,10,23.87,2.6,9.19,5.31,18.36,8.33,27.42,2.49,7.43,3.28,15.18,5,22.76,2,8.91,4.2,17.79,6.28,26.69.54,2.34,1,4.7,1.48,7.05l-.53.17a2.15,2.15,0,0,1-.43-.6c-1.85-7.66-3.75-15.31-5.51-23-1.21-5.3-2.22-10.65-3.32-16-.78-3.78-1.52-7.58-2.37-11.36a8.72,8.72,0,0,0-1.31-2.07c.8,4.87,1.37,9.27,2.28,13.6,1.67,8,3.69,16,5.28,24,1.08,5.43,1.68,11,2.57,16.91l3.16-.39c.09.9-.55,1.72-1.89,1.74s-2.7,0-2.81-1.73c-.88-13.5-4.44-26.51-7.08-39.7a60.26,60.26,0,0,1-1-8.36,8.9,8.9,0,0,0-2.67-6.09C84,87,80.36,83.67,76.77,80.32c-.28-.26-.76-.58-1-.5-2.48.69-5.15,1.27-6.35,3.89a33,33,0,0,0-2.24,6.59,2.94,2.94,0,0,0,1.35,2.54c3.68,1.09,4.6,4,4.92,7.16.51,5.12-.8,9.94-2.72,14.67a33.7,33.7,0,0,0-1.26,5.79,1.61,1.61,0,0,1-.79,1l-1.41-4.34c-.24,2.9-.45,5.32-.65,7.74l-.45,0L65,117.35l-4.26,7.2-2.77-3.7c.15,2.47.27,4.56.4,6.65l-.59.11a15.8,15.8,0,0,1-2.5-8.75c-1.17,2.93-.28,5.86.2,8.8l-.53.1c-.88-3.28-1.76-6.55-2.49-9.25a89.22,89.22,0,0,0-.46,9.71c.1,2,1.08,4,1.87,5.89a21.4,21.4,0,0,0,2.06,3.28l-.48.43-5-5.13c-.7,1.18-1.56,2.65-2.52,4.26-2-3.3-3.69-6.2-5.48-9-3.43-5.45-4.57-11.26-2.74-17.5a25.8,25.8,0,0,1,1.8-3.8l.93.1c-5.1,9-2.54,16.64,3.61,23.6,1.26-2.69-.43-5.3-.32-8.07L47,127.79l.21,0L46.77,123l.29,0c.2,1.27.4,2.55.61,3.82.75-4.25,1.48-8.5.06-12.8l.73,1.51c-.42-4.47-3.23-7.41-6.56-10.2l-.31,1.16h-.51c0-.54,0-1.08.09-1.6a16.61,16.61,0,0,0,.5-2.72c-.18-5.71.26-11.26,3.64-16.16,0-.06,0-.21-.15-.66A52.06,52.06,0,0,0,40.37,91c-2.9,4.67-5.55,9.5-8.25,14.29a3.82,3.82,0,0,0-.09,4.1c2.1,3.22,2.07,7.05,3.15,10.55,1.75,5.74-.88,9.9-5.37,13.32a41.39,41.39,0,0,0-5.18,5.16,7.09,7.09,0,0,0-.88,2.24l-.48-.1,1.3-5.89a12.83,12.83,0,0,0-4,8.2,2,2,0,0,1-.16-.47c-.33-4-.82-7.94-.93-11.92-.26-8.8,3.61-15.87,9.54-22.07a18.51,18.51,0,0,0,2.74-4.35c4.37-8.36,9-16.5,16.42-22.67a18.54,18.54,0,0,1,14.25-4.64,56.55,56.55,0,0,0,10,.09l-5.17-3.24,9.38,4.92c-2.59-2.8-6.25-4.05-9.64-5.73-1-.44-2.37-1.53-3-1.21-2,1-3.73,0-5.51-.18-7.34-.87-14.37.54-21.45,2.24,1.43-.43,2.86-.92,4.31-1.29s3.11-.69,4.67-1l-.12-.48L34.77,73.69v2.8l-.4,0L34,74.37c-.47,1.38-1.29,2.27.4,3,1.42.61,2.38,3.69,1.81,5.62-.87,3-1.67,6-3.89,8.37-.72.78-1.16,1.81-1.81,2.67a9.76,9.76,0,0,0-2,7.55c-.92-2.7-2.33-5.48-2.76-8.4a22,22,0,0,1,1.93-12.26,9.45,9.45,0,0,1,3.92-3.74A2.06,2.06,0,0,0,32.75,75a9.73,9.73,0,0,0-1.55.73c-2.32,1.65-4.59,3.37-6.91,5S21.82,83,22.62,85.56c.95,3.06.21,6-.42,9s-1.13,6.11-1.69,9.16A10.66,10.66,0,0,1,20,106c-1.42,3.26-2.91,6.49-4.22,9.41-.18-3-.38-6.23-.61-9.86a36.22,36.22,0,0,1-3.42,2.83c-1,.63-2.23.89-3.31,1.42a14.7,14.7,0,0,0-1.92,1.37c-1-1.2-.16-2.8-.43-4.34l-1.84,5.3-.45-.05a10.32,10.32,0,0,1,.2-2.62c1.64-4.85,1.9-10,2.92-14.91A14.65,14.65,0,0,1,16.13,83.4c1.87-.74,3.89-1.08,5.8-1.74.51-.17.79-.92,1.28-1.25,3.63-2.48,7.3-4.92,11-7.35.12-.08.35,0,.53,0l0,0c3.54-.81,7.06-1.77,10.64-2.37,3-.51,6.17-.6,9.35-.89-.65-5-.5-10,2.06-14.82L57,56l-1.78,8,2.42-4.9a25.59,25.59,0,0,0-1,3,2.21,2.21,0,0,0,.69,1.75l-.73,1.3c1.41-.94,3.06-1.91,4.54-3.08A4,4,0,0,0,62.55,60a19.51,19.51,0,0,0,.24-5.42l-.24.63-.24,0c.34-2.08.67-4.15,1.09-6.69,2.38,5.78,3.68,11.1.92,16.72a34.85,34.85,0,0,0-1.69,5.44c5.46,2,10.55,3.74,14.61,7.41S85,85.39,88.83,89c-.67-2.2-1.39-4.65-2.16-7.09C83.87,73,81.12,64,78.16,55.11a6.92,6.92,0,0,0-2.88-3.34c-2.76-1.64-5.79-2.81-8.61-4.36-1.53-.85-2.45-.38-3.29.84-.51.73-1,1.49-1.64,2.56l-.13-1.51-4.36,4.14c.84-3.56,4.39-4.33,6.31-6.8C62,45.86,60.4,45,58.75,44.35c-3.77-1.44-7.59-2.76-11.4-4.09-.82-.29-1.6-.32-1.57.92l-.44.44c-1.35.06-1.49.24-1,1.27a5.57,5.57,0,0,0-4.71,3.76,75.33,75.33,0,0,1-3.12,7.29,40.46,40.46,0,0,1,1.29-5.07,18.16,18.16,0,0,1,2.66-4.95c1.14-1.38,2.81-2.32,4.14-3.67-4.33-.89-8.4-.39-11.7,2.53-.88.77-1.16,2.47-.69,4.26,1,3.63,1.33,7.48-.37,11.1-.89,1.88-2,3.68-3,5.48-2.4,4.06-4.84,8.09-7.28,12.13a9.54,9.54,0,0,1-1.37,1.82c.4-3.18,3.26-5.65,2.53-9.17l-4.36,2.7a14.75,14.75,0,0,1,1.77-3c3.48-3.65,6.72-7.48,8.74-12.14A20.79,20.79,0,0,0,30,51.13c.27-1.58.31-3.2.45-4.8l.51.07-.71,4.11.18.05.76-1.89.4,1.38.23,0-.68-6.52c-10.23,4.25-15,9.74-14.07,16l1.58-5.9.18.06-2,11.89.43.08.55-2.54.3,1.36.41-1.07.29.8,2-1.66a5.3,5.3,0,0,1-.19,1.42c-.85,1.75-1.79,3.45-2.62,5.21A16,16,0,0,0,17.35,71.46ZM29.48,59.19l.35-.67-.3-.09v.8l-.39.31c-2.92,2.33-3.83,5.67-4.83,9.21,1.66-2.4,3.23-4.58,4.69-6.83a7.24,7.24,0,0,0,.58-2Zm-19.75-37,.08.59.62-1,.6-1.18-.66-.28-.65,1.49Zm1.11,82.74-.07.07.79-1.11a5.8,5.8,0,0,0,1.24-.56c3.35-2.63,4.69-6.38,5.86-10.37a32.66,32.66,0,0,1-2.9,4.12c-1.51,1.59-3.45,2.77-4.88,4.41a38,38,0,0,0-3.21,5.06l.3.11,2.11-2,.29.7Zm1.8-7.15v0l.69-.75a14,14,0,0,0,5.42-7.16c1.62-.94,2.59-3.63,1.81-5.14-.05-.1-.32-.09-.5-.14a2,2,0,0,0-2.54-.71A14.06,14.06,0,0,0,7.65,94.56,70.72,70.72,0,0,0,6.58,103,14.84,14.84,0,0,0,8,100.43a8.3,8.3,0,0,1,.49-.81l1,.66,2.48-4.81a10.15,10.15,0,0,1-.37,1.87c0,.09.41.27.64.41Zm5.73,5.78-.2,1c-2,2.88-2,2.88-1.43,6a21.94,21.94,0,0,0,3.32-11l-.44-.12-.91,2.87-.39-.23.14,1.08ZM23,31.13,22.66,33c.74-.13,1.62,0,1.92-.4a5.94,5.94,0,0,0,1.31-2.66c.59-3.47,1-7,1.48-10.47.24-1.8.52-3.6.78-5.4l-.32,0c-.45,2.45-.89,4.89-1.4,7.76L26,19.86c-1,2.7-1.93,5-2.66,7.4A17.83,17.83,0,0,0,23,30.78.32.32,0,0,0,23,31.13Zm46.8,64.49-2.37-2.28c-1,4.14-1.77,8-.74,11.94v-3.37H67v9.28h.41v-8.83l.07,0L68.38,115h.32l1.45-9.6c1.44,2.55-.08,5.53-.65,8.54,2-3.91,3.31-9.92,2.83-13.72-.22-1.7-1.21-3.3-1.85-4.94l-.62.28ZM56.5,113.56l0,0c.27,0,.73.2.77.13a30.22,30.22,0,0,0,2.16-4.29c1.57-4.53.4-9-.68-13.39-.41-1.72-1.64-2.27-2.89-1a12.75,12.75,0,0,0-3.18,4.59,25.69,25.69,0,0,0-.52,13.09c.09-2.21,0-4.42.12-6.62s.6-4.23.91-6.34l.2,0-1,9.73.56.06.12-2.43h.26l-.38,7.06.34,0,.55-3.36H54V113h.26l.16-1.41,1,.2-.91,2.51,1.06-.82-.9,2.41.22.1ZM26.62,128.68c.64-.44,1.6-.73,1.86-1.34a94.73,94.73,0,0,0,3.59-9.23,22,22,0,0,0,.46-4.9l-.49,0c0,.83.05,1.67,0,2.5a19.86,19.86,0,0,1-.41,2.15c.36-5,.27-6.58-.59-6.8l-.15,2a1.93,1.93,0,0,1-.25-1.09c0-1.34-.35-2.08-1.73-1a14.08,14.08,0,0,0-3.19,2.58,28.68,28.68,0,0,0-5.38,19.1,6.93,6.93,0,0,0,.73,1.74l1-2.09.08,1.58L26.49,129ZM73.74,78v-.28a8.19,8.19,0,0,0-1-.12,87.2,87.2,0,0,1-9.15-.1c-7.34-.83-12.63,2.31-17,7.85s-4.52,11.78-3.94,18.24c.07.77,1,1.53,1.62,2.17a48.3,48.3,0,0,1,3.89,3.66,48.38,48.38,0,0,1,3.12,4.88c-.36-4.93-.64-10.06.56-15.12.49-2.07,1.28-4.08,3.33-5.07s2.9-2.77,3.52-4.79A45.5,45.5,0,0,1,60.47,84a9,9,0,0,1,8.88-5.77C70.81,78.27,72.27,78.07,73.74,78Zm1,1.19c-8.92-1.3-11.75.95-14.29,7.66-.86,2.28-1.66,4.57-2.55,7l1.29-.65L62.76,95A8.79,8.79,0,0,1,64,93.56a7.62,7.62,0,0,0,2.77-4.9C67.64,84.18,69.38,80.16,74.7,79.15ZM14.07,31.72l.67.18a59.64,59.64,0,0,1,1.47-5.78,55,55,0,0,1,2.47-5.21l.17.09-2.48,7.23.39.13,1.32-3.45.26.1c-.72,2.41-1.45,4.81-2.17,7.22l.29.1,2.35-5.64.26.09-.82,2.9a23.51,23.51,0,0,0,5.88-9.5c1-2.85,2-5.7,3-8.58-2.28.82-4.92,1.68-7.46,2.77a3.41,3.41,0,0,0-1.47,2c-.7,2-1.26,4.07-1.8,6.13C15.58,25.53,14.84,28.63,14.07,31.72ZM30.74,90.28c.26,0,1,.25,1.07.08.85-1.25,2-2.52,2.25-3.92a37.47,37.47,0,0,0,.08-6.87,1.38,1.38,0,0,0-2.28-1.18A11.35,11.35,0,0,0,28.91,81a14.5,14.5,0,0,0-2.06,8.27l.41-1.37.42,0-.34,5.52.34,0,.15-2.24.4,1.28ZM61.8,106.75c-2.11,2.46-2.6,9.18-2.45,13.2l-1.14-.59,2.27,3.82L61,119l.4.87c.9-2.65,1.75-5.17,2.74-8.1l-.85,1.39-.2-.11.26-1.66-1,.45.8-2-.67.41ZM59.13,94.22c2.17,5.2,4.25,10.2,6.32,15.19a13.69,13.69,0,0,0,0-4.23c-.38-3-.74-5.93-2.48-8.49A4.85,4.85,0,0,0,59.13,94.22ZM13.07,11.91l-.51.14V25.37c.68-1,.83-2.57,1.66-3.17,1.72-1.24,1.44-2.74,1-4.2C14.71,15.92,13.82,13.94,13.07,11.91ZM75,42.7l9.67,30.05A131.51,131.51,0,0,0,75,42.7ZM26.51,134.63c7.78-6.39,9.61-10.59,7-16.31a2.42,2.42,0,0,0,0,.58c.07.4.19.8.25,1.2a9.6,9.6,0,0,1-2.19,8.12A21.9,21.9,0,0,1,27.89,131a1.62,1.62,0,0,0-.49.69C27.08,132.63,26.81,133.61,26.51,134.63ZM4.2,40.09l.44.14,4.89-13c-1.58-1.35,1.45-2.3,0-3.87C8,29.19,4.17,34,4.2,40.09Zm11.06-1.78C20,32.48,23.77,26.19,25.6,18.54a4.54,4.54,0,0,0-.61.87,50.52,50.52,0,0,1-8.2,15.39A15.22,15.22,0,0,0,15.26,38.31ZM50.62,121.8l-.39,0c-.23-2.58-.47-5.15-.7-7.73l-.32,0,.69,11.05.39,0c.22-1,.45-2,.67-3l.2,0-.76,5.36c1.52-3.86,1.1-11.25-.47-13.72C50.14,116.3,50.38,119.05,50.62,121.8ZM27.39,36.11c-1.42-3.68,1.47-6.34,2.2-9.77-.43.49-.66.75-.66.74l-.41-5.94h-.38v7.08h-.39V25C27.49,28.67,25.53,32.32,27.39,36.11Zm29,34,6.21,1.67c-.56-1.2-1-2.09-1.7-3.65L60,70.32l-.66-.5,1.13-2.9ZM64,52.83v7.61C65.55,57.81,65,55.29,64,52.83Zm-43.77,40-.4-.07q-1.16,3.42-2.33,6.86l.72.22ZM77.57,79.21l-.37.44,5,4.08.29-.36ZM38,4.94l-.13.45,6.53,1.94.14-.51Zm31.79,43-.26.47,5.43,2.72.23-.46ZM22,86.3h-.3v5.35H22Zm-6.36,16,.44.26.87-1.41-.32-.14Z"/><path class="cls-24" d="M17.35,71.46a16,16,0,0,1,.7-2.32c.83-1.76,1.77-3.46,2.62-5.21a5.3,5.3,0,0,0,.19-1.42l-2,1.66-.29-.8-.41,1.07-.3-1.36-.55,2.54-.43-.08,2-11.89-.18-.06-1.58,5.9c-.92-6.27,3.84-11.76,14.07-16L31.86,50l-.23,0-.4-1.38-.76,1.89-.18-.05L31,46.4l-.51-.07c-.14,1.6-.18,3.22-.45,4.8a20.79,20.79,0,0,1-1.19,4.78c-2,4.66-5.26,8.49-8.74,12.14a14.75,14.75,0,0,0-1.77,3Z"/><path class="cls-24" d="M17.08,1.89a21.31,21.31,0,0,1,12.48,1c1.49.55,3,1,4.7,1.66-2.74,0-3.11,2.68-4.8,3.83a39.5,39.5,0,0,1-8.4,4.75,7.56,7.56,0,0,0-4.81,4.53c-2.53-5.16-4.2-9.58-1.89-14.25L15,2.64Z"/><path d="M45.34,41.62l.44-.44c.43.63.83,1.28,1.28,1.89,3.94,5.35,4,12.55-.28,17.41-1.49,1.69-3.73,2.72-5.67,3.86l5.33-5.13c2.85-3,3.11-6.61,2.28-10.43.12,3.37-.34,6.53-2.77,9.15-.35.37-.32,1.09-.47,1.64l-6.93,5.67L37.43,64,34.35,69.2C33,65,34.71,61.26,36,57.48l-.76,3.65L37,59.59l.16,2.32c.71-1.07,1.2-1.89,1.79-2.64a3.37,3.37,0,0,1,1-.66v.61h0l-.35.4-.35.94.3.12.78-1.49-.06,0h.4l2.2-2c.49-.48,1.17-.86,1.42-1.43a15,15,0,0,0,1.26-3.87c.36-2.52.53-5.07.67-7.62,0-.33-.6-.69-.93-1Z"/><path class="cls-24" d="M45.3,43.25c.33.35.94.71.93,1-.14,2.55-.31,5.1-.67,7.62a15,15,0,0,1-1.26,3.87c-.25.57-.93.95-1.42,1.43,1.45-3.78,3-7.53,2.82-11.7A17.54,17.54,0,0,0,45.3,43.25Z"/><path class="cls-24" d="M45.48,59.57c.15-.55.12-1.27.47-1.64,2.43-2.62,2.89-5.78,2.77-9.15.83,3.82.57,7.4-2.28,10.43Z"/><path d="M15,2.64l-.61.78-1,.73c-.19.13-.47.21-.57.38a13.12,13.12,0,0,1-6.89,6.25c.59-.67,1-1.44,1.53-1.65,2.34-.86,3.3-3.05,4.84-4.68A14.22,14.22,0,0,1,15,2.64Z"/><path class="cls-24" d="M57.64,59.11,55.22,64,57,56l1.22-.48Z"/><path class="cls-24" d="M52,39.66l-5.13-.9c1.29-2.57,2.64-.78,3.93-.4Z"/><path class="cls-24" d="M67,72.78c3.39,1.68,7,2.93,9.64,5.73l-9.38-4.92Z"/><path d="M34.7,73.06c-.36-2.83.83-5.1,2.54-7.19L34.66,73Z"/><path d="M40,59.22v-.61l.67.1-.35.52.06,0Z"/><path class="cls-24" d="M40.28,59.23l.35-.52,0,.53Z"/><path class="cls-24" d="M73.74,78c-1.47.11-2.93.31-4.39.31A9,9,0,0,0,60.47,84a45.5,45.5,0,0,0-1.78,5.24c-.62,2-1.45,3.79-3.52,4.79s-2.84,3-3.33,5.07c-1.2,5.06-.92,10.19-.56,15.12a48.38,48.38,0,0,0-3.12-4.88,48.3,48.3,0,0,0-3.89-3.66c-.64-.64-1.55-1.4-1.62-2.17-.58-6.46-.41-12.77,3.94-18.24s9.68-8.68,17-7.85a87.2,87.2,0,0,0,9.15.1,8.19,8.19,0,0,1,1,.12Z"/><path class="cls-24" d="M26.49,129l-4.37,4.78L22,132.22l-1,2.09a6.93,6.93,0,0,1-.73-1.74,28.68,28.68,0,0,1,5.38-19.1,14.08,14.08,0,0,1,3.19-2.58c1.38-1,1.74-.31,1.73,1a1.93,1.93,0,0,0,.25,1.09l.15-2c.86.22.95,1.85.59,6.8a19.86,19.86,0,0,0,.41-2.15c.07-.83,0-1.67,0-2.5l.49,0a22,22,0,0,1-.46,4.9,94.73,94.73,0,0,1-3.59,9.23c-.26.61-1.22.9-1.86,1.34Z"/><path class="cls-24" d="M56.5,113.56,54.91,116l-.22-.1.9-2.41-1.06.82.91-2.51-1-.2-.16,1.41H54V110.8h-.24l-.55,3.36-.34,0,.38-7.06H53l-.12,2.43-.56-.06,1-9.73-.2,0c-.31,2.11-.75,4.22-.91,6.34s0,4.41-.12,6.62a25.69,25.69,0,0,1,.52-13.09,12.75,12.75,0,0,1,3.18-4.59c1.25-1.23,2.48-.68,2.89,1,1.08,4.42,2.25,8.86.68,13.39a30.22,30.22,0,0,1-2.16,4.29c0,.07-.5-.08-.77-.13a11.58,11.58,0,0,0,2.89-8.77c-.27.89-.27,1.85-.56,2.72C58.09,109.53,57.27,111.54,56.5,113.56Z"/><path class="cls-24" d="M18.74,89.86A14,14,0,0,1,13.32,97l-.69.75v0h-.45c-.23-.14-.66-.32-.64-.41a10.15,10.15,0,0,0,.37-1.87l-2.48,4.81-1-.66a8.3,8.3,0,0,0-.49.81A14.84,14.84,0,0,1,6.58,103a70.72,70.72,0,0,1,1.07-8.39,14.06,14.06,0,0,1,9.86-10.69,2,2,0,0,1,2.54.71C20.64,86.6,19.4,88.16,18.74,89.86Z"/><path class="cls-24" d="M74.7,79.15c-5.32,1-7.06,5-8,9.51A7.62,7.62,0,0,1,64,93.56,8.79,8.79,0,0,0,62.76,95l-3.61-1.8-1.29.65c.89-2.44,1.69-4.73,2.55-7C63,80.1,65.78,77.85,74.7,79.15Z"/><path class="cls-24" d="M14.07,31.72c.77-3.09,1.51-6.19,2.32-9.27.54-2.06,1.1-4.12,1.8-6.13a3.41,3.41,0,0,1,1.47-2c2.54-1.09,5.18-1.95,7.46-2.77-1,2.88-2,5.73-3,8.58a23.51,23.51,0,0,1-5.88,9.5l.82-2.9-.26-.09-2.35,5.64-.29-.1c.72-2.41,1.45-4.81,2.17-7.22l-.26-.1-1.32,3.45-.39-.13L18.85,21l-.17-.09a55,55,0,0,0-2.47,5.21,59.64,59.64,0,0,0-1.47,5.78Z"/><path class="cls-24" d="M69.86,95.55l.62-.28c.64,1.64,1.63,3.24,1.85,4.94.48,3.8-.88,9.81-2.83,13.72.57-3,2.09-6,.65-8.54L68.7,115h-.32l-.94-12.59-.07,0v8.83H67v-9.28h-.29v3.37c-1-4-.23-7.8.74-11.94l2.37,2.28,1.74,7C71.54,100.1,71.59,97.61,69.86,95.55Z"/><path class="cls-24" d="M30.74,90.28l-2.51,2.29-.4-1.28-.15,2.24-.34,0L27.68,88l-.42,0-.41,1.37A14.5,14.5,0,0,1,28.91,81a11.35,11.35,0,0,1,2.95-2.64,1.38,1.38,0,0,1,2.28,1.18,37.47,37.47,0,0,1-.08,6.87c-.24,1.4-1.4,2.67-2.25,3.92C31.69,90.53,31,90.31,30.74,90.28Z"/><path class="cls-24" d="M61.8,106.75l.69,3.57.67-.41-.8,2,1-.45-.26,1.66.2.11.85-1.39c-1,2.93-1.84,5.45-2.74,8.1L61,119l-.51,4.15-2.27-3.82,1.14.59C59.2,115.93,59.69,109.21,61.8,106.75Z"/><path class="cls-24" d="M23,30.78a17.83,17.83,0,0,1,.41-3.52c.73-2.38,1.67-4.7,2.66-7.4l.4,1.88c.51-2.87.95-5.31,1.4-7.76l.32,0c-.26,1.8-.54,3.6-.78,5.4-.49,3.49-.89,7-1.48,10.47a5.94,5.94,0,0,1-1.31,2.66c-.3.37-1.18.27-1.92.4L23,31.13Z"/><path class="cls-24" d="M59.13,94.22A4.85,4.85,0,0,1,63,96.69c1.74,2.56,2.1,5.54,2.48,8.49a13.69,13.69,0,0,1,0,4.23C63.38,104.42,61.3,99.42,59.13,94.22Z"/><path class="cls-24" d="M10.08,104.61l-2.11,2-.3-.11a38,38,0,0,1,3.21-5.06c1.43-1.64,3.37-2.82,4.88-4.41a32.66,32.66,0,0,0,2.9-4.12c-1.17,4-2.51,7.74-5.86,10.37a5.8,5.8,0,0,1-1.24.56h-.43l-.36.38.05-.06Z"/><path class="cls-24" d="M13.07,11.91c.75,2,1.64,4,2.2,6.09.39,1.46.67,3-1,4.2-.83.6-1,2.14-1.66,3.17V12.05Z"/><path class="cls-24" d="M75,42.7a131.51,131.51,0,0,1,9.67,30.05Z"/><path class="cls-24" d="M26.51,134.63c.3-1,.57-2,.89-3a1.62,1.62,0,0,1,.49-.69,21.9,21.9,0,0,0,3.64-2.76,9.6,9.6,0,0,0,2.19-8.12c-.06-.4-.18-.8-.25-1.2a2.42,2.42,0,0,1,0-.58C36.12,124,34.29,128.24,26.51,134.63Z"/><path class="cls-24" d="M4.2,40.09C4.17,34,8,29.19,9.54,23.34c1.44,1.57-1.59,2.52,0,3.87l-4.89,13Z"/><path class="cls-24" d="M15.26,38.31a15.22,15.22,0,0,1,1.53-3.51A50.52,50.52,0,0,0,25,19.41a4.54,4.54,0,0,1,.61-.87C23.77,26.19,20,32.48,15.26,38.31Z"/><path class="cls-24" d="M50.62,121.8c-.24-2.75-.48-5.5-.69-8,1.57,2.47,2,9.86.47,13.72l.76-5.36-.2,0c-.22,1-.45,2-.67,3l-.39,0-.69-11.05.32,0c.23,2.58.47,5.15.7,7.73Z"/><path class="cls-24" d="M27.39,36.11c-1.86-3.79.1-7.44.36-11.16v3.28h.39V21.15h.38l.41,5.94s.23-.25.66-.74C28.86,29.77,26,32.43,27.39,36.11Z"/><path class="cls-24" d="M18.71,102.25l.91-2.87.44.12a21.94,21.94,0,0,1-3.32,11c-.57-3.12-.57-3.12,1.43-6,.07-.34.14-.68.2-1l.09-.43Z"/><path class="cls-24" d="M29.58,59.94a7.24,7.24,0,0,1-.58,2c-1.46,2.25-3,4.43-4.69,6.83,1-3.54,1.91-6.88,4.83-9.21Z"/><path class="cls-24" d="M56.37,70.08l4.05-3.16-1.13,2.9.66.5.93-2.22c.72,1.56,1.14,2.45,1.7,3.65Z"/><path class="cls-24" d="M64,52.83c1,2.46,1.53,5,0,7.61Z"/><path class="cls-24" d="M20.25,92.79l-2,7-.72-.22q1.17-3.43,2.33-6.86Z"/><path class="cls-24" d="M18.74,89.86c.66-1.7,1.9-3.26,1.31-5.28.18,0,.45,0,.5.14C21.33,86.23,20.36,88.92,18.74,89.86Z"/><path class="cls-24" d="M77.57,79.21l4.89,4.16-.29.36-5-4.08Z"/><path class="cls-24" d="M38,4.94l6.54,1.88-.14.51L37.84,5.39Z"/><path class="cls-24" d="M69.76,47.93l5.4,2.73-.23.46L69.5,48.4Z"/><ellipse class="cls-24" cx="21.85" cy="88.97" rx="0.22" ry="3.78"/><path class="cls-24" d="M9.72,21.79l.65-1.49.66.28-.6,1.18,0,0h-.42l0,0Z"/><path class="cls-24" d="M15.64,102.34l1-1.29.32.14-.87,1.41Z"/><path class="cls-24" d="M18.71,102.25l-.25.85L18.32,102Z"/><path d="M10.08,104.61l.74-.43-.05.79.07-.07-.47.41Z"/><path class="cls-24" d="M12.63,97.77l.69-.75Z"/><path class="cls-24" d="M10.77,105l.05-.79-.05.06.36-.38h.43Z"/><path class="cls-24" d="M10.43,21.76l-.62,1-.08-.59.37-.41,0,0h.42Z"/><path class="cls-24" d="M18.37,103.53c-.06.34-.13.68-.2,1C18.24,104.21,18.31,103.87,18.37,103.53Z"/><path class="cls-24" d="M29.53,59.23v-.8l.3.09-.35.67Z"/><path class="cls-24" d="M29.58,59.94l-.44-.4.39-.31-.05,0C29.51,59.44,29.54,59.69,29.58,59.94Z"/><path d="M23,30.78l0,.35A.32.32,0,0,1,23,30.78Z"/><path class="cls-24" d="M12.19,97.75h0Z"/><path class="cls-24" d="M26.49,129l.13-.34Z"/><path d="M10.1,21.75l-.37.41v-.37Z"/><path class="cls-24" d="M10.37,105.31l.47-.41Z"/><path class="cls-24" d="M40,59.22l.38,0-.78,1.49-.3-.12.35-.94.35-.4Z"/><path d="M40,59.21l-.35.4Z"/><path d="M56.5,113.56c.77-2,1.59-4,2.28-6.09.29-.87.29-1.83.56-2.72a11.58,11.58,0,0,1-2.89,8.77Z"/><path d="M69.86,95.55c1.73,2.06,1.68,4.55,1.66,7l-1.74-7Z"/><path d="M11.13,103.86l-.36.38Z"/><path d="M10.47,21.79h0Z"/></g></g></svg>