<svg xmlns="http://www.w3.org/2000/svg" viewBox="0 0 220.86 194.97"><defs><style>.cls-1{fill:#010101;}.cls-2{fill:#090909;}.cls-3{fill:#1f1f1f;}.cls-4{fill:#fefefe;}.cls-5{fill:#fff;stroke:#000;stroke-miterlimit:10;stroke-width:0.72px;}.cls-6{fill:#fcfcfc;}.cls-7{fill:#141414;}.cls-8{fill:#0b0b0b;}.cls-9{fill:#252525;}.cls-10{fill:#3e3e3e;}.cls-11{fill:#e8e8e8;}.cls-12{fill:#4d4d4d;}.cls-13{fill:#cbcbcb;}.cls-14{fill:#2e2e2e;}.cls-15{fill:#292929;}.cls-16{fill:#6b6b6b;}.cls-17{fill:#b3b3b3;}.cls-18{fill:#111;}.cls-19{fill:#c3c3c3;}.cls-20{fill:#3f3f3f;}.cls-21{fill:#ebebeb;}.cls-22{fill:#bfbfbf;}.cls-23{fill:#313131;}.cls-24{fill:#606060;}.cls-25{fill:#ababab;}.cls-26{fill:#797979;}.cls-27{fill:#070707;}.cls-28{fill:#0a0a0a;}.cls-29{fill:#232323;}.cls-30{fill:#191919;}.cls-31{fill:#434343;}.cls-32{fill:#1b1b1b;}.cls-33{fill:#4b4b4b;}.cls-34{fill:#0f0f0f;}.cls-35{fill:#3d3d3d;}.cls-36{fill:#4a4a4a;}.cls-37{fill:#3b3b3b;}.cls-38{fill:#1e1e1e;}.cls-39{fill:#2c2c2c;}.cls-40{fill:#2d2d2d;}.cls-41{fill:#b1b1b1;}.cls-42{fill:#272727;}.cls-43{fill:#585858;}.cls-44{fill:#101010;}.cls-45{fill:#4c4c4c;}.cls-46{fill:#030303;}.cls-47{fill:#0c0c0c;}.cls-48{fill:#181818;}.cls-49{fill:#151515;}.cls-50{fill:#1c1c1c;}.cls-51{fill:#f0f0f0;}.cls-52{fill:#222;}.cls-53{fill:#f4f4f4;}.cls-54{fill:#2f2f2f;}.cls-55{fill:#0d0d0d;}.cls-56{fill:#f1f1f1;}.cls-57{fill:#616161;}.cls-58{fill:#ededed;}.cls-59{fill:#393939;}.cls-60{fill:#555;}.cls-61{fill:#161616;}.cls-62{fill:#515151;}.cls-63{fill:#7e7e7e;}.cls-64{fill:#e9e9e9;}.cls-65{fill:#1d1d1d;}.cls-66{fill:#0e0e0e;}.cls-67{fill:#545454;}.cls-68{fill:#484848;}.cls-69{fill:#454545;}.cls-70{fill:#5e5e5e;}.cls-71{fill:#6e6e6e;}.cls-72{fill:#6d6d6d;}.cls-73{fill:#aaa;}.cls-74{fill:#050505;}.cls-75{fill:#e5e5e5;}.cls-76{fill:#262626;}.cls-77{fill:#333;}.cls-78{fill:#565656;}.cls-79{fill:#3a3a3a;}.cls-80{fill:#4f4f4f;}.cls-81{fill:#343434;}.cls-82{fill:#424242;}.cls-83{fill:#303030;}.cls-84{fill:#dcdcdc;}.cls-85{fill:#727272;}.cls-86{fill:#909090;}.cls-87{fill:#7b7b7b;}.cls-88{fill:#898989;}.cls-89{fill:#6c6c6c;}.cls-90{fill:#505050;}.cls-91{fill:#656565;}.cls-92{fill:#7f7f7f;}.cls-93{fill:#fafafa;}.cls-94{fill:#e2e2e2;}.cls-95{fill:#c2c2c2;}.cls-96{fill:#dbdbdb;}.cls-97{fill:#e0e0e0;}.cls-98{fill:#5f5f5f;}.cls-99{fill:#494949;}.cls-100{fill:#bababa;}.cls-101{fill:#828282;}.cls-102{fill:#ddd;}.cls-103{fill:#767676;}.cls-104{fill:#696969;}.cls-105{fill:#383838;}.cls-106{fill:#f7f7f7;}.cls-107{fill:#f2f2f2;}.cls-108{fill:#f5f5f5;}.cls-109{fill:#595959;}.cls-110{fill:#969696;}.cls-111{fill:#c1c1c1;}.cls-112{fill:#ececec;}.cls-113{fill:#e3e3e3;}.cls-114{fill:#eaeaea;}.cls-115{fill:#444;}.cls-116{fill:#6a6a6a;}.cls-117{fill:#131313;}.cls-118{fill:#d6d6d6;}.cls-119{fill:#eee;}.cls-120{fill:#7c7c7c;}.cls-121{fill:#d5d5d5;}.cls-122{fill:#f6f6f6;}.cls-123{fill:#efefef;}.cls-124{fill:#2b2b2b;}.cls-125{fill:#212121;}.cls-126{fill:#e7e7e7;}.cls-127{fill:#f3f3f3;}.cls-128{fill:#d2d2d2;}.cls-129{fill:#202020;}.cls-130{fill:#e4e4e4;}.cls-131{fill:#dfdfdf;}.cls-132{fill:#999;}.cls-133{fill:#989898;}.cls-134{fill:#474747;}.cls-135{fill:#1a1a1a;}.cls-136{fill:#c9c9c9;}.cls-137{fill:#ccc;}.cls-138{fill:#575757;}.cls-139{fill:#666;}.cls-140{fill:#414141;}.cls-141{fill:#a1a1a1;}.cls-142{fill:#cfcfcf;}.cls-143{fill:#060606;}.cls-144{fill:#121212;}.cls-145{fill:#040404;}.cls-146{fill:#868686;}</style></defs><title>Asset 2</title><g id="Layer_2" data-name="Layer 2"><g id="Layer_2-2" data-name="Layer 2"><path class="cls-1" d="M86.17,110c-2.3-1.05-3.35,2.55-4.4,4.7-4.06,8.35-11.83,11.45-20.15,13.28a30.81,30.81,0,0,1-13.94,0,6.62,6.62,0,0,0-5.77,1.44c-6.2,5-13,4.56-20.12,2.61,0-1,.73-1.08,1.4-1.29,3.32-.24,6.65.71,10-.1a17.62,17.62,0,0,0,4.45-1.35c2.14-1.17,3.54-2.59,1.56-5.07a5,5,0,0,1-.77-1.62c-.3-1-.49-1.89.66-2.47s1.77.09,2.28,1a9.9,9.9,0,0,0,1.91,3.07c.43-1.51-.74-2.07-1.27-2.91-.75-1.21-.73-2.44.42-3.18,1.46-.94,1.52,1,2.3,1.45.43.24.87.47,1.29.74a5.18,5.18,0,0,1,1.61,3.06,13.71,13.71,0,0,0,.39,1.89c.18-.64-.5-2-.49-3.36a3.37,3.37,0,0,1,0-.71c.33-1.77.08-4.84,2.2-4.42,1.87.36.82,3.25.61,4.94.45-.33.24-1.85,1.39-1.61s.87,1.29.81,2.12A3.38,3.38,0,0,0,52.6,124c.14.3.4,1.11.78.12a2.48,2.48,0,0,0-.07-1.07c.07-2.22-.67-4.53.8-6.56,1.76-.45,1.28,1.08,1.64,1.87s-.53,2,1,2.13a1.23,1.23,0,0,1,.75.51c1,1.18-.37,3.79,1.59,3.86,1.74.06,1.46-2.44,2.17-3.76.12-.21.2-.43.32-.64.46-.9,1.71-.39,2.2-1.24.66-.86,1-2.08,2.32-2.23a1.37,1.37,0,0,1,.9,1.13c.09,2.14-1.87,3.53-2.28,6.09,7.3-3,14.65-5.17,16.24-14.23.46-2.57,1.82-4.93,2.82-7.37a34.39,34.39,0,0,0,2.76-15.41,21.85,21.85,0,0,1,.26-3c0-.23.08-.44.11-.62-.36.22-.14.7-.44,1a1.11,1.11,0,0,1-.86.41,6.21,6.21,0,0,1-2.41-3.24,182.48,182.48,0,0,1,4.9-18.61,13.13,13.13,0,0,0,0-9.38c-1.55-4-3-8.11-5.87-11.42A10.51,10.51,0,0,0,77,38.89a56.55,56.55,0,0,0,2.89,6.29c1,2.07,2,4.13,1.88,6.49,0,.82-.06,1.88-1,2.07S79.36,53,79,52.21c-1.78-4.06-3.28-8.23-5-12.31-.93-2.2-2.24-3.79-5-2.49a2.66,2.66,0,0,1-1,.18,9.7,9.7,0,0,0-10.84,1.2c-.71.65-.11.83,0,1.32a11.68,11.68,0,0,0,3,5.92A1.85,1.85,0,0,1,61,48.29c-.57,1-1.65.73-2.58.61-.72-.09-1.3-.68-2-.71-1.18,0-2.24.74-1.09,1.62,2,1.55.47,2.74.1,4.1a1.53,1.53,0,0,1-.91,1c-1.91.57-.73,1.42-.26,2.31,2,3.74,4,7.51,4.78,11.73a1.28,1.28,0,0,1-.92.91A177,177,0,0,1,58.87,93c0,1.54.16,3.12-.7,4.54a1,1,0,0,1-1,.34c-1.8-4.28-1.4-8.87-1.63-13.31S54.78,76,54.38,71.75c-.28-3.1-1.16-5.67-4.53-6.61,1.55,3.63,0,7.58.39,11.51-.08,1.37.55,2.63.63,4-.11,1.34.32,3.25-1.6,3.37s-2.4-1.73-2.46-3.29c-.14-3.78-3.32-7.14-1.51-11.17,1.14-1.49.66-3.12.38-4.74.1,1.27.57,2.51.19,3.79-1.06,1.11-.56,2.83-1.56,4a1,1,0,0,1-1-.12,6,6,0,0,1-.8-3.14c-.13-1.24-1.17-2.17-1.24-3.44a7.14,7.14,0,0,1,.33-2.64c-.23,1.79-1.79,4-2.42,6.61-.15.57-.52,1.31-1.16,1.12-1-.3-.92-1.23-.74-2.09A16.85,16.85,0,0,1,35,74.29c-1.29,1.83-2,1.13-2.32-.73A26.35,26.35,0,0,1,33,68.79c-.27,2.42-.67,4.84-.14,7.26a10,10,0,0,1-.51,4.69,1,1,0,0,1-.88.56c-1.57-.92-1.18-2.51-1.19-3.88,0-3.84.08-7.69.06-11.52,0-2.11-1.72-4.28.95-6.16-1.46-.18-2.88,1-3.54-.47-.59-1.28,1.4-1.68,1.53-2.93-2,.19-3.84.62-5.75.77-1,.08-2-.18-2.34-1.25s.78-1.31,1.52-1.57c2.24-.78,3.44-1.68.57-3.33a1.14,1.14,0,0,1-.59-1.52c.31-.57,1-.57,1.62-.5,2.56.3,4.79,0,5.95-2.77.47-1.13,1.57-.78,2.54-.6,3.61.64,4.09.19,4-3.56,0-1.07-.45-2.14,0-3.21,2.43-1.6.75-4.26,1.64-6.26.22-6.27,3.63-10.46,8.84-13.42a6,6,0,0,1,4.89-.61c2.05.69,2.16,3,.77,3.64-6.59,3.21-5.55,8.79-5,14.32.06.6.07,1.2.13,1.8,0,0,.21.08.56.22,4-5.22,9.9-5.84,16-5.65,2.11.07,2.86-.33,2.87-2.67"/><path class="cls-2" d="M38.43,32.54c-.16,2.26,1.15,4.81-1.34,6.59-1.61.59-2.38-.78-3.31-1.56-6.17-5.18-12.8-5-19,.39C7.37,44.5,4.05,53,2.7,62.52a41.52,41.52,0,0,0,.88,14.6c1.39,6.65,3,13.33,2.29,20.24-.25.56-.57,1-1.28,1-1.38-8-3-16-4.09-24.09C-1.36,59.83,1.82,46.9,12.39,36.29a18.58,18.58,0,0,1,16.45-5.35c3.62.51,6.29,3.62,8.73,7.2C37.91,35.9,38.17,34.22,38.43,32.54Z"/><path class="cls-3" d="M4.59,98.32l.76-.95c1.65.57,1.39,2.06,1.54,3.3.74,6.18,1.53,12.32,3.75,18.2,1.89,5,5,8.59,10.07,10.5,1.06.4,2.42.57,2.57,2.12l-1.49.59c-7.07-1.89-11.43-6.45-13.75-13.33A73.33,73.33,0,0,1,4.59,98.32Z"/><path class="cls-4" d="M23.28,131.49C10.81,128,8.41,117.66,6.7,106.89c-.51-3.16-.9-6.34-1.35-9.52-.19-9.15-3.09-18-3.78-27C.64,58.1,4.16,46.93,13.16,38a17.2,17.2,0,0,1,11.48-5.28c3.83-.21,7.07.68,9.47,3.95a16.05,16.05,0,0,0,3,2.47c1.22,2.17.72,4.51.3,6.67-.59,3-2.83,1.13-4.3.89-1.14-.18-2.42-3-2.32,1,.05,2.14-3.39,2.45-5.78,2.27-.67,0-1.32-.67-2.07-.11.79,1.83,2.6.57,3.9,1.39-.63,2.81-2,4.64-5.52,4.09,3.48,2.11,6.81-1,10.35,0-.56,2.15-2.72,2.55-3.89,3.92,2,.87,3-1.06,4.77-1.46.85,2.76-2.45,3.57-2.7,5.76.71.8,1.13-.58,1.89-.26-.47,5.89-1,11.84-.61,17.81,1,3.6.15,7.17.37,9.76.61-2.54-.39-6.23.32-9.79l.26-5c.77-.5-.6-2.22,1.21-2.13.35.09-.06,2,.81.53a69.71,69.71,0,0,0,3.27-7.58c1.14,1.14.06,2.4,1.12,4.33-.72-4.72,2.87-7,3.48-10.48v4.94c0,2.45-.12,4.89-.28,7.33-3.11,5.87-.44,12.32-1.84,17.25.13-3.62.73-8.36.35-13.09-.14-1.7,1.66-2.31,1.51-3.82.31-1.53-.83-3.65,1.72-4.28l.18,3.31c.85.88.38,2.17.93,3.14a7.93,7.93,0,0,1-.3-3.06c.3-1.31-.26-3.13,1.95-3.32-.16-.46.09.18-.09-.27,0-.09,0,0,0,.28a8.44,8.44,0,0,0,.4,6.67,16.47,16.47,0,0,1,1.18,4.75c.18,1.27.18,3,1.65,2.86,1.18-.1.54-1.85.7-2.87.79-1.42-1-3.37,1-4.6,1,.6.8,1.79,1.28,2.47-.25-1.63-.7-3.14-3-1.78a17.33,17.33,0,0,1,.36-7.09c.75-2.42-2.25-4.44-.8-7.12a10.16,10.16,0,0,1,3.79,4.47c.16-1.18.26-2,.46-3.57C57,75.05,56.39,86.46,57.25,97.69c.51,2.81,0,5.64.23,8.06.18-2.42-.27-5.25.26-8,.19-9.92.56-19.85-1.39-30.75L58,69.52c.47.29.74.8,1.17,1.12-.34-.55-.19-1.25-.52-1.82-2.58-3.94-2.78-9.08-6.38-12.53a1.28,1.28,0,0,1-.11-1.92c.67-.63,1.32.09,2,.16,1.18.44,1.38,2.86,3.33,1.56A3.84,3.84,0,0,1,55,53.78l-1.36-1.29c.78-1.18,2.12.65,2.79-.77a14.4,14.4,0,0,0-2.35-1.39c-1.64-.61-.63-1.52-.28-2.22.69-1.38,1.92-2.11,3.18-1s2.43,1.06,3.91,1.45a11.28,11.28,0,0,0-3-4.17c-.67-.69-1.72-1.56-1.21-2.42,1.8-3-1.14-1.62-2.19-2.32A43.45,43.45,0,0,1,63.7,35c2.25-1,3.13,1.06,4.39,2.2,4.07,4,5.24,6.38,6.33,12.54-.08-4.94-2.7-8.79-5.55-12.55-.22-1.3.3-1.63,1.58-1.47,1.75.22,3.16.57,3.9,2.51,1.8,4.68,3.77,9.3,5.67,13.94a2.45,2.45,0,0,0,.75,1.14c.52-6-3.53-10.5-5.51-16.09a14.76,14.76,0,0,1,9.6,7,43.58,43.58,0,0,1,5.06,12.59,8.61,8.61,0,0,1-.53,5.6c-2.62,6.27-3.16,13.16-5.61,19.48,2.61,5.5-1.5,10-2,14.29,1.47-3.26,1.78-7.69,4.16-11.35l.14.09c1.9-.14.48,1.65,1.26,2.17.69,5.27-.45,10.26-2.31,15.14-1.46,3.79-3.06,7.53-4.26,11.43a12.13,12.13,0,0,1-7,7.77l-11.58,5.06c1.79-3.38,3.1-5.87,4.42-8.35.14-1.7,1.49-2.81,2.14-4.46.14-.26-.66.06-.18.11.11,0,.1.12,0,.32a9.47,9.47,0,0,1-2.62,3.24l-1.72,2.66c-2.57-1.25.24-2.92-.48-4-.53,1.14-.31,2.92-1.44,4.24a41.11,41.11,0,0,1-.94,4.16c-.53,1.64-1.8,2.69-3.52,2.31s-.66-2-.74-3a24.34,24.34,0,0,1,.05-2.83c.91.24,1.52.37,1.85-1a24,24,0,0,1,2.76-7c-2.17,2.25-1.24,6.72-5.2,8-1,1.21-1.1,1.23-1.19.58-.24-1.62-.34-3.26-.5-4.9a16.19,16.19,0,0,1-.88-6.56c.86,4-.85,8.83.28,13.67.44.79,1.38,1.45.7,2.53a1.45,1.45,0,0,1-1.55.61c-1.19-.17-1.44-1.12-1.68-2.06a15.51,15.51,0,0,1-.16-3.92L50,124.89v-8.34c-1.76,1.84-1.38,3.85-1.69,5.65-.49.41.14,1.8-1.25,1.43-.65-.88-.36-2.27-1.56-2.84-1.46-4-.17-8.22-.64-11.57,0,2.36,0,5.46,0,8.57,0,1,.21,2.18-.87,2.92l-1-2.39c-1,1.23-1.36,2.42.26,3.17a2.6,2.6,0,0,1,1.44,2.25c.21,1,.26,2.16-.77,2.51s-1.28-.84-1.65-1.53a28.1,28.1,0,0,1-1.65-3.57c-.38-1.07-1-.79-1.67-.49-.91.45-.2,1,0,1.44s.5.82.74,1.23c2.25,3.86,1.23,6.29-3.22,7.57A31.91,31.91,0,0,1,23.28,131.49Z"/><path class="cls-5" d="M85,106.61c5-9.73,3.91-20.29,4.19-30.65.11-4,1.64-7.7,2.19-11.62C93.36,50,85.65,37.8,71.7,34c-2-.53-2.75-1.23-2.38-3.46"/><path class="cls-6" d="M43.77,49.72c1.28.52,1.57-.35,2.08-.74.77-.59,1.34-.31,1.8.35s.4,1.35-.57,1.56c-1.42.32-2.41,3.43-4.38.64-.46-.66-1.43-.24-2,.2a9,9,0,0,0-1.33,1.75c-.33-1.21-1.31-2.76-.89-3.58,2.29-4.48,1.2-9.22,1.39-13.82.29-7.22,2.9-12.69,9.87-15.54.06.2.21.55.17.58-4.67,2.91-5.27,7-4.29,12.12a27.32,27.32,0,0,1-1.08,12.81C44.21,47.27,44,48.55,43.77,49.72Z"/><path class="cls-7" d="M68.87,37.15c3.83,2,4.78,5.94,6.29,9.51.87,2.06-.3,3.72-1,5.63-1-5.46-2.65-10.67-6-15.13Z"/><path class="cls-8" d="M44,120.71c.69-4.75-.06-9.48-.16-14.22,0-.75-.55-2,.6-2.08,1.62-.14.88,1.35.9,2.09.13,4.76.15,9.53.2,14.29Z"/><path class="cls-9" d="M85.91,84.75a54,54,0,0,1-5.32,13.53c.85-3,1.3-6.21,2.66-9,1.27-2.6-.38-5.08.53-7.5C85,82.44,85.29,83.7,85.91,84.75Z"/><path class="cls-10" d="M56.51,120.84c2.67-3.18,3.81-7.22,6.14-10.65-.69,4.51-3.68,8.33-3.48,13-2.1,0-1.16-1.83-2.07-2.35l-.29.09Z"/><path class="cls-11" d="M27.78,53.81c1.88-3.12,4.37-4.23,8.11-3.39-2.09.18-4.78-.49-4.46,3.06A6.85,6.85,0,0,1,27.78,53.81Z"/><path class="cls-12" d="M54.22,123.63c-.85-2.56-1.1-10.71-.34-16.51.43,3.8,1.24,6.53.94,9.4C53.56,118.8,54.68,121.28,54.22,123.63Z"/><path class="cls-13" d="M51.73,40.26c-.21,1.79-1.67,2.12-2.55,2.94-.55.52-1.66.88-.26,1.67.35.2,1.11.29.65.87a3.2,3.2,0,0,1-1.58.75c-.56.15-1.07-.24-.88-.75.62-1.61-1.33-4.7,2.58-4.52C50.18,41.24,50.43,40,51.73,40.26Z"/><path class="cls-14" d="M49.31,76.65c.81-.62.14-2.46,1.7-2.32s1,1.61,1.27,2.54a6.11,6.11,0,0,1,.29,4.2l-1.51-4.95-1,4.44C49.79,79.26,48.86,78.08,49.31,76.65Z"/><path class="cls-15" d="M55,53.78l5.34,3.79c-1.26,1.14-2.83-1.71-3.65.6-1.6-.69-3.09-1.45-2.54-3.64Z"/><path class="cls-16" d="M62.25,120.17c.51-2.34,1-4.67,1.71-7.77,1.63,3.1-1.36,5.31.21,7.53l-.85,1.5Z"/><path class="cls-17" d="M33.27,73.94l-1.21,2.13c-.42-2.93.31-5.72.89-8.55C33.91,69.65,33.23,71.81,33.27,73.94Z"/><path class="cls-3" d="M31.8,81.07l0,10.94c-.5-3.63-1.14-7.24-.67-10.91A2,2,0,0,1,31.8,81.07Z"/><path class="cls-18" d="M43.4,69.07c-1.67.94-1,2.7-1.46,4.08-.19.34-.4.35-.63,0,0-2.51-.2-5,.63-7.49C41.87,67.05,43.78,67.57,43.4,69.07Z"/><path class="cls-19" d="M37,53.44c.26,2.85-3.1,5.87,1.21,7.86C34.12,59.61,34,58.33,37,53.44Z"/><path class="cls-20" d="M65.89,117.27l3.7-6c-.1,2.74-1.55,4.77-3,6.8Z"/><path class="cls-21" d="M46.16,69.14c-.71-2.41-1.74-4.79-1-7.78,1.93,2.66,1.27,5.25.93,7.79Z"/><path class="cls-22" d="M47.05,123.63c.42-.48.83-1,1.25-1.43.24,1.37.48,2.75.74,4.22-1.06.44-2.17.24-3.71-.3C46.62,125.56,47.58,125,47.05,123.63Z"/><path class="cls-23" d="M57.74,97.7v8.15a23.14,23.14,0,0,1-.48-8.16Z"/><path class="cls-24" d="M58.68,68.82C59.9,70,60.12,71.55,61,73.51c-2.11-1.14-2.46-2.63-3-4Z"/><path class="cls-25" d="M87.31,87c-.83-.49-.19-1.83-1.26-2.17.29-1.07.59-2.14.88-3.22l.39.13Z"/><path class="cls-26" d="M44.21,72.46c.94,1.24.82,2.6.48,4.34a5.46,5.46,0,0,1-1.11-4.42A3.4,3.4,0,0,1,44.21,72.46Z"/><path class="cls-27" d="M9.59,58l-.82,10.7c-.32,1.79,0,3.66-.38,5.49.19-1.37,0-2.92,1.17-4,.31-.36.66-1.07.91-1,.85.11.51.88.45,1.39-.55,4.64-1.29,9.26-1.64,13.92-.13,1.76-1.66,3.83.65,5.51.32.24-.36,1.94-1.3,2.74A7.2,7.2,0,0,1,7,86.62c.22-2,.37-4.06.5-6.09,0-.59,0-1.66-.17-1.71C2.7,77.71,5.46,74.22,5.39,72c-.16-4.66.46-9.34.75-14,.47-.6,0-1.47.58-2,2.12.05,1.12,1.71,1.4,2.71.26,1.57-.38,3.06-.34,4.61.2-1.58.16-3.21,1-4.65A2.29,2.29,0,0,1,9,58C9.2,57.65,9.39,57.63,9.59,58Z"/><path class="cls-28" d="M19.56,44.94c4.66-3.65,9.43-4.45,14.37-4.63,1.23-.05,2.37.77,2.13,1.89-.28,1.3-.62,3.13-2.79,2.88s-4.26-.56-6.4-.71A16.78,16.78,0,0,0,19.56,44.94Z"/><path class="cls-29" d="M76.93,80.77C77,73,75.71,65,80,57.87A126.69,126.69,0,0,1,76.93,80.77Z"/><path class="cls-30" d="M84,69c.26-4.71,2.25-9.25,1.32-14.09-.13-.66-.08-1.56.85-1.7s1.09.77,1.15,1.42c.18,2,.55,4.1-.13,6-1.52,4.32-2.59,8.66-2,13.29.06.52-.38,1.1-.58,1.64C82.8,73.5,85,71.09,84,69Z"/><path class="cls-31" d="M41.31,73.17l.63,0c-2.84,7-.4,14.5-1.72,21.69-1.38-.16-1.12-1.26-1.09-2.13.22-6.11.93-12.23.42-18.35C39.39,72.37,40.83,73.69,41.31,73.17Z"/><path class="cls-32" d="M15.46,106.32c.52-4.56-.86-8.79-2.29-13,.32-1.21-.83-3,1.27-3.53,1.62,5.88,1.93,11.92,2.18,18C15.31,108,15.88,106.77,15.46,106.32Z"/><path class="cls-33" d="M14.44,89.77c-1,1,.27,2.76-1.27,3.53a16.92,16.92,0,0,1-2.24-8.75C13,86.1,12.08,89,14.44,89.77Z"/><path class="cls-34" d="M84,69c1.11,2.12.25,4.42.61,6.6-.57,1-1.45,1.72-2.46.81-1.37-1.22.58-1.29.78-1.9A43.61,43.61,0,0,0,84,69Z"/><path class="cls-23" d="M45.5,91l1.14,9.11C44.24,97.3,44.64,94.08,45.5,91Z"/><path class="cls-35" d="M30,125.67c1.24-.92,3.38,2.86,3.42-1.81.63,1.73,3.3,2.38,2.19,3.45C33.8,129.09,31.77,127.48,30,125.67Z"/><path class="cls-23" d="M23.62,96.56c.24-3.59.47-7.17.71-10.76l.34.06,0,10.77Z"/><path class="cls-36" d="M26.82,126.41c2.39,1.28,4.38,3.45,7.51,2.16C31.11,131,29.58,130.52,26.82,126.41Z"/><path class="cls-37" d="M81.28,63.34A3.49,3.49,0,0,1,81,60.63c.17-1.18.58-2.68,1.67-2.94,1.48-.35,1.2.83.72,1.72a10,10,0,0,0-.73,1.19C82.31,61.56,82.41,62.74,81.28,63.34Z"/><path class="cls-38" d="M39.67,126.46c-2.67-.95-4.68-2.68-6.88-5C36.75,121.44,38,124.32,39.67,126.46Z"/><path class="cls-39" d="M33.55,110.93c1.62,2.62,3.37,5.23,4,8.36A15.12,15.12,0,0,1,33.55,110.93Z"/><path class="cls-40" d="M16.74,113.5l2,7a9.9,9.9,0,0,1-2.62-7C16.36,113.16,16.56,113.17,16.74,113.5Z"/><path class="cls-12" d="M6.72,56a2.08,2.08,0,0,1-.58,2,12.24,12.24,0,0,0-.83-4.05,4,4,0,0,1,.38-2c0-.1.7-.14.94,0,.82.5.37,1.23.27,1.91S6.78,55.26,6.72,56Z"/><path class="cls-28" d="M16.74,113.5l-.29-.06-.3,0c0-2.41-1.68-4.65-.69-7.16l1.16,1.41A18.61,18.61,0,0,1,16.74,113.5Z"/><path class="cls-34" d="M65.75,84.57v8.59C64.55,90.29,65.32,87.41,65.75,84.57Z"/><path class="cls-41" d="M8.79,58.64c.48,2-.67,3.64-.95,5.5a7.32,7.32,0,0,1,.28-5.46A3,3,0,0,1,8.79,58.64Z"/><path class="cls-42" d="M24.7,38.12c2.54-1.68,4-.44,5.53.13C28.67,39,27.12,38.69,24.7,38.12Z"/><path class="cls-25" d="M9.56,70.2c-.33,1.55-.67,3.1-1.2,5.6-.34-3.08-.52-5.14.41-7.13Z"/><path class="cls-43" d="M50,89.65c.45,1.15.76,2.44,2.57,2-.49,1.48-2.17.94-2.41,2.47l-.85-3.68C49.55,90.15,49.59,89.72,50,89.65Z"/><path class="cls-44" d="M9.59,58H9l.62-5.47A6.18,6.18,0,0,1,9.59,58Z"/><path class="cls-3" d="M50,89.65l-.69.78c-.1-1.57-1.73-3.19.46-5.22Z"/><path class="cls-45" d="M62.19,40.16a5.75,5.75,0,0,1-4,2A3.72,3.72,0,0,1,62.19,40.16Z"/><path class="cls-4" d="M43.13,167.94c-.71-1.48-2.56-2.59,0-4.88s3.61-6.12,4.58-9.66c1.92-7.07,3.17-14.4,7.58-20.58a5.39,5.39,0,0,0,.72-2.74c.19-4.06,1.92-7,5.81-8.53,1.24.94-.29,1.65-.2,2.5a99.27,99.27,0,0,0-5.48,13.08c-3.28,7.51-4.58,15.64-7.31,23.33-.74,1.51-1.15,3.18-2.2,4.58a28.26,28.26,0,0,0,4.93-3.41c.88-.77,2-1.31,2.58-2.5-1.55-.58-2.9,1.27-4.41.28-1-2,.71-3.39,1.14-5,1.56-6,2.94-12.1,5.49-17.82,1.65-4.56,3.57-9,5.61-13.39,1.37-2.46,2.71-4.93,4-7.43a87.16,87.16,0,0,1,5.34-8c.71-.85,1-2.29,2.65-1.87,1.26-.06,2.28.75,3.5.87-1.23-.12-2.23-1-3.51-1-2.85.31-3.06,3.22-4.67,4.75a14.76,14.76,0,0,0-2.41,3.89c-2.22,2-1.93,5.79-5.06,7.15-2.85-1.63-1.42-3.86-.4-5.52A54.08,54.08,0,0,1,66.74,109c2-2.35,3.21-5.45,5-8.08,1-1.57,1.12-4.45,4.23-3.75,1.46,1.17-.87,1.8-.41,2.76.33-1.5,1.89-2.65,1.56-4.44a8,8,0,0,1,3.4-7.28,27.91,27.91,0,0,0,9.23-11.57c2.76-6.43,8.13-10.85,12-16.43,4.37-6.39,9.42-12,16.14-15.9,1.14-.67,1-1.8,1-2.87-.15-3-3.07-6.38-6.09-6.83-1.89-.29-3.24-1.42-4.77-2.33-2.12-1.26-.65-3.24-1.13-4.53a11.27,11.27,0,0,1,.32-9.24c.36-.81-1.3-2.4-1.75-3.73-.76-2.21.13-2.68,2.08-1.65.66.2.92.77,1.24,1.27.6,1.15,1.9,1.45,2.76,2.29.73,1.51,0,2.61-.93,3.76S108.84,23,110,24.52c1.78,1.51.42,3.17.26,4.78,2,2,4.77,2.28,7.32,3,3.87,2.84,4.6,7.26,5.76,11.47,0,2.5-1.93,3.39-3.73,4.26A33,33,0,0,0,109,56.23a14.78,14.78,0,0,0-2.25,3.55c-1.13,2.65-3.64,4.08-5.56,6A34.4,34.4,0,0,0,92.71,79.3a12.77,12.77,0,0,1-4.45,6.27A97.33,97.33,0,0,0,79.91,93c1.84-1.42,2.84-3.63,5.45-3.67.61,0,0-1.33.83-2.07,1.74-1.6,3.82-2.8,5.32-4.74,1-1.26,2.11-.25,2.89.78a2,2,0,0,1-.76,2.23c-1.41,1.37-1.14,2.49,0,4,2,2.84,1.06,5-2.24,5.9-1.17.31-2.36.46-3.11,1.57-1.62,2.39-3.62,3.8-6.7,2.83-1.07-.34-1.84.32-2.32,1.26a2,2,0,0,0,.69,2.86c3.85,2.13,1.34,5.09,1,7.63-.35,2.36-2.55,2.48-4.51,2.75-4.25.59-4.28.64-3.28,4.67.61,2.46-.69,4.14-2.13,5.81-2.33,2.71-2.25,4.51.42,7a7,7,0,0,1,2.37,3.39c1-2.72,2.57-4.93,3.78-7.34a5.57,5.57,0,0,1,5.55-3.31c2.6.17,4.4-.73,5.49-3.13a4.05,4.05,0,0,1,2.17-1.8,11.67,11.67,0,0,0,6.48-6.85c.79-2.24,2.22-3.38,4.7-2.55.94.84.13,1.47-.19,2.18,1.06-1.8.86-4.15,2.38-5.76,1.16-2.75,2.57-5.38,3.63-8.18a102.69,102.69,0,0,1,6.2-12,74.56,74.56,0,0,0,5.27-6.72c1.62-2.51,3.61-3.78,6.61-2-1.39-1-3.82-.19-4.25-2.66,1.21-6.62,5.3-11.14,10.83-14.46,2.59-1.55,5.81-1,8.66-1.9.87-.28,1.35.78,1.55,1.64.27,2.4,1.79,3.3,5,2.93a4.15,4.15,0,0,1,1.51,3.06c.46-.78.08-2.32,1.62-2.26.82,0,1.08.94,1.16,1.62a23.53,23.53,0,0,1-3.79,16.33,1.89,1.89,0,0,1-1.55.78,10,10,0,0,1-4.15-2.26c.93,1.34,2.93,1.42,4,2.82a3.35,3.35,0,0,1,.65,2.27c-4,7.45-6.92,15.62-13.6,21.38a2,2,0,0,1-1,.23c-6.47-.79-8.54.65-10.16,6.84-.39,1.52.51,2.17,1.37,3,2.87,2.82,2.58,4.31-1.14,6a39,39,0,0,0-10.35,6.33c-.64.57-1.44,1-1.2,2,.29,1.24,1.28.77,2,.68,2.25-.28,3,.85,2.23,2.76-1.49,3.73-2.49,7.77-5.81,10.51a4,4,0,0,1-.91.5c-2.11.16-3.59,1.77-5.49,2.44a1.44,1.44,0,0,0-1,1.73c.77,2.64-.78,4.84-1.21,7.26a13,13,0,0,1-4.62,4.41c-4.84,3-7.88,7.7-11.22,12.06-1.39,1.81-2.68,2.58-4.8,1.84a2.88,2.88,0,0,1-.91-.6c-1.3-2.37-.22-4.86-.33-7.28.63-2.59.82-5.28,1.77-7.8a48.27,48.27,0,0,0-1.77,7.88,30.69,30.69,0,0,0,1,13.07c1.86-.3,2.24-2,2.91-3.27a43.44,43.44,0,0,1,9.08-11.9c.86-.78,1.59-1.94,3-1,1.35,2.74.7,5.66.43,8.42-.73,7.3-3,14.22-5.75,21-2.85-1.09-4-3.24-2.42-5.41,3.78-5,2.37-11.23,4.31-16.79-1.61,1.68-2.65,3.85-5.42,3.75-.63,0-1.53,1.44-.6,2,4.75,2.65-.27,3.08-1.07,3.93s-2.27.79-1.4,2.88-.81,3.67-3.23,3.12c-2.63-.6-3.54-2.64-3.9-5a56.12,56.12,0,0,1,1.8-24.27c2.13-7.4,5.32-14.39,7.77-22.8-3,3-5.39,5.17-7.56,7.55-.52.57-.81,1.37-1.54,1.87C69,150,63.22,157,56.12,162.37c-2.92,2.22-5.44,5-9,6.35"/><path class="cls-46" d="M146.85,82.57c4-6.16,5.1-11.36,3.9-18.15-1.42,1.65-1.1,3.69-2.23,5.57q-.48-3.54-1-7.08c-2.4,1.19-3.95-.5-5.65-1.66-.19-1.1.68-3.52-2-1.49-1.24,1-2.46,2.25-4.38.73-.77-.61-1.94.52-2.85,1-5.4,3.16-8.66,8-10.73,13.76a1.07,1.07,0,0,1-1-.66c-.33-5.27,3.5-8.3,6.47-11.74,1.84-2.14,4.39-3.68,5.59-6.38a2,2,0,0,1,1.37-.85c3.18.41,5.06-1.11,6-4,.47-1.4.38-3.07,1.89-4,1.2-.29,1.55,1.41,2.72,1.17,1.3.07,1.75-1,2.38-1.79,1.06-1.19,2.23-3.83,3.43-2.93,1.72,1.3-.63,2.95-1.39,4.39a.43.43,0,0,0,0,.35c.06.08.21.09.34.13a1.42,1.42,0,0,1,.66.49c.3,0-.1,1.06.45.43a3.73,3.73,0,0,0,.87-3.31c.7-2.8,4.18-4.51,3.1-8a2.92,2.92,0,0,1,4.69-1.71,2,2,0,0,1,.89,1.46c-1.05,2.22-3,3.79-4.25,5.87A4.69,4.69,0,0,0,155,47.3a1.62,1.62,0,0,1-.36.88c-.5.46-.63.75.21.86.54,1.53-.59,2.11-1.59,2.72-.81.49-1.42,1-.45,1.85,1.56.82,2.05-1,3.12-1.29,1.48-.52,2.58-.57,2,1.55-2,2.05-3.13,4.79-5.55,6.43-.14.09-.37-.19-.14.18,1.53,2.5,1.07,5.31,1.26,8,.13,1.87,1.12,1.14,2.23.92,6.1-1.18,8.36-6.08,10.74-10.88,1.43-2.89,2.8-5.8,4.46-8.58a4.83,4.83,0,0,1,.58-.84A6,6,0,0,1,173.12,48a1.22,1.22,0,0,1,1.38.2c.25.51.07,1.23.73,1.55,2.86.7,2.46,3.27,1.69,4.63-1.87,3.3-2.8,7-5,10.12a10.76,10.76,0,0,0-1.42,3.39,3,3,0,0,0-.08,1.62c.33.66,1,.89,1.52,1.38a4.14,4.14,0,0,1,1,3c-.05.76.51,1.42.36,2.2-1.2,2,.37,4.08-.26,6-1.49,4.44-3.52,8.62-7.42,11.56a.7.7,0,0,1-.7-.74c.71-2.77,2.78-4.85,3.78-7.46.53-1,1.52-2,.34-3.21-.81-.15-2,.85-2.3-.77-.08-.45.05-1-.35-1.33-3-2.26-3.09-2.62-.63-5.85-1.88,1.84-3.52,3.38-6,1.86a2.22,2.22,0,0,1-1.06-.9c-.32-.72.32-1,.66-1.43-2.36.88-5.92-.94-6.86,3.12A16.25,16.25,0,0,1,147.64,85a2,2,0,0,1-1,.26,1,1,0,0,1-.7-1.47A1.15,1.15,0,0,1,146.85,82.57Z"/><path class="cls-47" d="M89.58,194.15c-.18-1.27-.8-2.62-.1-3.82,4.3-7.34,4.64-15.52,5.26-23.66A9.28,9.28,0,0,1,95,165.3c.34-.68.77-.59,1.24-.15,1.61,5.55-.32,10.91-1,16.34-.26,2.19-1,4.32-1,6.66a61.37,61.37,0,0,0,11.54-12.76c1.83-2.74,1.35-6.7,4.78-8.83,1.33-.82,1.14-3.05,1.66-4.59,1.7-5,6.7-7.39,8.78-12.05a62.12,62.12,0,0,1,6.41-11.37,4.07,4.07,0,0,1,.58-1.6,21.81,21.81,0,0,1,3.83-3.79,23.38,23.38,0,0,0,8-11.69,21,21,0,0,1,12-13.92c1.16,1.26,0,1.77-.78,2.42-6.47,4.21-8.56,11.19-11.32,17.76-1.3,3.08-3.84,5.32-6.22,7.4s-3.38,4.52-4.67,7a64.19,64.19,0,0,1-10.72,15.29c-2.55,2.65-2.72,6.29-4.47,9.29A115,115,0,0,1,98.5,187.6c-1.85,2-3.57,4.1-5.27,6.21C92.07,195.24,90.91,195.33,89.58,194.15Z"/><path class="cls-44" d="M155.4,10.59c1.92-.28,4-1.1,5.34,1.16-.16.61-.65.69-1.15.77-2.72.5-2.21,3.34-3.51,4.89-1,1.16-1.34,2.74-2,4.13-.34.73-.75,1.61.27,2.17s1.32-.64,1.93-1.06c.12-.84,1.81,1.59,1.34-.67a3.25,3.25,0,0,1,.75-2.89,1.36,1.36,0,0,1,1.86-.16,2.28,2.28,0,0,1,.57.83,6.88,6.88,0,0,0,1.44,3.62c1,1.3.75,2.42-.51,3.39-1.76-.46-3,.37-4,1.67a2.92,2.92,0,0,1-1.42-.34c-.64-.19-1.12-1.1-1.94-.39a7,7,0,0,0-.43,1.78,3.22,3.22,0,0,1-.38,1.36,1,1,0,0,1-.84.31c-.5.83-1.16-2.66-1.58.08a6.78,6.78,0,0,0-.21,1.95c.39,4.77-1.38,8.78-4.33,12.38-1,.27-1.41-.49-1.14-1.07.91-2-.57-.61-1-.75-1.48-3.63.79-6.49,1.93-9.59a5.31,5.31,0,0,1,.6-.81c1.91-2.8-.45-3.83-2.14-5.13a1.9,1.9,0,0,1-.48-.85c.33-2.77,1.48-3.88,4.59-1.75-2.37-4.16,2-5.35,2.86-8a2.24,2.24,0,0,1,.61-.75c1.74-1.47,2.09-3.5,2.31-5.6A.88.88,0,0,1,155.4,10.59Z"/><path class="cls-48" d="M175,23.87c-.75,1.95-2.72,2.91-4.3,4.94,3.71-.14,4.44-3.21,6.08-4.84,3-3,3-3.37,5.26.05,1.23,1.91,2,1.81,3.37.36,1.15-1.21,2.14-2.82,4-2.91a3.33,3.33,0,0,1,3.5,2.47c.48,1.61.1,3.1-1.76,3.75a2.12,2.12,0,0,1-.77-2.15c-2.29-1.62-3.39.2-4.28,1.69A20.05,20.05,0,0,0,184.66,32c-.33,1.14-.39,2.4-1.56,3.1a4.3,4.3,0,0,1-.88.45c-1.36.17-2.07,1.55-3.37,1.83a1.27,1.27,0,0,1-.81-.55c-.14-2.2-.66-4.45.84-6.43,1.56-.3,3.63-.15,2.52-2.83-.28-2.56-3-.62-3.84-2.06-.36.27,0,.51.07.71.2.47-.39,1.68,1,1.1,1-.42,2.1-1.59,2.8.36a2.23,2.23,0,0,1-1.78,2.22,20.71,20.71,0,0,0-6.59,4.25,1.25,1.25,0,0,1-.71-.7c-.3-1.33.67-2.16,1.35-3.32.15-.23-.63-.06-.17.06.09,0,.08.15-.08.32-2.23,2.55-3.67,6.38-8.27,5.1-.29-2.43,2.17-2.06,3.21-3.14.47-.49,1.24-.88,1-1.71-.24-.67-.89-.63-1.51-.51-1.83.36-1.7-.77-1.31-1.89,1-2.79,3.14-3.86,5.93-4C173.26,24.06,173.93,23,175,23.87Z"/><path class="cls-49" d="M173.29,76c-.67-.56-1.73-.87-1.38-2.1,1.86-2,.83-5.13,2.81-7.07a2.86,2.86,0,0,1,.63-.8l.44-.24a5.33,5.33,0,0,1,3.44.53c2.72,2.34,2.21-1.32,3.39-1.84a20.06,20.06,0,0,1,3.89-3.17c.7-.48,1.69-.84,2.21.11s-.25,1.52-.87,2.06c1.63-.68,2.75-2.95,5.07-2.07.66.29-.52,1.64.88,1.52a2,2,0,0,1,.41.77,3.28,3.28,0,0,1,.15,1.78C186.64,67.62,180.21,72.33,173.29,76Z"/><path class="cls-50" d="M147.84,33.36l-.43.61c-2.32-.82-3.7-3.94-6.83-2.78a1.65,1.65,0,0,1-.71-2.14c1.08-1.25.27-2.6.17-3.91-.24-.6,3.13-1.47-.24-2-1.07-.16.11-1.19.4-1.62-1.9.79-.42,2.53-.7,3.84a1.9,1.9,0,0,1-.43.93,2.09,2.09,0,0,1-1.94.57c-1.44-2.84-.24-5.35,1-7.87a4.4,4.4,0,0,1,1.81-.69c.75-.23,1.43-.62,2.17-.88a4.65,4.65,0,0,1,1.39-.17c1.46.27,2.2-.86,3.13-1.6,1.44-1.27,2.61-2.65,2.21-4.77a2,2,0,0,1-.19-.87C152,8.7,151.24,11.2,151,12.9c2.32.36,1.78-3.78,4.44-2.31-.12.18-.25.35-.38.52-1.2,1.91-1.57,4.18-2.68,6.13l.1,0c-4.54,1.46-5.14,6.34-8,9.26-.23.24.25.86.37,1.32l0-.12C145.6,29.67,148.84,30.37,147.84,33.36Z"/><path class="cls-51" d="M213.7,50.63l.72-.05c2.56.7,1.18,1.93.33,3s-2.68,1.44-3.3,3C210,58.05,207.73,57.93,206,59a8.44,8.44,0,0,0-5.17.76c-1.35.63-2.77,1.53-4.38.61-.91-.88-1.4-2.16-2.64-2.73a2.41,2.41,0,0,1-.94-2.21c2.17-3.38,2.55-3.43,4.9-.59.56.68,1.25,1.24,2.15.8.74-.37.21-1,.14-1.6-.21-1.38.74-1.81,1.77-2.18,3.12-.05,3.23,1.47,2,3.73.62-1,.56-2.44,1.24-3.35,1-1.33,1.49-.46,1.56.76l0-.12c1.14,2,2.32,1.3,3.21-.11A4.19,4.19,0,0,1,213.7,50.63Z"/><path class="cls-52" d="M211.35,56.33c-.34-.68-1.64-1.34.22-1.93a14.58,14.58,0,0,0,3.27-1.9c1.53-1,0-1.35-.42-1.92a18.6,18.6,0,0,1,3.15-.17c1.15.12,2.7,0,3.12,1.31s0,3.49-1.05,3.87c-3.58,1.26-4.42,4.72-6.47,7.16-1.35,1.6-2.51,1.82-4.38.09,1.58,2.82,1.9,4.78-1.88,4.55,0-.16,0-.32-.08-.49.73-1.45.12-2.9,0-4.36,0-1-.21-2.18,1.44-2,2.6,1.1,4.7.93,5.14-2.41.36-2.74,2.95-2.67,4.83-3.84-2.34.75-4.1,2.22-6.41,2.25Z"/><path class="cls-9" d="M124,26.87c-2.4-2-.33-4.11-.2-6.18,0-.28.2-.39.47-.31,2.06.7,1.39-4.1,4.33-1.89-.09-1.68-1.75-3.06-.43-4.71,1.21-1.5,2.83-.69,4.32-1,.63-1.58-1.57-2.68-.74-4.25l.54-.1c3.4,1,3,4.06,3.51,6.65.12,1.44,1.76,2.86.08,4.34-1.37.23-1.92-.69-2.38-1.72s-.92-2-2.26-2.12c-.94,1,.35,2.3-.32,3.35-.5.83-1.47,1.15-2.07,1.88-.76,1.46.86,2.61.54,4a1.35,1.35,0,0,1-1.58.89c-1-.13-1.19-1.35-2.06-1.69-.61.67-.44,1.62-.92,2.3A1.48,1.48,0,0,1,124,26.87Z"/><path class="cls-50" d="M148.62,10c.18.13.36.27.55.39.24,1.58-.68,2.72-1.47,3.91a1.28,1.28,0,0,1-1.46-.07c-.76-.76-2.19-1.06-1.82-2.61,1.05-1.11,2.35-2.11,1.76-4-.13-1.38.19-2.79-.45-4.38-1.87,1.63-1.91,3.2-.39,4.93a1.36,1.36,0,0,1-.28,1.39,2.34,2.34,0,0,1-.86.51,2.67,2.67,0,0,0-2.85,2.13c-1.76,1.6-2.27-.25-3.14-1.13a10.91,10.91,0,0,1-.83-3.51,5.12,5.12,0,0,1,.78-3.47c2.35-1.38,2.54.13,2.62,1.95.56-1.35.21-3.18,2-3.85.22,0,.48.15.65.08,1.13-.48,1-2.85,2.66-2.22s2.07,2.6,2.39,4.4S147.64,8.21,148.62,10Z"/><path class="cls-53" d="M116.9,12.07c1.24-.1,1.24.87,1.45,1.67.64,2,1.6,4,.25,6.13A10.13,10.13,0,0,1,117,22.49a9.37,9.37,0,0,1-2.26,1c-1.53,1.52-2.8,4.09-5.38,1.32-1.33-1.7-.2-4.07.68-4.25,2.69-.55,2.17-2.44,2.51-4.08.67-.69,1.82-.68,2.31-1.62a4.49,4.49,0,0,0,.31-1.25C115.29,12.52,115.74,11.89,116.9,12.07Z"/><path class="cls-54" d="M204.15,37.79c.33,2.83,2.94,1.5,3.26,1,2.11-3.21,3.56-.92,4.84.51s2,2.72,4.9,1.78L212,45.27a1.24,1.24,0,0,1-.89-.35c.13-1.66-2.72-2.21-1.26-4.85a6.38,6.38,0,0,0-1.45,3.27c-.29.9-.84,1.5-1.83,1.15s-2-1-1.39-2.34c-.61.65-.72,1.81-1.89,1.91-.26,0-.61-.06-.59-.27.3-2.57-1.87-1.27-2.84-1.84-.45-2.3,2.11-2.6,2.78-4.16a2.67,2.67,0,0,1,.83-.53A.58.58,0,0,1,204.15,37.79Z"/><path class="cls-55" d="M168.16,12.61l1.7.28c.45,1.86-1.46,3.72,0,5.56a4.51,4.51,0,0,1,1.18,2.2c.33,1.83,0,3.38-1.93,4.09s-2.06,3.52-4.26,4.05c-1.63-.24-.84-1.52-1-2.38a11.37,11.37,0,0,1-.12-1.93c.65-1.39,2.12-2.45,1.72-4.26a10.2,10.2,0,0,1,0-2.47c.61-1.72.09-3.74,1.36-5.3C167.33,12.17,167.8,12,168.16,12.61Z"/><path class="cls-50" d="M151.17,110c.28-.75,1.08-1.31.79-2.26-.39-1.66.81-2.55,1.74-3.57,1.31-1.46,2.87-2.75,3.28-4.82a3.56,3.56,0,0,1,.14-2.19c2.67-1.26,4.8-3.59,7.89-4l.6.45C160.62,98.86,156.67,105.1,151.17,110Z"/><path class="cls-56" d="M120.59,27.94c1.08-.18,2.48,1.38,3.25-.58.84,1,.33,1.93,0,2.89a2.38,2.38,0,0,1-.94,1.09c-1.83.63-.19,3.79-2.51,3.74-1.52,0-1.67-2.59-3.47-2.74-.93-.32-2.52.52-2.54-1.42.58-1.24,2.07-1.5,2.77-2.61C118.06,25.72,119.41,27.65,120.59,27.94Z"/><path class="cls-33" d="M166.1,18.18l.19,2c-2.24,2.2-4,2-5.75-.62l-.11-.05a.63.63,0,0,1,.54-.83c.83-2.44,1.62-5,3.85-6.5,1-.71,2.58-2.31,3.34.42l-1,.19C163.58,15.77,163.55,16,166.1,18.18Z"/><path class="cls-57" d="M170.3,20.38l-1.05-1.54a1.26,1.26,0,0,1,.88-1.93c2.19-.1,2.32-2.05,3.3-3.23a1.32,1.32,0,0,1,1,1.33c0,2.31-2,5,1.32,6.69.29.15,0,1.58-.74,2.17l-2.25,1C173.48,22.54,171.25,21.8,170.3,20.38Z"/><path class="cls-58" d="M173.43,13.68c-.32,1.73.94,4.78-3,3.54-.2-.06-.77,1.06-1.18,1.62-.72.26-1.77.29-1.33-.67.79-1.72.46-3.84,1.94-5.28C171.09,13,172.4,12.67,173.43,13.68Z"/><path class="cls-59" d="M115.74,13.76l.14.84a1.28,1.28,0,0,1-1.65-.12c-2.14-2.88-4-2.71-5.68.39-.07.12-.41,0-.58-.25l-.51-1.51c1.15-1.7,1.8-3.71,4.39-4.19,1.68-.31-.23-2.38.76-3.38.15-.38.31-.36.49,0,0,1.82,2.2,2.86,1.67,4.84A7.16,7.16,0,0,0,115.74,13.76Z"/><path class="cls-7" d="M206.91,67.39c-3.43-1-6.69,1.46-10.12.48.09-.64.63-1,1-1.41-.07-3.56,0-3.59,4.13-3.13,1.25,1.85,4.33,1.48,5,4.07Z"/><path class="cls-60" d="M123.84,20.69c-2.26-.86-3.59-1.8-1.44-4.36.6-.71-.8-2.25-1.49-3.32,1.07-.52.62-1.7,1.07-2.47.65-1.11,1.48-1.55,2.39-.19.46,2.32.78,4.64-1,6.6-1.51,1.67.51,2.32.92,3.43l-.14.3Z"/><path class="cls-61" d="M188.74,29.84c.48,1.88-1.2,2.67-2.05,3.83-.69.95-.24,1.45.35,2.07s.88,1.36,1.64,1.09.16-1.27.43-1.88a2,2,0,0,1,1-.14c2.62,1,1.58,3,.71,4.31-1,1.48-2.29.19-3.26-.6a7.12,7.12,0,0,0-3.17-1.42,1.68,1.68,0,0,1-1-1.75c1-1.19,1.19-3,2.51-4C186.86,30.78,187.51,29.8,188.74,29.84Z"/><path class="cls-62" d="M204.15,37.79l-.94-.6a3.56,3.56,0,0,1-.4-4.27c.48-1-.13-1.12-.57-1.53,1.65-2.32-1.71-1.87-1.79-3.23,2.09-1.53,3.27.33,4.44,1.39a2.36,2.36,0,0,1,.26,3.51C203.91,34.46,204.47,36.21,204.15,37.79Z"/><path class="cls-63" d="M120.59,27.94c0,.45,0,1.15-.18,1.29-.82.48-.8-.36-1-.82s.16-1.38-.74-1.05c-.34.12-.41,1-.6,1.54a2,2,0,0,1-2.28-1.68c.08-.76.78-.95,1.25-1.35.75-1.32-.13-3.26,1.57-4.23.77-.26,1.59-.93,2.2.25C121.73,23.94,118.28,25.86,120.59,27.94Z"/><path class="cls-64" d="M142.77,2.25c-1.37,2-.66,4.81-2.5,6.8A16.34,16.34,0,0,1,140,4.74c0-1.79-1-.32-1.53-.26a1.11,1.11,0,0,1-1-.31c-.79-1.6-.43-2.45,1.5-2.39,1,0,2,.86,3,.29Z"/><path class="cls-60" d="M161,18.69l-.54.83c-.45-.28-.9-.58-1.47-.28-1.89-.16-1.33,2.63-3.12,2.6a2.9,2.9,0,0,1,.69-4.94c2.38-1.15,2.6-3,3.09-5l1.12-.16c1.37,1.8.42,3.51-.23,5.21C160.22,17.71,159.53,18.45,161,18.69Z"/><path class="cls-58" d="M200.45,28.16c1.33.64,3.54.63,2.29,3.14a1.31,1.31,0,0,1-.65,1.33c-1.24.33-2.46-.13-3.69-.13-.79-.16-1.46-.43-1.32-1.44.85-1,1.24-2.39,2.71-2.75A1.63,1.63,0,0,0,200.45,28.16Z"/><path class="cls-65" d="M206.67,53c-.69.35-.34-2.34-1.37-.54-.71,1.25-.92,2.79-1.59,4.18-.12-1.79,1.91-4.66-2.27-4,.63-2.89,2.86-3.39,5.3-3.58A1.68,1.68,0,0,1,208,50.36Z"/><path class="cls-30" d="M120.77,21.89,118.6,22a1.8,1.8,0,0,1-.8-2.24c1.5-1.89-.29-4.08.55-6C120.59,16,120,19.15,120.77,21.89Z"/><path class="cls-20" d="M199.79,28.31,197,31.71l-.33.33c-1.23.66-2.71.66-3.86,1.51a20.53,20.53,0,0,1-2.64,1.9l-1.06-.5c-.3-1.35.71-2,1.59-2.42C193.69,31.05,196.76,29.7,199.79,28.31Z"/><path class="cls-40" d="M116.58,3.94c3.91.82,3,3.52,2.42,6.62-1.42-2-.5-4.86-3.07-5.64a.67.67,0,0,1,0-.71A.75.75,0,0,1,116.58,3.94Z"/><path class="cls-24" d="M208,50.36l-1.37-1c1.43-1.7,2.68-3.58,4.85-4.48a.73.73,0,0,1,.57.37C212.13,48.11,210.21,49.36,208,50.36Z"/><path class="cls-66" d="M190.86,25.52l.33,2.17a3.53,3.53,0,0,1-2.25,1.74c-1.3-.64-1.18-1.82-1.13-3a2.58,2.58,0,0,1,2.62-2C191,24.45,191.62,24.8,190.86,25.52Z"/><path class="cls-65" d="M124.37,10.35c-.81-.4-1.63-.9-2,.49-.25.85-.38,1.82-1.43,2.17l.32-3.22c.28-.31.69-.2,1-.32l1.88-2.6A4.75,4.75,0,0,1,124.37,10.35Z"/><path class="cls-32" d="M213.7,50.63c-1.56.76-3,1.41-4,3.12-1.44,2.44-2.58,1.35-3-.89,1.29.85,2.25.76,3-.77A2.84,2.84,0,0,1,213.7,50.63Z"/><path class="cls-67" d="M77.09,95.47c.5,0,1.51-.3,1,.69-1,2.09-2.26,4-3.5,6.23-.64-2.2,1.12-3.51,1.32-5.24Z"/><path class="cls-15" d="M116.58,3.94a4,4,0,0,0-.24.38c-.72.22-1.11-.15-1.37-.76-1.38-.08-1.41,1.14-1.87,1.95a.48.48,0,0,0-.49,0c.08-2.29,1.7-3.51,3.5-5.48Z"/><path class="cls-68" d="M198,67.35l-1.24.52C196,67,195.5,66,194.36,65.51c-.54-.58-1.21-1.12-.63-2.05a3.86,3.86,0,0,1,3.27.66A5.21,5.21,0,0,1,198,67.35Z"/><path class="cls-69" d="M188.21,27.05c1.39.45.27,1.65.73,2.38a.27.27,0,0,1-.2.41c-.82.7-1.07,2.05-2.45,2.12C185.4,29.52,185.53,29.21,188.21,27.05Z"/><path class="cls-70" d="M122.26,9.47c-.25.4-.57.59-1,.32-.89-1.93-.49-4.17-2.1-6.64C122.37,4.89,121,7.74,122.26,9.47Z"/><path class="cls-57" d="M142,2.07c-.88,1.35-1.93.1-2.88.11-1.62,0-1.85.62-1.26,1.93-.44.49-.87.82-1.25-.05C136.81.61,137,.55,142,2.07Z"/><path class="cls-30" d="M136.61,4.06l1.25.05.6.37-.61,3.46c-1.88.57-2.13-.76-2.42-2.07a2.28,2.28,0,0,1,1-1.28A.85.85,0,0,0,136.61,4.06Z"/><path class="cls-71" d="M115,3.56l1.37.76-.41.6c-1.39,1.78,1.41,2.43.89,4.35C114.89,7.63,113.37,6.19,115,3.56Z"/><path class="cls-72" d="M136.41,4.59l-.92,1.59c-.43,1.88-1.73,2.49-3.51,2.4h-.19C132,5.71,135.12,6.2,136.41,4.59Z"/><path class="cls-39" d="M123.51,29.89c-.82-1,.74-1.61.33-2.53a3.58,3.58,0,0,0,.2-.49,3.8,3.8,0,0,1,.42-.57c.88.1,2.49-1.1,2.44.73A2.88,2.88,0,0,1,123.51,29.89Z"/><path class="cls-73" d="M115.74,13.76c-1.15-.9-2.56-1.72-1-3.41l2.13,1.72C116.25,12.46,115.59,12.83,115.74,13.76Z"/><path class="cls-4" d="M133.9,56.29c-.56,3.42-3.39,5.08-5.64,7.15-3.43,3.14-6.1,6.71-6.9,11.42.43,1.69-.45,2.94-1.32,4.27-2.33,3.59-5.59,6.54-7.4,10.49a62.85,62.85,0,0,0-5.08,10.31c-1,2.49-2.21,4.89-3.14,7.41-.83,1-1.29,2.4-2.55,3.1-2.17.25-3.48,1-4.13,3.53a9.7,9.7,0,0,1-6.48,6.51c-1.15.42-1.91.81-2.23,1.94-.77,2.68-2.62,3.61-5.22,3.11-3.06-.59-4.92,1-5.89,3.51-1.15,3-3.81,5.19-4,8.75a10.38,10.38,0,0,0-4.53-6.25c-1.71-1.07-1.31-5.08.18-6.56,2.17-2.14,4.31-4.3,1.59-7.66-1.3-1.61-.47-2.93,1.55-3.32a5.19,5.19,0,0,1,1.76-.22c5.36,1,5.6-3.34,6.79-6.62.52-1.43-.88-1.45-1.6-1.9-1.71-1.07-2.85-2.38-1.61-4.4,1-1.64,1.83-3.65,4.55-1.67,1.87,1.36,3.78-.51,4.32-1.92.91-2.34,2.25-2.61,4.38-2.61,2.38,0,3.64-2.89,1.78-4.34-4.13-3.23-.86-4.59,1.17-6.41-3-3.52-3.07-4.48-.19-6.85a41.82,41.82,0,0,0,5.86,4.5c.41.25.38-.57.21-.12,0,.12-.15.12-.33,0a24.16,24.16,0,0,1-5.72-4.65c.05-4.5,3.57-7,5.93-10.18.39-.52,1.1-.83,1.59-1.37,2.43-2.67,3.19-2.55,5.42.72,0-1.44-2.57-1.92-1.67-3.43s2.38-.43,4.19.41c-1.83-1.16-3.94-1.1-3.33-3.5a16.31,16.31,0,0,1,3.65-4.73c1.5-1.45,2.81-1.52,4.11.11-.44-.89-1.63-1.86-.41-2.92s2.42-.64,3.4.51a5.2,5.2,0,0,0,3,1.67c-.85-.42-1.74-.43-2.35-1,.14-2,1.25-3,3.21-2.25A25.92,25.92,0,0,0,127.65,53c1.42.17,2.21,2.48,2.85,3.88C131.86,56.94,132.18,53.06,133.9,56.29Z"/><path class="cls-74" d="M117.36,53.32c-1.28-.21-2.36-2.49-3.67-.89-.91,1.11,1.37,1.89,1.38,3.21-4-2.07-4-2.07-8.57,4-.38.15-.55,0-.51-.38,2.9-6,8.14-9.49,13.84-12.4,1.45-.75,3.22-1.09,2.87-3.33-.11-1.64,1-2.18,2.29-2.51,1.26,1.21,2,1.4,2.64-.7,1-3.32,1.9-6.67,3.07-9.94a2.06,2.06,0,0,1,.79-.64c.86,0,1.14.66,1.47,1.27a4.28,4.28,0,0,1,.47,2c-.83,3.55-3,6.62-3.52,10.27a3.72,3.72,0,0,1,.57.48,1.17,1.17,0,0,0,.63.31c2.28-.84,2.13.49,1.81,2-2.17,1.81,1.36,2.07.94,3.4.26,2.24,2.23,4.23.95,6.69l-.91.15c-.7-1.95-1.15-1.24-1.61.13-.31.92-.12,2.48-1.69,2.11-.79-.19-1-1.5-1.48-2.18-.83-1.16-.94-4.2-3.78-2.31-.41.28-.81.71-1-.45-.37-2-4.83-2.46-6.58-.86.12.26.1.44,0,.52S117.42,53.36,117.36,53.32Z"/><path class="cls-4" d="M108.43,145.74c2.89-3.23,4.21-7.33,6.1-11.11.28-.56.54-1.19.12-1.68s-1.08-.19-1.63.06c-1.15.51-2.46,1.67-3.24-.35-.66-1.71.12-2.82,1.57-3.92a42.14,42.14,0,0,1,11.9-6.81c1.64-.57,2.32-2,.47-3.55-3.2-2.74-3.07-5.78.19-10.19,2.3-3.11,5-3.45,8.76-1.1-.8,4.11-2.18,5-6.53,4.14,3.42,1.1,4,2.1,2.82,5.28a18.49,18.49,0,0,1-8.32,9.85c-3,.4-5.14,2.89-8,3.84,2.15-.42,3.56-2.25,5.53-3,1.27-.46,2.37-.94,2.49,1.09-1.11,3.5-3.51,6.35-4.92,9.7a45.47,45.47,0,0,1-4.22,6.08C110.79,145.08,110.09,146.39,108.43,145.74Z"/><path class="cls-66" d="M108.43,145.74c3-2.09,4-5.74,6.58-8.2.36-.76.52-1.84,1.8-1.12a2.55,2.55,0,0,1-.38,2.07C110,147.67,104.86,157.84,95.84,165l-.81.29c-1.63-1.33-2,.5-2.73,1.17-4.68,4.45-7.82,10-10.92,15.53-.36.64-.54,2.11-1.89,1.52a1.64,1.64,0,0,1-.83-2.38,3,3,0,0,0,1-1c2-1.59-.21-3.52.43-5.22,2,.6,3.42.2,4.51-2,1.51-3,4-5.35,6.47-7.57,1.32-1.17,1-1.8-1.28-2.83,5.7.56,7.76-3.18,10.59-5.69,1.19-1.59,1.79-3.58,3.38-4.9.06-.05,1-.18.11-.64-1.5-.74-.92-1.92-.06-2.54,1.51-1.08,2.67-2.76,4.69-3.06Z"/><path class="cls-30" d="M116.58,136.4,115,137.54l5.25-9.81c.59-.9-.57-1.06-.71-1.65a18.29,18.29,0,0,0,7.5-7.89c2.52-5.56,3-4-1.67-7.9,4,2,5.71-.39,7.29-3.2,5-5,7.94-11.2,11.24-17.24.84-1.56,1.83-3,2.75-4.55l.64-.71c1.15,1.25.35,2.51-.1,3.67A74.15,74.15,0,0,1,136,107.36c-.95,1.22-2.39,2.21-2.88,3.64-2.86,8.29-9.67,14.21-13.12,22.14C119.33,134.62,118.68,136.33,116.58,136.4Z"/><path class="cls-59" d="M106,59.27a2.42,2.42,0,0,0,.51.38c.16,1.88,2.5,1.72,3,3.43-1.28.05-2.48-1.5-4.09-.17l3.46,4.41a8.14,8.14,0,0,1-1.45-.87c-2-1.93-2.85-3.73-5.88.08-2.6,3.27-5.46,6.33-7.42,10.1.19.26.21.43.06.52s-.28.13-.36.07c-2.72,3.31-.55,5.18,2.28,6.76-.87.75-1.28-.07-1.81-.07-1.19-1.1-2.12-2.65-3.4.22-.65,1.47-2.55,2.47-4,3.46s-1.35,1.75.24,2.75c-4.55-1.83-5.46,2.58-8.52,4.52,2.94-5,7-7.84,10.7-11,.83-.7,1.76-1.17,2-2.38,1.48-8.24,6.49-14.23,12.6-19.45A14.19,14.19,0,0,0,106,59.27Z"/><path class="cls-14" d="M125,41.5l-2.28,2c-2.13-3.48-2.06-8.07-5.54-10.86-.72-.15-.54-.48-.16-.85,1.75.41,2.45,2.09,3.86,3.54l.37-5.65c1.52-.28.84,1.11,1.29,1.62,2,2.25,2.72,5.09,3.4,7.91C126.11,40,126.36,41.2,125,41.5Z"/><path class="cls-4" d="M108.45,145.72c-1.14,2.17-3.65,2.85-5.19,4.52.45,1.18,1.23.31,2.18.65-1.4,2.33-2.75,4.54-5.11,6-.23-2.48,2-4.84.37-7.41a1,1,0,0,1,.35-.95C103.52,147.59,105.26,144.68,108.45,145.72Z"/><path class="cls-54" d="M56.77,136.76c-3,6.86-3.75,14.46-6.85,21.29-.15.33.15.87.24,1.31a1.6,1.6,0,0,1,.89.34c.42,2.66-1.62,1-2.51,1.44a.84.84,0,0,1-.67-.61c3.49-7.52,4-16.05,7.76-23.46C55.84,136.33,56.24,136.28,56.77,136.76Z"/><path class="cls-75" d="M108,14.62c.67-1,1.33-2.07,2-3.09.54-.82,1.21-1.55,2.28-1.37,2,.33,0,1.59.34,1.94a26,26,0,0,0,3.28,2.5c-.24,1.53-.88,2.48-2.63,1.83-.73.51-1.67-.7-2.34.31A2.58,2.58,0,0,1,108,14.62Z"/><path class="cls-76" d="M82.64,133.06c5.09-4.87,9.46-10.56,16.43-14.53l-1.51,2.88c-.31,1.86-2.11,1.31-3.17,2A114,114,0,0,1,82.8,134.17C82.16,133.88,82,133.53,82.64,133.06Z"/><path class="cls-35" d="M112,89.91c1.83-3.91,4.62-7.19,7-10.71a13.2,13.2,0,0,0,2.32-4.34l.62.44c1.22,2.15,4.6.77,5.38,3.53-1.57-.4-3.21-1.6-4.93-1.08-2,.6-2.46,2.76-3.65,4.19s-2,3.55-3.89,4.53C114.09,87.76,113.62,89.31,112,89.91Z"/><path class="cls-48" d="M116.14,26.63c0,1.31,1.28,1.5,1.89,2.27-.68,1.33-2.07,1.45-3.28,1.89a.52.52,0,0,1-.62-.5c.46-2-.57-2.43-2.17-1.87-.86.31-1.4,1.3-2.4,1.51a.55.55,0,0,1-.58-.6c.33-1.39,2.9-2.6.34-4.23-.14-.26-.13-.42,0-.48s.26-.07.33,0c1.51.54,3.79,2.87,3.14-1.48-.1-.72,1.17-.31,1.81-.45C115.88,23.7,116.06,25.15,116.14,26.63Z"/><path class="cls-77" d="M65.19,149.93c4.37-4.55,8.61-9.23,13.41-13.34,1.14.81.06,1.21-.32,1.74-3.57,4.63-8.31,8-12.55,12C65.35,150.47,65.18,150.33,65.19,149.93Z"/><path class="cls-14" d="M87.2,142.78,81.71,157l-1.07-.4c2-4.75,2.93-9.91,6.09-14.25C87,142.34,87.19,142.47,87.2,142.78Z"/><path class="cls-78" d="M109.66,24.61a1.39,1.39,0,0,0-.34.49c-2.33-1.85-.65-3.69.41-5a4.33,4.33,0,0,0,1.18-3.35c-.22-.25-.62-.49-.65-.76-.06-.56.44-.39.72-.31.76.22,1.68,0,2.27.76-.85,1.63.71,2.69,1.09,4.3C111.8,20.88,108.12,19.86,109.66,24.61Z"/><path class="cls-79" d="M94.39,123.36c.54-1.5,2.46-.74,3.17-2A40.57,40.57,0,0,1,90.29,135c1.48-3.38,3.46-6.55,4.54-10.1C95,124.23,95.58,123.6,94.39,123.36Z"/><path class="cls-35" d="M112,89.91l2.89-3.44L108.54,98.9c-.43.57-.43,1.85-1.7,1C108.28,96.45,109.6,92.9,112,89.91Z"/><path class="cls-80" d="M56.77,136.76l-1.14.31c1.2-4.69,3.4-9,5.5-13.27.39-.15.71-.53,1.19-.31Z"/><path class="cls-59" d="M80,181.09l-1.35,0a29.6,29.6,0,0,1,.06-13.21l.48,0,.12,6.59C79.67,176.68,80.53,178.81,80,181.09Z"/><path class="cls-81" d="M62.32,123.49l-1.19.31c.22-.75.44-1.5.65-2.25v0c2.1-2.34,2.58-5.7,4.94-7.87,1.25,1-.56,1.54-.3,2.38Z"/><path class="cls-82" d="M65.19,149.93a5.22,5.22,0,0,0,.54.38l-7.16,6.38c-1,.91-2,1.74-3.7-.14,2.37.6,3.42-.54,4.25-2,.14-.9,1-.63,1.51-.92Z"/><path class="cls-83" d="M45.78,166.22c.18-2.18,1.23-3.9,2.09-5.69.19.14.39.27.59.4.94,1.37,2.12.42,3.22.32a1.09,1.09,0,0,1,.6.71c-1.55,2.3-4.12,3-6.5,4.26"/><path class="cls-68" d="M66.42,116.1l.3-2.38c2-3,3.94-6.13,6.1-9,.78-1,1,.21,1.26.74a.91.91,0,0,1,.79.85,3.63,3.63,0,0,0-3.66,2.08C69.7,111,68,113.52,66.42,116.1Z"/><path class="cls-84" d="M80,181.09c-1.12-2.11-1-4.35-.69-6.6l.72.42C82.58,177,81.75,179,80,181.09Z"/><path class="cls-54" d="M78.72,167.93c0-3,.06-6,2.44-9.55a39.76,39.76,0,0,1-2,9.52A.78.78,0,0,0,78.72,167.93Z"/><path class="cls-85" d="M52.28,162l-.69-.45c-.76-.3,1.48-1.7-.56-1.54l-.87-.61a2.36,2.36,0,0,1,.61-.38c1.64-.39,3.76-2.34,4.77-.47C56.22,159.77,53.75,161.07,52.28,162Z"/><path class="cls-86" d="M63.7,136a6.09,6.09,0,0,1,4.64,5,6.16,6.16,0,0,1-.28,1.9c-.78-.13-1.56-.67-1.49-1.31C66.79,139.32,65.24,137.92,63.7,136Z"/><path class="cls-76" d="M141.92,61.25c2,.14,3.54,1.88,5.65,1.66-1,0,0,2.91-1.85,1.48C144.44,63.38,140.61,65.32,141.92,61.25Z"/><path class="cls-87" d="M114.46,30.58a.25.25,0,0,1,.29.21c-.09,2.17,1.73.21,2.25,1l.16.85c-3-.5-6.27-.25-8.18-3.35l.66.51C111.44,28.85,112.94,29.77,114.46,30.58Z"/><path class="cls-88" d="M60.63,153.6l-1.51.92c-.84-2.33-2.77-3.31-5.39-3.74C57.67,148.76,59,151.47,60.63,153.6Z"/><path class="cls-36" d="M106.84,99.94c.8,0,1.21-.56,1.7-1a48,48,0,0,1-3.81,8.47c-.36.14-.49,0-.43-.35Z"/><path class="cls-9" d="M104.3,107a.92.92,0,0,0,.43.35c-1.41,2.78-2.43,5.77-4.6,8.66-.57-2.59,1.86-3.67,1.74-5.59Z"/><path class="cls-89" d="M70.49,136.89c-2-1.69-4.62-.93-5.45-3.46C67,133.91,69.51,133.09,70.49,136.89Z"/><path class="cls-90" d="M146.85,82.57,146,83.83l-5-3.59.29-.44Z"/><path class="cls-91" d="M78.28,138.33l.32-1.74c1.24-1.3,2.33-2.77,4-3.53l.16,1.11Z"/><path class="cls-86" d="M65.51,142.41c-1.31-.24-2.74-.26-3.81-1.67C63.67,140,64.46,141.55,65.51,142.41Z"/><path class="cls-86" d="M87.2,142.78l-.21-.23-.26-.17c0-.58-.28-1.85.76-1.23,1.25.75,2.84,1.22,3.62,2.79C89.43,144.66,88.83,141.91,87.2,142.78Z"/><path class="cls-92" d="M74.87,106.26l-.79-.85,5.31,1.53A4.15,4.15,0,0,1,74.87,106.26Z"/><path class="cls-4" d="M116.58,136.4c3.66-4.33,4.84-10.19,8.86-14.29a17.05,17.05,0,0,0,4.37-6.85c1.07-3.35,3.31-5.88,5.45-8.64,5.14-6.66,9.83-13.71,12-22,1.62-2.76,3.84-5.16,4.46-8.51a5.07,5.07,0,0,1,3.08-3.34c.32-.15.89-.46.94-.39,2.65,3.51,4.43-1.15,7-.82-.82,1.75-2.65,1.84-3.61,3,3.44,1.18,4.52,1,7.81-1.49a8.11,8.11,0,0,0-2.19,6.46c1.11,0,1.09-2.31,2.43-1.64,1.78.89-.47,2.37.35,3.59.61.43.93-2.39,1.83-.3.46,3.67-1.87,2.34-3.46,2.06,1,1,3.27-.15,3.91,2A41.71,41.71,0,0,1,165,93.09c-2.31,1.75-4.21,4.21-7.5,4.25-.47.31-1.15.68-.87,1.25s1,.31,1.58.28c-.1,2.69-2.31,4.06-3.72,5.92-.77,1-1.69,1.95-2.54,2.92-2.05,1.83-3.91,3.88-6.31,5.27-2,1.14-2.57,3.16-3.11,5.07-2.37,8.3-7.41,14.61-14.22,19.67-.62.23-.91.87-1.5,1.15a6.53,6.53,0,0,1,1.65-.12c0,.32.17.78,0,.93-3.94,3.77-5.1,9.23-8.26,13.46a15.75,15.75,0,0,1-3,3.5c-1.71,1.22-2,3.09-3,4.55-1.63,2.44-2,5.23-3.33,7.67-.92,1.66-2.12,1-3.58,1.07.92.89,2.4.94,1.39,2.68C105,179,100,184.27,94.88,189.52a1.22,1.22,0,0,1-1.84.27c-1.07-.78-.29-1.46-.1-2.18a76.05,76.05,0,0,0,2.9-22.6c0-2.7,2.3-3.72,3.87-5.26a45.58,45.58,0,0,0,9-11.5C110.86,144,114.58,140.79,116.58,136.4Z"/><path class="cls-4" d="M171.58,49.75c-.92,3.69-3.67,6.55-4.74,10.1-2.12,7-7.65,9.58-14.12,11.68-.33-3.74-.29-7.5-1-11.19-.19-1,1.47-2.45,2.42-3.59s2-2,3-3.07c1.42-1.07,2.19-2.78,3.7-3.75,1.22-.84,1.94-2.15,3-3.14.59-.58,1.24-1.09,1.87-1.62,2.36-2,3.09-1.82,4.23,1.08C170.43,47.45,171.31,48.46,171.58,49.75Z"/><path class="cls-6" d="M134.81,56.14l-1.49-6.45a3.43,3.43,0,0,1,.29-1.48A56.62,56.62,0,0,0,138.77,43c.89-1.1,1.89-2.17,1.08-3.77a6.83,6.83,0,0,1-.31-1c-.56-2.51,2-3.37,2.69-5.13-1.24.86-1.42,4-4.14,2.08a9.58,9.58,0,0,1-1.94-2.53c-.24-.9.39-1.23,1-1.56a6.63,6.63,0,0,1,3.42-.26c3.76-2.19,5.11.85,6.82,3.13-.89,3.24-3.37,6.06-2.65,9.74.76,2,0,3.32-2,4-1.27,1.42-1.11,3.33-1.67,5C140.22,55.37,137.22,57.05,134.81,56.14Z"/><path class="cls-44" d="M175.66,65.94l-.42,1c-.8,1.86-1.84,3.48-4,4-.69-.23-1.75.09-1.75-1.17.27-.37.56-.73.81-1.11s.63-.66.7-1.14a1.43,1.43,0,0,1-1.16.61,6.13,6.13,0,0,1,.92-3.8c3.7-2.82,5.86-6.86,7.84-10.84,1-2.1-1.45-3.66-2.79-5.22a3.15,3.15,0,0,1,1.27-2.34,1.6,1.6,0,0,1,2-.06c1.08,2.07,1.81,4.6,5,3.9a1.27,1.27,0,0,1,.48.83c.06,1.62-2,2.87-.78,4.69a2.52,2.52,0,0,1-.83,2.9C180.28,60.52,178.18,63.42,175.66,65.94Z"/><path class="cls-93" d="M146.09,45.57c2.15-4.11,4.6-8.12,4-13.07,3.37-1.18,4.85-.47,6.41,3.09A47.44,47.44,0,0,1,153.33,41c-1.62,2.44-4.47,3.89-5.46,6.83-1.71,2.73-1.71,2.73-2.8,1.59A2.87,2.87,0,0,1,146.09,45.57Z"/><path class="cls-53" d="M177.55,46.24,176.2,48.4A4.68,4.68,0,0,1,174,51.32c-1.06-1.12.16-2,.27-3.06-.68-1.86.47-3.58.4-5.39A2.41,2.41,0,0,1,175,42c1.86-.76.82-3.07,2.19-4.1,2.25.63,2.37-2.67,4.42-2.41,1.8,2.46,2.11,5.37,2.38,8.27.08,1,.17,2.1-.88,2.52-1.3.51-1.41-.75-1.93-1.52C180.12,43.08,179.74,43.26,177.55,46.24Z"/><path class="cls-94" d="M174,51.32c.75-1,1.5-1.94,2.24-2.92,3.07,1.06,4.21,3.84,2.9,6.51-1.61,3.29-4.08,5.92-6.34,8.71-.45.55-.91,1.61-2,.72,2.32-3.19,3.07-7.23,5.55-10.33,1-1.29-2.35-2.29,0-3.59C175.11,50,175.07,51.92,174,51.32Z"/><path class="cls-72" d="M171.58,49.75c-2.53-1-2.59-3.23-2.69-5.43-2.08.23-2.52,2.73-4.52,2.75-.9-.52-.4-1.13-.11-1.72a7.33,7.33,0,0,0,2.87-5.92,2.62,2.62,0,0,1,3.32-.76,2.24,2.24,0,0,1,.65.75c.4,1.38-1.34,2.13-1,3.48,3.42,1.39,3.42,1.39,1.88,6.3A1.4,1.4,0,0,0,171.58,49.75Z"/><path class="cls-95" d="M147.87,47.8c.81-3,2.88-5.16,4.79-7.44,2.22-1.57,2.76-4.58,5.15-6,1,1.25.19,1.87-.84,2.41L155.36,39c-.34,4.24-3,7.2-5.65,10.16-.78.32-.72,1.54-2,1.67.05-2.82,2.83-4.16,3.45-6.68C149.46,44.89,149.2,46.83,147.87,47.8Z"/><path class="cls-96" d="M172,49.2c-.21-.27-.68-.68-.61-.8,1.1-2,1.74-3.88-1.46-4.57-.18,0-.23-.62-.34-.95.51-3.25,2.83-1.35,4.42-1.55a1.55,1.55,0,0,1,1.09,1.2v-.07a10.61,10.61,0,0,1-1.81,6C173,49,172.64,49.39,172,49.2Z"/><path class="cls-94" d="M157,36.77c.39-.72,1-1.35.88-2.28-.65-1.9,1.49-3.09,1.24-4.89.2-1.78,1.58-2.35,3-2.91.67-.65,1-1.6,1.89-2.07.17.51.91.78.62,1.48A16.05,16.05,0,0,1,161.52,32,6.62,6.62,0,0,0,160,36.64a.81.81,0,0,1-.86.51C158.41,37.06,157.57,37.63,157,36.77Z"/><path class="cls-76" d="M159.15,37.15a4.25,4.25,0,0,0,.48-.47,3.72,3.72,0,0,0,.9-.32c1.13-.2,2.3-1.74,3.37.11.53,3.33.33,6.35-3.3,8a1.15,1.15,0,0,1-.92-.36,1.86,1.86,0,0,1,0-1,4,4,0,0,1,.5-.91c-.28.22-.47.53-.77.73a1.85,1.85,0,0,1-1,.3,1,1,0,0,1-.59-.85c0-1.89,2.29-2.43,2.54-4.19Z"/><path class="cls-21" d="M156.1,52.89c-1.32.51-1.49,4-4,1.54-.2-2,1.25-2.75,2.57-3.63,1.73-1.55,3.16-3.5,5.64-4a1,1,0,0,1,.64.93C160.68,50.71,157.89,51.32,156.1,52.89Z"/><path class="cls-30" d="M149.71,49.11,155.36,39c1.83,3.92-1.93,5.58-3.31,8.21a2,2,0,0,1-1.78,2.36l-.3-.19Z"/><path class="cls-94" d="M158.51,42.92c1.06-.83,1.43-2.46,3.34-2.77-.11,1.71-1.75,2.41-2.11,3.75A12,12,0,0,1,156,48.76a2.57,2.57,0,0,1-1.66.22c-1.62-.71.3-1.09.15-1.67C154.93,45,156.66,43.91,158.51,42.92Z"/><path class="cls-97" d="M146.09,45.57l-1,3.82c-1.41.33-2-.47-2.28-1.68a9.23,9.23,0,0,0,2-4l1.32-1.66C146.63,43.36,145.26,44.44,146.09,45.57Z"/><path class="cls-98" d="M169.89,85.15c-2.08-1.09-4.6-1.16-6.61-2.66,1.94-1.74,5,3,6.16-1.38C171,82.3,171,83.67,169.89,85.15Z"/><path class="cls-99" d="M156.1,52.89c1.28-2.08,3.67-3.26,4.57-5.64,1.84,1.5-.65,1.94-.48,2.87.49-.2.66-1.82,1.8-1,.45.33-.09,1.05-.6,1.41a11.79,11.79,0,0,1-4.21,3.12l.33-.92Z"/><path class="cls-100" d="M171.26,71c1.17-1.49,3.17-2.18,4-4-1.63,2.09,0,5.73-3.33,7C173.27,72.6,171.58,71.93,171.26,71Z"/><path class="cls-101" d="M154.37,49c.19-.39.46-.55.88-.34,1.89.88-.3,1.74,0,2.61a6.15,6.15,0,0,0-3.11,3.18c-1.9-1.21-1.63-2.29.15-3.34C153.15,50.58,154.87,50.86,154.37,49Z"/><path class="cls-102" d="M160.38,38.13c.39,2.09-1.76,2.9-2.28,4.52-.55,1.27-1.24,2.26-2.85,1.46C156.67,41.87,158.06,39.6,160.38,38.13Z"/><path class="cls-103" d="M170.65,55c.53,1.75-.72,3.06-.56,4.58.07.67-.29,1.09-1.08.82-.6-.19-1.2-.39-.72-1.17C169.1,57.88,169,56,170.65,55Z"/><path class="cls-104" d="M155.25,44.11c1.3.19,1.89-1,2.85-1.46l.41.27a17.94,17.94,0,0,1-4,4.39C153.27,45.9,154.43,45.05,155.25,44.11Z"/><path class="cls-84" d="M150.27,49.52l1.78-2.36c.2.52,1.7.17.93,1.32s-1.64,2.28-2.56,3.55C149.48,51,150.42,50.25,150.27,49.52Z"/><path class="cls-56" d="M169.86,68.14c.91-.54,1-2.17,2.93-2-1.14,1.44-1,3.54-3.28,3.6C169,69.09,169.77,68.69,169.86,68.14Z"/><path class="cls-60" d="M173.24,48.46c.6-2,1.21-4,1.81-6,.72,2.07-.07,3.94-.82,5.8Z"/><path class="cls-105" d="M128.47,138.75c-1.27.33-1.93,2.54-4,1.16a9.57,9.57,0,0,1,3.89-2.19Z"/><path class="cls-106" d="M159.62,11.91c1.34,3.07.76,3.88-2.08,5.05-2.16.9-3,2.83-1.19,5,.29.19.3.4.05.63,0,2.2,0,2.2-4.18,1.75.81-3.79,3.35-6.81,4.51-10.33C157.37,12.13,157,10.52,159.62,11.91Z"/><path class="cls-107" d="M144.8,27.78c-.84-.62-2.6-1-.41-2.27,1.51-.9,1.89-2.52,2.34-4.2.74-2.75,2.83-4.09,5.71-4.11-.33,1.86-.43,3.89-2.94,4.23-.24,0-.83-.15-.39.35a2.59,2.59,0,0,1,.7,2.88A29.73,29.73,0,0,0,149,27.8c-1.46-.51-1.34-2.34-2.48-3.14C145.38,25.39,145.17,26.63,144.8,27.78Z"/><path class="cls-108" d="M164,24.62c-.22,1.06-.55,2.05-1.73,2.41a.46.46,0,0,1-.58-.44c.41-1.31.62-2.49-.63-3.64-.94-.85-1.85-2-.48-3.38,1.81,1.18,3.67,2,5.75.62C166.81,22.34,165.57,23.58,164,24.62Z"/><path class="cls-75" d="M161.65,26.59l.58.44a6,6,0,0,0-2.76,2.69c-.14,1.58-.78,2.49-2.54,1.94-1.36-1.52-.55-2.56.78-3.49l.9-3.43C159.92,24.68,160.13,26.79,161.65,26.59Z"/><path class="cls-58" d="M152.34,17.24c-.33-2.58.07-4.84,2.68-6.13C156.09,13.84,154.56,17.34,152.34,17.24Z"/><path class="cls-75" d="M147.84,33.36c0-1.46-1-2.21-2-3s-2.17-1.24-1-2.71c2.38,0,3.43,1.68,4.07,3.58C149.07,31.94,149.82,33.45,147.84,33.36Z"/><path class="cls-58" d="M156.4,22.63a1.22,1.22,0,0,0-.05-.63,13.69,13.69,0,0,1,.74-3c.62-1.22,1.37-1,1.87.22-1.32,1.34-.07,3.15-.78,4.68Z"/><path class="cls-109" d="M156.09,35.22a6.15,6.15,0,0,0-6-2.72c-.33-.62.07-1.08.36-1.56.87-.35,1.64.37,2.48.23l.48-.68c2.36.34,3,2.14,3.47,4.08A.71.71,0,0,1,156.09,35.22Z"/><path class="cls-110" d="M157.71,28.17c.12,1.09-1.61,1.51-1,2.78a1.5,1.5,0,0,1-1.6.32c-.7-.63-1.6-1.06-2-2-.63-1,.79-1.22.72-2,.91-.28,1.75.87,2.68.12Z"/><path class="cls-56" d="M153.08,29.31l2.69,1.82c2.33,1.34,2.39,1.56.94,3.31l-3.3-3.95Z"/><path class="cls-107" d="M156.48,27.43c0,.59,0,1.6-.54,1.54a2.93,2.93,0,0,1-2.14-1.66c-.44-.37-1-.7-.6-1.39a.81.81,0,0,1,1.19-.31C155.14,26.16,155.79,26.82,156.48,27.43Z"/><path class="cls-111" d="M152.93,31.17c-.94,1.2-1.7.41-2.48-.23l.89-3.67C152.12,28.9,151.7,30.38,152.93,31.17Z"/><path class="cls-112" d="M163.81,36c-1.4-.39-2.13,1.28-3.45,1.13a9.75,9.75,0,0,1,4.16-8.57c2-1.55,2.44-4.79,5.74-5.22.93-.13-.31-1.9,0-2.92l4.38,1.55-1.94,2.95c-.57,1.14-1.55.29-2.29.48-2.12.55-2.42,2.8-3.76,4.33,1.59-1.67,3.22-1.1,4.08.22,1,1.48-.78,2.47-1.73,3.25a23.56,23.56,0,0,1-4,2.2C164.82,36,164.37,36.07,163.81,36Z"/><path class="cls-106" d="M163.81,36l1.21-.6c4.44.26,6.29-3.45,9.14-5.94l-1.51,4.19c.11,2.2.11,4.35-2.39,5.37-1,0-2.09-.18-2.91.67-1.17,3.3-4.24,4.65-6.76,6.54-.42.32-1.17.59-1.41-.28s.46-1.25,1-1.67c1.6-1.76,4.1-3.11,2.51-6.23C162.3,37.19,163.49,36.68,163.81,36Z"/><path class="cls-113" d="M173.26,34.1c.22-.42.34-1.05.69-1.23,1.06-.53-.3-4.9,3-2,.06.06,1-1.44,2.14-1.44.64.25.74.61.22,1.1l-1.07,6.3c-1,.48-2.12.81-2.57,2.15-.65,2-1.82,1.9-3.1.47C171.5,37.52,172.23,35.79,173.26,34.1Z"/><path class="cls-114" d="M188.21,27.05c-.14,1.84-2.67,2.73-1.92,4.91-1.11,1-.68,3-2.5,3.51-.12.63-.44,1.31-1.12,1-.91-.48,0-1.25,0-1.89a10.93,10.93,0,0,0,2-5.86c.33-3.86,3.21-4.35,5.9-5.25.76-.25,1.53-.07,1.61.86.06.76.15,1.87-1.28,1.24C189.16,24.62,188.7,25.86,188.21,27.05Z"/><path class="cls-115" d="M182.67,34.53l.17,1.79.95-.85.55,1.26c-.23,3.54,1.89,7.06.13,10.62-1.53.82-3,.91-3.94-.8-.5-.89-.83-.41-1.27-.09a1.5,1.5,0,0,0-1.71-.22,9.18,9.18,0,0,1,.06-1.39,2.93,2.93,0,0,1,3.17-2.32c2.65,0,.4,2.65,2.2,4,.83-4-1.29-7.33-1.44-10.79-.06-.22,0-.34.1-.38a.28.28,0,0,1,.26,0Z"/><path class="cls-54" d="M172.92,39.26c1,.76,2,1.36,2.09-.72.07-2.59,1.58-2.3,3.27-1.68a1.16,1.16,0,0,1,.46.29c0,1-.73.81-1.32.86-.19.28-.59.74-.53.81,2.15,2.63-.34,2.92-1.83,3.71l-1-.71c-1.12-.07-1.93-.47-1.92-1.77A1.24,1.24,0,0,1,172.92,39.26Z"/><path class="cls-75" d="M181.42,27.45c-2.25-1.11-2.82,2.93-5.31,1.41,1.14-1.5.18-4,2.33-5.36-.18.69-.7,1.62-.44,2,.57.76,1.13-.28,1.72-.4,2.3-.5,1.95,1,1.66,2.4Z"/><path class="cls-116" d="M179.35,30.56l-.22-1.1a4.15,4.15,0,0,0,2.29-2h0c1,.94,2.37,1.74,1.17,3.46C181.23,32.82,180.45,30.34,179.35,30.56Z"/><path class="cls-91" d="M172.92,39.26l-.57,1.33c-.66-.1-1-.62-1.43-1.06l-.66-.55c1.29-1.57,1.61-3.57,2.39-5.37l.61.49C173.4,35.83,172,37.47,172.92,39.26Z"/><path class="cls-113" d="M177.42,38l1.32-.86c1.32-.14,1.15-2.86,3.16-1.82a1.58,1.58,0,0,0-.36.37c-1.28.3-1.7,1.48-2.36,2.37S178,39,177.42,38Z"/><path class="cls-107" d="M175.66,65.94c1-3.57,3.88-5.72,6.36-8.13.88-.86,2-1.37.87-2.75.39-1.33,1-2.46,2.65-2.3.47.11,1,.26,1.19.69a5.75,5.75,0,0,0,5.69,3.93,2.79,2.79,0,0,1,2.08,1.25c.58,1.58-.08,2.6-1.51,3.25-2.46-.29-3.51,2.5-5.8,2.62a3.27,3.27,0,0,1,1.14-3c-2.34.51-3.48,2.61-5.4,3.55-.9.94-1.12.34-1.22-.54.38-2,2-3.27,3.65-5.33-3.92,2.19-5.94,5.77-9.76,6.78Z"/><path class="cls-8" d="M175.6,66l8.51-7.52c.88-.79,1.82-1.24,2.77-.22,1.23,1.32-.4,1.63-.94,2-1.58,1.15-2.54,2.82-3.81,4.21-1.19.6-1.74,2.14-3.27,2.23Z"/><path class="cls-117" d="M196.5,64.28c-.89-.4-2.06.16-2.77-.82l0,0A3.76,3.76,0,0,1,196.32,60c2.29.54,4-1,5.91-1.72,1.42-.51,2.66-.86,3.88.3-.42,1.3-2.1,1.64-2.37,3.07a5,5,0,0,1-2.13,1.31C199.82,63.05,198,63,196.5,64.28Z"/><path class="cls-118" d="M196.32,60c0,1.78-1.44,2.51-2.56,3.47l-2.67.72c.06-1.59,1.34-1.56,1.9-2.26l1.28-2.73c-.13-.54-.64-1.11.09-1.61C196.54,57.11,196.08,58.82,196.32,60Z"/><path class="cls-92" d="M178.86,66.68c1.19-.59,1.08-3.09,3.27-2.23-.06.64.17.9.8.59C181.94,68.23,180.88,68.66,178.86,66.68Z"/><path class="cls-51" d="M138.55,10.69c1,0,.73,3.15,2.59,1.07a1.25,1.25,0,0,1,.92.24c.25.28.23.85.41.93,2.23,1.1,2.75,2.28.4,3.86-.32.21-.18.91-.62,1.21l-2,1c-1.64,0-1.37-1.19-1.46-2.19a3.59,3.59,0,0,0-1-2.83c-.76-1-1.46-2.17-.55-3.51C137.77,10.21,138.22,10.06,138.55,10.69Z"/><path class="cls-119" d="M138.73,18.89a23.18,23.18,0,0,0-1.62,8.22,3.35,3.35,0,0,1-.19,2.7c-.79,1.19-1.6,2.32-3.18,1a2.89,2.89,0,0,1-.24-2.28c.83-2.61,1.55-5.26,2.63-7.78C136.59,19.66,136.85,18.07,138.73,18.89Z"/><path class="cls-104" d="M138.73,18.89c-2.5,1.45-2.17,4.32-3.26,6.49-.56,1.13-.34,2.58-1.36,3.56-1.48-.94-.87-2.34-.53-3.46a34.61,34.61,0,0,1,2-5.95c.9-1.55-.52-2.74-.63-4.13,1.14-.51,1.78.78,2.79.77.63.14,1.53-.45,1.84.62.43.68-.62,1.85.73,2.23C139.74,19.42,139.23,19.18,138.73,18.89Z"/><path class="cls-120" d="M142.25,18c.1-.88-1-2.17.88-2.45.6-.1,1.15-.43.82-1.18-.1-.23-.61-.5-.8-.42-3.66,1.49-.44-1.3-1.06-1.68-.74-2.27,1.42-1.92,2.39-2.64h0c1.25.44.48,1.2.29,1.87-1.06,1.6,1.54,1.07,1.29,2.21.38,2.32-1,3.35-2.92,4Z"/><path class="cls-121" d="M139.31,25.53c-1.52-3,.08-4.52,2.54-5.84.43,2-1.49,2-2.18,3,1,.89,1.75-.08,2.57-.13s1.79-.78,1.72.75c0,.73-.13,1.77-1.44,1.29a2,2,0,0,0-2.69,1.06C139.6,25.85,139.42,25.81,139.31,25.53Z"/><path class="cls-122" d="M139.31,25.53c.13.24.3.29.52.15,1.18,1,4.47,1.71.48,3.44a1.88,1.88,0,0,1-2.62-.88c-.48-1,.36-1.67,1-2.31Z"/><path class="cls-56" d="M143.12,17.7c1-1.29,2.34-2.38,2.92-4l1.27.58c.36.67.52,1.3-.3,1.77C145.87,17,145.54,19.79,143.12,17.7Z"/><path class="cls-57" d="M138.7,25.93c-1.51,2.1-.45,2.9,1.61,3.19l.28,1.72a4.75,4.75,0,0,1-3,.66c-.75-.65-.35-1.77-1-2.47a1.88,1.88,0,0,1,.49-1.92A1.77,1.77,0,0,1,138.7,25.93Z"/><path class="cls-123" d="M147,16.05l.3-1.77,1.86-3.88C150.88,13.21,149.28,14.76,147,16.05Z"/><path class="cls-53" d="M211.46,44.9c-1.3,1.83-2.08,4.24-4.85,4.48-1.71,1.09-4.09,1.11-5.17,3.23-.23.46-1.16.34-.95,1.16.73,1.41,0,1.95-1.29,2.12-1,.12-2.29,0-2-1.23.77-3.35-1.81-2.33-3.29-2.77-1.56-2-1.23-3.46,1.08-4.5A6.41,6.41,0,0,0,197.06,46c1.54-1.06-.93-4,2.1-4.39l.48,0c1.62.63,2.51-1.15,4-1.19.15,1.06-.94,1.9-.41,3.11,1.41-1,1.58-3.79,4.26-3.22-.18,1.31-4.26,1.48-1.1,3.59,1.07.71,1.61.37,1.26-1a2.56,2.56,0,0,1,.69-2.56c.58-.61.42-2.59,2.1-1.54s-.28,1.34-.46,2c-.86,3.41,1.8,1.13,2.84,1.79C213.49,43.92,210.21,43.24,211.46,44.9Z"/><path class="cls-67" d="M203.32,61.33c.26-1.61,1.51-2.22,2.79-2.8,1.2-2.05,3.59-1.25,5.24-2.2l-.08,0c1.11.25.78,1.31,1.09,2,.83,1.84.93,3.21-1.73,2.11a1.8,1.8,0,0,0-2.46.55c-1.82,0,.23,1.28-.53,1.63C205.94,63,204.29,63.37,203.32,61.33Z"/><path class="cls-124" d="M194.07,51.89c1-.84,2.2-.64,3.52-.78l.17,4.59c1.08-.77,2.44-.53,2.73-1.93,1.15.46,2,1.27.94,2.35a2.67,2.67,0,0,1-3.47.51c-1.41-.9-1.61-2.23-1.14-4.23-1.53,1.33-3,1.8-3.72,3.19l-.44-.19a2.16,2.16,0,0,1-.17-1.84,3,3,0,0,1,1.22-1.38C193.82,52.08,194,52,194.07,51.89Z"/><path class="cls-125" d="M194.36,57.54l-.09,1.61c-.72-.33-1.17-1.1-2.13-1.08-2.69.06-5.19-.2-5.72-3.67-.14-.95-1.36-.65-2-1,.6-1.92,1.87-2.4,3.68-1.71.92.65.47,1.62.56,2.45.66,3.06,3.11.82,4.55,1.54l-.08,0Z"/><path class="cls-126" d="M208.17,61c-.07-2.4-.07-2.4,4.29-.9-2-.83-.69-2.54-1.19-3.76,2.65-1.1,5.7-1.45,7.49-4.16.56,2.3.33,3.22-1.63,3.5s-2.67,1.18-3,3.1C213.35,62.8,211.94,63.25,208.17,61Z"/><path class="cls-75" d="M203.32,61.33c1.11,1.55,3.16-.13,4.32,1.26,0,1.64,2.21,3.63-.76,4.81-.06-2-1.57-.5-2.32-.93a6,6,0,0,1-2.94-2.89,1.16,1.16,0,0,1-.28-1.25C201.76,61.51,202.68,61.7,203.32,61.33Z"/><path class="cls-93" d="M125,41.5c.92-3.81-1.59-6.78-2.46-10.16l1-1.45c1.37-.85,2.87-1.57,3.28-3.5-.77-.45-1.71,1.56-2.33-.09a4.7,4.7,0,0,1,1.65-4.76l1.56,3.72c2.44.85,4.55,1.92,3.59,5.14-1.11,3.89-2.19,7.79-3.35,11.67-.29,1-.47,2.37-2,2-2-.46.09-1.7-.34-2.5a.38.38,0,0,0-.26-.12A2.2,2.2,0,0,0,125,41.5Z"/><path class="cls-127" d="M135.56,19.53c.71,2-.54,3.55-1,5.31-.32,1.32-1.23,2.64-.47,4.1l-.28,1.6a1.57,1.57,0,0,1-1.43.79l-.65-1.6c-.69-1.07-.33-2.69-1.75-3.38,1.72-2.33-1.36-4.93.42-7.25a1.48,1.48,0,0,0,.2-1.64c-.39-1.19-2.18-2.79-.38-3.41a3.72,3.72,0,0,1,4,2.69A9.79,9.79,0,0,0,135.56,19.53Z"/><path class="cls-123" d="M137.46,17c-1.56.57-1.33-1.65-2.53-1.64-.33-2.56-.07-5.37-3-6.82l3.51-2.4c1.59-.5.72,2.32,2.36,1.76l.7,2.75-1.08.1c-1.39,1.18-.05,2.24.23,3.29S139,16.15,137.46,17Z"/><path class="cls-68" d="M130.42,19.1c-1.34,2.68,2.12,3.37,2.07,5.86-.22.45-3.72.26-.73,2.39.37.27,0,1.56,0,2.38l-.49.67c.4-2.83-2.4-3.42-3.59-5.14a1.54,1.54,0,0,0,1.65-.8c0-1.56-1.15-2.77-1.28-4.29Z"/><path class="cls-126" d="M128,20.17c1,1.27,3.36,2.12,1.28,4.29C128.29,23.21,126.79,22.1,128,20.17Z"/><path class="cls-112" d="M145.27,8.55c-2.66-.33-2.7-3.31-2-3.89,1.18-1,1-2.72,2.5-3.56,1.14,2.28,1.9,4.48.59,6.92A.89.89,0,0,1,145.27,8.55Z"/><path class="cls-64" d="M145.27,8.55,146.34,8c1.5,2.21,1.31,2.62-1.59,3.47l-.3-1.87Z"/><path class="cls-64" d="M144.48,9.63c-.18,1.44-2.56.88-2.39,2.64l-1-.51C140.62,8.48,142.67,9.25,144.48,9.63Z"/><path class="cls-56" d="M116.14,26.63c-.85-1.18-2-2.24-1.53-3.95a2.53,2.53,0,0,1,2.1-.2c1.36,1.36,1.13,3,.87,4.68Z"/><path class="cls-124" d="M117.58,27.16l-.87-4.68c.51-.85-.15-2.16,1.09-2.71l.8,2.24C117.34,23.54,118.7,25.6,117.58,27.16Z"/><path class="cls-96" d="M203.11,37.93c0,2.35-2.63,2.19-3.47,3.73h.09c-4.13.58-4.13.58-3.16,3.59-.14,4-3.23,1.68-4.95,2.29-1.19,0-2.59,1.59-3.53-.43.51-2.15,2.75-3,3.68-4.78a11.09,11.09,0,0,1,1.52-1.62c1.38-.85,2.08-2.45,3.5-3.25a1.7,1.7,0,0,1,1-.07c1.13,2.2,2.37.43,3.57.08A1.46,1.46,0,0,1,203.11,37.93Z"/><path class="cls-128" d="M203.11,37.93l-1.34-.1c-1.16-.63-2.28-1.3-2.27-2.87A3.52,3.52,0,0,1,202,32.21l.7-.91c.6.08,1.55-.34.92,1a7.52,7.52,0,0,0-.45,4.85C203.18,37.44,203.15,37.68,203.11,37.93Z"/><path class="cls-88" d="M164.52,28.52q-2.07,4.29-4.16,8.57l-.73-.41c-1.48-1.59-.47-3,.42-4.31,1.44-2.14,3-4.19,4.53-6.27Z"/><path class="cls-64" d="M166.1,18.18c-1.32-.08-3.47-.44-3.16-1.49.52-1.75,1.31-4.22,4.17-3.89C166.33,14.51,167.18,16.52,166.1,18.18Z"/><path class="cls-129" d="M158.22,98.87l-2.72,1.61c-.45-2-.08-3.15,2-3.14A1.51,1.51,0,0,0,158.22,98.87Z"/><path class="cls-130" d="M201.34,62.33l.28,1.25-3.47.29c-.72,1.14,4.2,2.49-.12,3.48-1.41-.57-1.06-2-1.53-3.07C197.54,62.22,199.39,62.15,201.34,62.33Z"/><path class="cls-131" d="M184,47.25c1.17-1.89,0-3.67-.3-5.48s-.75-3.49.6-5c2.31-1.92,2.84,1.32,4.43,1.59.48.08.7,1.26,1.58.56-1-1.1,2.38-2.41-.18-3.43a3.41,3.41,0,0,1,2.44-2.64,2.37,2.37,0,0,1,.92,2.2c-.14,1-.23,2-.28,2.94a14.24,14.24,0,0,1-.7,3c-1.52,3.84-5.23,5.89-7.45,9.15l-.53.14-.68-.11C184.06,49.19,182.17,48.12,184,47.25Z"/><path class="cls-89" d="M192.76,37.55a2.42,2.42,0,0,1,.16-2.55,7.71,7.71,0,0,1,4.16-3.31l-.08,0,1.66.27a2.21,2.21,0,0,1,0,1.17,8.68,8.68,0,0,1-2.42,3.3C195.11,36.92,194.4,38.7,192.76,37.55Z"/><path class="cls-132" d="M198.23,32.7l.43-.72c1.17-.66,2.26,0,3.38.23l-2.42,3.45a1.78,1.78,0,0,1-1.7,2.1l-.23-.23-.26-.18c0-.16-.06-.31-.1-.47C197.45,35.45,198.44,34.21,198.23,32.7Z"/><path class="cls-123" d="M197.08,31.69c-1.23,1.3-2.37,2.71-4.16,3.31l-.31-2.19A5.28,5.28,0,0,1,197.08,31.69Z"/><path class="cls-133" d="M93.83,77.22a.53.53,0,0,1,.3-.59l7.75,5.61C97.77,82,95.79,79.62,93.83,77.22Z"/><path class="cls-134" d="M117.36,53.32a4.56,4.56,0,0,0,.38-.59c1.93.39,4.19.41,4.1,3.83Z"/><path class="cls-135" d="M132.4,31.33l1.43-.79c1.85,1.2,2.14-.48,2.79-1.51,2.49-.05.9,1.55,1,2.47-.37.34-1.18-.07-1.28.75-.45,1.45-1.73,2.38-2.37,3.72-.24.42.73.13.25.13-.18,0-.23-.15-.05-.35,1.1-1.16,1.55-4.22,4-1.36,1,1.15,1.87,1.25,2.77-.17.53-.83.9-1.88,2.21-2.33-.74,2.55-3.93,3.87-2.85,6.91-1.27,1-2,3.07-4.27,2.22-.81-1.44-1.11,0-1.61.29.25,0,.21-.25.37-.34,1.3-.78,1.28.12,1.29,1-.68,1.72-1.44,3.36-3.6,3.58-.54-3.34-1.86,1.68-2.53-.23,1.76-2.55,3-5.41,4.76-7.43-1.86,1.34-2,4.57-4.5,6l-.19-.15-.2-.14c-.3-3.35,1.8-5.94,2.79-8.89.24-.7,1.29-1.26.38-2.16C132.59,32.27,132.21,31.94,132.4,31.33Z"/><path class="cls-75" d="M136,41.05a3.67,3.67,0,0,0,2.83-2.48c.5-1.18,1,.08,1.48.23l0-.11c.68,1.6.28,2.75-1,4.06-1.77,1.83-3.89,3.37-5.17,5.65l-.87,1.29c.19-1.47-3.17-2.23-.82-4.13L136.1,41Z"/><path class="cls-58" d="M130.23,43.92c2.11-3.12,3.36-6.9,6.86-9A45.93,45.93,0,0,1,130,45.33Z"/><path class="cls-136" d="M133,32.58c.39-.34.55-1.17,1.33-.75s.45.94,0,1.43c-2.49,3-3.22,6.83-4.54,10.37-.25.25-.5.71-.76.72-.79,0-.41-.47-.32-.9C129.53,39.57,131.53,36.18,133,32.58Z"/><path class="cls-137" d="M122.43,47.6c-1.66,2.46-4,2.74-6.06,3.61A8.41,8.41,0,0,1,122.43,47.6Z"/><path class="cls-138" d="M119.55,126.08c.78.32,2,.43.71,1.65-2-.86-3,1.07-4.52,1.64-1.23.46-2.36,1.21-3.65,1.62A19,19,0,0,1,119.55,126.08Z"/><path class="cls-75" d="M51,160l3-.86-2.41,2.4a6.88,6.88,0,0,1-3.22,2c-.81-.92.51-1.72.09-2.56C48.83,159.3,50.55,161.32,51,160Z"/><path class="cls-56" d="M114.46,30.58c-1.78.91-3.15-.86-4.82-.74.81-1.49,1.74-2.63,3.76-2.32,1,.16,2.32-.13,2.68,1.09S114.6,29.56,114.46,30.58Z"/><path class="cls-139" d="M158.54,90c2.22-.46,3.57.91,6,1.78C161.7,92,160,91.64,158.54,90Z"/><path class="cls-140" d="M162.27,84.87c2.63.52,4.2.66,5.27,2.41C165.68,87.19,164.34,86.49,162.27,84.87Z"/><path class="cls-141" d="M161.39,50.56c-.2-.86-.4-.88-1.56-.22-.05-1.12,1.72-1.74.84-3.09h-.18l-.13-.13c.06-1.23,1-1.67,1.94-2,.57,2.1,1.88-.71,2.6.39a1.72,1.72,0,0,0-.53,1.59C163.24,48.11,163.27,50.15,161.39,50.56Z"/><path class="cls-32" d="M134.19,48.4c0-2.93,2.68-3.84,4.24-5.51a6,6,0,0,0,1.92-4.2c1.5,1.47,1.36,2.8-.21,4.16C138.09,44.63,136.84,47.26,134.19,48.4Z"/><path class="cls-142" d="M138.19,34.39c-3.07-2.41-2.87,2.2-4.81,2.19.53-1.73,1.85-3,3-4.33C137,32.89,138.07,33.25,138.19,34.39Z"/><path class="cls-21" d="M188.35,47.71l3.18-1c1.77,1.38,1.46,3.84-.72,5.8-.83.32-1.66.7-2.35-.26-1.65-.71-2.87.16-4.06,1.13a1.74,1.74,0,0,1-1.51,1.71c-1.6-2.36,1-3.24,1.68-4.8l-.08,0C186.24,50.12,186.4,47.58,188.35,47.71Z"/><path class="cls-75" d="M184,47.25c-1.08.92,1,2-.15,2.9-.81,1.75-1.95.6-2.81.18-1.55-.76-2.63-1.92-1.82-3.87.16-.91-1.33-2.38.62-2.63,1.59-.21.73,1.3.87,2C181.17,48,182.86,47,184,47.25Z"/><path class="cls-30" d="M156.71,34.44c1-1.48.33-2.48-.94-3.31l.95-.18c1.79,1.55,1.95-.55,2.75-1.23.88.13,1.23.57.71,1.37-.75,1.15-1.55,2.27-2.33,3.4-1.88,1.83-2.5,4.76-5.19,5.87l3.43-5.14Z"/><path class="cls-42" d="M164.9,45.48c-1.36,1-3.37.15-4.54,1.65l-5.12,4.12c-.77-.87.94-1.74,0-2.61,1.62-1.47,2.42-3.7,4.49-4.74.16.11.32.22.47.34L159,46.49l8.34-6.84C167.9,42.17,168.49,44.7,164.9,45.48Z"/><path class="cls-143" d="M170.92,39.53c.94-.29,1,.57,1.43,1L174,41.82c-.65.74-1.29.6-2.06.12-1.13-.7-1.93-.2-2.41.94C168.83,41.29,170.47,40.65,170.92,39.53Z"/><path class="cls-31" d="M169,31.48l-4.45,3c-.19-3.79,2.43-3.21,4-3.93Z"/><path class="cls-42" d="M137.46,17c.7-2.37-1.69-4.19-1.16-6.52.07-.32-.1-1.16.71-.64.24.15.31.59.46.91.47,1.22-.29,2.94,2,3.43,1.37.3.38,1.67.13,2.57Z"/><path class="cls-39" d="M189.72,52.22l2.61-1.9c-.53-1-2-.51-2.38-1.62,2.45-1,2.45-1,1.58-2,.66-.94,1.14-.52,1.95,0,1.44.92,2,.54,2.65-1.37,1.39-.73,1.52-.64,1.66,1.19-.54.43-1,1.09-1.64,1.24-2.44.58-2.85,2-2.08,4.16v-.1C192.77,53.46,191.28,53.21,189.72,52.22Z"/><path class="cls-32" d="M197.79,46.49c-.29-.76-.45-1.71-1.66-1.19-2.09.17-1.59-1.11-1.23-2.26A2.44,2.44,0,0,1,198,41.17c.53.17,1.36-.22,1.74.5l-2.5,1.76C200.43,44.11,199.4,45.28,197.79,46.49Z"/><path class="cls-144" d="M199.75,48.88c1.58-1.11,1.39-4.35,4.33-3.53,1.69.47,1,2.67.88,2.81C203.67,50.15,201.64,48.82,199.75,48.88Z"/><path class="cls-130" d="M193.18,55.63c-2.11.91-4.44,2.81-5.47-1.2,1.45-1.8,3.19-1.84,5.1-.84Z"/><path class="cls-121" d="M192.81,53.59c-1.66.53-3.52-.19-5.1.84-.72-1.07.25-1.56.75-2.21h1.26c1.41-.59,3,1,4.36-.43C195.07,53.39,193.29,53,192.81,53.59Z"/><path class="cls-55" d="M188.35,47.71c-1.15,1.06-1.85,2.8-3.86,2.58,1.4-2.25,2.78-4.52,5-6,1.37-.92,1.7-2.45,2.24-3.85,1.92.23.88,1.4.73,2.28Z"/><path class="cls-145" d="M197.92,37.76l1.7-2.1c.76.67,2.42.47,2.15,2.17A4.88,4.88,0,0,1,197,39.59Z"/><path class="cls-47" d="M192.51,42.67c-.2-.77.19-1.73-.73-2.28l1-2.84c1.61.8,1.51-1.73,2.84-1.46a1.85,1.85,0,0,1,.06,1c.42,1-2.55,1.35-.62,2.8.11.09-.54,1-1.09,1.24Z"/><path class="cls-146" d="M194,41.12c-.41-.37,1.41-1.07-.09-1.13-1.16-.05-.72-.46-.41-.9.61-.83,1.28-1.62,1.92-2.43.91-.37,1.75-.55,2.06.74v0C196.33,38.67,195.69,40.4,194,41.12Z"/><path class="cls-90" d="M186.54,43.88a5,5,0,0,1,.29-5.84Q186.7,41,186.54,43.88Z"/><path class="cls-122" d="M197.43,37.4c-.5-.75-1.4-.42-2.06-.74.08-.19.16-.38.23-.57l2.63-3.39C200,34.61,198.14,35.91,197.43,37.4Z"/><path class="cls-103" d="M136.1,41c-1.35-.14-1.51,1.79-2.95,1.68a9.52,9.52,0,0,1,3.62-4.43c.79,1.34-.48,2-.76,2.81Z"/></g></g></svg>